<svg width="296" height="191" viewBox="0 0 296 191" fill="none" xmlns="http://www.w3.org/2000/svg">
<path d="M149.622 25.4721C149.622 31.0033 145.136 35.4892 139.602 35.4892C134.067 35.4892 129.581 31.0033 129.581 25.4721C129.581 19.9409 134.067 15.4551 139.602 15.4551C145.136 15.4551 149.622 19.9409 149.622 25.4721Z" fill="#FF92B2"/>
<path d="M177.46 158.84C175.062 162.513 160.874 174.653 148.691 171.775C137.725 169.187 126.351 165.088 120.082 155.36C114.276 146.349 111.268 134.156 110.599 123.577C109.149 100.711 124.357 81.2816 148.186 81.7327C151.988 81.8043 154.602 80.0107 156.026 77.501C163.652 77.8233 170.486 79.8532 174.782 87.7186C180.16 97.5638 183.128 109.647 184.685 120.673C186.686 134.868 185.379 146.707 177.46 158.84ZM203.72 109.41C201.067 95.7272 194.92 80.0501 185.097 69.5891C175.026 58.8632 159.947 58.1185 146.185 58.788C142.397 58.9742 135.763 60.2415 132.971 61.2726C111.909 69.0664 100.872 80.6014 94.4205 100.328C86.9597 123.133 92.9742 157.709 109.89 175.165C124.941 190.696 161.397 195.876 182.082 183.919C193.073 177.568 198.672 164.375 202.689 153.366C207.644 139.791 206.416 123.312 203.72 109.41Z" fill="#E6EBF2"/>
<path d="M92.7675 190.789H75.2359C74.6845 190.789 74.2406 190.342 74.2406 189.79C74.2406 189.239 74.6845 188.795 75.2359 188.795H92.7675C93.172 188.792 102.724 188.688 102.724 181.334C102.724 180.718 102.638 179.272 102.516 177.231C101.188 154.659 100.654 128.242 108.387 124.279C108.874 124.028 109.479 124.221 109.73 124.712C109.98 125.202 109.787 125.804 109.297 126.054C104.277 128.625 102.666 145.806 104.51 177.113C104.632 179.215 104.718 180.701 104.718 181.334C104.718 188.813 96.9025 190.789 92.7675 190.789Z" fill="#FF92B2"/>
<mask id="mask0_284_8690" style="mask-type:luminance" maskUnits="userSpaceOnUse" x="190" y="121" width="72" height="70">
<path d="M190.914 121.357H261.173V190.972H190.914V121.357Z" fill="white"/>
</mask>
<g mask="url(#mask0_284_8690)">
<path d="M254.074 190.972C252.578 190.972 251.16 190.922 250.308 190.775C248.958 190.538 247.161 189.951 245.26 189.328C242.854 188.541 240.13 187.646 238.536 187.599C235.826 187.503 234.781 188.022 233.417 188.662C232.694 188.999 231.874 189.386 230.768 189.69C228.05 190.453 226.611 190.789 225.272 190.789H207.114C206.967 190.789 202.925 190.9 200.563 188.501C199.385 187.306 198.841 185.738 198.934 183.829L198.969 183.146C200.752 149.271 197.999 126.931 191.595 123.38C191.111 123.111 190.939 122.506 191.208 122.023C191.476 121.543 192.085 121.364 192.565 121.636C202.406 127.092 202.052 162.582 200.96 183.249L200.924 183.93C200.86 185.269 201.207 186.307 201.98 187.094C203.731 188.877 207.035 188.791 207.086 188.795H225.272C226.379 188.795 227.696 188.48 230.231 187.771C231.179 187.506 231.888 187.173 232.572 186.855C234.051 186.16 235.425 185.508 238.597 185.605C240.477 185.662 243.226 186.561 245.883 187.431C247.716 188.032 249.441 188.598 250.648 188.809C252.506 189.128 258.084 188.906 260.074 188.795C260.704 188.788 261.098 189.189 261.127 189.736C261.159 190.284 260.736 190.753 260.189 190.785C259.992 190.8 256.891 190.972 254.074 190.972Z" fill="#FF92B2"/>
</g>
<path d="M79.0911 49.3758C78.2462 37.3145 59.3398 37.2215 60.1918 49.3758C62.4151 81.1418 64.0512 105.243 65.4044 137.08C64.6168 136.887 63.7648 136.78 62.8339 136.794C48.9146 137.005 35.0311 136.622 21.1619 135.681C29.1562 110.133 47.9587 96.0098 52.91 69.2202C55.1046 57.3343 36.8927 52.2399 34.6838 64.1973C29.0488 94.6816 5.67091 111.068 0.204142 141.688C-0.941481 148.118 2.82118 153.055 9.31901 153.649C27.1299 155.278 44.9515 155.958 62.8339 155.686C64.0082 155.668 65.0679 155.471 66.013 155.138C66.2386 164.017 66.3782 172.899 66.3174 181.785C66.2279 193.946 85.1306 193.957 85.2166 181.785C85.5495 135.008 82.3597 96.0027 79.0911 49.3758Z" fill="#E6EBF2"/>
<mask id="mask1_284_8690" style="mask-type:luminance" maskUnits="userSpaceOnUse" x="209" y="41" width="87" height="150">
<path d="M209.666 41.3066H296V190.936H209.666V41.3066Z" fill="white"/>
</mask>
<g mask="url(#mask1_284_8690)">
<path d="M288.572 50.4188C287.727 38.3575 268.817 38.2644 269.669 50.4188C271.896 82.1848 274.817 105.129 276.174 136.963C275.386 136.77 274.534 136.663 273.6 136.677C259.68 136.888 245.034 137.866 231.165 136.924C240.871 113.972 253.383 96.3046 262.387 70.2667C266.339 58.8427 248.607 53.9201 244.164 65.2439C232.518 94.9048 219.687 113.972 210.207 142.935C208.177 149.139 212.821 154.298 219.322 154.892C237.129 156.525 255.717 155.841 273.6 155.569C274.778 155.551 275.834 155.354 276.782 155.021C277.008 163.904 277.148 172.786 277.083 181.671C276.997 193.829 295.896 193.84 295.986 181.671C296.319 134.891 291.84 97.0457 288.572 50.4188Z" fill="#E6EBF2"/>
</g>
<path d="M158.533 121.167H139.669C136.075 121.167 133.92 118.707 133.512 114.547C133.512 114.547 133.501 102.597 133.154 98.8381C132.463 91.3378 129.599 83.0678 129.599 83.0678C129.115 78.1739 131.331 75.0485 135.559 75.0485L161.246 74.9053C162.829 74.9053 164.282 75.5103 165.453 76.5199C167.404 78.2097 169.09 80.5582 168.188 84.6502C168.188 84.6502 165.439 94.8964 165.048 98.8381C164.68 102.594 164.458 114.547 164.458 114.547C164.046 118.707 162.127 121.167 158.533 121.167Z" fill="#00D4FF"/>
<path d="M156.589 80.9346C156.61 84.2462 158.694 86.899 161.11 87.0422C165.356 87.2677 169.405 88.0231 172.692 89.5948C174.307 90.4003 175.703 91.4063 176.863 92.602C178.008 93.8085 178.832 95.2943 179.526 96.9017C180.106 98.5271 180.6 100.518 180.855 102.512C181.134 104.506 181.213 106.582 181.191 108.727C181.155 113.019 180.643 117.587 180.565 122.51C180.5 125.381 182.322 128.098 185.612 127.733C185.928 127.705 186.235 127.658 186.536 127.594C189.343 126.917 192.501 124.762 192.54 122.675C192.586 118.554 193.102 113.936 193.163 108.852C193.188 106.314 193.102 103.654 192.73 100.936C192.357 98.2084 191.777 95.5628 190.689 92.5734C189.5 89.6807 187.868 86.8166 185.605 84.4216C183.35 82.048 180.679 80.1828 177.944 78.8367C172.431 76.2161 166.824 75.228 161.733 74.9272C158.744 74.7554 156.564 77.6409 156.589 80.9346Z" fill="#00D4FF"/>
<path d="M192.662 119.248C192.662 119.248 193.027 122.535 192.554 124.837C192.189 126.648 189.883 127.582 188.698 127.189C188.698 127.189 188.079 127.933 186.737 128.281C185.043 128.717 184.46 127.729 183.94 127.765C183.89 127.912 183.275 128.9 181.427 128.911C179.598 128.921 179.079 126.82 179.05 126.111C178.864 123.387 180.436 121.776 180.436 121.776C184.492 121.249 188.595 119.62 192.662 119.248Z" fill="#00D4FF"/>
<path d="M180.876 115.672C180.837 116.327 179.308 118.282 178.467 119.674C177.618 121.046 177.407 123.079 180.751 124.146L180.876 115.672Z" fill="#00D4FF"/>
<path d="M183.891 127.912C183.855 127.912 183.823 127.908 183.791 127.905C183.519 127.847 183.347 127.582 183.4 127.314C183.565 126.508 183.458 125.678 183.454 125.671C183.422 125.399 183.612 125.144 183.884 125.109C184.181 125.069 184.406 125.266 184.446 125.538C184.453 125.578 184.578 126.541 184.378 127.514C184.328 127.751 184.12 127.912 183.891 127.912Z" fill="#6265C7"/>
<path d="M188.752 127.146C188.727 127.146 188.699 127.143 188.674 127.139C188.398 127.092 188.215 126.838 188.262 126.566C188.427 125.571 188.319 124.955 188.319 124.948C188.269 124.676 188.448 124.418 188.717 124.368C188.985 124.318 189.25 124.49 189.3 124.762C189.307 124.794 189.447 125.542 189.246 126.731C189.203 126.974 188.992 127.146 188.752 127.146Z" fill="#6265C7"/>
<path d="M141.065 80.9127C140.951 82.5596 140.306 84.0417 139.526 85.1014C138.728 86.1897 137.75 86.8592 136.597 87.0096C132.591 87.4249 128.51 88.6528 125.181 90.5861C121.801 92.505 119.359 95.1972 118.45 98.2904C118.267 98.6556 118.282 99.0923 118.185 99.4897C118.113 99.9014 118.003 100.252 117.985 100.814C117.881 101.842 117.852 102.88 117.827 103.922C117.82 106.013 117.985 108.146 118.246 110.334C118.769 114.709 119.739 119.313 120.29 124.267C120.63 127.149 119.091 130.035 115.783 130.021C115.468 130.028 115.156 130.01 114.852 129.978C111.988 129.598 108.626 127.69 108.386 125.571C107.935 121.396 106.979 116.839 106.36 111.773C106.052 109.242 105.845 106.589 105.852 103.865C105.88 102.497 105.923 101.126 106.056 99.7439C106.077 99.121 106.249 98.1973 106.396 97.3739C106.571 96.5362 106.657 95.6913 106.972 94.8786C107.896 91.5241 109.783 88.5383 111.916 86.0716C114.075 83.562 116.61 81.7505 119.166 80.2325C121.737 78.7074 124.4 77.6513 127.092 76.7992C129.785 75.9436 132.248 75.3636 135.072 75.0629C136.694 74.8624 138.552 75.5533 139.601 76.6381C140.675 77.7479 141.183 79.2623 141.065 80.9127Z" fill="#00D4FF"/>
<path d="M107.516 119.507C107.516 119.507 107.91 122.904 108.057 124.15C108.197 125.385 108.426 126.778 108.934 127.587C109.987 129.27 111.974 129.857 113.13 129.595C113.13 129.595 113.696 130.627 115.074 130.741C117.057 130.906 117.68 129.907 117.97 129.828C118.178 130.025 118.765 130.533 120.175 130.394C122.127 130.204 122.316 127.82 122.119 127.068C121.486 124.408 120.347 123.517 120.347 123.517C116.198 122.804 111.666 119.958 107.516 119.507Z" fill="#00D4FF"/>
<path d="M119.202 116.749C119.306 117.411 120.72 118.99 121.694 120.318C122.671 121.625 123.487 124.536 120.261 125.928L119.202 116.749Z" fill="#00D4FF"/>
<path d="M112.873 129.591C112.694 129.595 112.515 129.523 112.425 129.394C111.702 128.36 111.928 127.232 111.946 127.178C111.999 126.971 112.261 126.827 112.522 126.849C112.794 126.877 112.973 127.071 112.927 127.286C112.927 127.286 112.755 128.216 113.303 129.018C113.431 129.204 113.342 129.444 113.102 129.545C113.027 129.577 112.952 129.591 112.873 129.591Z" fill="#6265C7"/>
<path d="M117.921 129.956C117.742 129.96 117.563 129.877 117.473 129.734C116.746 128.581 116.983 127.36 116.993 127.3C117.043 127.074 117.308 126.92 117.57 126.949C117.842 126.981 118.024 127.196 117.978 127.428C117.978 127.428 117.799 128.434 118.35 129.329C118.483 129.534 118.39 129.795 118.15 129.906C118.078 129.938 117.999 129.956 117.921 129.956Z" fill="#6265C7"/>
<path d="M148.2 72.8687H151.333C152.747 72.8687 153.9 71.7159 153.9 70.3054V64.1083C153.9 62.6977 152.747 61.5449 151.333 61.5449H148.2C146.786 61.5449 145.633 62.6977 145.633 64.1083V70.3054C145.633 71.7159 146.786 72.8687 148.2 72.8687Z" fill="#00D4FF"/>
<path d="M144.456 66.1414C144.456 66.7285 144.996 67.2047 145.662 67.2047C146.328 67.2047 146.869 66.7285 146.869 66.1414C146.869 65.5543 146.328 65.0781 145.662 65.0781C144.996 65.0781 144.456 65.5543 144.456 66.1414Z" fill="#00D4FF"/>
<path d="M152.668 66.1414C152.668 66.7285 153.205 67.2047 153.871 67.2047C154.537 67.2047 155.078 66.7285 155.078 66.1414C155.078 65.5543 154.537 65.0781 153.871 65.0781C153.205 65.0781 152.668 65.5543 152.668 66.1414Z" fill="#00D4FF"/>
<path d="M150.416 71.4789C149.908 71.4789 149.389 71.2426 149.31 71.2068C149.185 71.1495 149.131 70.9991 149.188 70.8774C149.249 70.7521 149.4 70.6984 149.521 70.7557C149.847 70.9061 150.459 71.0815 150.731 70.9096C150.771 70.8846 150.892 70.8058 150.892 70.4872C150.892 70.0826 150.806 69.7211 150.692 69.2592C150.585 68.826 150.456 68.2855 150.37 67.573C150.352 67.437 150.448 67.3117 150.585 67.2974C150.717 67.283 150.846 67.3761 150.864 67.5122C150.946 68.1959 151.071 68.6972 151.175 69.1375C151.293 69.6137 151.394 70.0254 151.394 70.4872C151.394 70.9777 151.175 71.2175 150.996 71.3321C150.824 71.4395 150.62 71.4789 150.416 71.4789Z" fill="#6265C7"/>
<path d="M162.901 190.041C159.707 190.041 157.201 190.12 157.019 187.563L152.322 116.18C152.1 112.811 154.652 109.901 158.025 109.679C161.397 109.471 164.304 112.01 164.526 115.378L169.012 183.529C169.098 184.853 171.797 190.041 170.562 190.041C166.055 190.041 163.037 190.041 162.901 190.041Z" fill="#00D4FF"/>
<path d="M135.205 190.041C138.402 190.041 140.905 190.12 141.091 187.563L145.788 116.18C146.01 112.811 143.457 109.901 140.085 109.679C136.712 109.471 133.802 112.01 133.58 115.378L129.098 183.529C129.008 184.853 122.321 190.041 123.556 190.041C128.063 190.041 135.073 190.041 135.205 190.041Z" fill="#00D4FF"/>
<path d="M122.728 139.823C122.728 139.858 122.746 139.88 122.75 139.916H122.546C121.983 139.916 121.522 140.378 121.522 140.94C121.522 141.502 121.983 141.964 122.546 141.964H128.087C128.653 141.964 129.115 141.502 129.115 140.94C129.115 140.378 128.653 139.916 128.087 139.916H127.661C127.661 139.88 127.679 139.858 127.679 139.823C127.679 136.636 122.728 136.633 122.728 139.823Z" fill="#FF92B2"/>
<path d="M170.969 126.917C170.944 126.942 170.941 126.974 170.916 126.999L170.776 126.856C170.375 126.455 169.724 126.455 169.326 126.856C168.925 127.254 168.925 127.905 169.326 128.302L173.243 132.223C173.64 132.62 174.295 132.62 174.693 132.223C175.09 131.822 175.09 131.17 174.693 130.773L174.388 130.468C174.417 130.447 174.446 130.443 174.471 130.418C176.723 128.166 173.225 124.662 170.969 126.917Z" fill="#FF92B2"/>
<path d="M169.137 131.467C168.947 131.467 168.754 131.396 168.607 131.249C168.317 130.955 168.317 130.483 168.607 130.189L170.343 128.453C170.637 128.163 171.113 128.163 171.406 128.453C171.693 128.746 171.693 129.219 171.406 129.513L169.666 131.249C169.52 131.396 169.33 131.467 169.137 131.467Z" fill="#FF92B2"/>
<path d="M170.827 133.157C170.637 133.157 170.444 133.082 170.297 132.938C170.007 132.645 170.007 132.172 170.297 131.879L172.033 130.142C172.327 129.852 172.803 129.852 173.097 130.142C173.387 130.436 173.387 130.908 173.097 131.202L171.357 132.938C171.21 133.082 171.017 133.157 170.827 133.157Z" fill="#FF92B2"/>
<path d="M173.519 128.546C173.379 128.546 173.247 128.517 173.114 128.46C172.609 128.238 172.38 127.647 172.606 127.143C172.677 126.982 174.424 123.169 179.655 122.739C180.192 122.707 180.686 123.104 180.733 123.652C180.776 124.203 180.367 124.683 179.82 124.73C175.756 125.063 174.442 127.923 174.428 127.952C174.263 128.324 173.898 128.546 173.519 128.546Z" fill="#FF92B2"/>
<path d="M125.321 139.032C125.292 139.032 125.267 139.028 125.242 139.028C124.69 138.985 124.282 138.505 124.322 137.958C124.844 131.259 123.581 128.399 122.431 127.178C121.554 126.247 120.691 126.258 120.681 126.258C120.205 126.254 119.678 125.846 119.657 125.302C119.635 124.762 120.036 124.3 120.58 124.267C120.745 124.257 122.303 124.207 123.792 125.714C125.933 127.887 126.781 132.058 126.312 138.112C126.273 138.634 125.836 139.032 125.321 139.032Z" fill="#FF92B2"/>
<path d="M120.061 126.871C119.9 126.871 119.739 126.788 119.642 126.638C119.56 126.513 118.854 125.363 119.327 124.422C119.613 123.853 120.229 123.53 121.16 123.466C121.403 123.434 121.672 123.652 121.693 123.928C121.711 124.204 121.504 124.44 121.228 124.461C120.849 124.49 120.365 124.579 120.218 124.869C120.029 125.253 120.376 125.94 120.483 126.101C120.63 126.334 120.562 126.642 120.329 126.792C120.247 126.846 120.154 126.871 120.061 126.871Z" fill="#6265C7"/>
<path d="M180.511 125.46C180.404 125.46 180.293 125.428 180.203 125.356C179.985 125.184 179.949 124.873 180.117 124.654C180.354 124.357 180.608 123.935 180.49 123.634C180.354 123.273 179.695 123.051 179.401 123C179.129 122.954 178.947 122.696 178.993 122.424C179.036 122.152 179.301 121.966 179.566 122.016C179.716 122.041 181.037 122.288 181.42 123.269C181.65 123.863 181.478 124.536 180.905 125.27C180.805 125.396 180.658 125.46 180.511 125.46Z" fill="#6265C7"/>
<path d="M112.435 19.6398C112.937 19.0491 115.715 17.2233 117.838 17.9715C119.746 18.6446 121.701 19.5897 122.632 21.4084C123.491 23.0946 123.788 25.2784 123.698 27.1329C123.505 31.139 121.819 32.9183 117.67 34.0067C117.093 34.157 115.407 34.0317 114.619 33.8205C113.123 33.4195 112.489 32.8574 111.644 31.608C110.542 29.9683 110.449 28.0816 110.391 26.1341C110.312 23.6244 110.778 21.591 112.435 19.6398ZM106.761 27.7057C106.965 30.1402 107.717 32.5997 109.267 34.6224C110.857 36.6917 113.578 37.5151 116.055 37.6798C116.735 37.7263 117.949 37.6404 118.468 37.5151C122.388 36.5879 124.59 34.805 126.133 31.5042C127.919 27.6878 127.525 21.548 124.844 18.172C122.46 15.1647 116.041 13.5215 112.103 15.1826C110.012 16.0633 108.752 18.2472 107.814 20.0802C106.661 22.3428 106.553 25.2319 106.761 27.7057Z" fill="#E6EBF2"/>
<path d="M144.943 31.5513C144.495 32.2028 142.032 33.9249 139.605 33.8461C137.521 33.7817 135.459 32.6611 134.299 30.9355C133.222 29.3388 132.663 27.1764 132.538 25.3005C132.269 21.2442 134.514 18.0795 138.717 17.3348C139.412 17.2095 140.145 17.1272 140.682 17.1272C142.319 17.1272 143.647 17.546 144.445 18.9422C145.44 20.6857 146.146 22.8588 146.436 24.8136C146.808 27.3339 146.411 29.3996 144.943 31.5513ZM149.812 22.7872C149.321 20.36 148.179 17.5782 146.357 15.7238C144.488 13.8227 141.692 13.6903 139.139 13.812C138.438 13.8406 137.206 14.0662 136.691 14.2524C132.781 15.6307 130.733 17.6785 129.538 21.1762C128.152 25.2217 129.269 31.3508 132.409 34.4475C135.198 37.2006 141.961 38.1207 145.798 36.0013C147.835 34.8736 148.877 32.5358 149.622 30.5811C150.538 28.1753 150.313 25.2539 149.812 22.7872Z" fill="#E6EBF2"/>
<path d="M164.15 32.9469C161.282 33.8348 157.573 34.5472 155.106 32.3669C155.092 32.3562 155.081 32.349 155.067 32.3383C155.185 27.9205 155.035 23.3666 155.146 18.9632C157.91 17.6063 162.381 18.3868 165.081 19.6935C167.669 20.9465 168.542 23.295 168.625 26.0768C168.721 29.2702 166.906 32.0949 164.15 32.9469ZM167.042 16.7614C163.691 15.0143 158.615 14.1265 155.013 15.2721C154.555 13.346 151.383 13.4856 151.555 15.6301C152.042 21.6017 151.53 27.5589 151.548 33.4911C151.569 39.7204 151.813 45.9533 152.013 52.1791C152.085 54.4309 155.593 54.3772 155.518 52.1182C155.35 46.8913 155.153 41.6537 155.081 36.4232C158.192 37.7693 161.855 37.3289 165.141 36.3122C169.23 35.0448 171.951 31.1175 172.13 26.5636C172.287 22.5647 170.676 18.6624 167.042 16.7614Z" fill="#E6EBF2"/>
<mask id="mask2_284_8690" style="mask-type:luminance" maskUnits="userSpaceOnUse" x="193" y="0" width="5" height="32">
<path d="M193.352 0H197.935V31.0679H193.352V0Z" fill="white"/>
</mask>
<g mask="url(#mask2_284_8690)">
<path d="M197.458 2.29071C197.326 0.0495852 193.818 0.0352649 193.954 2.29071C194.229 6.87679 194.312 11.47 194.161 16.0633C194.018 20.4739 193.721 25.4037 194.412 29.7928C194.759 32.0161 198.139 31.0709 197.791 28.862C197.126 24.6304 197.569 19.6362 197.688 15.3723C197.809 11.0118 197.723 6.64766 197.458 2.29071Z" fill="#E6EBF2"/>
</g>
<path d="M196.048 34.7695C193.793 34.7695 193.789 38.2744 196.048 38.2744C198.303 38.2744 198.307 34.7695 196.048 34.7695Z" fill="#E6EBF2"/>
<path d="M191.985 29.0839C191.538 26.8679 190.005 24.8738 187.918 23.9036C186.69 23.3308 185.351 23.2162 184.041 23.2162C182.774 23.2126 181.03 23.542 179.931 22.6541C178.087 21.1577 179.122 18.5156 180.79 17.5883C182.502 16.636 186.175 16.4355 186.808 18.9416C187.371 21.1433 190.682 20.1266 190.124 17.932C188.942 13.2779 182.745 12.6084 179.233 14.3877C175.495 16.278 173.985 21.5551 177.318 24.8917C179.169 26.7426 181.625 26.7247 183.998 26.7139C186.683 26.7032 189.304 28.2856 188.509 31.3537C187.797 34.1032 184.528 35.1665 181.936 35.2596C179.57 35.3455 176.04 34.096 176.308 31.0995C176.512 28.887 173.068 28.0171 172.864 30.2475C171.761 42.4376 194.359 40.8266 191.985 29.0839Z" fill="#E6EBF2"/>
<path d="M135.842 29.7284C135.713 29.7284 135.588 29.6783 135.488 29.5816C135.294 29.3883 135.294 29.0733 135.488 28.8764L143.006 21.3618C143.203 21.1685 143.518 21.1685 143.711 21.3618C143.908 21.5587 143.908 21.8702 143.711 22.0671L136.193 29.5816C136.096 29.6783 135.971 29.7284 135.842 29.7284Z" fill="white"/>
<path d="M143.36 29.7284C143.231 29.7284 143.103 29.6783 143.006 29.5816L135.488 22.0671C135.294 21.8702 135.294 21.5587 135.488 21.3618C135.685 21.1685 136 21.1685 136.193 21.3618L143.711 28.8764C143.908 29.0733 143.908 29.3883 143.711 29.5816C143.615 29.6783 143.486 29.7284 143.36 29.7284Z" fill="white"/>
</svg>
