<svg width="226" height="230" viewBox="0 0 226 230" fill="none" xmlns="http://www.w3.org/2000/svg">
<mask id="mask0_603_22301" style="mask-type:luminance" maskUnits="userSpaceOnUse" x="62" y="145" width="33" height="85">
<path d="M62.3721 145.688H94.1706V230.001H62.3721V145.688Z" fill="white"/>
</mask>
<g mask="url(#mask0_603_22301)">
<path d="M94.1266 182.723L83.0548 210.136C84.9749 211.056 86.3959 211.639 87.9054 213.143C90.6634 215.879 92.1245 219.343 92.1245 222.606C92.1245 225.166 91.0634 227.425 89.8255 228.682C88.9876 229.494 88.2212 229.85 87.2275 229.85C86.6928 229.85 86.1538 229.732 85.6065 229.516C82.0548 227.968 72.8609 224.21 68.9367 222.625C67.6798 222.082 66.5556 221.33 65.5913 220.368C63.7176 218.465 62.8755 215.949 62.8755 213.143C62.8755 212.094 63.0271 211.031 63.2923 209.966C67.5114 193.462 75.9936 166.803 82.9727 146.078L94.1266 182.723Z" fill="#EE8427"/>
</g>
<mask id="mask1_603_22301" style="mask-type:luminance" maskUnits="userSpaceOnUse" x="87" y="58" width="85" height="172">
<path d="M87.7031 58.375H171.781V229.999H87.7031V58.375Z" fill="white"/>
</mask>
<g mask="url(#mask1_603_22301)">
<path d="M125.76 93.3054L129.605 104.796L114.857 142.106L131.822 213.137H133.912C142.228 213.137 146.449 220.615 146.449 225.674C146.449 228.055 144.944 229.853 142.268 229.853H123.384C119.706 229.853 116.447 227.43 115.4 223.923L89.8714 140.064C88.6187 135.883 87.9492 131.538 87.9492 127.152C87.9492 120.344 89.4524 113.655 92.5872 107.434C98.6884 95.2318 109.924 74.3809 120.541 63.1449C123.466 60.0501 127.142 58.5469 130.862 58.5469C138.965 58.5469 144.75 64.0312 146.449 73.6293C147.251 78.1788 148.668 91.9728 148.668 91.9728H165.252C169.418 91.9728 171.517 94.9749 171.517 98.2382C171.517 101.501 169.422 104.504 165.252 104.504H144.336C140.733 104.504 137.535 102.196 136.401 98.7771L133.704 90.6338C133.116 88.878 131.487 87.7917 129.731 87.7917C127.342 87.7917 125.565 89.7348 125.556 91.9728C125.556 92.4149 125.622 92.8633 125.765 93.3097L125.76 93.3054Z" fill="#EE8427"/>
</g>
<mask id="mask2_603_22301" style="mask-type:luminance" maskUnits="userSpaceOnUse" x="171" y="37" width="55" height="55">
<path d="M171.78 37.3574H225.777V91.2532H171.78V37.3574Z" fill="white"/>
</mask>
<g mask="url(#mask2_603_22301)">
<path d="M200.758 37.6523C186.926 37.6523 175.69 48.8884 175.69 62.7202C175.69 68.1098 177.402 73.1246 180.326 77.2215L172.265 85.2869C174.812 86.6259 176.863 88.6723 178.197 91.2239L186.263 83.1585C190.356 86.0828 195.37 87.7944 200.758 87.7944C214.59 87.7944 225.828 76.5563 225.828 62.7244C225.828 48.8947 214.59 37.6566 200.758 37.6566V37.6523ZM200.758 79.4342C191.65 79.4342 184.046 71.9562 184.046 62.7202C184.046 53.4863 191.524 46.0083 200.758 46.0083C209.992 46.0083 217.472 53.4863 217.472 62.7202C217.472 71.9562 209.992 79.4342 200.758 79.4342Z" fill="#EE8427"/>
</g>
<mask id="mask3_603_22301" style="mask-type:luminance" maskUnits="userSpaceOnUse" x="0" y="0" width="110" height="89">
<path d="M0.224121 0H109.262V88.0185H0.224121V0Z" fill="white"/>
</mask>
<g mask="url(#mask3_603_22301)">
<path d="M104.39 25.1186H87.9459V8.40673C87.9459 3.80875 84.1879 0.0507812 79.5899 0.0507812H8.55908C3.96109 0.0507812 0.203125 3.80875 0.203125 8.40673V79.4376C0.203125 84.0356 3.96109 87.7935 8.55908 87.7935H79.5899C84.1879 87.7935 87.9459 84.0356 87.9459 79.4376V50.6791L107.527 32.2493C110.325 29.6156 108.344 25.1186 104.39 25.1186ZM44.0735 79.4376C40.606 79.4376 37.8081 76.6396 37.8081 73.1701C37.8081 69.7027 40.606 66.9047 44.0735 66.9047C47.543 66.9047 50.3409 69.7027 50.3409 73.1701C50.3409 76.6396 47.543 79.4376 44.0735 79.4376ZM57.5706 39.2852L52.2231 44.6348C51.0104 45.8475 50.3409 47.477 50.3409 49.1886V52.2834C50.3409 55.7508 47.543 58.5488 44.0735 58.5488C40.606 58.5488 37.8081 55.7508 37.8081 52.2834V49.1886C37.8081 44.1337 39.7723 39.3673 43.3661 35.7736L48.7157 30.424C49.7578 29.3819 50.3452 27.9608 50.3452 26.4955C50.3452 23.4891 48.2146 20.9375 44.0777 20.9375C39.9407 20.9375 37.8123 23.4891 37.8123 26.4955C37.8123 31.0072 34.888 33.4746 31.5469 33.4746C28.2037 33.4746 25.2794 31.0114 25.2794 26.4955C25.2794 17.0974 32.5511 8.40673 44.084 8.40673C55.6168 8.40673 62.8865 17.0974 62.8865 26.4955C62.8865 31.3019 61.0043 35.8557 57.5811 39.281L57.5706 39.2852Z" fill="#EE8427"/>
</g>
<path d="M133.907 37.652C133.907 35.2225 134.362 32.7551 135.44 30.3992L139.061 22.4938C141.949 16.1758 148.095 12.582 154.8 12.582C163.03 12.582 171.512 19.4622 171.512 29.296C171.512 31.7235 171.055 34.193 169.977 36.5488L166.358 44.4521C163.47 50.7701 157.325 54.3639 150.623 54.3639C142.059 54.3639 133.907 47.1385 133.907 37.652Z" fill="#EE8427"/>
</svg>
