<svg width="315" height="312" viewBox="0 0 315 312" fill="none" xmlns="http://www.w3.org/2000/svg">
<path d="M11.9474 305.923C8.83257 309.037 3.60039 308.855 3.60039 308.855C3.60039 308.855 3.4183 303.623 6.53311 300.508C9.64792 297.393 14.8801 297.576 14.8801 297.576C14.8801 297.576 15.0622 302.808 11.9474 305.923Z" fill="#FFF1CE"/>
<circle cx="63" cy="187" r="4" fill="#FFF1CE"/>
<circle cx="221" cy="197" r="4" fill="#FFF1CE"/>
<circle cx="308" cy="163" r="4" fill="#FFF1CE"/>
<circle cx="235.5" cy="4.5" r="3.5" fill="#FFF1CE"/>
<circle cx="58.5" cy="105.5" r="3.5" fill="#FFF1CE"/>
<circle cx="160" cy="46" r="3" fill="#FFF1CE"/>
<path d="M264.322 184.432C265.236 188.542 268.159 192.104 271.904 194.205C275.466 196.215 279.302 196.58 283.321 196.397C283.504 196.397 283.686 196.397 283.778 196.397C283.778 196.215 283.778 196.032 283.778 195.849C283.412 190.552 281.586 185.345 278.663 180.961C275.74 176.759 271.812 173.288 267.976 170C265.053 174.202 263.226 179.773 264.322 184.432Z" fill="#AEDC90"/>
<path d="M264.322 184.432C265.236 188.542 268.159 192.104 271.903 194.205C275.466 196.215 279.302 196.58 283.321 196.397C283.504 196.397 283.686 196.397 283.778 196.397C266.24 186.624 267.885 170 267.885 170C265.053 174.202 263.226 179.773 264.322 184.432Z" fill="#7CA661"/>
<path d="M268.707 178.403C269.529 182.513 271.995 186.532 274.644 189.638C277.018 192.378 279.941 194.844 283.23 196.488C283.412 196.488 283.595 196.488 283.686 196.488C283.686 196.306 283.686 196.123 283.686 195.94C280.398 194.114 277.475 192.013 275.009 189.09C273.639 187.446 272.451 185.71 271.447 183.792C270.533 182.057 269.894 180.138 269.255 178.312C269.163 177.855 268.615 178.038 268.707 178.403Z" fill="#39700B"/>
<path d="M98.7957 82.7482C104 80.5971 108.788 76.8501 111.98 73.1725C118.433 65.6785 119.474 54.6457 117.322 45.0007C116.212 39.9353 114.269 34.9393 111.147 30.776C103.237 19.9514 89.4976 13.9839 76.175 13.0819C67.9177 12.5268 58.8972 14.8166 51.9583 19.2575C40.648 26.6127 35.5826 42.2945 41.4806 55.409C46.8929 67.4133 55.7053 65.1928 65.4197 70.5357C73.3994 74.9072 78.1873 83.789 88.1792 84.691C91.7181 84.9686 95.3956 84.2053 98.7957 82.7482Z" fill="#F4F4F4"/>
<path d="M41.55 55.3397C46.9623 67.3439 55.7747 65.1235 65.4891 70.4664C73.4688 74.8379 78.2566 83.7196 88.2486 84.6217C91.7181 84.8992 95.3263 84.136 98.7957 82.6788C100.877 81.8461 102.82 80.7359 104.694 79.4869C81.4485 78.3073 54.3869 60.405 49.6685 45.764C46.3378 35.3557 50.2236 24.878 54.1094 17.8698C53.3461 18.2861 52.6522 18.7024 51.9583 19.1187C40.7173 26.5433 35.652 42.2252 41.55 55.3397Z" fill="#E3E3E3"/>
<path d="M93.9385 67.8989C102.408 67.8989 109.273 61.0333 109.273 52.564C109.273 44.0948 102.408 37.2291 93.9385 37.2291C85.4692 37.2291 78.6036 44.0948 78.6036 52.564C78.6036 61.0333 85.4692 67.8989 93.9385 67.8989Z" fill="#EBB64A"/>
<path d="M97.8936 64.8458C89.4282 64.8458 82.5587 57.9763 82.5587 49.5109C82.5587 45.4864 84.1547 41.8088 86.7221 39.0332C81.9342 41.6006 78.6036 46.666 78.6036 52.564C78.6036 61.0294 85.4731 67.8989 93.9385 67.8989C98.3794 67.8989 102.335 66.0254 105.11 63.0417C102.959 64.2213 100.461 64.8458 97.8936 64.8458Z" fill="#E3A63B"/>
<path d="M105.388 53.5354C103.306 55.1313 103.583 50.3435 100.877 46.874C98.1711 43.4046 93.4527 42.5026 95.5344 40.9066C97.616 39.3107 101.502 40.7678 104.208 44.2373C106.984 47.7761 107.469 51.87 105.388 53.5354Z" fill="white"/>
<path d="M230.085 18.7907C226.807 17.6106 223.135 17.7417 219.923 19.2496C213.105 22.5277 201.566 28.8216 200.123 35.181C198.091 44.3596 221.496 55.9639 244.443 75.2389C267.389 94.5139 269.881 102.25 274.011 95.6284C278.141 89.0067 294.532 71.633 281.55 51.2435C271.323 35.1154 242.017 23.1177 230.085 18.7907Z" fill="#ECB579"/>
<path d="M274.011 95.6285C276.306 91.957 282.468 84.8764 285.156 75.829C281.55 79.3037 277.027 82.1884 271.716 80.6805C259.194 77.1402 235.002 47.1787 216.907 35.9022C211.007 32.1652 206.221 30.9196 202.549 30.9196C201.369 32.3619 200.517 33.8043 200.189 35.2466C198.157 44.4252 221.562 56.0295 244.508 75.3045C267.324 94.5139 269.881 102.25 274.011 95.6285Z" fill="#DFA164"/>
<path d="M228.643 59.3074C231.134 58.5863 233.822 58.5863 236.444 58.5207C237.1 58.5207 237.756 58.5207 238.411 58.5207C249.032 58.2585 257.686 54.9149 262.866 49.0144C263.98 47.7031 264.964 46.3263 265.947 44.9496C266.34 44.3595 266.734 43.7695 267.193 43.1794C268.11 41.8682 269.159 40.6225 270.208 39.3769C269.749 39.049 269.291 38.7212 268.832 38.3934C267.783 39.6391 266.799 40.8848 265.816 42.196C265.422 42.786 264.964 43.3761 264.57 43.9661C263.652 45.2774 262.669 46.6541 261.62 47.8998C256.768 53.4725 248.508 56.6195 238.411 56.8817C237.756 56.8817 237.166 56.8817 236.51 56.8817C233.756 56.8817 231.003 56.9473 228.249 57.734C226.741 58.1929 225.365 58.783 224.053 59.5697C224.578 59.8975 225.037 60.2909 225.561 60.6187C226.479 60.0942 227.528 59.6353 228.643 59.3074Z" fill="#F2D0A4"/>
<path d="M216.383 44.0317C217.563 44.3595 218.743 44.6217 219.857 44.9495C225.561 46.3919 232.248 47.572 238.542 45.474C243.263 43.9005 247.196 40.688 250.737 37.3444C252.966 35.312 255.064 33.1485 257.162 31.0505C256.637 30.7883 256.178 30.4605 255.654 30.1982C253.687 32.2306 251.655 34.1975 249.622 36.0987C246.213 39.2457 242.476 42.3926 238.018 43.835C232.183 45.7363 225.758 44.6217 220.251 43.2449C219.071 42.9827 217.956 42.6549 216.776 42.3271C211.99 41.0814 207.007 39.7702 201.959 39.7702C201.631 39.7702 201.304 39.7702 200.976 39.7702C201.304 40.2947 201.631 40.8847 202.025 41.4092C206.876 41.5403 211.728 42.786 216.383 44.0317Z" fill="#F2D0A4"/>
<path d="M219.726 53.0791C224.25 51.6368 229.036 51.7023 232.773 51.899C233.101 51.899 233.429 51.9646 233.822 51.9646C236.313 52.0957 238.87 52.2268 241.427 51.7023C244.64 50.9812 247.393 49.1454 249.95 47.3753C253.949 44.5562 258.08 41.4092 261.161 37.1477C261.817 36.2299 262.341 35.3776 262.866 34.3942C262.407 34.0664 261.948 33.8041 261.423 33.5419C260.964 34.4597 260.44 35.312 259.784 36.1643C256.899 40.2291 252.9 43.3105 248.967 45.9985C246.541 47.7031 243.918 49.4077 240.968 50.0633C238.673 50.5878 236.182 50.4567 233.822 50.3255C233.494 50.3255 233.166 50.26 232.773 50.26C228.905 50.0633 223.857 49.9977 219.136 51.5056C217.694 51.9646 216.383 52.5546 215.137 53.2102C215.596 53.6036 216.12 53.9314 216.645 54.3248C217.628 53.8003 218.677 53.4069 219.726 53.0791Z" fill="#F2D0A4"/>
<path d="M235.133 31.313C232.052 32.6897 228.184 32.6897 223.332 31.313C218.546 29.9362 214.022 27.7071 210.023 24.7568C209.499 25.0846 209.04 25.4125 208.515 25.7403C212.777 28.9528 217.694 31.4441 222.873 32.952C228.118 34.4599 232.38 34.4599 235.854 32.8864C239.591 31.1818 242.017 27.9693 244.115 24.4946C243.59 24.2324 243.066 24.0357 242.542 23.839C240.509 26.9859 238.411 29.8706 235.133 31.313Z" fill="#F2D0A4"/>
<path d="M213.76 22.4621C217.694 24.6256 222.086 26.5269 226.741 26.9858C228.839 27.1825 230.609 27.0514 232.117 26.4614C234.346 25.6746 236.248 23.97 237.624 21.6754C237.1 21.4787 236.575 21.2165 236.051 21.0198C234.871 22.8555 233.363 24.2323 231.593 24.8223C230.347 25.2813 228.839 25.4124 226.938 25.2157C222.939 24.8223 219.071 23.2489 215.53 21.4131C214.94 21.8065 214.35 22.1343 213.76 22.4621Z" fill="#F2D0A4"/>
<path d="M240.509 36.0332C233.822 40.4914 224.774 41.0814 217.563 37.5411C215.858 36.6888 214.154 35.6399 212.58 34.5909C209.695 32.7552 206.745 30.7883 203.27 30.0672C202.811 30.5261 202.353 31.0506 201.959 31.5751C202.287 31.6406 202.549 31.6406 202.877 31.7062C206.024 32.3618 208.778 34.132 211.662 35.9677C213.301 37.0167 215.071 38.1312 216.842 39.049C224.578 42.8516 234.281 42.196 241.427 37.41C245.164 34.9187 248.18 31.3784 250.081 27.3136C249.557 27.0513 249.098 26.8547 248.573 26.5924C246.803 30.395 244.049 33.673 240.509 36.0332Z" fill="#F2D0A4"/>
<path d="M267.061 91.6292C269.094 85.3353 270.995 79.4348 275.322 74.8456C276.502 73.5999 277.879 72.4854 279.19 71.3708C279.715 70.9119 280.239 70.453 280.829 69.994C282.796 68.2894 284.632 66.4537 286.402 64.5524C286.336 63.8313 286.205 63.1101 286.074 62.3234C284.173 64.618 282.009 66.7815 279.715 68.7484C279.19 69.2073 278.666 69.6662 278.141 70.0596C276.765 71.1741 275.322 72.3542 274.077 73.6655C269.487 78.517 267.455 84.8764 265.422 91.1047C265.16 91.957 264.898 92.8093 264.57 93.6616C265.029 94.1206 265.488 94.5139 265.947 94.9073C266.34 93.7927 266.668 92.7438 267.061 91.6292Z" fill="#F2D0A4"/>
<path d="M275.453 93.4648C275.847 92.8748 276.306 92.2847 276.765 91.6291C276.502 90.0557 276.371 88.4166 276.633 86.8432C277.092 83.6962 278.731 80.746 280.436 78.058C282.206 75.2388 284.173 72.4853 286.271 69.9284C286.336 69.0105 286.402 68.0927 286.402 67.1093C283.714 70.3218 281.223 73.6654 278.994 77.1401C277.158 80.0248 275.388 83.1062 274.929 86.5809C274.667 88.9411 274.929 91.2358 275.453 93.4648Z" fill="#F2D0A4"/>
<path d="M261.489 82.2539C263.915 78.9102 266.865 75.96 269.75 73.0753C271.847 70.9118 274.077 68.7483 276.043 66.3881C279.19 62.6511 281.682 58.7174 283.452 54.5871C283.124 53.9314 282.796 53.3414 282.403 52.6858C280.698 57.0128 278.076 61.3399 274.732 65.2735C272.765 67.5682 270.602 69.7973 268.504 71.8952C265.619 74.8455 262.603 77.8613 260.112 81.2705C258.866 82.975 257.817 84.7452 257.031 86.4498C257.49 86.8432 257.883 87.3021 258.342 87.6955C259.129 85.8597 260.178 84.024 261.489 82.2539Z" fill="#F2D0A4"/>
<path d="M251.065 65.4047C251.851 65.0114 252.704 64.618 253.49 64.1591C258.014 61.93 262.669 59.6354 266.537 56.2917C270.274 53.0792 273.355 48.8833 275.519 44.0318C275.125 43.6384 274.667 43.2451 274.208 42.8517C272.11 47.7032 269.159 51.8336 265.422 55.0461C261.685 58.2586 257.096 60.4876 252.704 62.7167C251.917 63.1101 251.065 63.5035 250.278 63.9624C246.41 65.9292 242.476 68.1583 239.198 71.1085C239.657 71.4364 240.05 71.8297 240.509 72.1575C243.656 69.404 247.393 67.306 251.065 65.4047Z" fill="#F2D0A4"/>
<path d="M248.901 78.9758C251.786 76.2878 255.129 73.9932 258.342 71.8297C261.685 69.535 265.16 67.1748 268.176 64.3557C272.962 59.8975 276.502 54.3248 279.911 48.9488C279.584 48.4899 279.19 48.0309 278.797 47.572C275.388 53.0136 271.782 58.7174 267.061 63.1756C264.111 65.9292 260.702 68.2894 257.424 70.5184C254.146 72.7475 250.737 75.0422 247.786 77.8613C247.721 77.9269 247.655 77.9924 247.59 78.058C247.983 78.3202 248.442 78.7136 248.901 78.9758C248.835 79.0414 248.835 79.0414 248.901 78.9758Z" fill="#F2D0A4"/>
<path d="M263.581 283.033C262.394 283.307 261.206 284.586 260.476 285.225C259.106 286.413 257.644 287.326 256 288.148C256.548 288.97 257.827 289.427 258.74 289.609C259.745 289.792 260.658 289.609 261.663 289.427C262.12 289.335 262.577 289.153 263.033 288.97C264.403 288.148 266.778 284.768 265.043 283.398C264.586 283.033 264.038 282.942 263.581 283.033Z" fill="#7CA661"/>
<path d="M144.658 3.92763C143.654 3.01423 143.197 1.3701 142.74 0C142.009 0.730722 141.096 1.18743 140 1.27877C140.457 3.28826 141.644 5.11506 143.471 6.02846C143.562 5.38908 144.11 4.38434 144.658 3.92763Z" fill="#AEDC90"/>
<path d="M150.129 159.466L147.754 157C147.754 157 147.389 162.937 142 165.129L144.192 166.773C144.192 166.773 148.759 164.947 150.129 159.466Z" fill="#AEDC90"/>
<path d="M10.9352 226C9.38244 226.913 7.92099 227.735 6.36821 228.649C5.45481 229.197 4.54141 229.654 3.90202 230.476C3.1713 231.298 2.44058 232.759 3.628 233.49C4.81542 234.221 7.00759 233.033 8.01234 232.394C9.01708 231.754 10.0218 231.024 10.6612 229.928C11.94 227.918 10.7525 226.091 10.9352 226Z" fill="#7CA661"/>
<path d="M18.1511 83.8553C18.6078 86.1388 20.252 87.9656 22.2614 89.153C24.1796 90.2491 26.2804 90.4318 28.4726 90.3404C28.5639 90.3404 28.6552 90.3404 28.7466 90.3404C28.7466 90.2491 28.7466 90.1578 28.7466 90.0664C28.5639 87.1435 27.5592 84.4033 25.9151 81.9371C24.3623 79.6536 22.2614 77.8268 20.1606 76C18.6078 78.2835 17.6031 81.2977 18.1511 83.8553Z" fill="#AEDC90"/>
<path d="M18.1511 83.8553C18.6078 86.1388 20.252 87.9656 22.2614 89.153C24.1796 90.2491 26.2804 90.4318 28.4726 90.3404C28.5639 90.3404 28.6552 90.3404 28.7466 90.3404C19.2472 85.0427 20.1606 76 20.1606 76C18.6078 78.2835 17.6031 81.2977 18.1511 83.8553Z" fill="#7CA661"/>
<path d="M20.5258 80.567C20.9825 82.7592 22.2612 84.9513 23.7227 86.5955C25.0015 88.0569 26.5542 89.427 28.3811 90.3404C28.4724 90.3404 28.5638 90.3404 28.6551 90.3404C28.6551 90.2491 28.6551 90.1577 28.6551 90.0664C26.9196 89.0617 25.2755 87.9656 23.9967 86.3214C23.266 85.408 22.6266 84.4946 22.0786 83.4899C21.5305 82.4852 21.2565 81.4804 20.8912 80.4757C20.7998 80.293 20.5258 80.3843 20.5258 80.567Z" fill="#39700B"/>
<path d="M314.595 50.8553C314.139 53.1388 312.495 54.9656 310.485 56.153C308.567 57.2491 306.466 57.4318 304.274 57.3404C304.183 57.3404 304.091 57.3404 304 57.3404C304 57.2491 304 57.1578 304 57.0664C304.183 54.1435 305.187 51.4033 306.832 48.9371C308.384 46.6536 310.485 44.8268 312.586 43C314.139 45.2835 315.143 48.2977 314.595 50.8553Z" fill="#AEDC90"/>
<path d="M314.595 50.8553C314.139 53.1388 312.495 54.9656 310.485 56.153C308.567 57.2491 306.466 57.4318 304.274 57.3404C304.183 57.3404 304.091 57.3404 304 57.3404C313.499 52.0427 312.586 43 312.586 43C314.139 45.2835 315.143 48.2977 314.595 50.8553Z" fill="#7CA661"/>
<path d="M312.221 47.567C311.764 49.7592 310.485 51.9513 309.024 53.5955C307.745 55.0569 306.192 56.427 304.366 57.3404C304.274 57.3404 304.183 57.3404 304.091 57.3404C304.091 57.2491 304.091 57.1577 304.091 57.0664C305.827 56.0617 307.471 54.9656 308.75 53.3214C309.481 52.408 310.12 51.4946 310.668 50.4899C311.216 49.4852 311.49 48.4804 311.855 47.4757C311.947 47.293 312.221 47.3843 312.221 47.567Z" fill="#39700B"/>
<path d="M75.9125 291.65C78.3825 288.485 82.9365 287.945 86.1012 290.415C88.8799 292.576 89.6518 296.358 88.1081 299.369L101.539 304L112.19 261.316C110.724 261.316 109.18 260.852 107.868 259.849C104.858 257.456 104.317 253.134 106.633 250.046C108.717 247.345 112.499 246.65 115.432 248.194L121.067 225.578L103.237 214L92.0446 222.182C92.7393 224.42 92.4305 226.967 90.8868 228.897C88.494 231.985 84.0172 232.602 80.8525 230.286L51.2899 251.822C51.9074 252.053 52.5249 252.362 53.0652 252.748C55.5352 254.678 55.9983 258.305 54.0686 260.852C52.1389 263.322 48.5112 263.786 45.964 261.856C44.4974 260.698 43.7256 259 43.7256 257.302L34 264.403L57.3105 288.64L74.3688 294.506C74.7547 293.58 75.2178 292.576 75.9125 291.65Z" fill="#EBB64A"/>
<path d="M103.391 214.077L92.199 222.259C92.8937 224.497 92.5849 227.045 91.0412 228.974C88.6484 232.062 84.1716 232.679 81.0069 230.364L51.4443 251.899C52.0618 252.13 52.6793 252.439 53.2196 252.825C55.6896 254.755 56.1527 258.382 54.223 260.93C52.2934 263.4 48.6656 263.863 46.1184 261.933C44.6518 260.775 43.88 259.077 43.88 257.379L34.1544 264.48L57.4649 288.717L121.221 225.578L103.391 214.077Z" fill="#EEC94D"/>
<path d="M79.4632 253.751C77.8423 255.835 74.9092 256.144 72.8251 254.6C70.7411 252.98 70.4323 250.046 71.976 247.962C73.597 245.878 76.5301 245.57 78.6141 247.113C80.6982 248.734 81.0841 251.745 79.4632 253.751Z" fill="#EBB64A"/>
<path d="M110.415 228.974C109.412 230.287 107.482 230.518 106.17 229.515C104.858 228.511 104.626 226.582 105.63 225.269C106.633 223.957 108.563 223.726 109.875 224.729C111.187 225.732 111.419 227.662 110.415 228.974Z" fill="#EBB64A"/>
<path d="M66.5729 274.823C64.7976 277.062 61.5558 277.448 59.3174 275.749C57.0789 273.974 56.693 270.732 58.3911 268.494C60.1664 266.255 63.4083 265.87 65.6467 267.568C67.9623 269.343 68.3482 272.585 66.5729 274.823Z" fill="#EBB64A"/>
<path d="M99.3774 280.844C97.9108 282.774 95.1321 283.082 93.2024 281.616C91.2727 280.149 90.964 277.37 92.4305 275.441C93.8971 273.511 96.6758 273.202 98.6055 274.669C100.535 276.136 100.844 278.914 99.3774 280.844Z" fill="#CC9431"/>
<path d="M220.761 249.391C220.761 249.391 196.184 269.829 190.751 269.829C185.318 269.829 181.524 261.291 175.573 268.449C169.537 275.606 182.817 280.522 182.817 280.522C182.817 280.522 179.626 290.008 186.353 293.285C193.079 296.562 193.769 287.938 195.494 280.436C197.132 272.933 229.557 259.825 229.557 259.825L220.761 249.391Z" fill="#F2D0A4"/>
<path d="M300.185 231.453C311.827 210.929 292.768 186.007 269.916 191.871C269.571 191.957 269.312 192.043 268.967 192.13C251.375 197.304 214.725 247.062 215.759 251.46C217.398 258.532 224.814 250.598 221.968 256.634C219.123 262.671 216.018 266.896 231.541 263.706C247.149 260.515 292.078 244.82 299.753 232.143C299.926 231.885 300.098 231.626 300.185 231.453Z" fill="#C89059"/>
<path d="M256.722 215.5C273.106 200.236 285.783 196.786 292.423 196.269C286.387 191.785 278.453 189.715 269.916 191.871C269.571 191.957 269.312 192.043 268.967 192.13C251.375 197.304 214.725 247.062 215.759 251.46C217.398 258.531 224.814 250.598 221.968 256.634C219.123 262.671 216.018 266.896 231.541 263.706C233.869 263.188 236.887 262.412 240.337 261.464C238.957 251.719 238.871 232.143 256.722 215.5Z" fill="#BA7F4A"/>
<path d="M265.259 220.329C264.397 220.846 263.189 220.588 262.672 219.725C262.154 218.863 262.413 217.656 263.275 217.138C264.138 216.621 265.345 216.879 265.863 217.742C266.38 218.604 266.121 219.811 265.259 220.329Z" fill="#BA7F4A"/>
<path d="M257.584 230.246C256.549 230.85 255.256 230.591 254.566 229.556C253.962 228.521 254.221 227.228 255.256 226.538C256.29 225.934 257.584 226.193 258.274 227.228C258.964 228.263 258.619 229.556 257.584 230.246Z" fill="#BA7F4A"/>
<path d="M251.892 241.543C250.857 242.147 249.564 241.888 248.874 240.853C248.27 239.818 248.529 238.525 249.564 237.835C250.599 237.231 251.892 237.49 252.582 238.525C253.272 239.559 252.841 240.853 251.892 241.543Z" fill="#BA7F4A"/>
<path d="M261.723 237.921C260.947 238.438 259.912 238.18 259.481 237.404C258.964 236.627 259.222 235.593 259.999 235.161C260.775 234.644 261.809 234.903 262.241 235.679C262.758 236.455 262.499 237.404 261.723 237.921Z" fill="#BA7F4A"/>
<path d="M275.694 215.068C274.917 215.586 273.883 215.327 273.451 214.551C272.934 213.775 273.193 212.74 273.969 212.309C274.745 211.791 275.78 212.05 276.211 212.826C276.728 213.602 276.47 214.637 275.694 215.068Z" fill="#BA7F4A"/>
<path d="M201.9 176.8C215.1 176.8 225.8 166.1 225.8 152.9C225.8 139.7 215.1 129 201.9 129C188.7 129 178 139.7 178 152.9C178 166.1 188.7 176.8 201.9 176.8Z" fill="#EBB64A"/>
<path d="M201.9 174.468C213.812 174.468 223.468 164.812 223.468 152.9C223.468 140.988 213.812 131.332 201.9 131.332C189.988 131.332 180.332 140.988 180.332 152.9C180.332 164.812 189.988 174.468 201.9 174.468Z" fill="white"/>
<path d="M182.663 152.252H197.237C198.338 152.252 198.921 150.892 198.143 150.115L187.845 139.752C187.327 139.234 186.42 139.298 185.967 139.816C183.441 142.861 181.821 146.682 181.433 150.827C181.368 151.605 181.951 152.252 182.663 152.252Z" fill="#EEC94D"/>
<path d="M197.301 153.483H182.663C181.886 153.483 181.303 154.131 181.433 154.908C181.821 159.053 183.505 162.875 185.967 165.919C186.42 166.502 187.327 166.566 187.845 165.983L198.143 155.685C198.985 154.843 198.402 153.483 197.301 153.483Z" fill="#EEC94D"/>
<path d="M199.827 132.433C195.682 132.821 191.861 134.505 188.817 136.967C188.234 137.42 188.169 138.327 188.752 138.845L199.05 149.143C199.827 149.921 201.188 149.402 201.188 148.237V133.663C201.252 132.951 200.605 132.368 199.827 132.433Z" fill="#EEC94D"/>
<path d="M204.685 149.208L214.983 138.91C215.502 138.392 215.437 137.485 214.919 137.031C211.874 134.505 208.053 132.886 203.908 132.497C203.131 132.433 202.483 133.016 202.483 133.728V148.301C202.483 149.402 203.843 149.985 204.685 149.208Z" fill="#EEC94D"/>
<path d="M206.434 152.252H221.007C221.784 152.252 222.367 151.605 222.238 150.827C221.849 146.682 220.165 142.861 217.704 139.817C217.25 139.234 216.344 139.169 215.825 139.752L205.527 150.05C204.75 150.892 205.333 152.252 206.434 152.252Z" fill="#EEC94D"/>
<path d="M221.072 153.483H206.499C205.398 153.483 204.815 154.843 205.592 155.62L215.89 165.919C216.408 166.437 217.315 166.372 217.769 165.854C220.295 162.81 221.914 158.988 222.302 154.843C222.367 154.131 221.784 153.483 221.072 153.483Z" fill="#EEC94D"/>
<path d="M199.115 156.527L188.817 166.825C188.298 167.344 188.363 168.25 188.881 168.704C191.925 171.23 195.747 172.849 199.892 173.238C200.669 173.302 201.317 172.719 201.317 172.007V157.434C201.252 156.333 199.892 155.75 199.115 156.527Z" fill="#EEC94D"/>
<path d="M204.685 156.527C203.908 155.75 202.548 156.268 202.548 157.434V172.007C202.548 172.784 203.195 173.367 203.973 173.238C208.118 172.849 211.939 171.165 214.983 168.704C215.566 168.25 215.631 167.344 215.048 166.826L204.685 156.527Z" fill="#EEC94D"/>
<path d="M78.1229 158.239C78.1229 158.239 81.2006 159.383 82.9594 157.238C84.7181 155.093 87.3562 149.016 93.292 147.014C94.8309 146.514 96.1499 146.085 97.3224 145.727C99.8872 144.941 101.939 143.01 102.818 140.508C103.771 137.934 105.823 134.645 110.293 132.643C118.427 129.069 118.281 126.066 119.233 123.492C120.186 120.918 126.561 128.783 125.169 139.15C123.777 149.516 113.591 156.451 113.591 156.451C113.591 156.451 109.267 161.885 99.7407 164.53C90.2875 167.176 85.9639 161.671 84.2784 160.813C82.6663 159.955 79.6617 162.457 78.1961 161.17C76.8771 159.955 78.1229 158.239 78.1229 158.239Z" fill="#D4E86D"/>
<path d="M125.169 139.221C126.561 128.854 120.186 120.918 119.233 123.563C118.647 125.208 118.501 126.995 116.375 128.997C117.548 130.928 118.72 134.002 118.574 138.721C118.281 148.158 109.34 146.943 106.483 150.088C103.625 153.234 104.137 160.741 94.3912 161.456C88.602 161.885 85.2311 159.097 83.4723 156.594C83.2525 156.88 83.1059 157.095 82.9594 157.309C81.2006 159.454 78.1229 158.31 78.1229 158.31C78.1229 158.31 76.8771 159.955 78.2694 161.242C79.6617 162.529 82.6663 160.026 84.3517 160.884C85.9639 161.742 90.2874 167.247 99.8139 164.602C109.267 161.957 113.664 156.523 113.664 156.523C113.664 156.523 123.703 149.588 125.169 139.221Z" fill="#B5CD5A"/>
<path d="M213.055 101C210.315 101 210.315 105.293 213.055 105.293C215.795 105.202 215.795 101 213.055 101Z" fill="#FFF1CE"/>
<path d="M163.016 250.011H162.925C162.377 250.103 161.92 250.742 162.012 251.29C162.012 251.838 162.377 252.478 162.925 252.569H163.016C163.839 252.752 164.661 252.204 164.661 251.29C164.661 250.377 163.839 249.92 163.016 250.011Z" fill="#FFF1CE"/>
<path d="M137.85 87C135.383 87 135.383 90.8363 137.85 90.8363C140.316 90.8363 140.316 87 137.85 87Z" fill="#FFF1CE"/>
<path d="M71.3641 184.675C71.3641 184.675 74.5152 185.533 76.0541 183.245C77.593 180.957 79.7181 174.665 85.434 172.163C86.8996 171.519 88.2187 170.948 89.3179 170.519C91.8094 169.446 93.7147 167.373 94.3743 164.87C95.0338 162.225 96.7925 158.793 101.043 156.434C108.884 152.144 108.371 149.213 109.104 146.568C109.836 143.922 116.871 151.215 116.432 161.653C115.992 172.091 106.466 179.884 106.466 179.884C106.466 179.884 102.655 185.676 93.4216 189.107C84.1882 192.539 79.425 187.463 77.7395 186.748C76.0541 186.033 73.2694 188.75 71.7305 187.606C70.3382 186.462 71.3641 184.675 71.3641 184.675Z" fill="#D4E86D"/>
<path d="M116.505 161.653C116.945 151.215 109.837 143.851 109.177 146.568C108.737 148.284 108.737 150.071 106.832 152.287C108.224 154.075 109.617 157.077 109.91 161.796C110.423 171.234 101.483 170.805 98.9177 174.165C96.3529 177.525 97.5254 184.961 87.9256 186.534C82.1364 187.463 78.6189 184.961 76.6404 182.601C76.4938 182.887 76.3472 183.173 76.2007 183.388C74.6618 185.676 71.5107 184.818 71.5107 184.818C71.5107 184.818 70.4848 186.605 71.9504 187.749C73.4893 188.893 76.274 186.176 77.9594 186.891C79.6449 187.606 84.4814 192.682 93.6415 189.25C102.875 185.819 106.685 180.028 106.685 180.028C106.685 180.028 116.065 172.092 116.505 161.653Z" fill="#B5CD5A"/>
</svg>
