<svg width="17" height="27" viewBox="0 0 17 27" fill="none" xmlns="http://www.w3.org/2000/svg">
<path d="M11.2013 19.2816C11.4952 19.3019 11.7805 19.3155 12.0647 19.3424C12.8099 19.4126 13.4988 19.6555 14.1271 20.0574C15.3289 20.8262 16.1018 21.9036 16.4041 23.303C16.4629 23.5758 16.4851 23.8597 16.4943 24.1392C16.5087 24.5921 16.5043 25.0457 16.4971 25.4989C16.4876 26.0739 16.0424 26.5041 15.4682 26.5041C12.8593 26.5044 10.2504 26.5041 7.64175 26.5041C5.59265 26.5041 3.54355 26.5041 1.49444 26.5041C0.902165 26.5041 0.457262 26.0737 0.451712 25.4836C0.446716 24.9424 0.424512 24.3993 0.462258 23.8605C0.519987 23.0401 0.796421 22.2813 1.24826 21.5933C2.01373 20.4279 3.08227 19.6918 4.44778 19.4123C4.83329 19.3335 5.23545 19.3346 5.62984 19.2994C5.6662 19.2961 5.70284 19.2947 5.73697 19.2927C5.74363 19.2805 5.75141 19.2727 5.75196 19.2644C5.76723 19.0119 5.76584 19.0149 5.52854 18.9325C4.12861 18.4462 3.00345 17.6128 2.26629 16.3077C2.10476 16.0219 1.99707 15.7049 1.8744 15.3982C1.84248 15.3189 1.81501 15.2861 1.72286 15.285C0.848876 15.2739 0.140308 14.6788 0.0509386 13.8093C-0.00512518 13.2637 -0.05203 12.7008 0.122545 12.1596C0.342914 11.4771 0.98182 10.9681 1.74035 10.9892C1.77698 10.9903 1.8139 10.9892 1.85553 10.9892C2.07173 10.4263 2.39535 9.93812 2.83248 9.52958C2.99706 9.37554 3.18246 9.24399 3.35315 9.09606C3.3884 9.06553 3.41976 9.00808 3.42032 8.96284C3.42476 8.39387 3.42559 7.82491 3.41948 7.25594C3.41893 7.20737 3.37313 7.13632 3.32928 7.1144C2.48777 6.69808 1.94323 6.04169 1.75256 5.12052C1.56938 4.23571 1.77781 3.42834 2.33068 2.717C2.78113 2.13749 3.3798 1.78778 4.09836 1.64762C4.4883 1.57157 4.87964 1.58712 5.26126 1.69786C5.36062 1.72672 5.39837 1.69952 5.44722 1.62542C6.03839 0.727842 6.87546 0.177473 7.92929 0.0395341C9.41554 -0.155024 10.6242 0.368423 11.4941 1.6121C11.5515 1.69425 11.592 1.72422 11.7011 1.69508C12.8282 1.39422 14.0572 1.87632 14.7452 2.88047C15.4915 3.96983 15.4527 5.29482 14.6306 6.3345C14.3763 6.65589 14.0591 6.91262 13.6808 7.07998C13.557 7.13493 13.5198 7.20515 13.5223 7.34004C13.5318 7.87181 13.5237 8.40386 13.5298 8.93564C13.5304 8.99281 13.5665 9.06941 13.6114 9.10327C14.249 9.58398 14.7694 10.1563 15.0691 10.9098C15.0841 10.9475 15.1562 10.9861 15.2012 10.9853C16.0366 10.9692 16.6966 11.562 16.8656 12.2809C16.8959 12.4099 16.9175 12.5445 16.9164 12.6764C16.9137 13.0824 16.9395 13.4946 16.8792 13.8931C16.7549 14.7174 16.0691 15.2783 15.2376 15.2847C15.1421 15.2856 15.1082 15.3128 15.0769 15.403C14.4521 17.2037 13.189 18.3477 11.4066 18.9511C11.1926 19.0243 11.1896 19.016 11.2013 19.2816ZM4.31623 8.62618C7.09361 8.10328 9.85877 8.11577 12.6306 8.61452C12.6306 8.19931 12.6306 7.77245 12.6306 7.33976C12.5668 7.33588 12.5121 7.33116 12.4574 7.32894C11.7466 7.29924 11.1541 7.00421 10.6509 6.51657C10.4194 6.29203 10.4486 5.96537 10.705 5.7758C10.8671 5.65618 10.9887 5.66673 11.1341 5.80717C11.2204 5.89043 11.3075 5.97425 11.4022 6.04724C11.9159 6.44413 12.4888 6.59234 13.1138 6.38584C14.2223 6.01976 14.7435 4.77026 14.2315 3.69201C13.8601 2.90989 13.2301 2.48913 12.3514 2.46887C12.0608 2.46221 11.7885 2.53576 11.5238 2.65094C11.2515 2.76945 11.0492 2.66926 10.9504 2.38894C10.9096 2.27348 10.8613 2.15553 10.7922 2.05561C9.95924 0.853014 8.29093 0.42754 6.97482 1.26739C6.54962 1.53882 6.18215 1.87576 6.00425 2.36729C5.91183 2.62291 5.69506 2.80886 5.3523 2.63235C4.97234 2.43668 4.56546 2.4253 4.15414 2.51328C3.09226 2.74087 2.38647 3.81107 2.55993 4.87157C2.74006 5.97258 3.83858 6.79023 5.03867 6.35393C5.33481 6.24624 5.57933 6.06084 5.79498 5.83326C5.87824 5.74555 5.96595 5.66867 6.10805 5.7067C6.46442 5.80217 6.60235 6.22709 6.34729 6.49381C5.97289 6.88515 5.51744 7.14881 4.98788 7.2676C4.77001 7.31645 4.54409 7.32783 4.31678 7.35697C4.31623 7.78328 4.31623 8.21264 4.31623 8.62618ZM8.44469 18.3433C8.44469 18.3496 8.44469 18.356 8.44469 18.3624C8.61121 18.3624 8.77802 18.3682 8.94399 18.3613C9.49214 18.3383 10.0494 18.3646 10.5868 18.2736C11.776 18.0724 12.7758 17.5017 13.531 16.5464C14.1696 15.7382 14.5154 14.8173 14.5248 13.7804C14.5296 13.2717 14.5282 12.763 14.524 12.2542C14.5229 12.1163 14.5093 11.9772 14.4863 11.8412C14.3916 11.2831 14.159 10.7902 13.7705 10.375C13.3386 9.91315 12.8526 9.54373 12.2148 9.40357C11.3647 9.21679 10.5018 9.13602 9.63674 9.11049C8.77385 9.08523 7.90875 9.1116 7.04504 9.13158C6.31648 9.14851 5.59681 9.25509 4.87798 9.37582C3.6146 9.58759 2.4342 10.7921 2.42505 12.3128C2.42199 12.8124 2.41422 13.3119 2.42865 13.8112C2.4367 14.0907 2.45835 14.3755 2.52024 14.6472C2.8075 15.9117 3.50747 16.8931 4.59988 17.5908C5.25321 18.008 5.96955 18.2733 6.73974 18.3346C7.30454 18.3793 7.876 18.3433 8.44469 18.3433ZM14.0422 25.6715C14.5365 25.6715 15.0078 25.6735 15.4788 25.6701C15.6067 25.6693 15.6827 25.5927 15.6814 25.4398C15.6761 24.8081 15.733 24.1742 15.6111 23.5466C15.4174 22.5491 14.9209 21.7309 14.1488 21.0782C13.2168 20.2902 12.1241 20.0488 10.9343 20.1503C10.9023 20.1531 10.8613 20.1703 10.8429 20.1945C10.6417 20.4598 10.3697 20.633 10.0761 20.7712C8.5879 21.4726 7.09805 22.1703 5.60708 22.8658C5.52965 22.9019 5.49967 22.9383 5.49995 23.0271C5.50411 23.8594 5.50273 24.6918 5.50273 25.5241C5.50273 25.5691 5.50273 25.6138 5.50273 25.6649C8.08111 25.6649 10.6448 25.6649 13.2212 25.6649C13.2212 25.6082 13.2212 25.5586 13.2212 25.5089C13.2212 25.0001 13.2195 24.4917 13.222 23.9829C13.2232 23.7481 13.3836 23.5702 13.5926 23.5622C13.8482 23.5522 14.0111 23.6946 14.0327 23.9516C14.0402 24.039 14.0416 24.127 14.0419 24.215C14.0425 24.6951 14.0422 25.1753 14.0422 25.6715ZM7.54517 21.0529C6.76416 20.8114 6.67313 20.7568 6.0975 20.1961C6.07391 20.1731 6.03755 20.1534 6.00536 20.1503C5.53853 20.1059 5.06865 20.1068 4.61375 20.2128C2.92934 20.6055 1.86607 21.6585 1.39786 23.3152C1.20247 24.0063 1.28434 24.7179 1.28295 25.422C1.28268 25.6124 1.35817 25.6718 1.55078 25.6718C2.54467 25.6721 3.53855 25.6721 4.53243 25.6718C4.57684 25.6718 4.62125 25.6679 4.67259 25.6657C4.67259 25.603 4.67259 25.5527 4.67259 25.5025C4.67259 24.6657 4.67814 23.8292 4.67037 22.9924C4.66649 22.5897 4.84745 22.3191 5.20298 22.1523C5.50661 22.0099 5.81108 21.8697 6.11471 21.7273C6.5832 21.507 7.05142 21.2858 7.54517 21.0529ZM6.6215 19.1825C6.63649 19.54 6.81134 19.8004 7.12608 19.9741C7.62677 20.2505 8.16853 20.3241 8.7275 20.2808C9.128 20.25 9.51351 20.1556 9.85877 19.9291C10.1377 19.7462 10.3103 19.5095 10.3187 19.1823C9.08554 19.1825 7.85963 19.1825 6.6215 19.1825ZM1.63405 14.4507C1.56827 13.5673 1.57521 12.6927 1.63099 11.8182C1.26935 11.8368 0.924923 12.1132 0.878018 12.4863C0.833611 12.8412 0.849432 13.2043 0.844436 13.564C0.843048 13.655 0.853594 13.7488 0.87441 13.8373C0.961281 14.2059 1.30294 14.4793 1.63405 14.4507ZM15.3347 11.8068C15.3347 12.6936 15.3347 13.5726 15.3347 14.4632C15.3819 14.4565 15.4416 14.4549 15.4973 14.439C15.8446 14.3411 16.1013 13.9986 16.1066 13.6222C16.1107 13.3264 16.1082 13.0302 16.1074 12.7344C16.1063 12.2653 15.8001 11.8565 15.3347 11.8068Z" fill="#5C5C5C"/>
<path d="M8.45595 15.3923C7.3924 15.3923 6.32858 15.399 5.26503 15.3879C4.98666 15.3848 4.6969 15.3657 4.43323 15.2855C3.67276 15.054 3.11823 14.2672 3.11823 13.4759C3.11823 13.069 3.126 12.6619 3.11684 12.255C3.09353 11.2214 3.97917 10.4726 4.71716 10.3588C4.91699 10.328 5.12265 10.3244 5.32554 10.3241C7.48538 10.3219 9.64522 10.3213 11.8051 10.3244C12.7312 10.3258 13.4978 10.8628 13.7507 11.6888C13.7998 11.8492 13.8239 12.0224 13.8284 12.1906C13.8392 12.6066 13.822 13.0232 13.8347 13.4393C13.8489 13.8961 13.7026 14.2908 13.4126 14.6344C13.1314 14.9674 12.8064 15.2561 12.3635 15.3313C12.0424 15.3859 11.711 15.3943 11.3838 15.397C10.4079 15.4051 9.43207 15.3998 8.45623 15.3998C8.45595 15.397 8.45595 15.3948 8.45595 15.3923ZM7.41461 11.1268C7.28499 11.1268 7.15427 11.1165 7.0266 11.1315C6.97082 11.1381 6.89199 11.1853 6.8734 11.2333C6.45875 12.303 6.05215 13.3757 5.63999 14.4462C5.59281 14.5689 5.6411 14.5958 5.74685 14.5958C5.91337 14.5958 6.08018 14.5886 6.24615 14.598C6.37326 14.6055 6.44126 14.5597 6.47873 14.4376C6.52314 14.2933 6.58919 14.1556 6.63665 14.0118C6.66468 13.9266 6.7127 13.8997 6.79957 13.9005C7.21117 13.9041 7.62304 13.9047 8.03464 13.9003C8.12345 13.8994 8.16953 13.9297 8.19784 14.0115C8.25029 14.1634 8.31218 14.3119 8.36547 14.4634C8.39878 14.5583 8.45429 14.6027 8.56003 14.598C8.72156 14.5908 8.88365 14.5966 9.04573 14.5961C9.22808 14.5955 9.23474 14.5838 9.17035 14.4168C8.78956 13.4279 8.41376 12.437 8.02742 11.4504C7.87811 11.069 7.9894 11.1326 7.56809 11.127C7.51646 11.1262 7.46567 11.1268 7.41461 11.1268ZM10.9172 12.8645C10.9172 12.3424 10.915 11.8201 10.9192 11.298C10.92 11.1917 10.8903 11.1481 10.7779 11.1526C10.5842 11.1601 10.3896 11.1609 10.1959 11.1523C10.0682 11.1467 10.0363 11.2064 10.0363 11.318C10.0374 12.3529 10.0374 13.3882 10.0355 14.4231C10.0352 14.5364 10.0824 14.5808 10.1934 14.5786C10.3827 14.575 10.5725 14.5733 10.7615 14.5797C10.882 14.5836 10.9208 14.5383 10.9194 14.417C10.9139 13.8997 10.9172 13.3821 10.9172 12.8645Z" fill="#5C5C5C"/>
<path d="M8.44951 17.4957C7.73317 17.4615 7.12618 17.2054 6.62189 16.7072C6.49228 16.579 6.47174 16.4446 6.5414 16.3056C6.60496 16.1785 6.72486 16.1041 6.86835 16.1263C6.93024 16.1357 6.99574 16.1768 7.04209 16.2215C7.38819 16.5576 7.80228 16.7666 8.27744 16.8068C8.85861 16.8562 9.38844 16.7014 9.8253 16.2889C9.89607 16.2223 9.98044 16.1513 10.0706 16.1282C10.2147 16.0913 10.3293 16.1707 10.4023 16.2978C10.4781 16.4302 10.4575 16.5579 10.3585 16.6683C10.069 16.9908 9.71594 17.2231 9.29991 17.3375C9.02264 17.4135 8.73344 17.4446 8.44951 17.4957Z" fill="#5C5C5C"/>
<path d="M10.9109 23.8069C10.9148 24.1214 10.6464 24.3942 10.3342 24.3934C10.0275 24.3926 9.7566 24.1364 9.75216 23.8422C9.74688 23.5028 10.0028 23.233 10.3303 23.2324C10.63 23.2321 10.907 23.5061 10.9109 23.8069Z" fill="#5C5C5C"/>
<path d="M7.50193 23.8165C7.50193 24.1263 7.24493 24.3874 6.93519 24.393C6.62628 24.3985 6.35374 24.1288 6.35152 23.8154C6.34929 23.496 6.61629 23.2251 6.92603 23.2326C7.24687 23.2403 7.50193 23.499 7.50193 23.8165Z" fill="#5C5C5C"/>
<path d="M7.43182 11.9629C7.58918 12.3639 7.73739 12.7378 7.87839 13.1141C7.8856 13.1338 7.83259 13.2032 7.8065 13.2041C7.54839 13.2113 7.28999 13.2096 7.0316 13.2082C6.95972 13.208 6.92863 13.1688 6.95583 13.0992C7.09321 12.7453 7.23171 12.3917 7.37104 12.0387C7.37853 12.0195 7.39768 12.0048 7.43182 11.9629Z" fill="#5C5C5C"/>
</svg>
