<svg width="33" height="33" viewBox="0 0 33 33" fill="none" xmlns="http://www.w3.org/2000/svg">
<path d="M16.4945 9.625H16.5069M5.5 13.75V25.4375M11 13.75V25.4375M22 13.75V25.4375M27.5 13.75V25.4375M2.75 11.7837C2.75 10.1379 3.41275 9.13 4.785 8.3655L10.4363 5.22087C13.3966 3.575 14.8775 2.75 16.5 2.75C18.1225 2.75 19.6034 3.575 22.5637 5.22087L28.215 8.3655C29.5859 9.13 30.25 10.1379 30.25 11.7837C30.25 12.2292 30.25 12.4534 30.2019 12.6362C29.9461 13.5987 29.073 13.7514 28.2301 13.7514H4.76988C3.927 13.7514 3.05525 13.6001 2.79813 12.6362C2.75 12.452 2.75 12.2292 2.75 11.7837ZM26.125 25.4375H6.875C5.78098 25.4375 4.73177 25.8721 3.95818 26.6457C3.1846 27.4193 2.75 28.4685 2.75 29.5625C2.75 29.7448 2.82243 29.9197 2.95136 30.0486C3.0803 30.1776 3.25516 30.25 3.4375 30.25H29.5625C29.7448 30.25 29.9197 30.1776 30.0486 30.0486C30.1776 29.9197 30.25 29.7448 30.25 29.5625C30.25 28.4685 29.8154 27.4193 29.0418 26.6457C28.2682 25.8721 27.219 25.4375 26.125 25.4375Z" stroke="white" stroke-width="2.0625" stroke-linecap="round" stroke-linejoin="round"/>
</svg>
