<svg width="20" height="20" viewBox="0 0 20 20" fill="none" xmlns="http://www.w3.org/2000/svg">
<rect x="3.11597" y="9.3291" width="13.7681" height="8.94927" rx="3.30435" stroke="black" stroke-width="1.5"/>
<path d="M3.11597 12.4277C3.11597 12.4277 5.18718 11.7393 6.558 11.7393C7.92881 11.7393 8.62921 12.4277 10 12.4277C11.3708 12.4277 12.0712 11.7393 13.4421 11.7393C14.8129 11.7393 16.8841 12.4277 16.8841 12.4277" stroke="black" stroke-width="1.5"/>
<path d="M7.93481 7.95291C7.93481 7.56907 7.93481 7.37714 7.96656 7.21755C8.09693 6.56214 8.60926 6.04981 9.26467 5.91944C9.42426 5.8877 9.61619 5.8877 10 5.8877V5.8877C10.3839 5.8877 10.5758 5.8877 10.7354 5.91944C11.3908 6.04981 11.9031 6.56214 12.0335 7.21755C12.0652 7.37714 12.0652 7.56907 12.0652 7.95291V9.32972H7.93481V7.95291Z" stroke="black" stroke-width="1.5"/>
<path d="M10.8334 3.80404C10.8334 4.95463 10.0001 5.88737 10.0001 5.88737C10.0001 5.88737 9.16675 4.95463 9.16675 3.80404C9.16675 2.65344 10.0001 1.7207 10.0001 1.7207C10.0001 1.7207 10.8334 2.65344 10.8334 3.80404Z" stroke="black" stroke-width="1.5" stroke-linejoin="round"/>
</svg>
