<svg width="311" height="306" viewBox="0 0 311 306" fill="none" xmlns="http://www.w3.org/2000/svg">
<mask id="mask0_603_19462" style="mask-type:luminance" maskUnits="userSpaceOnUse" x="136" y="45" width="148" height="261">
<path d="M136.298 45.834H283.448V305.336H136.298V45.834Z" fill="white"/>
</mask>
<g mask="url(#mask0_603_19462)">
<path d="M262.659 305.129H145.832C140.862 305.129 136.83 301.041 136.83 295.994L148.223 55.6786C148.223 50.6357 152.251 46.5469 157.221 46.5469H274.052C279.022 46.5469 283.05 50.6357 283.05 55.6786L271.661 295.994C271.661 301.041 267.63 305.129 262.659 305.129Z" fill="#EE8427"/>
</g>
<path d="M257.847 304.556H141.019C136.045 304.556 132.018 300.486 132.018 295.466L143.407 56.2009C143.407 51.181 147.438 47.1113 152.408 47.1113H269.24C274.206 47.1113 278.237 51.181 278.237 56.2009L266.848 295.466C266.848 300.486 262.817 304.556 257.847 304.556Z" fill="white"/>
<mask id="mask1_603_19462" style="mask-type:luminance" maskUnits="userSpaceOnUse" x="131" y="45" width="149" height="261">
<path d="M131.393 45.834H279.525V305.336H131.393V45.834Z" fill="white"/>
</mask>
<g mask="url(#mask1_603_19462)">
<path d="M152.408 47.4892C147.652 47.4892 143.786 51.3979 143.786 56.1994L132.393 295.484C132.397 300.27 136.263 304.175 141.015 304.175H257.843C262.598 304.175 266.469 300.27 266.469 295.465L277.857 56.1841C277.857 51.3979 273.987 47.4892 269.235 47.4892H152.408ZM257.843 304.934H141.015C135.846 304.934 131.638 300.684 131.638 295.465L143.027 56.1841C143.027 50.9802 147.235 46.7305 152.408 46.7305H269.235C274.409 46.7305 278.616 50.9802 278.616 56.1994L267.223 295.484C267.223 300.684 263.016 304.934 257.843 304.934Z" fill="#EE8427"/>
</g>
<path d="M186.065 46.6016L188.885 50.7977C190.594 53.3421 193.464 54.8749 196.534 54.8749H224.983C227.987 54.8749 230.8 53.4111 232.528 50.9509L235.578 46.6016H186.065Z" fill="#EE8427"/>
<path d="M175.722 85.6228H159.95C158.413 85.6228 157.172 84.3774 157.172 82.8446C157.172 81.3079 158.413 80.0625 159.95 80.0625H175.722C177.255 80.0625 178.504 81.3079 178.504 82.8446C178.504 84.3774 177.255 85.6228 175.722 85.6228Z" fill="white"/>
<path d="M159.95 80.4462C158.624 80.4462 157.547 81.5192 157.547 82.8451C157.547 84.1672 158.624 85.244 159.95 85.244H175.722C177.044 85.244 178.121 84.1672 178.121 82.8451C178.121 81.5192 177.044 80.4462 175.722 80.4462H159.95ZM175.722 86.0027H159.95C158.206 86.0027 156.792 84.5849 156.792 82.8451C156.792 81.1015 158.206 79.6875 159.95 79.6875H175.722C177.462 79.6875 178.88 81.1015 178.88 82.8451C178.88 84.5849 177.462 86.0027 175.722 86.0027Z" fill="#EE8427"/>
<path d="M259.126 101.426H159.29C157.757 101.426 156.512 100.18 156.512 98.6435C156.512 97.1107 157.757 95.8691 159.29 95.8691H259.126C260.659 95.8691 261.901 97.1107 261.901 98.6435C261.901 100.18 260.659 101.426 259.126 101.426Z" fill="white"/>
<path d="M159.29 96.2451C157.968 96.2451 156.891 97.3219 156.891 98.6478C156.891 99.9698 157.968 101.047 159.29 101.047H259.126C260.444 101.047 261.521 99.9698 261.521 98.6478C261.521 97.3219 260.444 96.2451 259.126 96.2451H159.29ZM259.126 101.805H159.29C157.546 101.805 156.132 100.388 156.132 98.6478C156.132 96.9042 157.546 95.4863 159.29 95.4863H259.126C260.866 95.4863 262.284 96.9042 262.284 98.6478C262.284 100.388 260.866 101.805 259.126 101.805Z" fill="#EE8427"/>
<path d="M253.938 236.258H154.106C152.573 236.258 151.327 235.012 151.327 233.475C151.327 231.943 152.573 230.697 154.106 230.697H253.938C255.475 230.697 256.716 231.943 256.716 233.475C256.716 235.012 255.475 236.258 253.938 236.258Z" fill="white"/>
<path d="M154.106 231.077C152.783 231.077 151.703 232.154 151.703 233.476C151.703 234.802 152.783 235.879 154.106 235.879H253.938C255.264 235.879 256.341 234.802 256.341 233.476C256.341 232.154 255.264 231.077 253.938 231.077H154.106ZM253.938 236.634H154.106C152.366 236.634 150.948 235.22 150.948 233.476C150.948 231.736 152.366 230.318 154.106 230.318H253.938C255.678 230.318 257.096 231.736 257.096 233.476C257.096 235.22 255.678 236.634 253.938 236.634Z" fill="#EE8427"/>
<path d="M252.621 251.566H152.788C151.255 251.566 150.01 250.321 150.01 248.788C150.01 247.251 151.255 246.006 152.788 246.006H252.621C254.157 246.006 255.399 247.251 255.399 248.788C255.399 250.321 254.157 251.566 252.621 251.566Z" fill="white"/>
<path d="M152.787 246.39C151.461 246.39 150.388 247.463 150.388 248.788C150.388 250.11 151.461 251.187 152.787 251.187H252.62C253.942 251.187 255.018 250.11 255.018 248.788C255.018 247.463 253.942 246.39 252.62 246.39H152.787ZM252.62 251.946H152.787C151.044 251.946 149.626 250.528 149.626 248.788C149.626 247.045 151.044 245.627 152.787 245.627H252.62C254.359 245.627 255.777 247.045 255.777 248.788C255.777 250.528 254.359 251.946 252.62 251.946Z" fill="#EE8427"/>
<path d="M206.632 268.23H152.416C150.883 268.23 149.642 266.989 149.642 265.452C149.642 263.919 150.883 262.674 152.416 262.674H206.632C208.165 262.674 209.41 263.919 209.41 265.452C209.41 266.989 208.165 268.23 206.632 268.23Z" fill="white"/>
<path d="M152.416 263.054C151.094 263.054 150.017 264.13 150.017 265.453C150.017 266.778 151.094 267.855 152.416 267.855H206.632C207.958 267.855 209.034 266.778 209.034 265.453C209.034 264.13 207.958 263.054 206.632 263.054H152.416ZM206.632 268.61H152.416C150.676 268.61 149.262 267.196 149.262 265.453C149.262 263.713 150.676 262.295 152.416 262.295H206.632C208.375 262.295 209.789 263.713 209.789 265.453C209.789 267.196 208.375 268.61 206.632 268.61Z" fill="#EE8427"/>
<path d="M203.872 85.6228H188.099C186.563 85.6228 185.321 84.3774 185.321 82.8446C185.321 81.3079 186.563 80.0625 188.099 80.0625H203.872C205.409 80.0625 206.654 81.3079 206.654 82.8446C206.654 84.3774 205.409 85.6228 203.872 85.6228Z" fill="white"/>
<path d="M188.099 80.4462C186.773 80.4462 185.701 81.5192 185.701 82.8451C185.701 84.1672 186.773 85.244 188.099 85.244H203.872C205.198 85.244 206.271 84.1672 206.271 82.8451C206.271 81.5192 205.198 80.4462 203.872 80.4462H188.099ZM203.872 86.0027H188.099C186.36 86.0027 184.942 84.5849 184.942 82.8451C184.942 81.1015 186.36 79.6875 188.099 79.6875H203.872C205.612 79.6875 207.03 81.1015 207.03 82.8451C207.03 84.5849 205.612 86.0027 203.872 86.0027Z" fill="#EE8427"/>
<path d="M232.026 85.6228H216.25C214.717 85.6228 213.471 84.3774 213.471 82.8407C213.471 81.3079 214.717 80.0625 216.25 80.0625H232.026C233.559 80.0625 234.804 81.3079 234.804 82.8407C234.804 84.3774 233.559 85.6228 232.026 85.6228Z" fill="white"/>
<path d="M216.25 80.4424C214.928 80.4424 213.851 81.5192 213.851 82.8413C213.851 84.1672 214.928 85.244 216.25 85.244H232.022C233.348 85.244 234.425 84.1672 234.425 82.8413C234.425 81.5192 233.348 80.4424 232.022 80.4424H216.25ZM232.022 86.0027H216.25C214.51 86.0027 213.096 84.5849 213.096 82.8413C213.096 81.1015 214.51 79.6875 216.25 79.6875H232.022C233.766 79.6875 235.184 81.1015 235.184 82.8413C235.184 84.5849 233.766 86.0027 232.022 86.0027Z" fill="#EE8427"/>
<path d="M260.176 85.6228H244.403C242.867 85.6228 241.625 84.3774 241.625 82.8446C241.625 81.3079 242.867 80.0625 244.403 80.0625H260.176C261.709 80.0625 262.954 81.3079 262.954 82.8446C262.954 84.3774 261.709 85.6228 260.176 85.6228Z" fill="white"/>
<path d="M244.405 80.4424C243.079 80.4424 242.002 81.5192 242.002 82.8451C242.002 84.1672 243.079 85.244 244.405 85.244H260.173C261.499 85.244 262.576 84.1672 262.576 82.8451C262.576 81.5192 261.499 80.4424 260.173 80.4424H244.405ZM260.173 86.0027H244.405C242.661 86.0027 241.243 84.5849 241.243 82.8451C241.243 81.1015 242.661 79.6875 244.405 79.6875H260.173C261.917 79.6875 263.335 81.1015 263.335 82.8451C263.335 84.5849 261.917 86.0027 260.173 86.0027Z" fill="#EE8427"/>
<path d="M70.6659 33.5985C79.9049 51.9041 72.5551 74.2335 54.2494 83.4687C35.9437 92.7077 13.6182 85.3579 4.37919 67.0522C-4.85986 48.7504 2.49 26.421 20.7957 17.1858C39.1013 7.94675 61.4268 15.2966 70.6659 33.5985Z" fill="white"/>
<path d="M37.4887 13.5613C31.8135 13.5613 26.1804 14.891 20.9688 17.5198C12.2049 21.9458 5.69041 29.5141 2.62094 38.8375C-0.448524 48.1608 0.294892 58.1203 4.7209 66.8842C9.13925 75.6442 16.7114 82.1626 26.0347 85.232C35.3581 88.3015 45.3176 87.5542 54.0815 83.1321C62.8415 78.7099 69.3598 71.1378 72.4293 61.8182C75.4949 52.491 74.7515 42.5316 70.3293 33.7715C65.9072 25.0076 58.335 18.4893 49.0155 15.4237C45.2371 14.1783 41.3514 13.5613 37.4887 13.5613ZM37.5615 87.8493C33.6145 87.8493 29.6522 87.2209 25.7971 85.9486C16.2822 82.8178 8.55678 76.1692 4.04263 67.2253C-0.471517 58.2813 -1.23409 48.1148 1.90052 38.5999C5.0313 29.0849 11.6837 21.3595 20.6277 16.8454C29.5717 12.3312 39.7343 11.5686 49.2493 14.7033C58.7681 17.8379 66.4935 24.4865 71.0038 33.4266C75.5179 42.3706 76.2805 52.537 73.1459 62.052C70.0151 71.567 63.3665 79.2962 54.4225 83.8065C49.1036 86.4928 43.3517 87.8493 37.5615 87.8493Z" fill="#EE8427"/>
<path d="M64.8534 36.5338C72.4715 51.6283 66.4092 70.0412 51.3148 77.6593C36.2242 85.2775 17.8113 79.2152 10.1931 64.1207C2.57505 49.0263 8.63734 30.6133 23.7318 22.9952C38.8262 15.381 57.2353 21.4394 64.8534 36.5338Z" fill="white"/>
<path d="M37.4927 20.0759C32.8252 20.0759 28.1885 21.1719 23.9004 23.337C16.6923 26.9736 11.3313 33.2007 8.80599 40.8724C6.28067 48.5442 6.8938 56.7409 10.5304 63.949C14.1709 71.1571 20.3979 76.522 28.0697 79.0434C35.7414 81.5726 43.9382 80.9595 51.1462 77.319C58.3543 73.6824 63.7154 67.4515 66.2407 59.7798C68.766 52.108 68.1529 43.9151 64.5163 36.707C60.8758 29.4951 54.6487 24.1341 46.977 21.6088C43.8692 20.5856 40.6733 20.0759 37.4927 20.0759ZM37.554 81.335C34.2929 81.335 31.0204 80.8138 27.8321 79.7639C19.9687 77.1772 13.5845 71.6821 9.85597 64.2901C6.12356 56.9019 5.4951 48.502 8.08557 40.6349C10.6722 32.7715 16.1712 26.3873 23.5594 22.6587C30.9514 18.9302 39.3512 18.2979 47.2146 20.8883C55.0779 23.475 61.4621 28.974 65.1945 36.3621C68.9231 43.7541 69.5516 52.154 66.9611 60.0173C64.3745 67.8807 58.8793 74.2649 51.4873 77.9973C47.0919 80.2122 42.3402 81.335 37.554 81.335Z" fill="#EE8427"/>
<path d="M43.333 66.8382L41.509 63.2323C38.907 64.4011 36.0943 64.9644 34.2281 64.8532L33.1283 59.8371C35.1631 59.9061 37.8072 59.5727 40.275 58.3273C42.4401 57.2351 43.4978 55.6525 42.7314 54.1312C42.0033 52.6903 40.3287 52.3914 37.037 52.8589C32.2852 53.5449 28.5528 53.0429 26.6943 49.3603C25.0082 46.0187 26.039 42.2097 29.7024 39.3625L27.8822 35.7527L31.6031 33.875L33.2892 37.2165C35.8912 36.0478 37.8685 35.7144 39.4282 35.6914L40.4935 40.5389C39.294 40.6194 37.1059 40.6271 34.3737 42.0066C31.9059 43.252 31.6414 44.7197 32.1818 45.7812C32.814 47.0342 34.5423 47.1607 38.3858 46.7468C43.7085 46.0647 46.5864 47.2297 48.3108 50.6479C50.0161 54.0277 49.0811 58.1242 45.0996 61.0863L47.0539 64.9605L43.333 66.8382Z" fill="#EE8427"/>
<mask id="mask2_603_19462" style="mask-type:luminance" maskUnits="userSpaceOnUse" x="72" y="290" width="38" height="16">
<path d="M72.5326 290.105H109.811V305.338H72.5326V290.105Z" fill="white"/>
</mask>
<g mask="url(#mask2_603_19462)">
<path d="M74.989 305.142C73.9007 305.142 73.0002 304.303 72.9235 303.214C72.7549 300.754 72.8277 296.386 74.8856 292.776C75.4604 291.772 76.5678 291.262 77.6561 291.458L86.558 293.079C87.4777 293.228 88.405 292.876 89.0335 292.148L89.8574 291.052C90.4398 290.278 91.4821 290.009 92.3635 290.408C96.0921 292.102 105.603 296.807 108.573 302.05C109.355 303.433 108.355 305.142 106.768 305.142H74.989Z" fill="white"/>
</g>
<mask id="mask3_603_19462" style="mask-type:luminance" maskUnits="userSpaceOnUse" x="71" y="289" width="39" height="17">
<path d="M71.5517 289.125H109.811V305.338H71.5517V289.125Z" fill="white"/>
</mask>
<g mask="url(#mask3_603_19462)">
<path d="M77.1972 291.796C76.3963 291.796 75.6337 292.236 75.216 292.964C73.1812 296.532 73.1429 300.901 73.3038 303.192C73.3651 304.074 74.1047 304.763 74.9899 304.763H106.769C107.378 304.763 107.926 304.449 108.233 303.924C108.539 303.395 108.543 302.767 108.244 302.238C105.347 297.122 96.0623 292.505 92.2073 290.753C91.483 290.428 90.6438 290.642 90.161 291.278L89.3371 292.374C88.6052 293.229 87.5514 293.624 86.4976 293.451L77.5881 291.83C77.4578 291.807 77.3275 291.796 77.1972 291.796ZM106.769 305.522H74.9899C73.71 305.522 72.6371 304.522 72.5451 303.242C72.3841 300.87 72.4263 296.329 74.5569 292.589C75.2007 291.462 76.4729 290.861 77.726 291.087L86.6278 292.708C87.4096 292.834 88.2028 292.531 88.747 291.899L89.5555 290.822C90.253 289.903 91.4715 289.588 92.5215 290.064C96.4455 291.842 105.895 296.555 108.904 301.866C109.337 302.633 109.333 303.541 108.888 304.303C108.444 305.066 107.65 305.522 106.769 305.522Z" fill="#EE8427"/>
</g>
<path d="M104.005 302.923H75.0389C74.832 302.923 74.6595 302.754 74.6595 302.543C74.6595 302.333 74.832 302.164 75.0389 302.164H104.005C104.216 302.164 104.385 302.333 104.385 302.543C104.385 302.754 104.216 302.923 104.005 302.923Z" fill="#EE8427"/>
<path d="M91.3098 298.755C91.2293 298.755 91.1488 298.732 91.0837 298.682C90.9151 298.555 90.8806 298.318 91.007 298.149L93.9309 294.233C94.0574 294.064 94.2949 294.03 94.4636 294.156C94.6283 294.283 94.6666 294.52 94.5402 294.685L91.6125 298.605C91.5397 298.705 91.4247 298.755 91.3098 298.755Z" fill="#EE8427"/>
<path d="M97.3307 299.827C97.2694 299.827 97.208 299.811 97.1506 299.781C96.9666 299.681 96.8976 299.451 96.9973 299.267L98.35 296.757C98.4496 296.573 98.6795 296.501 98.8635 296.604C99.0474 296.7 99.1164 296.93 99.0168 297.114L97.6641 299.627C97.5989 299.754 97.4686 299.827 97.3307 299.827Z" fill="#EE8427"/>
<path d="M4.57924 272.172C4.84748 276.973 5.92429 290.278 9.85213 298.931C10.6722 300.74 13.094 301.069 14.4008 299.575C15.1557 298.713 16.06 297.513 17.1177 295.85C20.6662 290.259 22.6473 273.525 23.0114 270.183C23.0535 269.815 22.9156 269.451 22.6435 269.202L20.8156 267.516C20.0185 266.784 18.7693 266.899 18.1217 267.765L17.8075 268.183C17.5545 268.516 17.0372 268.459 16.8686 268.079L15.3511 264.642C14.9181 263.669 13.757 263.247 12.8066 263.73C11.132 264.581 8.48409 266.205 5.76334 268.984C4.93562 269.831 4.51026 270.992 4.57924 272.172Z" fill="white"/>
<path d="M4.95485 272.149C5.24609 277.322 6.33822 290.275 10.1971 298.774C10.5305 299.506 11.1781 299.996 11.979 300.115C12.7837 300.23 13.5808 299.935 14.1173 299.326C14.9488 298.375 15.8494 297.138 16.7959 295.643C20.3022 290.125 22.2757 273.433 22.6359 270.141C22.6627 269.896 22.5708 269.65 22.3868 269.478L20.5551 267.796C20.2524 267.516 19.8577 267.382 19.4476 267.42C19.0338 267.459 18.6736 267.662 18.4245 267.991L18.1103 268.413C17.911 268.677 17.5968 268.815 17.2634 268.777C16.9338 268.738 16.6579 268.535 16.5238 268.233L15.0025 264.795C14.8339 264.42 14.5273 264.132 14.1403 263.994C13.7532 263.856 13.3394 263.883 12.9753 264.071C11.2777 264.929 8.69493 266.531 6.03549 269.252C5.28824 270.015 4.89737 271.072 4.95485 272.149ZM12.3315 300.897C12.1783 300.897 12.025 300.885 11.8679 300.862C10.8255 300.709 9.94034 300.046 9.50732 299.088C5.5948 290.47 4.49118 277.407 4.19994 272.191C4.12713 270.9 4.59847 269.635 5.49134 268.723C8.22742 265.926 10.883 264.282 12.6343 263.393C13.1861 263.113 13.8107 263.075 14.3932 263.282C14.9833 263.489 15.4432 263.918 15.6961 264.489L17.2174 267.922C17.248 268.003 17.3132 268.018 17.3515 268.022C17.386 268.03 17.455 268.026 17.5048 267.957L17.819 267.535C18.1907 267.041 18.7579 266.723 19.3787 266.665C19.9956 266.608 20.6126 266.819 21.0724 267.236L22.9003 268.922C23.2605 269.256 23.4406 269.742 23.3908 270.225C23.0268 273.544 21.0341 290.39 17.4358 296.049C16.4701 297.575 15.5428 298.847 14.6882 299.824C14.0866 300.514 13.2282 300.897 12.3315 300.897Z" fill="#EE8427"/>
<path d="M12.9059 298.604C12.7526 298.604 12.607 298.508 12.5495 298.355C8.13501 286.295 7.21915 270.185 7.21149 270.025C7.19999 269.814 7.36094 269.637 7.56787 269.626C7.77096 269.611 7.9549 269.775 7.9664 269.982C7.97406 270.143 8.88609 286.142 13.2623 298.094C13.3351 298.29 13.2316 298.508 13.0362 298.581C12.994 298.596 12.9481 298.604 12.9059 298.604Z" fill="#EE8427"/>
<path d="M19.5893 286.211C19.574 286.211 19.5625 286.211 19.5472 286.207L14.5923 285.64C14.3854 285.617 14.236 285.425 14.259 285.219C14.2819 285.012 14.4736 284.862 14.6805 284.885L19.6315 285.456C19.8422 285.479 19.9917 285.667 19.9649 285.874C19.9457 286.069 19.7809 286.211 19.5893 286.211Z" fill="#EE8427"/>
<path d="M20.1527 280.46C20.1412 280.46 20.1259 280.46 20.1106 280.456L13.8835 279.74C13.6766 279.717 13.5271 279.529 13.5501 279.322C13.5769 279.111 13.7647 278.966 13.9716 278.989L20.1987 279.705C20.4057 279.728 20.5551 279.916 20.5321 280.123C20.5091 280.318 20.3443 280.46 20.1527 280.46Z" fill="#EE8427"/>
<path d="M100.549 175.362C100.549 175.362 102.17 187.575 98.4717 222.166C97.8011 228.405 96.479 234.421 94.6473 240.12C92.2868 247.466 90.4665 260.245 90.3401 287.388C90.3248 290.641 88.8762 293.435 86.669 294.504C83.3734 296.106 77.9051 296.52 77.7978 289.074C77.6254 277.049 73.5634 249.819 74.4218 238.671C75.2801 227.528 69.8885 182.47 78.9359 177.719C87.9872 172.971 100.549 175.362 100.549 175.362Z" fill="#EE8427"/>
<path d="M61.3167 172.91C61.3167 172.91 49.4872 209.299 46.732 225.789C46.732 225.789 46.9389 230.284 40.9417 234.637C34.9446 238.986 32.0629 232.702 14.9452 261.672C14.9452 261.672 11.7722 269.995 17.4628 272.777C18.5434 273.302 19.8233 272.957 20.7085 271.903C24.8242 266.994 33.8601 257.265 44.8083 251.639C57.91 244.907 59.2359 241.262 66.3635 227.287C73.4911 213.308 88.3096 191.994 89.0416 186.165C89.7773 180.34 61.3167 172.91 61.3167 172.91Z" fill="#EE8427"/>
<path d="M73.5755 216.297L72.9164 215.925C77.2926 208.131 79.5305 204.678 84.1098 201.877L84.5045 202.525C80.0785 205.23 77.8827 208.625 73.5755 216.297Z" fill="white"/>
<path d="M58.9333 189.775L58.8567 189.02C67.5439 188.15 69.5711 183.153 69.5902 183.1L70.2991 183.372C70.2148 183.594 68.1187 188.855 58.9333 189.775Z" fill="white"/>
<path d="M98.5486 196.25C94.5288 193.571 94.6437 187.896 94.6476 187.654L95.4063 187.677C95.4063 187.731 95.299 193.176 98.9663 195.621L98.5486 196.25Z" fill="white"/>
<path d="M41.6812 89.8926L43.6547 85.6582C44.3138 84.2365 44.3981 82.6156 43.8808 81.1326L42.1679 76.2122C42.1679 76.2122 40.7615 75.6221 40.2212 78.4923C39.6771 81.3663 40.7462 84.1254 38.6079 85.7885C36.4658 87.4554 31.6834 87.3366 31.6834 87.3366L33.0859 89.2105C33.883 90.2758 34.2279 92.9123 34.2279 92.9123L34.477 97.9131C34.477 97.9131 38.6769 96.752 41.1562 95.8668L41.0987 93.8205C41.0987 93.8205 41.1256 91.0805 41.6812 89.8926Z" fill="white"/>
<path d="M32.4384 87.7082L33.3887 88.9843C34.2356 90.1148 34.5882 92.7474 34.6035 92.8623L34.8334 97.4186C35.937 97.1082 38.8072 96.2844 40.7693 95.6022L40.7194 93.8318C40.7194 93.7016 40.7578 90.9808 41.3364 89.7316L43.3099 85.4971C43.9345 84.1598 44.0112 82.6538 43.5245 81.2589L41.8805 76.5417C41.7962 76.5378 41.6698 76.557 41.5357 76.6336C41.118 76.8674 40.7846 77.5533 40.593 78.565C40.4167 79.4885 40.4167 80.412 40.4129 81.3011C40.4129 83.1366 40.409 84.8687 38.8379 86.0911C37.125 87.4247 33.9061 87.6699 32.4384 87.7082ZM34.1207 98.4035L33.8486 92.9313C33.7604 92.253 33.3849 90.245 32.7833 89.4403L30.9132 86.938L31.6911 86.9572C31.7371 86.961 36.3662 87.053 38.3742 85.4895C39.6503 84.497 39.6541 83.0868 39.6541 81.2972C39.658 80.3737 39.658 79.4195 39.8496 78.4232C40.091 77.1318 40.5432 76.3041 41.1908 75.9554C41.7656 75.6488 42.2599 75.8404 42.3174 75.8634L42.4707 75.9285L44.2411 81.0098C44.7891 82.5925 44.7048 84.2977 43.9958 85.819L42.0262 90.0534C41.5127 91.1532 41.4744 93.7974 41.4744 93.8242L41.5433 96.1311L41.2827 96.223C38.8187 97.1044 34.6188 98.2655 34.5767 98.277L34.1207 98.4035Z" fill="#EE8427"/>
<path d="M85.1552 104.55L84.0285 108.849L79.135 107.627C78.725 107.523 78.3188 107.397 77.9126 107.274C72.4749 105.627 67.5316 107.481 63.0941 110.501L45.9802 123.802L43.8534 99.3995L43.359 95.943C43.1751 93.6898 38.569 94.6784 36.1893 95.4487C34.6603 95.943 32.2614 97.1271 32.0009 98.7098L31.8016 102.366C31.8016 102.366 30.721 136.202 35.2504 139.981C40.4505 144.311 51.5749 140.651 56.8134 138.552C58.5953 137.835 60.6032 138.835 61.1129 140.682C62.3008 144.955 63.209 153.941 59.3387 171.201C59.3387 171.201 58.1814 173.346 60.3273 176.316C60.3273 176.316 76.1767 183.911 88.3932 184.9C100.61 185.893 102.756 181.271 102.756 179.784C102.756 178.297 101.135 163.222 102.288 156.784C102.928 153.217 104.273 150.473 105.346 148.733C106.143 147.438 112.014 158.835 120.659 165.502C135.34 176.83 146.502 176.531 149.342 176.22C149.771 176.175 150.147 175.902 150.331 175.512L154.201 167.311C154.546 166.583 154.124 165.725 153.331 165.552C149.081 164.644 137.087 161.049 128.806 148.465C122.633 139.08 118.77 129.972 114.486 123.649C112.524 120.755 108.462 117.713 106.166 116.123C105.224 115.471 104.929 114.214 105.492 113.214L105.932 112.428C106.411 111.578 106.277 110.52 105.607 109.815C103.373 107.458 97.8775 102.442 90.5009 101.093C88.1671 100.668 85.7568 102.254 85.1552 104.55Z" fill="white"/>
<path d="M60.5811 176.017C61.8649 176.618 76.8826 183.589 88.4248 184.524C96.0659 185.141 99.5339 183.554 101.097 182.114C102.04 181.24 102.377 180.313 102.377 179.784C102.377 179.485 102.304 178.569 102.205 177.297C101.814 172.284 100.994 161.857 101.917 156.719C102.573 153.055 103.971 150.242 105.025 148.533C105.132 148.361 105.297 148.261 105.493 148.254C106.129 148.223 106.888 149.212 108.995 152.063C111.708 155.734 115.809 161.283 120.89 165.203C135.356 176.362 146.292 176.17 149.301 175.844C149.6 175.814 149.86 175.626 149.99 175.35L153.861 167.149C153.976 166.908 153.972 166.628 153.853 166.387C153.734 166.149 153.516 165.981 153.255 165.923C148.561 164.919 136.751 161.229 128.493 148.671C125.209 143.682 122.545 138.708 120.192 134.32C118.127 130.458 116.176 126.813 114.172 123.859C112.241 121.008 108.19 117.984 105.949 116.432C104.841 115.666 104.5 114.202 105.159 113.03L105.604 112.24C106.002 111.535 105.891 110.665 105.332 110.075C103.305 107.933 97.7865 102.809 90.4328 101.468C88.3251 101.081 86.0757 102.537 85.5239 104.645L84.2977 109.309L79.0439 107.994C78.6684 107.898 78.2928 107.783 77.9326 107.676L77.8023 107.638C73.1656 106.231 68.5594 107.239 63.3057 110.815L45.663 124.526L43.4749 99.4334L42.9844 95.9961C42.9576 95.6665 42.8311 95.4443 42.5782 95.2756C41.5359 94.582 38.6772 95.0419 36.309 95.8083C34.5079 96.3869 32.5995 97.5212 32.3773 98.7513L32.1819 102.384C31.8101 114.018 32.0247 136.796 35.4927 139.689C40.6162 143.958 52.0127 140.068 56.6724 138.198C57.619 137.819 58.6881 137.861 59.604 138.313C60.5237 138.766 61.2058 139.593 61.4817 140.582C62.7692 145.23 63.5088 154.327 59.7074 171.28L59.6729 171.38C59.6308 171.457 58.6881 173.334 60.5811 176.017ZM91.613 185.417C90.6205 185.417 89.5399 185.375 88.3635 185.279C76.2159 184.294 60.3244 176.733 60.1634 176.657L60.0791 176.615L60.0217 176.538C57.9217 173.629 58.8031 171.441 58.9793 171.07C62.7347 154.301 62.0143 145.345 60.7497 140.785C60.5351 140.003 59.9948 139.352 59.2667 138.992C58.5463 138.635 57.7033 138.601 56.956 138.9C51.0087 141.287 40.2483 144.636 35.0099 140.272C30.3885 136.42 31.381 103.741 31.4231 102.35L31.6262 98.6478C31.9826 96.5096 35.3931 95.3063 36.0752 95.0879C37.2746 94.7008 41.3174 93.5244 42.9997 94.6472C43.4404 94.9423 43.6933 95.3791 43.7393 95.9118L44.2298 99.3453L46.2991 123.073L62.8612 110.201C68.2644 106.527 73.2154 105.454 78.0208 106.91L78.1511 106.952C78.5036 107.059 78.8715 107.17 79.2279 107.258L83.7573 108.393L84.792 104.453C85.4511 101.936 88.0416 100.261 90.5707 100.721C98.1428 102.104 103.803 107.358 105.884 109.554C106.673 110.385 106.826 111.615 106.263 112.612L105.822 113.397C105.355 114.229 105.596 115.264 106.382 115.812C108.666 117.39 112.797 120.483 114.801 123.434C116.824 126.422 118.786 130.082 120.863 133.964C123.204 138.336 125.86 143.295 129.125 148.257C137.23 160.578 148.81 164.199 153.412 165.184C153.903 165.287 154.313 165.605 154.531 166.053C154.754 166.502 154.757 167.019 154.547 167.471L150.676 175.672C150.431 176.193 149.948 176.538 149.381 176.599C146.304 176.933 135.118 177.136 120.426 165.804C115.261 161.819 111.122 156.22 108.386 152.515C107.244 150.971 106.064 149.376 105.592 149.058C104.581 150.725 103.285 153.396 102.665 156.853C101.756 161.892 102.569 172.258 102.96 177.235C103.067 178.573 103.136 179.458 103.136 179.784C103.136 180.496 102.734 181.635 101.611 182.669C100.185 183.984 97.3189 185.417 91.613 185.417Z" fill="#EE8427"/>
<path d="M92.0268 120.349C91.9272 120.349 91.8237 120.307 91.7471 120.227C85.2824 113.168 86.639 105.872 86.7003 105.565C86.7386 105.358 86.9417 105.228 87.1448 105.266C87.3479 105.305 87.482 105.508 87.4437 105.711C87.4284 105.784 86.1101 112.95 92.3065 119.713C92.4483 119.867 92.4368 120.108 92.2836 120.25C92.2107 120.319 92.1188 120.349 92.0268 120.349Z" fill="#EE8427"/>
<path d="M89.6162 129.823C89.4667 129.823 89.3249 129.731 89.2636 129.581C89.187 129.39 89.2789 129.167 89.4744 129.091C89.4935 129.083 91.2065 128.386 93.7548 126.623C98.4797 123.657 102.741 117.713 102.783 117.652C102.906 117.48 103.139 117.441 103.312 117.564C103.48 117.683 103.523 117.92 103.4 118.093C103.224 118.338 99.0085 124.22 94.1725 127.255C91.5628 129.064 89.8308 129.765 89.7541 129.792C89.712 129.811 89.6621 129.823 89.6162 129.823Z" fill="#EE8427"/>
<path d="M83.4964 168.1C83.4083 168.1 83.3202 168.069 83.2512 168.008C83.0902 167.874 83.0749 167.632 83.209 167.475C87.9646 161.93 89.5664 160.064 91.9653 154.121C92.0419 153.925 92.2641 153.833 92.4558 153.91C92.6512 153.99 92.747 154.209 92.6665 154.404C90.2217 160.463 88.6007 162.356 83.7838 167.97C83.711 168.054 83.6037 168.1 83.4964 168.1Z" fill="#EE8427"/>
<path d="M72.5556 171.073C72.4483 171.073 72.3371 171.027 72.2643 170.939C72.1302 170.775 72.1532 170.537 72.3141 170.403C83.6608 161.033 94.0265 138.969 94.13 138.746C94.2181 138.559 94.4442 138.474 94.632 138.562C94.8236 138.654 94.904 138.877 94.8159 139.068C94.7124 139.29 84.274 161.509 72.797 170.989C72.728 171.047 72.6399 171.073 72.5556 171.073Z" fill="#EE8427"/>
<path d="M153.81 168.28C153.81 168.28 159.528 167.088 161.486 166.107C163.448 165.13 164.111 166.134 164.203 166.697C164.283 167.184 162.356 168.847 160.409 169.468C160.233 169.525 160.256 169.782 160.44 169.809C162.237 170.05 164.444 170.989 167.977 169.801C170.399 168.985 172.595 170.932 172.338 172.844C172.024 175.227 164.824 182.677 150.99 174.48L153.81 168.28Z" fill="white"/>
<path d="M151.477 174.324C159.977 179.26 165.525 177.93 168.093 176.685C170.538 175.493 171.848 173.661 171.963 172.795C172.063 172.048 171.703 171.236 171.024 170.672C170.216 170.009 169.124 169.818 168.1 170.163C165.192 171.14 163.161 170.726 161.529 170.393C161.126 170.308 160.747 170.232 160.39 170.186C160.13 170.151 159.934 169.944 159.911 169.684C159.888 169.423 160.046 169.186 160.295 169.109C162.05 168.549 163.682 167.143 163.824 166.725C163.797 166.618 163.709 166.335 163.406 166.181C163.015 165.978 162.41 166.074 161.655 166.449C159.854 167.35 155.098 168.392 154.075 168.611L151.477 174.324ZM162.716 178.593C159.662 178.593 155.681 177.7 150.795 174.807L150.504 174.635L153.543 167.948L153.73 167.906C153.788 167.894 159.425 166.718 161.318 165.771C162.306 165.273 163.126 165.185 163.751 165.503C164.399 165.833 164.548 166.453 164.579 166.637C164.705 167.4 162.889 168.829 161.23 169.561C161.375 169.588 161.525 169.619 161.678 169.649C163.222 169.963 165.146 170.354 167.859 169.442C169.131 169.017 170.495 169.255 171.507 170.09C172.4 170.826 172.852 171.876 172.714 172.899C172.549 174.133 170.99 176.118 168.422 177.363C167.177 177.969 165.272 178.593 162.716 178.593Z" fill="#EE8427"/>
<path d="M101.001 103.92C103.944 104.499 106.799 102.587 107.382 99.6436L108.976 91.5695C109.524 88.7913 107.73 86.0859 104.956 85.5072L103.971 85.3003C102.331 84.9592 100.629 85.4306 99.3956 86.5572L97.0887 88.6687C96.7476 88.9829 96.2341 89.0365 95.8394 88.7913C95.3068 88.4579 94.525 88.113 93.8621 88.3889C92.7316 88.8564 91.08 93.041 94.9159 94.5508L91.0647 104.537C91.0647 104.537 88.1025 110.178 94.3373 112.086C100.576 113.995 101.001 103.92 101.001 103.92Z" fill="white"/>
<path d="M94.3833 88.669C94.253 88.669 94.1265 88.6881 94.0039 88.7379C93.6092 88.9027 92.885 90.014 92.9003 91.3361C92.9079 92.2596 93.2873 93.5012 95.0539 94.1986L95.4064 94.3366L91.402 104.714C91.3905 104.737 90.1987 107.059 91.0456 109.086C91.5552 110.301 92.701 111.19 94.4484 111.723C95.7245 112.113 96.8243 111.991 97.7287 111.351C100.354 109.496 100.618 103.959 100.622 103.905L100.641 103.461L101.074 103.549C103.806 104.085 106.47 102.303 107.01 99.5711L108.604 91.497C109.11 88.9334 107.439 86.4119 104.879 85.8792L103.894 85.6723C102.377 85.3581 100.794 85.7911 99.6523 86.8372L97.3455 88.9487C96.8741 89.3817 96.1729 89.4469 95.6364 89.1135C95.3451 88.9295 94.847 88.669 94.3833 88.669ZM95.8318 112.707C95.3221 112.707 94.7857 112.623 94.2262 112.451C92.2488 111.845 90.9459 110.811 90.3443 109.377C89.3978 107.101 90.5819 104.652 90.7199 104.38L94.4293 94.7542C92.4673 93.8307 92.1492 92.2404 92.1415 91.3437C92.1262 89.7879 92.9578 88.3547 93.7165 88.0405C94.3565 87.7723 95.1612 87.9217 96.0387 88.4697C96.2878 88.623 96.6135 88.5923 96.832 88.3892L99.1389 86.2778C100.461 85.0707 102.296 84.5687 104.048 84.9327L105.033 85.1358C107.999 85.7566 109.934 88.6728 109.347 91.6465L107.753 99.7167C107.159 102.717 104.343 104.725 101.35 104.357C101.231 105.76 100.668 110.197 98.1655 111.972C97.4719 112.458 96.6902 112.707 95.8318 112.707Z" fill="#EE8427"/>
<path d="M100.989 104.298C100.962 104.298 100.935 104.298 100.908 104.29C100.541 104.21 97.2833 103.443 96.674 100.784C96.628 100.581 96.7583 100.378 96.9614 100.332C97.1645 100.286 97.3676 100.412 97.4136 100.615C97.9271 102.853 100.939 103.52 101.065 103.547C101.272 103.593 101.403 103.792 101.357 103.999C101.322 104.175 101.165 104.298 100.989 104.298Z" fill="#EE8427"/>
<path d="M93.061 88.4313L92.6126 81.9092C92.8387 79.0734 94.9885 76.7704 97.8012 76.3489L105.948 75.1379C106.772 75.0115 107.489 75.7089 107.389 76.5366C107.293 77.3682 108.01 78.0618 108.837 77.9392L112.547 77.3797C113.643 77.2149 114.409 78.4335 113.785 79.3455L113.562 79.6712C113.095 80.3533 113.398 81.2922 114.172 81.5758L116.938 82.6334C117.881 82.9745 118.065 84.2314 117.264 84.833L109.324 90.3167C109.324 90.3167 108.657 84.856 103.293 85.1434C100.579 85.2928 98.491 87.1591 97.5406 88.5578C97.1727 89.0981 96.4638 90.0522 95.5709 89.0636C95.5709 89.0636 96.4217 86.9368 93.061 88.4313Z" fill="#EE8427"/>
<path d="M288.993 212.484H181.504C178.052 212.484 175.293 209.606 175.438 206.153L178.071 144.032C178.209 140.782 180.884 138.215 184.137 138.215H291.626C295.078 138.215 297.838 141.093 297.696 144.545L295.059 206.67C294.921 209.92 292.247 212.484 288.993 212.484Z" fill="#EE8427"/>
<path d="M205.229 173.845H189.314C187.988 173.845 186.915 172.772 186.915 171.442V161.08C186.915 159.751 187.988 158.678 189.314 158.678H205.229C206.555 158.678 207.631 159.751 207.631 161.08V171.442C207.631 172.772 206.555 173.845 205.229 173.845Z" fill="white"/>
<path d="M205.278 188.843H187.356C186.413 188.843 185.651 188.077 185.651 187.138V184.988C185.651 184.05 186.413 183.283 187.356 183.283H205.278C206.217 183.283 206.984 184.05 206.984 184.988V187.138C206.984 188.077 206.217 188.843 205.278 188.843Z" fill="white"/>
<path d="M219.537 205.35H184.593C183.689 205.35 182.953 204.615 182.953 203.71C182.953 202.802 183.689 202.066 184.593 202.066H219.537C220.446 202.066 221.181 202.802 221.181 203.71C221.181 204.615 220.446 205.35 219.537 205.35Z" fill="white"/>
<path d="M285.495 205.352H275.36C274.455 205.352 273.719 204.617 273.719 203.712C273.719 202.804 274.455 202.072 275.36 202.072H285.495C286.4 202.072 287.135 202.804 287.135 203.712C287.135 204.617 286.4 205.352 285.495 205.352Z" fill="white"/>
<path d="M232.371 188.844H214.449C213.506 188.844 212.744 188.081 212.744 187.138V184.989C212.744 184.05 213.506 183.287 214.449 183.287H232.371C233.31 183.287 234.073 184.05 234.073 184.989V187.138C234.073 188.081 233.31 188.844 232.371 188.844Z" fill="white"/>
<path d="M259.464 188.844H241.541C240.598 188.844 239.836 188.081 239.836 187.138V184.989C239.836 184.05 240.598 183.287 241.541 183.287H259.464C260.402 183.287 261.169 184.05 261.169 184.989V187.138C261.169 188.081 260.402 188.844 259.464 188.844Z" fill="white"/>
<path d="M286.56 188.843H268.637C267.694 188.843 266.932 188.077 266.932 187.138V184.988C266.932 184.046 267.694 183.283 268.637 183.283H286.56C287.502 183.283 288.265 184.046 288.265 184.988V187.138C288.265 188.077 287.502 188.843 286.56 188.843Z" fill="white"/>
<path d="M284.912 152.312H265.882C264.031 152.312 262.529 150.809 262.529 148.959C262.529 147.104 264.031 145.605 265.882 145.605H284.912C286.763 145.605 288.265 147.104 288.265 148.959C288.265 150.809 286.763 152.312 284.912 152.312Z" fill="white"/>
<path d="M249.141 110.703C255.831 124.529 250.045 141.16 236.219 147.851C222.393 154.542 205.762 148.755 199.071 134.929C192.38 121.103 198.167 104.472 211.993 97.7775C225.819 91.0906 242.454 96.8732 249.141 110.703Z" fill="white"/>
<path d="M224.082 95.367C220.001 95.367 215.939 96.2905 212.157 98.1222C198.542 104.709 192.82 121.149 199.408 134.764C205.999 148.379 222.438 154.101 236.054 147.51C249.673 140.922 255.386 124.483 248.799 110.864C245.607 104.273 240.039 99.3101 233.118 96.9036C230.168 95.8766 227.117 95.367 224.082 95.367ZM224.147 151.004C213.671 151.008 203.588 145.141 198.729 135.094C191.958 121.103 197.833 104.208 211.827 97.4363C218.606 94.1599 226.251 93.7154 233.367 96.187C240.48 98.6625 246.201 103.759 249.481 110.538C256.252 124.529 250.378 141.42 236.383 148.192C232.44 150.1 228.263 151.004 224.147 151.004Z" fill="#EE8427"/>
<path d="M244.117 113.132C249.466 124.184 244.841 137.477 233.79 142.827C222.734 148.177 209.441 143.551 204.095 132.5C198.746 121.444 203.371 108.151 214.422 102.801C225.474 97.4556 238.767 102.081 244.117 113.132Z" fill="white"/>
<path d="M224.139 146.132C215.471 146.132 207.14 141.284 203.117 132.972C200.404 127.366 200.036 121.043 202.082 115.157C204.128 109.279 208.344 104.543 213.95 101.833C220.932 98.4534 229.109 98.7638 235.827 102.665C236.011 102.768 236.068 103.002 235.965 103.182C235.861 103.366 235.628 103.424 235.448 103.32C228.948 99.5456 221.035 99.2467 214.279 102.515C208.857 105.14 204.78 109.72 202.799 115.41C200.821 121.097 201.174 127.221 203.799 132.643C209.217 143.836 222.729 148.538 233.926 143.124C239.349 140.499 243.43 135.919 245.407 130.229C247.384 124.538 247.032 118.418 244.407 112.996C244.315 112.804 244.392 112.582 244.583 112.486C244.771 112.398 244.997 112.475 245.089 112.666C247.802 118.269 248.17 124.596 246.124 130.478C244.077 136.36 239.866 141.093 234.256 143.806C230.995 145.384 227.542 146.132 224.139 146.132Z" fill="#EE8427"/>
<path d="M228.324 135.49L226.983 132.712C224.983 133.574 222.829 133.969 221.407 133.862L220.629 130.018C222.181 130.095 224.201 129.877 226.102 128.957C227.769 128.148 228.596 126.957 228.029 125.788C227.493 124.676 226.22 124.427 223.703 124.742C220.066 125.205 217.227 124.776 215.855 121.94C214.609 119.369 215.449 116.476 218.277 114.349L216.932 111.571L219.798 110.188L221.039 112.759C223.044 111.9 224.557 111.671 225.745 111.671L226.496 115.384C225.58 115.43 223.91 115.411 221.806 116.426C219.909 117.346 219.691 118.465 220.085 119.281C220.553 120.243 221.871 120.362 224.81 120.097C228.88 119.641 231.06 120.569 232.336 123.201C233.593 125.799 232.827 128.911 229.75 131.126L231.191 134.103L228.324 135.49Z" fill="#EE8427"/>
<path d="M304.283 112.027C296.048 119.971 282.931 119.733 274.987 111.498C267.047 103.263 267.285 90.1459 275.52 82.2021C283.755 74.2583 296.872 74.4959 304.816 82.7348C312.756 90.9698 312.518 104.087 304.283 112.027Z" fill="white"/>
<path d="M289.898 76.7857C284.813 76.7857 279.724 78.6749 275.78 82.4763C267.71 90.2592 267.476 103.158 275.263 111.232C279.03 115.144 284.104 117.352 289.534 117.451C294.971 117.543 300.11 115.528 304.019 111.753C307.931 107.982 310.139 102.913 310.238 97.4826C310.334 92.0526 308.314 86.9062 304.544 82.9936C300.558 78.8627 295.232 76.7857 289.898 76.7857ZM289.913 118.214C289.783 118.214 289.652 118.21 289.518 118.21C283.885 118.107 278.628 115.819 274.715 111.757C266.641 103.384 266.882 90.0025 275.255 81.9283C283.632 73.8542 297.014 74.0956 305.088 82.4687C309 86.523 311.097 91.8648 310.997 97.4979C310.893 103.131 308.606 108.389 304.548 112.301C300.585 116.122 295.4 118.214 289.913 118.214Z" fill="#EE8427"/>
<path d="M301.398 109.034C294.815 115.384 284.33 115.196 277.984 108.612C271.635 102.029 271.823 91.5444 278.41 85.1947C284.993 78.845 295.474 79.0366 301.824 85.6201C308.173 92.2035 307.982 102.684 301.398 109.034Z" fill="white"/>
<path d="M289.914 114.578C289.803 114.578 289.695 114.578 289.584 114.574C284.921 114.49 280.571 112.593 277.329 109.236C270.646 102.304 270.849 91.2258 277.778 84.5428C281.138 81.3085 285.56 79.5726 290.22 79.6531C294.884 79.7374 299.233 81.6342 302.471 84.9911C306.506 89.1757 308.193 95.0694 306.982 100.76C306.939 100.963 306.74 101.097 306.533 101.051C306.33 101.009 306.196 100.806 306.242 100.603C307.399 95.1575 305.786 89.5167 301.927 85.5161C298.827 82.3087 294.665 80.4923 290.205 80.4118C285.741 80.3275 281.518 81.9906 278.306 85.0907C271.677 91.4864 271.485 102.082 277.877 108.711C280.977 111.923 285.135 113.735 289.599 113.82C294.064 113.896 298.287 112.237 301.498 109.141C301.651 108.995 301.889 108.999 302.034 109.148C302.18 109.302 302.176 109.539 302.027 109.685C298.747 112.846 294.455 114.578 289.914 114.578Z" fill="#EE8427"/>
<path d="M281.912 103.039L283.563 101.445C282.494 100.23 281.713 98.7933 281.46 97.7624L284 96.3216C284.303 97.4367 284.928 98.8201 286.02 99.9505C286.978 100.943 288.016 101.253 288.71 100.579C289.373 99.9429 289.254 98.9849 288.445 97.2758C287.277 94.8079 286.92 92.7003 288.61 91.0678C290.143 89.5925 292.385 89.512 294.546 91.0257L296.198 89.4277L297.842 91.133L296.313 92.6122C297.386 93.8269 297.899 94.8462 298.175 95.6893L295.719 97.0842C295.473 96.4442 295.102 95.2563 293.891 94.0032C292.802 92.8727 291.963 92.9762 291.473 93.4475C290.902 93.9994 291.124 94.965 291.99 96.9807C293.258 99.7589 293.109 101.518 291.538 103.028C289.99 104.522 287.61 104.698 285.33 103.035L283.556 104.744L281.912 103.039Z" fill="#EE8427"/>
<path d="M163.03 14.7072C162.85 14.7072 162.693 14.5769 162.662 14.393C162.624 14.1861 162.758 13.9906 162.965 13.9523C167.149 13.1936 171.464 12.5613 175.798 12.0746C176.005 12.0516 176.197 12.2011 176.22 12.4118C176.243 12.6187 176.093 12.8065 175.883 12.8295C171.568 13.3123 167.268 13.9446 163.099 14.6995C163.076 14.7034 163.053 14.7072 163.03 14.7072Z" fill="#EE8427"/>
<path d="M110.401 34.7381C110.287 34.7381 110.175 34.6883 110.103 34.5925C109.972 34.4277 110.003 34.1901 110.168 34.0598C110.317 33.9449 125.212 22.5714 154.029 15.8116C154.232 15.7618 154.436 15.8883 154.485 16.0914C154.531 16.2983 154.405 16.5014 154.202 16.5474C125.561 23.2688 110.777 34.5465 110.631 34.6615C110.562 34.7113 110.482 34.7381 110.401 34.7381Z" fill="#EE8427"/>
<path d="M87.2946 34.0398C87.1758 34.0398 87.057 33.9823 86.9842 33.875C86.8654 33.7064 86.9075 33.4688 87.08 33.35C87.1681 33.2887 96.2079 27.031 111.226 20.4207C125.086 14.3201 147.025 6.65217 172.841 4.77447C173.052 4.75914 173.232 4.91626 173.247 5.12702C173.263 5.33395 173.106 5.51789 172.899 5.52938C147.197 7.39942 125.354 15.0329 111.551 21.1066C96.5949 27.6863 87.6011 33.9095 87.513 33.9708C87.4478 34.0168 87.3712 34.0398 87.2946 34.0398Z" fill="#EE8427"/>
<path d="M278.701 28.5833C278.593 28.5833 278.49 28.5449 278.417 28.4606C268.603 17.5546 254.655 13.4237 254.517 13.3815C254.318 13.3241 254.199 13.1133 254.26 12.914C254.318 12.7109 254.524 12.596 254.728 12.6535C254.869 12.6956 269.025 16.8879 278.981 27.951C279.118 28.1081 279.107 28.3457 278.95 28.4875C278.881 28.5526 278.789 28.5833 278.701 28.5833Z" fill="#EE8427"/>
<path d="M21.6357 197.738C21.494 197.738 21.356 197.658 21.2909 197.516C9.26591 171.163 8.6911 146.573 10.3312 130.585C12.1055 113.257 16.7959 102.006 16.8419 101.895C16.9223 101.699 17.1446 101.611 17.3362 101.692C17.5316 101.772 17.6198 101.995 17.5393 102.186C17.4933 102.301 12.845 113.472 11.0823 130.693C9.45751 146.577 10.0323 171.013 21.9806 197.202C22.0688 197.393 21.9845 197.616 21.7929 197.704C21.743 197.727 21.6894 197.738 21.6357 197.738Z" fill="#EE8427"/>
<path d="M43.3674 203.171C43.2448 203.171 43.1222 203.11 43.0494 202.999C41.7273 200.991 40.4436 198.941 39.2327 196.894C39.1254 196.718 39.1867 196.484 39.3668 196.377C39.5469 196.27 39.7806 196.331 39.8879 196.511C41.0874 198.542 42.3673 200.585 43.6817 202.581C43.7966 202.758 43.7506 202.991 43.5744 203.106C43.5092 203.148 43.4364 203.171 43.3674 203.171Z" fill="#EE8427"/>
<path d="M33.4884 185.654C33.3466 185.654 33.2087 185.574 33.1435 185.436C27.5756 173.644 23.9236 161.481 22.2874 149.284C22.2605 149.077 22.4062 148.886 22.6131 148.859C22.82 148.832 23.0116 148.974 23.0384 149.181C24.6632 161.301 28.296 173.391 33.8295 185.11C33.9214 185.301 33.8371 185.528 33.6494 185.616C33.5957 185.643 33.5421 185.654 33.4884 185.654Z" fill="#EE8427"/>
<path d="M21.8389 140.671C21.6358 140.671 21.471 140.513 21.4595 140.314C20.8234 127.714 22.7279 119.805 22.7509 119.728C22.8007 119.525 23.0038 119.403 23.2069 119.452C23.41 119.502 23.5365 119.709 23.4866 119.909C23.4675 119.989 21.586 127.799 22.2144 140.276C22.2259 140.483 22.065 140.663 21.8542 140.671C21.8504 140.671 21.8427 140.671 21.8389 140.671Z" fill="#EE8427"/>
<path d="M122.878 43.6474C121.728 43.6474 120.789 44.5863 120.789 45.7397C120.789 46.8893 121.728 47.8282 122.878 47.8282C124.031 47.8282 124.97 46.8893 124.97 45.7397C124.97 44.5863 124.031 43.6474 122.878 43.6474ZM122.878 48.5869C121.307 48.5869 120.031 47.307 120.031 45.7397C120.031 44.1686 121.307 42.8887 122.878 42.8887C124.449 42.8887 125.729 44.1686 125.729 45.7397C125.729 47.307 124.449 48.5869 122.878 48.5869Z" fill="#EE8427"/>
<path d="M232.134 21.206C231.299 21.206 230.621 21.8881 230.621 22.7235C230.621 23.5589 231.299 24.2372 232.134 24.2372C232.97 24.2372 233.648 23.5589 233.648 22.7235C233.648 21.8881 232.97 21.206 232.134 21.206ZM232.134 24.9959C230.881 24.9959 229.862 23.9766 229.862 22.7235C229.862 21.4666 230.881 20.4473 232.134 20.4473C233.387 20.4473 234.407 21.4666 234.407 22.7235C234.407 23.9766 233.387 24.9959 232.134 24.9959Z" fill="#EE8427"/>
<path d="M227.581 278.979C226.723 278.979 226.022 279.681 226.022 280.539C226.022 281.401 226.723 282.099 227.581 282.099C228.443 282.099 229.145 281.401 229.145 280.539C229.145 279.681 228.443 278.979 227.581 278.979ZM227.581 282.857C226.305 282.857 225.267 281.819 225.267 280.539C225.267 279.263 226.305 278.221 227.581 278.221C228.861 278.221 229.9 279.263 229.9 280.539C229.9 281.819 228.861 282.857 227.581 282.857Z" fill="#EE8427"/>
<path d="M216.223 16.2705C214.606 16.2705 213.288 17.5887 213.288 19.2096C213.288 20.8268 214.606 22.145 216.223 22.145C217.844 22.145 219.162 20.8268 219.162 19.2096C219.162 17.5887 217.844 16.2705 216.223 16.2705ZM216.223 22.9037C214.188 22.9037 212.529 21.2445 212.529 19.2096C212.529 17.171 214.188 15.5117 216.223 15.5117C218.262 15.5117 219.921 17.171 219.921 19.2096C219.921 21.2445 218.262 22.9037 216.223 22.9037Z" fill="#EE8427"/>
<mask id="mask4_603_19462" style="mask-type:luminance" maskUnits="userSpaceOnUse" x="64" y="0" width="4" height="3">
<path d="M64.685 0H67.628V2.67093H64.685V0Z" fill="white"/>
</mask>
<g mask="url(#mask4_603_19462)">
<path d="M66.9232 2.3832C66.8274 2.3832 66.7278 2.34488 66.655 2.27207L65.0647 0.677944C64.9152 0.532326 64.9152 0.290908 65.0647 0.14529C65.2103 -0.00415912 65.4517 -0.00415912 65.6012 0.14529L67.1915 1.73559C67.3409 1.88121 67.3409 2.12262 67.1915 2.27207C67.1187 2.34488 67.019 2.3832 66.9232 2.3832Z" fill="#EE8427"/>
</g>
<path d="M72.4905 7.95156C72.3947 7.95156 72.295 7.91324 72.2222 7.84043L70.6319 6.25014C70.4825 6.10069 70.4825 5.8631 70.6319 5.71365C70.7775 5.5642 71.019 5.5642 71.1684 5.71365L72.7587 7.30395C72.9043 7.4534 72.9043 7.69098 72.7587 7.84043C72.6859 7.91324 72.5863 7.95156 72.4905 7.95156Z" fill="#EE8427"/>
<path d="M65.333 7.95156C65.2333 7.95156 65.1375 7.91324 65.0647 7.84043C64.9153 7.69098 64.9153 7.4534 65.0647 7.30395L66.655 5.71365C66.8006 5.5642 67.0421 5.5642 67.1915 5.71365C67.3371 5.8631 67.3371 6.10069 67.1915 6.25014L65.6012 7.84043C65.5246 7.91324 65.4288 7.95156 65.333 7.95156Z" fill="#EE8427"/>
<mask id="mask5_603_19462" style="mask-type:luminance" maskUnits="userSpaceOnUse" x="69" y="0" width="5" height="3">
<path d="M69.5894 0H73.5134V2.67093H69.5894V0Z" fill="white"/>
</mask>
<g mask="url(#mask5_603_19462)">
<path d="M70.9002 2.3832C70.8044 2.3832 70.7048 2.34488 70.632 2.27207C70.4825 2.12262 70.4825 1.88121 70.632 1.73559L72.2223 0.14529C72.3717 -0.00415912 72.6093 -0.00415912 72.7588 0.14529C72.9082 0.290908 72.9082 0.532326 72.7588 0.677944L71.1685 2.27207C71.0957 2.34488 70.996 2.3832 70.9002 2.3832Z" fill="#EE8427"/>
</g>
<path d="M256.475 62.0287C256.379 62.0287 256.283 61.9904 256.206 61.9214L255.064 60.7756C254.919 60.63 254.919 60.3886 255.064 60.2429C255.214 60.0935 255.451 60.0935 255.601 60.2429L256.743 61.3811C256.888 61.5305 256.888 61.7719 256.743 61.9214C256.666 61.9904 256.57 62.0287 256.475 62.0287Z" fill="#EE8427"/>
<path d="M260.472 66.0267C260.376 66.0267 260.28 65.9883 260.203 65.9155L259.062 64.7736C258.916 64.6241 258.916 64.3865 259.062 64.2371C259.211 64.0876 259.449 64.0876 259.598 64.2371L260.74 65.379C260.886 65.5285 260.886 65.7661 260.74 65.9155C260.667 65.9883 260.568 66.0267 260.472 66.0267Z" fill="#EE8427"/>
<path d="M255.333 66.0257C255.237 66.0257 255.137 65.9874 255.064 65.9146C254.919 65.769 254.919 65.5276 255.064 65.3781L256.206 64.2362C256.352 64.0905 256.593 64.0905 256.743 64.2362C256.888 64.3856 256.888 64.6232 256.743 64.7727L255.601 65.9146C255.528 65.9874 255.428 66.0257 255.333 66.0257Z" fill="#EE8427"/>
<path d="M259.33 62.0287C259.234 62.0287 259.134 61.9904 259.062 61.9175C258.916 61.7719 258.916 61.5305 259.062 61.3811L260.203 60.2429C260.353 60.0935 260.594 60.0935 260.74 60.2429C260.886 60.3886 260.886 60.63 260.74 60.7756L259.598 61.9175C259.521 61.9904 259.426 62.0287 259.33 62.0287Z" fill="#EE8427"/>
<path d="M197.538 19.4407C197.439 19.4407 197.343 19.4062 197.27 19.3296L195.921 17.9845C195.772 17.8351 195.772 17.5936 195.921 17.448C196.067 17.2986 196.308 17.2986 196.458 17.448L197.803 18.7931C197.952 18.9425 197.952 19.1839 197.803 19.3296C197.73 19.4062 197.634 19.4407 197.538 19.4407Z" fill="#EE8427"/>
<path d="M202.256 24.1565C202.156 24.1565 202.06 24.1182 201.987 24.0454L200.639 22.6965C200.489 22.547 200.489 22.3094 200.639 22.16C200.784 22.0144 201.029 22.0144 201.175 22.16L202.524 23.5089C202.67 23.6583 202.67 23.8959 202.524 24.0454C202.447 24.1182 202.352 24.1565 202.256 24.1565Z" fill="#EE8427"/>
<path d="M196.189 24.1565C196.093 24.1565 195.997 24.1182 195.921 24.0454C195.775 23.8959 195.775 23.6583 195.921 23.5089L197.27 22.16C197.419 22.0144 197.657 22.0144 197.802 22.16C197.952 22.3094 197.952 22.547 197.802 22.6965L196.457 24.0454C196.381 24.1182 196.285 24.1565 196.189 24.1565Z" fill="#EE8427"/>
<path d="M200.906 19.4407C200.811 19.4407 200.711 19.4062 200.634 19.3296C200.489 19.1839 200.489 18.9425 200.634 18.7931L201.983 17.448C202.133 17.2986 202.374 17.2986 202.52 17.448C202.669 17.5936 202.669 17.8351 202.52 17.9845L201.171 19.3296C201.098 19.4062 201.002 19.4407 200.906 19.4407Z" fill="#EE8427"/>
<path d="M244.55 266.105C244.454 266.105 244.354 266.067 244.281 265.994L242.703 264.411C242.553 264.266 242.553 264.024 242.703 263.875C242.848 263.729 243.09 263.729 243.235 263.875L244.818 265.457C244.967 265.607 244.967 265.845 244.818 265.994C244.745 266.067 244.649 266.105 244.55 266.105Z" fill="#EE8427"/>
<path d="M250.087 271.639C249.987 271.639 249.892 271.601 249.819 271.528L248.236 269.946C248.087 269.8 248.087 269.558 248.236 269.413C248.386 269.263 248.623 269.263 248.773 269.413L250.351 270.992C250.501 271.141 250.501 271.379 250.351 271.528C250.279 271.601 250.183 271.639 250.087 271.639Z" fill="#EE8427"/>
<path d="M242.971 271.639C242.871 271.639 242.775 271.601 242.703 271.528C242.553 271.379 242.553 271.141 242.703 270.992L244.281 269.413C244.431 269.263 244.672 269.263 244.818 269.413C244.967 269.558 244.967 269.8 244.818 269.946L243.235 271.528C243.162 271.601 243.067 271.639 242.971 271.639Z" fill="#EE8427"/>
<path d="M248.504 266.105C248.405 266.105 248.309 266.067 248.236 265.99C248.087 265.845 248.087 265.607 248.236 265.457L249.819 263.875C249.964 263.729 250.206 263.729 250.351 263.875C250.501 264.024 250.501 264.266 250.351 264.411L248.773 265.99C248.7 266.067 248.6 266.105 248.504 266.105Z" fill="#EE8427"/>
<path d="M116.46 249.953C114.283 249.953 112.513 248.182 112.513 246.006C112.513 245.795 112.685 245.626 112.892 245.626C113.103 245.626 113.271 245.795 113.271 246.006C113.271 247.765 114.701 249.194 116.46 249.194C118.219 249.194 119.648 247.765 119.648 246.006C119.648 244.247 118.219 242.817 116.46 242.817C116.253 242.817 116.08 242.649 116.08 242.438C116.08 242.227 116.253 242.059 116.46 242.059C118.636 242.059 120.407 243.829 120.407 246.006C120.407 248.182 118.636 249.953 116.46 249.953Z" fill="#EE8427"/>
<path d="M95.7172 56.1937C95.7172 57.9641 94.2801 59.4049 92.5059 59.4049C90.7355 59.4049 89.2985 57.9641 89.2985 56.1937C89.2985 54.4194 90.7355 52.9824 92.5059 52.9824C94.2801 52.9824 95.7172 54.4194 95.7172 56.1937Z" fill="#EE8427"/>
<path d="M298.205 273.416C298.205 275.191 296.768 276.628 294.998 276.628C293.22 276.628 291.787 275.191 291.787 273.416C291.787 271.642 293.22 270.205 294.998 270.205C296.768 270.205 298.205 271.642 298.205 273.416Z" fill="#EE8427"/>
<path d="M180.416 134.11C180.278 134.11 180.14 134.029 180.075 133.891L173.902 120.889C173.81 120.698 173.89 120.472 174.082 120.383C174.27 120.295 174.496 120.376 174.584 120.563L180.757 133.569C180.849 133.757 180.769 133.983 180.581 134.071C180.527 134.098 180.47 134.11 180.416 134.11Z" fill="#EE8427"/>
<path d="M176.55 136.331C176.481 136.331 176.416 136.312 176.355 136.278L149.519 120.141C149.342 120.038 149.281 119.8 149.388 119.624C149.496 119.444 149.73 119.386 149.91 119.493L176.745 135.626C176.922 135.737 176.983 135.967 176.872 136.147C176.803 136.266 176.676 136.331 176.55 136.331Z" fill="#EE8427"/>
<path d="M174.903 140.943C174.888 140.943 174.872 140.939 174.853 140.939L166.127 139.786C165.921 139.759 165.775 139.567 165.802 139.36C165.829 139.153 166.02 139.008 166.227 139.034L174.953 140.188C175.16 140.215 175.305 140.406 175.278 140.613C175.255 140.805 175.091 140.943 174.903 140.943Z" fill="#EE8427"/>
</svg>
