<svg width="28" height="44" viewBox="0 0 28 44" fill="none" xmlns="http://www.w3.org/2000/svg">
<path d="M18.5425 31.415C19.0213 31.448 19.4862 31.4702 19.9492 31.514C21.1634 31.6284 22.2857 32.0241 23.3095 32.6789C25.2675 33.9314 26.5268 35.6869 27.0193 37.9668C27.1152 38.4113 27.1513 38.8739 27.1663 39.3293C27.1898 40.0673 27.1825 40.8061 27.1708 41.5446C27.1554 42.4815 26.4301 43.1824 25.4945 43.1824C21.2439 43.1829 16.9933 43.1824 12.7431 43.1824C9.40454 43.1824 6.066 43.1824 2.72745 43.1824C1.76247 43.1824 1.03761 42.4811 1.02856 41.5197C1.02042 40.6379 0.984248 39.753 1.04575 38.8753C1.1398 37.5386 1.59019 36.3023 2.32636 35.1813C3.57351 33.2825 5.31445 32.0833 7.53924 31.628C8.16734 31.4995 8.82257 31.5014 9.46514 31.4439C9.52437 31.4385 9.58406 31.4362 9.63968 31.4331C9.65054 31.4132 9.6632 31.4005 9.6641 31.3869C9.68897 30.9755 9.68671 30.9804 9.30009 30.8461C7.01922 30.0539 5.18603 28.6959 3.985 26.5697C3.72183 26.104 3.54638 25.5876 3.34651 25.0879C3.2945 24.9586 3.24974 24.9052 3.09961 24.9034C1.67565 24.8853 0.521202 23.9158 0.375595 22.4991C0.284252 21.6101 0.207832 20.693 0.492261 19.8112C0.851303 18.6993 1.89225 17.87 3.1281 17.9043C3.18779 17.9062 3.24793 17.9043 3.31576 17.9043C3.66802 16.9873 4.19527 16.1919 4.90748 15.5263C5.17563 15.2753 5.47769 15.061 5.75579 14.8199C5.81322 14.7702 5.86432 14.6766 5.86522 14.6029C5.87246 13.6759 5.87382 12.7489 5.86387 11.8219C5.86296 11.7428 5.78835 11.627 5.71691 11.5913C4.34585 10.913 3.45865 9.84355 3.14799 8.34272C2.84955 6.90112 3.18914 5.58569 4.08991 4.42672C4.82382 3.48254 5.7992 2.91278 6.96993 2.68442C7.60526 2.56052 8.24286 2.58584 8.86462 2.76627C9.02651 2.8133 9.08801 2.76898 9.16759 2.64825C10.1308 1.18585 11.4946 0.289152 13.2116 0.0644117C15.6331 -0.252576 17.6024 0.600261 19.0195 2.62654C19.1131 2.76039 19.1792 2.80923 19.3569 2.76175C21.1932 2.27157 23.1955 3.05703 24.3165 4.69306C25.5325 6.46792 25.4692 8.62669 24.1298 10.3206C23.7156 10.8443 23.1987 11.2625 22.5824 11.5352C22.3807 11.6247 22.3201 11.7391 22.3242 11.9589C22.3395 12.8253 22.3264 13.6922 22.3364 14.5586C22.3373 14.6517 22.3961 14.7765 22.4693 14.8317C23.508 15.6149 24.3559 16.5473 24.8442 17.775C24.8687 17.8365 24.9862 17.8994 25.0595 17.898C26.4206 17.8718 27.4959 18.8377 27.7713 20.0089C27.8206 20.2191 27.8558 20.4384 27.854 20.6532C27.8495 21.3148 27.8916 21.9863 27.7934 22.6356C27.5909 23.9787 26.4735 24.8925 25.1187 24.9029C24.9632 24.9043 24.908 24.9486 24.8569 25.0956C23.839 28.0294 21.7811 29.8934 18.8771 30.8764C18.5285 30.9958 18.5235 30.9822 18.5425 31.415ZM7.3249 14.0544C11.85 13.2024 16.3552 13.2228 20.8713 14.0354C20.8713 13.3589 20.8713 12.6634 20.8713 11.9585C20.7673 11.9521 20.6782 11.9444 20.5891 11.9408C19.431 11.8924 18.4656 11.4118 17.6458 10.6173C17.2686 10.2514 17.3161 9.7192 17.7339 9.41035C17.998 9.21545 18.1961 9.23263 18.433 9.46144C18.5737 9.5971 18.7157 9.73367 18.8699 9.85259C19.7069 10.4992 20.6402 10.7407 21.6585 10.4043C23.4646 9.80782 24.3138 7.77205 23.4795 6.01528C22.8745 4.741 21.848 4.05547 20.4164 4.02246C19.9429 4.01161 19.4993 4.13144 19.0679 4.3191C18.6243 4.51219 18.2947 4.34895 18.1337 3.89223C18.0672 3.70412 17.9885 3.51194 17.8759 3.34915C16.5189 1.38979 13.8008 0.696578 11.6565 2.06492C10.9637 2.50716 10.365 3.05612 10.0751 3.85696C9.92457 4.27343 9.5714 4.5764 9.01294 4.2888C8.39389 3.97001 7.73098 3.95147 7.06082 4.09481C5.33073 4.46561 4.1808 6.20927 4.46342 7.9371C4.7569 9.73095 6.54668 11.0631 8.50196 10.3523C8.98446 10.1768 9.38284 9.87475 9.73419 9.50395C9.86985 9.36106 10.0127 9.2358 10.2443 9.29775C10.8249 9.4533 11.0496 10.1456 10.6341 10.5802C10.024 11.2178 9.282 11.6473 8.41921 11.8409C8.06424 11.9205 7.69616 11.939 7.32581 11.9865C7.3249 12.6811 7.3249 13.3806 7.3249 14.0544ZM14.0513 29.8861C14.0513 29.8965 14.0513 29.9069 14.0513 29.9173C14.3226 29.9173 14.5944 29.9268 14.8648 29.9155C15.7579 29.878 16.6659 29.9209 17.5413 29.7726C19.479 29.4448 21.1078 28.5151 22.3382 26.9586C23.3787 25.6418 23.9421 24.1415 23.9575 22.4521C23.9652 21.6232 23.9629 20.7943 23.9561 19.9654C23.9543 19.7407 23.9322 19.5142 23.8946 19.2926C23.7404 18.3832 23.3615 17.5801 22.7284 16.9036C22.0248 16.1512 21.233 15.5493 20.1939 15.321C18.8088 15.0166 17.4029 14.8851 15.9935 14.8435C14.5876 14.8023 13.1781 14.8453 11.7709 14.8778C10.5839 14.9054 9.41133 15.079 8.24014 15.2757C6.18176 15.6208 4.25858 17.5833 4.24366 20.0609C4.23868 20.8748 4.22602 21.6888 4.24954 22.5023C4.26265 22.9576 4.29792 23.4216 4.39876 23.8643C4.86678 25.9245 6.00721 27.5234 7.78705 28.6602C8.85151 29.3399 10.0186 29.7722 11.2735 29.8721C12.1937 29.9449 13.1247 29.8861 14.0513 29.8861ZM23.1711 41.8258C23.9765 41.8258 24.7443 41.829 25.5117 41.8236C25.7201 41.8222 25.844 41.6974 25.8418 41.4483C25.8332 40.4191 25.9259 39.3862 25.7274 38.3638C25.4117 36.7387 24.6028 35.4056 23.3448 34.342C21.8263 33.0583 20.046 32.6648 18.1075 32.8303C18.0555 32.8349 17.9885 32.8629 17.9587 32.9022C17.6308 33.3345 17.1877 33.6167 16.7093 33.8419C14.2846 34.9846 11.8572 36.1214 9.42806 37.2546C9.3019 37.3134 9.25306 37.3726 9.25351 37.5173C9.26029 38.8735 9.25803 40.2296 9.25803 41.5857C9.25803 41.659 9.25803 41.7318 9.25803 41.815C13.4589 41.815 17.6358 41.815 21.8335 41.815C21.8335 41.7227 21.8335 41.6418 21.8335 41.5608C21.8335 40.732 21.8308 39.9036 21.8349 39.0747C21.8367 38.6921 22.0981 38.4023 22.4386 38.3892C22.855 38.3729 23.1205 38.6049 23.1557 39.0236C23.168 39.166 23.1702 39.3094 23.1707 39.4527C23.1716 40.235 23.1711 41.0173 23.1711 41.8258ZM12.5857 34.3009C11.3133 33.9075 11.1649 33.8184 10.2271 32.905C10.1886 32.8674 10.1294 32.8353 10.077 32.8303C9.31636 32.758 8.5508 32.7594 7.80966 32.9321C5.06529 33.5719 3.33294 35.2876 2.57009 37.9867C2.25175 39.1127 2.38514 40.2721 2.38288 41.4193C2.38243 41.7295 2.50543 41.8263 2.81925 41.8263C4.43855 41.8267 6.05786 41.8267 7.67716 41.8263C7.74952 41.8263 7.82187 41.82 7.90552 41.8163C7.90552 41.7141 7.90552 41.6323 7.90552 41.5504C7.90552 40.1871 7.91457 38.8242 7.9019 37.4608C7.89557 36.8047 8.1904 36.3638 8.76966 36.092C9.26436 35.86 9.76042 35.6317 10.2551 35.3997C11.0184 35.0407 11.7813 34.6803 12.5857 34.3009ZM11.0808 31.2536C11.1052 31.836 11.3901 32.2601 11.9029 32.5432C12.7187 32.9936 13.6013 33.1134 14.5121 33.0429C15.1646 32.9927 15.7927 32.8389 16.3552 32.47C16.8097 32.172 17.0909 31.7862 17.1045 31.2531C15.0954 31.2536 13.0981 31.2536 11.0808 31.2536ZM2.95491 23.5441C2.84774 22.1048 2.85904 20.6799 2.94993 19.2551C2.36073 19.2853 1.79955 19.7357 1.72313 20.3435C1.65078 20.9218 1.67656 21.5133 1.66842 22.0993C1.66616 22.2477 1.68334 22.4005 1.71725 22.5448C1.85879 23.1453 2.41544 23.5907 2.95491 23.5441ZM25.277 19.2365C25.277 20.6813 25.277 22.1134 25.277 23.5645C25.3539 23.5536 25.4511 23.5509 25.542 23.5251C26.1077 23.3655 26.5259 22.8075 26.5345 22.1943C26.5413 21.7123 26.5372 21.2298 26.5359 20.7477C26.5341 19.9835 26.0353 19.3175 25.277 19.2365Z" fill="#F9B572"/>
<path d="M14.0696 25.0789C12.3368 25.0789 10.6036 25.0897 8.87077 25.0716C8.41722 25.0667 7.94513 25.0355 7.51554 24.9048C6.27653 24.5276 5.37305 23.2457 5.37305 21.9565C5.37305 21.2936 5.38571 20.6302 5.37079 19.9673C5.33281 18.2833 6.77575 17.0633 7.97814 16.8779C8.30372 16.8277 8.63879 16.8218 8.96935 16.8214C12.4883 16.8177 16.0073 16.8168 19.5263 16.8218C21.0352 16.8241 22.2842 17.6991 22.6961 19.0448C22.7762 19.3062 22.8155 19.5883 22.8227 19.8624C22.8404 20.5402 22.8123 21.2189 22.8331 21.8968C22.8562 22.6411 22.6179 23.2841 22.1454 23.8439C21.6873 24.3866 21.1578 24.8568 20.4361 24.9794C19.9129 25.0685 19.373 25.082 18.8398 25.0866C17.2499 25.0997 15.66 25.0911 14.0701 25.0911C14.0696 25.0866 14.0696 25.0829 14.0696 25.0789ZM12.373 18.1291C12.1618 18.1291 11.9488 18.1124 11.7408 18.1368C11.6499 18.1476 11.5215 18.2245 11.4912 18.3027C10.8157 20.0455 10.1532 21.7932 9.48168 23.5373C9.40481 23.7372 9.48349 23.7811 9.65578 23.7811C9.92709 23.7811 10.1989 23.7693 10.4693 23.7847C10.6764 23.7969 10.7872 23.7223 10.8482 23.5233C10.9206 23.2882 11.0282 23.0639 11.1055 22.8297C11.1512 22.6908 11.2294 22.647 11.3709 22.6483C12.0415 22.6542 12.7126 22.6551 13.3832 22.6479C13.5279 22.6465 13.603 22.6958 13.6491 22.8292C13.7346 23.0766 13.8354 23.3185 13.9222 23.5654C13.9765 23.72 14.0669 23.7924 14.2392 23.7847C14.5024 23.7729 14.7665 23.7824 15.0305 23.7815C15.3276 23.7806 15.3385 23.7616 15.2336 23.4894C14.6132 21.8782 14.0009 20.2639 13.3715 18.6564C13.1282 18.035 13.3095 18.1386 12.6231 18.1296C12.539 18.1282 12.4562 18.1291 12.373 18.1291ZM18.0797 20.9603C18.0797 20.1097 18.0761 19.2587 18.0829 18.4081C18.0842 18.2349 18.0358 18.1639 17.8527 18.1712C17.5371 18.1834 17.2201 18.1847 16.9044 18.1707C16.6964 18.1617 16.6444 18.2589 16.6444 18.4407C16.6462 20.1269 16.6462 21.8136 16.6431 23.4998C16.6426 23.6843 16.7195 23.7566 16.9004 23.753C17.2088 23.7472 17.5181 23.7444 17.826 23.7548C18.0223 23.7612 18.0856 23.6875 18.0833 23.4899C18.0743 22.647 18.0797 21.8036 18.0797 20.9603Z" fill="#F9B572"/>
<path d="M14.0591 28.5064C12.892 28.4508 11.9031 28.0334 11.0814 27.2217C10.8703 27.0128 10.8368 26.794 10.9503 26.5674C11.0539 26.3603 11.2492 26.2391 11.483 26.2753C11.5838 26.2907 11.6905 26.3576 11.7661 26.4304C12.3299 26.978 13.0046 27.3185 13.7788 27.3841C14.7257 27.4646 15.5889 27.2123 16.3007 26.5403C16.416 26.4318 16.5534 26.316 16.7004 26.2785C16.9351 26.2183 17.1218 26.3477 17.2408 26.5548C17.3642 26.7705 17.3308 26.9785 17.1693 27.1584C16.6977 27.6839 16.1225 28.0624 15.4447 28.2487C14.9929 28.3726 14.5217 28.4232 14.0591 28.5064Z" fill="#F9B572"/>
<path d="M18.0694 38.7876C18.0758 39.2999 17.6385 39.7444 17.1298 39.7431C16.6301 39.7417 16.1888 39.3244 16.1815 38.845C16.1729 38.292 16.5899 37.8525 17.1234 37.8516C17.6118 37.8511 18.0631 38.2974 18.0694 38.7876Z" fill="#F9B572"/>
<path d="M12.5153 38.8032C12.5153 39.3079 12.0966 39.7334 11.5919 39.7424C11.0886 39.7515 10.6446 39.3119 10.641 38.8014C10.6373 38.2809 11.0723 37.8396 11.577 37.8518C12.0997 37.8645 12.5153 38.2859 12.5153 38.8032Z" fill="#F9B572"/>
<path d="M12.4011 19.4902C12.6575 20.1437 12.899 20.7528 13.1287 21.3659C13.1404 21.398 13.0541 21.5111 13.0115 21.5124C12.591 21.5242 12.17 21.5215 11.749 21.5192C11.6319 21.5188 11.5813 21.455 11.6256 21.3415C11.8494 20.765 12.0751 20.1889 12.3021 19.6137C12.3143 19.5825 12.3455 19.5585 12.4011 19.4902Z" fill="#F9B572"/>
</svg>
