<svg width="20" height="20" viewBox="0 0 20 20" fill="none" xmlns="http://www.w3.org/2000/svg">
<path d="M10 -0.000976562C15.524 -0.000976562 20.002 4.47702 20.002 10.001C20.002 15.524 15.524 20.002 10 20.002C4.47605 20.002 -0.00195312 15.524 -0.00195312 10.001C-0.00195312 4.47702 4.47605 -0.000976562 10 -0.000976562ZM10 1.49902C8.87586 1.48683 7.76041 1.69772 6.71827 2.1195C5.67612 2.54127 4.72798 3.16554 3.92871 3.95619C3.12944 4.74684 2.49492 5.68816 2.06187 6.72566C1.62882 7.76317 1.40584 8.87627 1.40584 10.0005C1.40584 11.1248 1.62882 12.2379 2.06187 13.2754C2.49492 14.3129 3.12944 15.2542 3.92871 16.0449C4.72798 16.8355 5.67612 17.4598 6.71827 17.8816C7.76041 18.3033 8.87586 18.5142 10 18.502C12.2321 18.4678 14.3611 17.5571 15.9274 15.9666C17.4937 14.376 18.3717 12.2333 18.3717 10.001C18.3717 7.76874 17.4937 5.626 15.9274 4.03548C14.3611 2.44496 12.2321 1.53326 10 1.49902ZM9.99605 4.00002C11.5868 4.00002 13.1124 4.63195 14.2373 5.7568C15.3621 6.88164 15.994 8.40726 15.994 9.99802C15.994 11.5888 15.3621 13.1144 14.2373 14.2393C13.1124 15.3641 11.5868 15.996 9.99605 15.996C8.40528 15.996 6.87966 15.3641 5.75482 14.2393C4.62998 13.1144 3.99805 11.5888 3.99805 9.99802C3.99805 8.40726 4.62998 6.88164 5.75482 5.7568C6.87966 4.63195 8.40528 4.00002 9.99605 4.00002Z" fill="#00D4FF"/>
</svg>
