<svg width="59" height="57" viewBox="0 0 59 57" fill="none" xmlns="http://www.w3.org/2000/svg">
<path d="M21.2424 23.0264C22.1972 25.6493 23.6922 27.9457 24.416 30.7018C25.8093 36.0078 25.481 41.5626 23.6868 46.7299C23.0433 48.583 21.904 50.2176 21.2424 52.0349C22.6001 50.8719 23.3589 48.2755 23.9138 46.617C25.8087 40.9527 25.9595 34.7091 24.1015 29.0087C23.508 27.1876 22.7356 24.3055 21.2424 23.0264Z" fill="#FFAC33"/>
<path d="M27.3593 9.27592e-07V0.112875C39.4717 0.112875 50.725 6.9443 55.0074 18.6242C59.4308 30.689 54.7254 44.4515 44.0646 51.5458C41.4616 53.2778 38.1765 54.9977 35.0347 55.4211C35.6197 55.6494 36.4719 55.3258 37.0664 55.1806C38.8853 54.7367 40.6784 54.1009 42.3715 53.3012C49.8266 49.7798 55.2499 43.1267 57.4487 35.2166C61.0235 22.3558 54.3936 8.08926 42.2586 2.51807C37.3537 0.266171 32.636 -0.000574729 27.3593 9.27592e-07Z" fill="#FFCC4D"/>
<path d="M52.5286 42.6666H52.4157C50.5893 45.9472 47.7174 48.8767 44.6274 50.9805C39.6483 54.3703 33.6475 56.3597 27.5835 56.0942C10.7309 55.3563 -1.99336 39.1837 1.30642 22.688C2.00497 19.1959 3.41285 15.8316 5.38494 12.8679C7.81301 9.21916 11.013 6.15667 14.8287 3.98262C19.2564 1.45987 24.1932 0.217921 29.2766 0.226079C33.5148 0.232878 37.9813 1.52677 41.6927 3.53426C43.3274 4.41848 44.7529 5.57077 46.3205 6.54701C45.7457 5.41501 43.8978 4.55192 42.8214 3.93402C39.1519 1.82742 35.0807 0.52568 30.8568 0.216061C15.3193 -0.922887 1.29945 11.1435 0.611061 26.8643C-0.104246 43.1998 14.195 57.7193 30.7439 56.1178C37.4766 55.4663 43.7416 52.8141 48.578 47.9717C49.9183 46.6298 52.0809 44.5716 52.5286 42.6666Z" fill="#FFAC33"/>
<path d="M27.0206 0.273806C20.4169 1.14087 14.5081 3.15682 9.52512 7.79855C7.09056 10.0664 5.11035 12.8302 3.62782 15.8025C-4.20653 31.5096 4.93181 51.0136 21.9412 55.266C25.3443 56.1167 28.8552 56.2972 32.3256 55.8409C45.5635 54.1002 56.0048 42.6892 56.5891 29.3474C57.1788 15.8815 47.4666 3.45775 34.2445 0.812826C31.9403 0.351905 29.3697 -0.0346378 27.0206 0.273806Z" fill="#FFAC33"/>
<path d="M26.9061 4.11095C21.7095 4.79326 16.9225 6.31961 12.8447 9.7873C10.6555 11.6491 8.89983 13.9832 7.50755 16.4792C2.08364 26.2028 4.32136 39.2876 12.8447 46.5359C17.9442 50.8725 24.9071 52.9102 31.5339 52.1151C35.1739 51.6783 38.7188 50.4443 41.8054 48.4572C53.4338 40.9712 56.4209 23.9927 47.6693 13.1151C44.5914 9.28946 40.3883 6.51486 35.7102 5.07612C32.9767 4.2354 29.7643 3.73568 26.9061 4.11095Z" fill="#FFCC4D"/>
<path d="M27.6962 5.0136C23.0134 5.62875 18.7073 6.92952 14.8952 9.85777C12.6252 11.6014 10.741 13.8307 9.2329 16.2531C3.20616 25.9337 5.62577 39.0003 14.425 46.1962C19.5305 50.3715 26.287 52.1317 32.7755 51.2118C35.9933 50.7556 39.0442 49.5209 41.8054 47.8347C44.0095 46.4888 45.9452 44.6888 47.5382 42.6656C55.4676 32.5946 53.6289 17.1212 43.1599 9.52864C40.9452 7.92243 38.4561 6.65748 35.8231 5.90152C33.2813 5.17176 30.3427 4.66596 27.6962 5.0136Z" fill="#FFAC33"/>
<path d="M28.7131 16.4795C29.086 18.0667 30.4617 19.7523 31.2968 21.1553C32.2306 22.7239 32.9578 24.5595 34.1311 25.9609C34.2888 25.1448 33.5411 24.2676 33.1379 23.5905C32.1393 21.9139 31.2203 20.1902 30.2253 18.5112C29.8447 17.8691 29.4635 16.7142 28.7131 16.4795Z" fill="#FFCC4D"/>
<path d="M28.5999 16.5928L25.0038 23.0266L23.5206 25.8484L23.2949 25.6227C22.6044 26.0017 21.3995 25.3727 20.6988 25.1683C18.7138 24.5891 16.2078 23.5378 14.1521 23.4781V23.8167C15.0277 24.3136 15.4336 25.9851 15.8731 26.8643L19.485 34.0882C19.8597 34.8375 20.303 36.4228 20.9964 36.9069C21.4179 37.2012 22.3502 37.0229 22.8434 37.0229C24.4301 37.0229 25.9999 36.9095 27.5841 36.9101C29.7592 36.9109 31.9472 37.0229 34.1308 37.0229C34.8334 37.0229 36.0415 37.2565 36.6828 36.9549C37.4812 36.5792 38.1167 34.4133 38.505 33.6367C39.6302 31.3861 40.6813 29.1002 41.8353 26.8643C42.3918 25.7861 43.2829 24.5641 43.4993 23.3652C43.0996 23.4176 42.4308 23.4861 42.3706 23.9296C41.2946 23.7388 40.1224 24.2904 39.0972 24.604C37.4215 25.1166 35.7066 25.4886 34.0179 25.9613C33.6645 24.7599 32.7274 23.6426 32.111 22.5575C31.0386 20.6694 30.1005 18.1608 28.5999 16.5928Z" fill="#FFCC4D"/>
<path d="M13.8148 23.0264C14.2373 23.6968 15.6276 23.8383 16.3631 24.0513C18.6131 24.7028 20.976 25.5071 23.2962 25.8482C22.8595 25.272 21.4988 25.1246 20.813 24.9294C18.6162 24.3041 16.0977 23.1307 13.8148 23.0264Z" fill="#FFCC4D"/>
<path d="M43.6119 23.252C42.0247 26.586 40.3255 29.8806 38.6733 33.1849C38.201 34.1296 37.5787 36.3349 36.6826 36.9065C35.7913 37.4751 33.3781 37.0226 32.3245 37.0226H20.8114V37.1354C24.7675 37.1354 28.7122 37.2483 32.6632 37.2483H35.7107C36.0815 37.2483 36.6719 37.3567 36.9933 37.1323C37.8993 36.4998 38.5186 34.2846 39.012 33.2977C40.6545 30.0128 42.5393 26.7547 43.9505 23.3648L43.6119 23.252Z" fill="#FFCC4D"/>
<path d="M14.1521 23.8164C16.0062 28.2696 18.3805 32.8573 20.8117 37.0226H20.9245C20.5754 35.8109 19.8227 34.6502 19.2593 33.5236L15.986 26.9769C15.578 26.1611 15.0487 24.1226 14.1521 23.8164Z" fill="#FFAC33"/>
<path d="M25.5521 36.9111V37.024H28.7126L25.5521 36.9111Z" fill="#FFAC33"/>
<path d="M20.8114 37.1338V37.2467H28.9383L26.3422 37.1338H20.8114Z" fill="#D9AD25"/>
</svg>
