<svg width="145" height="197" viewBox="0 0 145 197" fill="none" xmlns="http://www.w3.org/2000/svg">
<path d="M46.8096 175.887L47.4459 179.542L50.6345 178.289L48.5416 174.654L46.8096 175.887Z" fill="url(#paint0_linear_221_2316)"/>
<path d="M49.7424 163.288C49.0024 163.227 48.3616 163.77 48.3006 164.51C48.2395 165.25 48.7826 165.891 49.5226 165.952C50.2626 166.013 50.9034 165.47 50.9644 164.73C51.0255 163.99 50.4824 163.349 49.7424 163.288Z" fill="url(#paint1_linear_221_2316)"/>
<path d="M101.691 171.15C100.951 171.089 100.31 171.632 100.249 172.372C100.188 173.112 100.731 173.753 101.471 173.814C102.211 173.875 102.852 173.332 102.913 172.592C102.974 171.852 102.395 171.217 101.691 171.15Z" fill="url(#paint2_linear_221_2316)"/>
<path d="M80.7694 139.072C80.5554 141.772 78.1821 143.767 75.4826 143.553C72.7832 143.339 70.7879 140.966 71.0018 138.267C71.2158 135.567 73.5891 133.572 76.2885 133.786C78.9879 134 80.9833 136.373 80.7694 139.072ZM75.6111 141.89C77.387 142.036 78.9594 140.72 79.1059 138.944C79.2524 137.168 77.936 135.596 76.16 135.449C74.3841 135.303 72.8118 136.619 72.6653 138.395C72.5188 140.171 73.8352 141.743 75.6111 141.89Z" fill="url(#paint3_linear_221_2316)"/>
<path d="M79.1058 138.944C78.9593 140.72 77.387 142.036 75.611 141.89C73.8351 141.743 72.5187 140.171 72.6652 138.395C72.8117 136.619 74.384 135.303 76.16 135.449C77.9359 135.596 79.2465 137.132 79.1058 138.944ZM75.7692 140.185C76.6217 140.264 77.3219 139.638 77.401 138.786C77.4801 137.933 76.8484 137.197 76.0018 137.154C75.1494 137.075 74.4136 137.707 74.37 138.553C74.2851 139.37 74.9168 140.106 75.7692 140.185Z" fill="url(#paint4_linear_221_2316)"/>
<path d="M76.0019 137.154C75.1495 137.075 74.4137 137.707 74.3701 138.553C74.291 139.406 74.9169 140.106 75.7693 140.185C76.6218 140.264 77.322 139.638 77.4011 138.786C77.4446 137.939 76.8543 137.233 76.0019 137.154Z" fill="url(#paint5_linear_221_2316)"/>
<path d="M108.949 111.965C108.735 114.664 106.362 116.66 103.663 116.446C100.963 116.232 98.9678 113.859 99.1817 111.159C99.3957 108.46 101.769 106.464 104.468 106.678C107.168 106.892 109.199 109.26 108.949 111.965ZM103.791 114.782C105.567 114.929 107.139 113.612 107.286 111.836C107.432 110.061 106.116 108.488 104.34 108.342C102.564 108.195 100.992 109.512 100.845 111.288C100.699 113.063 102.015 114.636 103.791 114.782Z" fill="url(#paint6_linear_221_2316)"/>
<path d="M107.286 111.836C107.139 113.612 105.567 114.929 103.791 114.782C102.015 114.636 100.699 113.063 100.845 111.288C100.992 109.512 102.564 108.195 104.34 108.342C106.116 108.488 107.432 110.061 107.286 111.836ZM103.949 113.077C104.802 113.157 105.502 112.531 105.581 111.678C105.66 110.826 105.028 110.09 104.182 110.047C103.329 109.967 102.594 110.599 102.55 111.446C102.506 112.292 103.097 112.998 103.949 113.077Z" fill="url(#paint7_linear_221_2316)"/>
<path d="M104.182 110.047C103.329 109.967 102.594 110.599 102.55 111.446C102.471 112.298 103.097 112.998 103.949 113.077C104.802 113.157 105.502 112.531 105.581 111.678C105.666 110.861 105.034 110.126 104.182 110.047Z" fill="url(#paint8_linear_221_2316)"/>
<path d="M131.272 175.712C131.058 178.411 128.685 180.407 125.986 180.193C123.286 179.979 121.291 177.606 121.505 174.906C121.719 172.207 124.092 170.211 126.791 170.425C129.491 170.639 131.522 173.007 131.272 175.712ZM126.114 178.529C127.89 178.676 129.462 177.359 129.609 175.584C129.755 173.808 128.439 172.235 126.663 172.089C124.887 171.942 123.315 173.259 123.168 175.035C123.028 176.846 124.338 178.383 126.114 178.529Z" fill="url(#paint9_linear_221_2316)"/>
<path d="M129.609 175.584C129.462 177.359 127.89 178.676 126.114 178.529C124.338 178.383 123.022 176.811 123.168 175.035C123.315 173.259 124.887 171.942 126.663 172.089C128.439 172.235 129.756 173.808 129.609 175.584ZM126.272 176.825C127.125 176.904 127.825 176.278 127.904 175.425C127.983 174.573 127.352 173.837 126.505 173.794C125.653 173.714 124.917 174.346 124.873 175.193C124.794 176.045 125.42 176.745 126.272 176.825Z" fill="url(#paint10_linear_221_2316)"/>
<path d="M126.505 173.794C125.653 173.715 124.917 174.346 124.873 175.193C124.794 176.045 125.42 176.745 126.272 176.825C127.125 176.904 127.825 176.278 127.904 175.425C127.989 174.609 127.357 173.873 126.505 173.794Z" fill="url(#paint11_linear_221_2316)"/>
<path d="M62.4653 170.982C61.6898 170.927 60.9837 171.517 60.9285 172.292C60.8733 173.068 61.4636 173.774 62.2391 173.829C63.0146 173.884 63.7207 173.294 63.7759 172.519C63.8311 171.743 63.2466 171.073 62.4653 170.982Z" fill="url(#paint12_linear_221_2316)"/>
<path d="M76.0017 165.622L74.545 168.087L77.4946 170.049L79.851 167.728L76.0017 165.622Z" fill="url(#paint13_linear_221_2316)"/>
<path d="M92.1104 42.9384L90.6536 45.4038L93.5736 47.4064L95.9655 45.0795L92.1104 42.9384Z" fill="url(#paint14_linear_221_2316)"/>
<path d="M64.8415 155.883L64.5787 159.175L67.564 158.685L67.3112 155.588L64.8415 155.883Z" fill="url(#paint15_linear_221_2316)"/>
<path d="M69.3117 115.514L71.9776 117.303L72.7491 114.22L69.3117 115.514Z" fill="url(#paint16_linear_221_2316)"/>
<path d="M101.443 87.5761L100.765 91.0086L103.511 91.7259L104.3 88.5306L101.443 87.5761Z" fill="url(#paint17_linear_221_2316)"/>
<path d="M49.905 145.597L49.2629 149.024L52.0085 149.741L52.798 146.546L49.905 145.597Z" fill="url(#paint18_linear_221_2316)"/>
<path d="M38.5775 119.718L37.9057 123.186L40.6454 123.868L41.4408 120.708L38.5775 119.718Z" fill="url(#paint19_linear_221_2316)"/>
<path d="M81.2879 94.8616L77.8723 96.9551C77.9476 97.6362 78.3256 100.384 80.3184 101.408C81.6726 102.098 83.1361 101.675 84.7773 101.223C88.0953 100.314 89.2836 98.6591 91.1353 99.2677C91.2123 99.2915 92.0228 99.56 92.5717 100.236C94.7379 102.983 89.0772 107.854 89.6464 114.658C89.6808 115.091 90.2353 120.693 94.3859 123.078C98.294 125.32 103.355 123.467 104.043 123.209C105.074 122.82 107.35 121.79 109.472 120.712C111.464 119.728 111.885 119.403 112.827 119.358C115.006 119.293 117.353 120.915 117.975 122.929C118.451 124.494 117.66 125.682 117.088 127.309C115.538 131.651 116.104 137.105 118.275 140.545C120.882 144.643 125.811 145.768 127.687 146.081L128.928 142.52C127.49 142.208 124.756 141.343 122.228 139.057C121.365 138.249 119.859 136.854 118.976 134.59C117.959 131.947 118.332 129.55 118.789 126.774C119.618 121.82 121.263 120.054 120.09 117.801C119.99 117.635 119.247 116.224 117.727 115.634C115.781 114.895 113.712 115.855 112.669 116.391C111.791 116.827 111.305 117.199 110.587 117.718C107.2 120.209 105.272 121.583 102.909 121.862C102.37 121.914 100.143 122.133 97.9856 120.772C96.0703 119.553 95.3288 117.704 94.8462 116.542C93.3808 112.951 94.0054 109.417 94.233 108.358C94.8263 105.523 95.8941 104.691 95.5208 102.417C95.2176 100.569 94.2554 99.3761 94.0369 99.1565C92.862 97.7799 91.4007 97.3262 90.8268 97.165C89.1761 96.6694 87.7486 96.8672 86.6469 97.048C84.2657 97.4387 83.5532 98.2126 82.6425 97.7781C82.1635 97.5282 81.5376 96.828 81.2879 94.8616Z" fill="url(#paint20_linear_221_2316)"/>
<path d="M96.3784 143.226C95.9025 144.107 94.9205 146.13 95.1092 148.836C95.4818 153.775 99.5193 156.361 99.8445 156.563C102.038 157.919 105.393 158.791 108.114 157.578C110.123 156.701 110.233 155.369 113.28 153.92C114.329 153.42 115.556 152.89 117.19 152.841C119.665 152.799 121.498 153.959 122.284 154.523L123.051 150.747C121.396 149.778 119.012 148.819 116.648 149.535C115.433 149.917 115.154 150.438 112.597 152.207C109.513 154.319 107.977 155.411 106.408 155.413C103.311 155.447 101.068 152.457 100.744 152.036C98.6902 149.307 98.4332 145.517 99.8794 142.542C100.754 140.756 102.077 139.7 102.83 139.175L96.3784 143.226Z" fill="url(#paint21_linear_221_2316)"/>
<path d="M129.359 97.5571C126.513 99.3382 124.358 101.553 124.285 104.448C124.175 110.671 125.68 119.84 133.932 125.421C134.257 125.623 134.541 125.795 134.824 125.968C134.858 124.393 135.057 122.937 135.398 121.676C132.083 118.826 128.456 113.18 127.37 107.008C126.722 103.282 127.73 100.087 129.359 97.5571Z" fill="url(#paint22_linear_221_2316)"/>
<path d="M135.62 92.1139C133.58 93.0325 131.119 94.9329 129.395 97.5516C132.668 95.4815 136.882 94.0236 139.756 92.8584C145.12 90.6277 149.196 87.6596 148.672 81.3584C148.114 75.0631 139.008 74.7325 139.008 74.7325C139.008 74.7325 144.69 78.2163 143.956 82.8624C143.204 87.4019 139.633 90.3239 135.62 92.1139Z" fill="url(#paint23_linear_221_2316)"/>
<path d="M138.393 129.032C139.576 132.013 142.66 134.791 142.66 134.791L138.271 137.628C135.688 133.673 134.792 129.55 134.83 126.003C134.864 124.428 135.063 122.972 135.404 121.712C136.109 119.114 137.38 117.3 138.636 116.948C141.913 116.008 144.348 117.726 144.469 121.355C144.541 123.57 142.086 127.513 137.924 127.065C138.035 127.74 138.182 128.409 138.393 129.032ZM140.071 123.464C141.302 123.408 142.582 122.979 142.811 121.482C143.274 118.522 140.064 119.195 139.375 120.111C138.959 120.69 138.524 121.82 138.206 123.223C138.786 123.42 139.419 123.498 140.071 123.464Z" fill="url(#paint24_linear_221_2316)"/>
<path d="M135.674 146.486L133.401 148.428L135.804 148.618L135.674 146.486Z" fill="url(#paint25_linear_221_2316)"/>
<path d="M84.7389 157.035L85.5082 161.945L88.903 163.505L88.2663 157.624L84.7389 157.035Z" fill="url(#paint26_linear_221_2316)"/>
<path d="M77.7743 79.2334L78.5436 84.1438L81.9384 85.7035L81.3017 79.8225L77.7743 79.2334Z" fill="url(#paint27_linear_221_2316)"/>
<path d="M89.6617 129.875L89.6169 133.605L94.7162 130.652L93.8248 127.221L89.6617 129.875Z" fill="url(#paint28_linear_221_2316)"/>
<path d="M93.1905 148.932L91.1789 150.685L93.8262 152.806L93.1905 148.932Z" fill="url(#paint29_linear_221_2316)"/>
<path d="M121.338 87.3767L119.326 89.1302L121.938 91.2564L121.338 87.3767Z" fill="url(#paint30_linear_221_2316)"/>
<path d="M73.0422 63.0754L71.0307 64.8289L73.6425 66.9551L73.0422 63.0754Z" fill="url(#paint31_linear_221_2316)"/>
<path d="M83.0632 116.578L81.0459 118.296L83.6931 120.417L83.0632 116.578Z" fill="url(#paint32_linear_221_2316)"/>
<path d="M69.9429 14.1667L67.9313 15.9202L70.5431 18.0464L69.9429 14.1667Z" fill="url(#paint33_linear_221_2316)"/>
<path d="M109.785 125.734L106.99 130.937L109.553 133.436L111.702 128.959L109.785 125.734Z" fill="url(#paint34_linear_221_2316)"/>
<path d="M109.616 98.6806L108.938 102.113L111.684 102.83L112.474 99.6351L109.616 98.6806Z" fill="url(#paint35_linear_221_2316)"/>
<path d="M112.818 75.271L113.597 78.6834L116.405 78.2226L115.839 74.9943L112.818 75.271Z" fill="url(#paint36_linear_221_2316)"/>
<path d="M109.375 143.246L110.752 146.524L114.484 143.247L113.984 139.534L109.375 143.246Z" fill="url(#paint37_linear_221_2316)"/>
<path d="M16.2491 124.66L17.6322 127.973L21.3647 124.697L20.8292 120.989L16.2491 124.66Z" fill="url(#paint38_linear_221_2316)"/>
<path d="M110.753 162.984L111.567 168.836L115.077 169.319L114.165 164.432L110.753 162.984Z" fill="url(#paint39_linear_221_2316)"/>
<path d="M123.422 130.102L123.894 133.419L125.877 133.714L125.38 130.912L123.422 130.102Z" fill="url(#paint40_linear_221_2316)"/>
<path d="M129.003 81.3741L129.439 84.6968L131.457 84.9861L130.967 82.2198L129.003 81.3741Z" fill="url(#paint41_linear_221_2316)"/>
<path d="M83.8352 30.0987L84.3066 33.4156L86.3249 33.7048L85.7989 30.9443L83.8352 30.0987Z" fill="url(#paint42_linear_221_2316)"/>
<path d="M123.41 146.929L125.714 151.624L127.503 148.739L123.41 146.929Z" fill="url(#paint43_linear_221_2316)"/>
<path d="M141.121 51.3555L143.424 56.0506L145.219 53.2012L141.121 51.3555Z" fill="url(#paint44_linear_221_2316)"/>
<path d="M122.499 160.947L122.036 163.907L125.491 164.727L125.736 161.767L122.499 160.947Z" fill="url(#paint45_linear_221_2316)"/>
<path d="M126.457 128.801L129.974 133.552L133.311 132.311L130.194 128.443L126.457 128.801Z" fill="url(#paint46_linear_221_2316)"/>
<path d="M138.978 105.687L139.793 109.094L142.595 108.597L141.993 105.375L138.978 105.687Z" fill="url(#paint47_linear_221_2316)"/>
<path d="M30.8079 129.752L31.6224 133.159L34.4242 132.663L33.8224 129.44L30.8079 129.752Z" fill="url(#paint48_linear_221_2316)"/>
<path d="M145.151 135.295L144.185 138.082L148.145 138.417L146.847 136.513L145.151 135.295Z" fill="url(#paint49_linear_221_2316)"/>
<path d="M101.392 15.2097L101.203 17.3941L105.158 17.6941L103.479 14.1373L101.392 15.2097Z" fill="url(#paint50_linear_221_2316)"/>
<path d="M145.883 140.868L146.125 141.23C146.402 141.805 146.376 142.539 146.12 143.421C143.833 143.723 140.567 145.39 137.428 148.059C134.289 150.727 132.109 153.676 131.452 155.901C130.558 156.011 129.812 155.915 129.28 155.564L128.943 155.291C127.449 153.529 130.007 148.875 134.718 144.89C139.394 140.911 144.39 139.106 145.883 140.868Z" fill="url(#paint51_linear_221_2316)"/>
<path d="M129.28 155.564L131.247 157.321L132.824 158.705L134.532 160.213C134.97 160.214 135.402 160.18 135.829 160.11C136.403 160.052 136.966 159.923 137.559 159.753C138.643 159.466 139.704 159.036 140.812 158.453C141.417 158.134 142.016 157.781 142.574 157.397C143.167 157.008 143.718 156.589 144.258 156.099C144.87 155.597 145.433 155.03 145.932 154.51C146.645 153.736 147.28 152.938 147.803 152.123C148.885 150.485 149.594 148.8 149.84 147.19L148.401 144.871L146.915 142.487L146.084 141.2C146.36 141.775 146.335 142.509 146.078 143.391C145.416 145.58 143.241 148.565 140.102 151.233C136.963 153.902 133.661 155.575 131.411 155.871C130.522 156.017 129.776 155.92 129.28 155.564Z" fill="url(#paint52_linear_221_2316)"/>
<path d="M131.452 155.901C133.744 155.635 137.005 153.932 140.143 151.263C143.282 148.595 145.463 145.645 146.119 143.421C143.833 143.723 140.567 145.391 137.428 148.059C134.289 150.727 132.079 153.718 131.452 155.901Z" fill="#435965"/>
<path d="M134.538 160.249L135.737 161.329L135.835 160.145C135.408 160.215 134.97 160.214 134.538 160.249Z" fill="url(#paint53_linear_221_2316)"/>
<path d="M135.835 160.146L135.737 161.329L137.314 162.713L137.564 159.789C136.972 159.959 136.409 160.088 135.835 160.146Z" fill="url(#paint54_linear_221_2316)"/>
<path d="M137.564 159.788L137.314 162.713L140.221 165.301L140.783 158.494C139.71 159.071 138.613 159.507 137.564 159.788Z" fill="url(#paint55_linear_221_2316)"/>
<path d="M140.824 158.524L140.263 165.332L141.84 166.715L142.621 157.463C141.992 157.858 141.393 158.212 140.824 158.524Z" fill="url(#paint56_linear_221_2316)"/>
<path d="M142.585 157.469L141.804 166.721L144.752 169.34L145.979 154.576C145.451 155.137 144.881 155.668 144.306 156.164C143.724 156.625 143.172 157.044 142.585 157.469Z" fill="url(#paint57_linear_221_2316)"/>
<path d="M145.973 154.54L144.746 169.304L146.324 170.687L147.839 152.117C147.321 152.968 146.686 153.766 145.973 154.54Z" fill="url(#paint58_linear_221_2316)"/>
<path d="M147.844 152.152L146.33 170.723L149.278 173.341L151.256 149.366L149.923 147.249C149.635 148.829 148.926 150.515 147.844 152.152Z" fill="url(#paint59_linear_221_2316)"/>
<defs>
<linearGradient id="paint0_linear_221_2316" x1="48.92" y1="174.682" x2="48.5122" y2="179.639" gradientUnits="userSpaceOnUse">
<stop offset="0.4894" stop-color="#FE8A5C"/>
<stop offset="0.6366" stop-color="#FD8456"/>
<stop offset="0.8376" stop-color="#FA7344"/>
<stop offset="1" stop-color="#F66031"/>
</linearGradient>
<linearGradient id="paint1_linear_221_2316" x1="49.7437" y1="163.292" x2="49.5232" y2="165.973" gradientUnits="userSpaceOnUse">
<stop offset="0.5738" stop-color="#A6CDA8"/>
<stop offset="0.8929" stop-color="#79B17F"/>
</linearGradient>
<linearGradient id="paint2_linear_221_2316" x1="101.672" y1="171.142" x2="101.451" y2="173.824" gradientUnits="userSpaceOnUse">
<stop offset="0.5738" stop-color="#A6CDA8"/>
<stop offset="0.8929" stop-color="#79B17F"/>
</linearGradient>
<linearGradient id="paint3_linear_221_2316" x1="76.2777" y1="133.772" x2="75.473" y2="143.553" gradientUnits="userSpaceOnUse">
<stop offset="0.4011" stop-color="#FEBF5C"/>
<stop offset="1" stop-color="#F0A624"/>
</linearGradient>
<linearGradient id="paint4_linear_221_2316" x1="76.1407" y1="135.438" x2="75.6101" y2="141.888" gradientUnits="userSpaceOnUse">
<stop offset="0.4894" stop-color="#FE8A5C"/>
<stop offset="0.6366" stop-color="#FD8456"/>
<stop offset="0.8376" stop-color="#FA7344"/>
<stop offset="1" stop-color="#F66031"/>
</linearGradient>
<linearGradient id="paint5_linear_221_2316" x1="75.9998" y1="137.15" x2="75.7509" y2="140.176" gradientUnits="userSpaceOnUse">
<stop offset="0.4011" stop-color="#FEBF5C"/>
<stop offset="1" stop-color="#F0A624"/>
</linearGradient>
<linearGradient id="paint6_linear_221_2316" x1="104.473" y1="106.673" x2="103.668" y2="116.455" gradientUnits="userSpaceOnUse">
<stop offset="0.4011" stop-color="#FEBF5C"/>
<stop offset="1" stop-color="#F0A624"/>
</linearGradient>
<linearGradient id="paint7_linear_221_2316" x1="104.336" y1="108.339" x2="103.805" y2="114.789" gradientUnits="userSpaceOnUse">
<stop offset="0.4894" stop-color="#FE8A5C"/>
<stop offset="0.6366" stop-color="#FD8456"/>
<stop offset="0.8376" stop-color="#FA7344"/>
<stop offset="1" stop-color="#F66031"/>
</linearGradient>
<linearGradient id="paint8_linear_221_2316" x1="104.195" y1="110.051" x2="103.946" y2="113.077" gradientUnits="userSpaceOnUse">
<stop offset="0.4011" stop-color="#FEBF5C"/>
<stop offset="1" stop-color="#F0A624"/>
</linearGradient>
<linearGradient id="paint9_linear_221_2316" x1="126.794" y1="170.425" x2="125.989" y2="180.206" gradientUnits="userSpaceOnUse">
<stop offset="0.4011" stop-color="#FEBF5C"/>
<stop offset="1" stop-color="#F0A624"/>
</linearGradient>
<linearGradient id="paint10_linear_221_2316" x1="126.657" y1="172.09" x2="126.126" y2="178.54" gradientUnits="userSpaceOnUse">
<stop offset="0.4894" stop-color="#FE8A5C"/>
<stop offset="0.6366" stop-color="#FD8456"/>
<stop offset="0.8376" stop-color="#FA7344"/>
<stop offset="1" stop-color="#F66031"/>
</linearGradient>
<linearGradient id="paint11_linear_221_2316" x1="126.516" y1="173.802" x2="126.267" y2="176.828" gradientUnits="userSpaceOnUse">
<stop offset="0.4011" stop-color="#FEBF5C"/>
<stop offset="1" stop-color="#F0A624"/>
</linearGradient>
<linearGradient id="paint12_linear_221_2316" x1="62.4567" y1="170.995" x2="62.2232" y2="173.834" gradientUnits="userSpaceOnUse">
<stop offset="0.4011" stop-color="#FEBF5C"/>
<stop offset="1" stop-color="#F0A624"/>
</linearGradient>
<linearGradient id="paint13_linear_221_2316" x1="77.3814" y1="165.722" x2="77.0274" y2="170.025" gradientUnits="userSpaceOnUse">
<stop offset="0.1377" stop-color="#DD5551"/>
<stop offset="1" stop-color="#F43749"/>
</linearGradient>
<linearGradient id="paint14_linear_221_2316" x1="93.4845" y1="43.0698" x2="93.1305" y2="47.3735" gradientUnits="userSpaceOnUse">
<stop offset="0.1377" stop-color="#DD5551"/>
<stop offset="1" stop-color="#F43749"/>
</linearGradient>
<linearGradient id="paint15_linear_221_2316" x1="66.3371" y1="155.52" x2="66.0277" y2="159.282" gradientUnits="userSpaceOnUse">
<stop offset="0.5738" stop-color="#A6CDA8"/>
<stop offset="0.8929" stop-color="#79B17F"/>
</linearGradient>
<linearGradient id="paint16_linear_221_2316" x1="71.0945" y1="114.079" x2="70.8373" y2="117.206" gradientUnits="userSpaceOnUse">
<stop offset="0.4011" stop-color="#FEBF5C"/>
<stop offset="1" stop-color="#F0A624"/>
</linearGradient>
<linearGradient id="paint17_linear_221_2316" x1="102.715" y1="87.6701" x2="102.39" y2="91.6148" gradientUnits="userSpaceOnUse">
<stop offset="0.4894" stop-color="#FE8A5C"/>
<stop offset="0.6366" stop-color="#FD8456"/>
<stop offset="0.8376" stop-color="#FA7344"/>
<stop offset="1" stop-color="#F66031"/>
</linearGradient>
<linearGradient id="paint18_linear_221_2316" x1="51.1926" y1="145.688" x2="50.8681" y2="149.633" gradientUnits="userSpaceOnUse">
<stop offset="0.1377" stop-color="#DD5551"/>
<stop offset="1" stop-color="#F43749"/>
</linearGradient>
<linearGradient id="paint19_linear_221_2316" x1="39.8445" y1="119.836" x2="39.52" y2="123.781" gradientUnits="userSpaceOnUse">
<stop offset="0.1377" stop-color="#DD5551"/>
<stop offset="1" stop-color="#F43749"/>
</linearGradient>
<linearGradient id="paint20_linear_221_2316" x1="105.281" y1="96.8423" x2="101.408" y2="143.931" gradientUnits="userSpaceOnUse">
<stop offset="0.1377" stop-color="#DD5551"/>
<stop offset="1" stop-color="#F43749"/>
</linearGradient>
<linearGradient id="paint21_linear_221_2316" x1="109.877" y1="139.788" x2="108.345" y2="158.411" gradientUnits="userSpaceOnUse">
<stop offset="0.4011" stop-color="#FEBF5C"/>
<stop offset="1" stop-color="#F0A624"/>
</linearGradient>
<linearGradient id="paint22_linear_221_2316" x1="131.125" y1="97.6953" x2="128.839" y2="125.489" gradientUnits="userSpaceOnUse">
<stop offset="0.5738" stop-color="#A6CDA8"/>
<stop offset="0.8929" stop-color="#79B17F"/>
</linearGradient>
<linearGradient id="paint23_linear_221_2316" x1="140.3" y1="74.8191" x2="138.369" y2="98.2915" gradientUnits="userSpaceOnUse">
<stop offset="0.5738" stop-color="#A6CDA8"/>
<stop offset="0.8929" stop-color="#79B17F"/>
</linearGradient>
<linearGradient id="paint24_linear_221_2316" x1="140.249" y1="116.645" x2="138.523" y2="137.625" gradientUnits="userSpaceOnUse">
<stop offset="0.5738" stop-color="#A6CDA8"/>
<stop offset="0.8929" stop-color="#79B17F"/>
</linearGradient>
<linearGradient id="paint25_linear_221_2316" x1="134.785" y1="146.406" x2="134.612" y2="148.51" gradientUnits="userSpaceOnUse">
<stop offset="0.4011" stop-color="#FEBF5C"/>
<stop offset="1" stop-color="#F0A624"/>
</linearGradient>
<linearGradient id="paint26_linear_221_2316" x1="87.0804" y1="157.228" x2="86.5808" y2="163.301" gradientUnits="userSpaceOnUse">
<stop offset="0.4894" stop-color="#FE8A5C"/>
<stop offset="0.6366" stop-color="#FD8456"/>
<stop offset="0.8376" stop-color="#FA7344"/>
<stop offset="1" stop-color="#F66031"/>
</linearGradient>
<linearGradient id="paint27_linear_221_2316" x1="80.1075" y1="79.4224" x2="79.6079" y2="85.4957" gradientUnits="userSpaceOnUse">
<stop offset="0.4894" stop-color="#FE8A5C"/>
<stop offset="0.6366" stop-color="#FD8456"/>
<stop offset="0.8376" stop-color="#FA7344"/>
<stop offset="1" stop-color="#F66031"/>
</linearGradient>
<linearGradient id="paint28_linear_221_2316" x1="92.4394" y1="127.089" x2="91.8866" y2="133.808" gradientUnits="userSpaceOnUse">
<stop offset="0.4894" stop-color="#FE8A5C"/>
<stop offset="0.6366" stop-color="#FD8456"/>
<stop offset="0.8376" stop-color="#FA7344"/>
<stop offset="1" stop-color="#F66031"/>
</linearGradient>
<linearGradient id="paint29_linear_221_2316" x1="92.7312" y1="148.897" x2="92.4191" y2="152.691" gradientUnits="userSpaceOnUse">
<stop offset="0.4894" stop-color="#FE8A5C"/>
<stop offset="0.6366" stop-color="#FD8456"/>
<stop offset="0.8376" stop-color="#FA7344"/>
<stop offset="1" stop-color="#F66031"/>
</linearGradient>
<linearGradient id="paint30_linear_221_2316" x1="120.872" y1="87.3398" x2="120.56" y2="91.1341" gradientUnits="userSpaceOnUse">
<stop offset="0.4894" stop-color="#FE8A5C"/>
<stop offset="0.6366" stop-color="#FD8456"/>
<stop offset="0.8376" stop-color="#FA7344"/>
<stop offset="1" stop-color="#F66031"/>
</linearGradient>
<linearGradient id="paint31_linear_221_2316" x1="72.5741" y1="63.0422" x2="72.2619" y2="66.8364" gradientUnits="userSpaceOnUse">
<stop offset="0.4894" stop-color="#FE8A5C"/>
<stop offset="0.6366" stop-color="#FD8456"/>
<stop offset="0.8376" stop-color="#FA7344"/>
<stop offset="1" stop-color="#F66031"/>
</linearGradient>
<linearGradient id="paint32_linear_221_2316" x1="82.6065" y1="116.525" x2="82.2944" y2="120.319" gradientUnits="userSpaceOnUse">
<stop offset="0.4894" stop-color="#FE8A5C"/>
<stop offset="0.6366" stop-color="#FD8456"/>
<stop offset="0.8376" stop-color="#FA7344"/>
<stop offset="1" stop-color="#F66031"/>
</linearGradient>
<linearGradient id="paint33_linear_221_2316" x1="69.4629" y1="14.1338" x2="69.1508" y2="17.9279" gradientUnits="userSpaceOnUse">
<stop offset="0.4894" stop-color="#FE8A5C"/>
<stop offset="0.6366" stop-color="#FD8456"/>
<stop offset="0.8376" stop-color="#FA7344"/>
<stop offset="1" stop-color="#F66031"/>
</linearGradient>
<linearGradient id="paint34_linear_221_2316" x1="109.696" y1="125.734" x2="109.067" y2="133.383" gradientUnits="userSpaceOnUse">
<stop offset="0.4011" stop-color="#FEBF5C"/>
<stop offset="1" stop-color="#F0A624"/>
</linearGradient>
<linearGradient id="paint35_linear_221_2316" x1="110.882" y1="98.7739" x2="110.558" y2="102.719" gradientUnits="userSpaceOnUse">
<stop offset="0.4011" stop-color="#FEBF5C"/>
<stop offset="1" stop-color="#F0A624"/>
</linearGradient>
<linearGradient id="paint36_linear_221_2316" x1="114.765" y1="74.8941" x2="114.446" y2="78.7634" gradientUnits="userSpaceOnUse">
<stop offset="0.4011" stop-color="#FEBF5C"/>
<stop offset="1" stop-color="#F0A624"/>
</linearGradient>
<linearGradient id="paint37_linear_221_2316" x1="112.261" y1="139.403" x2="111.669" y2="146.599" gradientUnits="userSpaceOnUse">
<stop offset="0.5738" stop-color="#A6CDA8"/>
<stop offset="0.8929" stop-color="#79B17F"/>
</linearGradient>
<linearGradient id="paint38_linear_221_2316" x1="19.1112" y1="120.844" x2="18.5192" y2="128.041" gradientUnits="userSpaceOnUse">
<stop offset="0.5738" stop-color="#A6CDA8"/>
<stop offset="0.8929" stop-color="#79B17F"/>
</linearGradient>
<linearGradient id="paint39_linear_221_2316" x1="113.151" y1="163.182" x2="112.663" y2="169.123" gradientUnits="userSpaceOnUse">
<stop offset="0.4011" stop-color="#FEBF5C"/>
<stop offset="1" stop-color="#F0A624"/>
</linearGradient>
<linearGradient id="paint40_linear_221_2316" x1="124.795" y1="130.212" x2="124.517" y2="133.593" gradientUnits="userSpaceOnUse">
<stop offset="0.5738" stop-color="#A6CDA8"/>
<stop offset="0.8929" stop-color="#79B17F"/>
</linearGradient>
<linearGradient id="paint41_linear_221_2316" x1="130.363" y1="81.4918" x2="130.085" y2="84.873" gradientUnits="userSpaceOnUse">
<stop offset="0.5738" stop-color="#A6CDA8"/>
<stop offset="0.8929" stop-color="#79B17F"/>
</linearGradient>
<linearGradient id="paint42_linear_221_2316" x1="85.2221" y1="30.2174" x2="84.9439" y2="33.5986" gradientUnits="userSpaceOnUse">
<stop offset="0.5738" stop-color="#A6CDA8"/>
<stop offset="0.8929" stop-color="#79B17F"/>
</linearGradient>
<linearGradient id="paint43_linear_221_2316" x1="125.523" y1="147.093" x2="125.155" y2="151.566" gradientUnits="userSpaceOnUse">
<stop offset="0.4894" stop-color="#FE8A5C"/>
<stop offset="0.6366" stop-color="#FD8456"/>
<stop offset="0.8376" stop-color="#FA7344"/>
<stop offset="1" stop-color="#F66031"/>
</linearGradient>
<linearGradient id="paint44_linear_221_2316" x1="143.224" y1="51.5337" x2="142.856" y2="56.0061" gradientUnits="userSpaceOnUse">
<stop offset="0.4894" stop-color="#FE8A5C"/>
<stop offset="0.6366" stop-color="#FD8456"/>
<stop offset="0.8376" stop-color="#FA7344"/>
<stop offset="1" stop-color="#F66031"/>
</linearGradient>
<linearGradient id="paint45_linear_221_2316" x1="124.027" y1="161.053" x2="123.736" y2="164.592" gradientUnits="userSpaceOnUse">
<stop offset="0.4894" stop-color="#FE8A5C"/>
<stop offset="0.6366" stop-color="#FD8456"/>
<stop offset="0.8376" stop-color="#FA7344"/>
<stop offset="1" stop-color="#F66031"/>
</linearGradient>
<linearGradient id="paint46_linear_221_2316" x1="130.058" y1="128.436" x2="129.639" y2="133.534" gradientUnits="userSpaceOnUse">
<stop offset="0.4011" stop-color="#FEBF5C"/>
<stop offset="1" stop-color="#F0A624"/>
</linearGradient>
<linearGradient id="paint47_linear_221_2316" x1="140.944" y1="105.301" x2="140.626" y2="109.171" gradientUnits="userSpaceOnUse">
<stop offset="0.4894" stop-color="#FE8A5C"/>
<stop offset="0.6366" stop-color="#FD8456"/>
<stop offset="0.8376" stop-color="#FA7344"/>
<stop offset="1" stop-color="#F66031"/>
</linearGradient>
<linearGradient id="paint48_linear_221_2316" x1="32.7721" y1="129.356" x2="32.4538" y2="133.225" gradientUnits="userSpaceOnUse">
<stop offset="0.4894" stop-color="#FE8A5C"/>
<stop offset="0.6366" stop-color="#FD8456"/>
<stop offset="0.8376" stop-color="#FA7344"/>
<stop offset="1" stop-color="#F66031"/>
</linearGradient>
<linearGradient id="paint49_linear_221_2316" x1="146.392" y1="135.393" x2="146.157" y2="138.254" gradientUnits="userSpaceOnUse">
<stop offset="0.5738" stop-color="#A6CDA8"/>
<stop offset="0.8929" stop-color="#79B17F"/>
</linearGradient>
<linearGradient id="paint50_linear_221_2316" x1="103.474" y1="14.1395" x2="103.194" y2="17.546" gradientUnits="userSpaceOnUse">
<stop offset="0.4011" stop-color="#FEBF5C"/>
<stop offset="1" stop-color="#F0A624"/>
</linearGradient>
<linearGradient id="paint51_linear_221_2316" x1="138.111" y1="139.693" x2="136.733" y2="156.452" gradientUnits="userSpaceOnUse">
<stop offset="0.3185" stop-color="#CB9168"/>
<stop offset="1" stop-color="#BD7647"/>
</linearGradient>
<linearGradient id="paint52_linear_221_2316" x1="140.453" y1="140.783" x2="138.824" y2="160.59" gradientUnits="userSpaceOnUse">
<stop offset="0.1377" stop-color="#DD5551"/>
<stop offset="1" stop-color="#F43749"/>
</linearGradient>
<linearGradient id="paint53_linear_221_2316" x1="135.198" y1="160.089" x2="135.102" y2="161.263" gradientUnits="userSpaceOnUse">
<stop offset="0.4894" stop-color="#FE8A5C"/>
<stop offset="0.6366" stop-color="#FD8456"/>
<stop offset="0.8376" stop-color="#FA7344"/>
<stop offset="1" stop-color="#F66031"/>
</linearGradient>
<linearGradient id="paint54_linear_221_2316" x1="136.724" y1="159.734" x2="136.484" y2="162.645" gradientUnits="userSpaceOnUse">
<stop offset="0.4011" stop-color="#FEBF5C"/>
<stop offset="1" stop-color="#F0A624"/>
</linearGradient>
<linearGradient id="paint55_linear_221_2316" x1="139.249" y1="158.384" x2="138.689" y2="165.186" gradientUnits="userSpaceOnUse">
<stop offset="0.4894" stop-color="#FE8A5C"/>
<stop offset="0.6366" stop-color="#FD8456"/>
<stop offset="0.8376" stop-color="#FA7344"/>
<stop offset="1" stop-color="#F66031"/>
</linearGradient>
<linearGradient id="paint56_linear_221_2316" x1="141.745" y1="157.383" x2="140.983" y2="166.644" gradientUnits="userSpaceOnUse">
<stop offset="0.4011" stop-color="#FEBF5C"/>
<stop offset="1" stop-color="#F0A624"/>
</linearGradient>
<linearGradient id="paint57_linear_221_2316" x1="144.404" y1="154.426" x2="143.19" y2="169.189" gradientUnits="userSpaceOnUse">
<stop offset="0.4894" stop-color="#FE8A5C"/>
<stop offset="0.6366" stop-color="#FD8456"/>
<stop offset="0.8376" stop-color="#FA7344"/>
<stop offset="1" stop-color="#F66031"/>
</linearGradient>
<linearGradient id="paint58_linear_221_2316" x1="147.011" y1="152.085" x2="145.484" y2="170.643" gradientUnits="userSpaceOnUse">
<stop offset="0.4011" stop-color="#FEBF5C"/>
<stop offset="1" stop-color="#F0A624"/>
</linearGradient>
<linearGradient id="paint59_linear_221_2316" x1="149.826" y1="147.207" x2="147.689" y2="173.187" gradientUnits="userSpaceOnUse">
<stop offset="0.4894" stop-color="#FE8A5C"/>
<stop offset="0.6366" stop-color="#FD8456"/>
<stop offset="0.8376" stop-color="#FA7344"/>
<stop offset="1" stop-color="#F66031"/>
</linearGradient>
</defs>
</svg>
