<svg width="175" height="228" viewBox="0 0 175 228" fill="none" xmlns="http://www.w3.org/2000/svg">
<path d="M100.179 184.424L101.922 182.155L104.137 183.835" fill="url(#paint0_linear_221_2009)"/>
<path d="M32.2281 181.884C32.9804 182.006 33.484 182.707 33.3612 183.459C33.2384 184.211 32.5383 184.715 31.786 184.592C31.0337 184.469 30.5301 183.769 30.6529 183.017C30.7757 182.264 31.4758 181.761 32.2281 181.884Z" fill="url(#paint1_linear_221_2009)"/>
<path d="M66.8053 150.963C69.5476 151.42 71.4168 153.997 70.9601 156.739C70.5035 159.481 67.9268 161.35 65.1845 160.894C62.4423 160.437 60.5731 157.86 61.0298 155.118C61.4525 152.361 64.0631 150.507 66.8053 150.963ZM69.2711 156.454C69.5658 154.648 68.3261 152.947 66.5206 152.652C64.7151 152.358 63.0135 153.597 62.7188 155.403C62.4241 157.208 63.6638 158.91 65.4693 159.205C67.2748 159.499 68.9764 158.26 69.2711 156.454Z" fill="url(#paint2_linear_221_2009)"/>
<path d="M66.5203 152.652C68.3259 152.947 69.5656 154.649 69.2709 156.454C68.9762 158.26 67.2746 159.499 65.4691 159.205C63.6635 158.91 62.4238 157.208 62.7185 155.403C63.0279 153.563 64.7148 152.358 66.5203 152.652ZM67.5333 156.189C67.666 155.32 67.0751 154.542 66.2549 154.39C65.3861 154.257 64.6082 154.848 64.4561 155.668C64.3234 156.537 64.9143 157.315 65.7345 157.467C66.6033 157.6 67.3812 157.009 67.5333 156.189Z" fill="url(#paint3_linear_221_2009)"/>
<path d="M66.2548 154.39C67.1237 154.523 67.6999 155.335 67.5332 156.189C67.4005 157.058 66.6032 157.6 65.7344 157.467C64.8656 157.335 64.3234 156.537 64.4561 155.669C64.5888 154.8 65.4007 154.223 66.2548 154.39Z" fill="url(#paint4_linear_221_2009)"/>
<path d="M45.4245 116.952C48.1668 117.409 50.036 119.986 49.5793 122.728C49.1227 125.47 46.546 127.34 43.8037 126.883C41.0615 126.426 39.1923 123.85 39.6489 121.107C40.1056 118.365 42.6823 116.496 45.4245 116.952ZM47.9242 122.458C48.2189 120.652 46.9792 118.951 45.1737 118.656C43.3682 118.361 41.6666 119.601 41.3719 121.407C41.0772 123.212 42.3169 124.914 44.1224 125.208C45.894 125.489 47.6296 124.263 47.9242 122.458Z" fill="url(#paint5_linear_221_2009)"/>
<path d="M45.1737 118.656C46.9792 118.951 48.2189 120.652 47.9243 122.458C47.6296 124.263 45.928 125.503 44.1224 125.208C42.3169 124.914 41.0772 123.212 41.3719 121.407C41.6327 119.587 43.3682 118.361 45.1737 118.656ZM46.1527 122.178C46.2854 121.309 45.6945 120.531 44.8743 120.379C44.0055 120.246 43.2276 120.837 43.0756 121.657C42.9429 122.526 43.5337 123.304 44.3539 123.456C45.2227 123.589 46.0346 123.013 46.1527 122.178Z" fill="url(#paint6_linear_221_2009)"/>
<path d="M44.8743 120.379C45.7431 120.512 46.3193 121.324 46.1526 122.178C46.0199 123.047 45.2227 123.589 44.3539 123.456C43.4851 123.324 42.9428 122.526 43.0755 121.658C43.2276 120.837 44.0394 120.261 44.8743 120.379Z" fill="url(#paint7_linear_221_2009)"/>
<path d="M7.40266 174.933C10.1449 175.389 12.0141 177.966 11.5574 180.708C11.1008 183.451 8.5241 185.32 5.78185 184.863C3.03961 184.407 1.1704 181.83 1.62707 179.088C2.04978 176.331 4.62645 174.462 7.40266 174.933ZM9.86842 180.424C10.1631 178.618 8.92342 176.917 7.1179 176.622C5.31237 176.327 3.61078 177.567 3.31609 179.372C3.02139 181.178 4.26109 182.88 6.06661 183.174C7.83818 183.454 9.5591 182.263 9.86842 180.424Z" fill="url(#paint8_linear_221_2009)"/>
<path d="M7.11806 176.622C8.92359 176.917 10.1633 178.618 9.86859 180.424C9.5739 182.229 7.8723 183.469 6.06678 183.174C4.26126 182.88 3.02156 181.178 3.31625 179.373C3.57699 177.552 5.31254 176.327 7.11806 176.622ZM8.13098 180.158C8.2637 179.29 7.67284 178.512 6.85263 178.36C5.98382 178.227 5.2059 178.818 5.05386 179.638C4.92114 180.507 5.512 181.285 6.33222 181.437C7.16706 181.555 7.96431 181.013 8.13098 180.158Z" fill="url(#paint9_linear_221_2009)"/>
<path d="M6.81861 178.345C7.68741 178.478 8.26364 179.29 8.09697 180.144C7.96425 181.013 7.167 181.555 6.2982 181.422C5.42939 181.29 4.88713 180.492 5.01984 179.623C5.17189 178.803 5.98376 178.227 6.81861 178.345Z" fill="url(#paint10_linear_221_2009)"/>
<path d="M71.3468 191.448C72.133 191.586 72.6899 192.349 72.5525 193.135C72.4151 193.922 71.6518 194.479 70.8656 194.341C70.0793 194.204 69.5224 193.44 69.6598 192.654C69.7972 191.868 70.5459 191.345 71.3468 191.448Z" fill="url(#paint11_linear_221_2009)"/>
<path d="M60.1866 185.393L61.0261 188.21L57.6203 189.481L55.8488 186.584L60.1866 185.393Z" fill="url(#paint12_linear_221_2009)"/>
<path d="M89.8967 83.2501L90.7022 86.0529L87.2964 87.3234L85.5396 84.3925L89.8967 83.2501Z" fill="url(#paint13_linear_221_2009)"/>
<path d="M85.7752 147.863C86.8963 148.064 87.6517 149.114 87.4845 150.25C87.2834 151.371 86.2333 152.127 85.0975 151.959C83.9764 151.758 83.2209 150.708 83.3881 149.572C83.5893 148.451 84.6394 147.696 85.7752 147.863Z" fill="url(#paint14_linear_221_2009)"/>
<path d="M90.6426 99.8361C91.7637 100.037 92.5192 101.087 92.352 102.223C92.1508 103.344 91.1007 104.1 89.9649 103.933C88.8438 103.731 88.0884 102.681 88.2556 101.545C88.4714 100.39 89.5215 99.635 90.6426 99.8361Z" fill="url(#paint15_linear_221_2009)"/>
<path d="M72.7257 175.818L72.1854 179.128L69.3183 177.933L70.3387 174.91L72.7257 175.818Z" fill="url(#paint16_linear_221_2009)"/>
<path d="M78.2895 134.493L75.1899 135.613L75.1523 132.336L78.2895 134.493Z" fill="url(#paint17_linear_221_2009)"/>
<path d="M53.2124 98.688L53.0017 102.261L50.1033 102.26L50.095 98.9152L53.2124 98.688Z" fill="url(#paint18_linear_221_2009)"/>
<path d="M86.7216 52.2105L86.545 55.798L83.6319 55.8314L83.6382 52.4523L86.7216 52.2105Z" fill="url(#paint19_linear_221_2009)"/>
<path d="M90.124 169.262L89.9473 172.85L87.0488 172.849L87.0406 169.504L90.124 169.262Z" fill="url(#paint20_linear_221_2009)"/>
<path d="M71.4492 110.933L74.3324 113.866C74.0884 114.526 73.0299 117.17 70.7907 117.695C69.2705 118.046 67.9174 117.262 66.3945 116.405C63.3148 114.675 62.5416 112.732 60.5459 112.879C60.4634 112.883 59.5893 112.95 58.8746 113.487C56.0352 115.686 60.4658 121.943 58.2103 128.58C58.0687 129.002 56.1262 134.446 51.3997 135.792C46.9501 137.055 42.3679 133.954 41.7473 133.526C40.8163 132.883 38.8045 131.292 36.9577 129.691C35.2175 128.217 34.8784 127.789 33.9517 127.51C31.7972 126.904 29.057 127.938 27.9368 129.791C27.0748 131.231 27.5674 132.611 27.734 134.373C28.201 139.084 26.283 144.377 23.2675 147.265C19.6537 150.7 14.4639 150.598 12.5173 150.444L12.1653 146.589C13.6751 146.635 16.6127 146.451 19.6988 144.802C20.7583 144.211 22.6051 143.195 24.046 141.159C25.7158 138.778 25.9389 136.297 26.1725 133.419C26.5754 128.278 25.3754 126.111 27.1026 124.157C27.2437 124.017 28.3335 122.795 29.9943 122.585C32.1165 122.331 33.9392 123.801 34.8456 124.594C35.6115 125.246 36.0038 125.737 36.59 126.433C39.3463 129.754 40.9255 131.602 43.2106 132.465C43.7346 132.651 45.8985 133.422 48.3859 132.601C50.5963 131.863 51.7937 130.204 52.5628 129.167C54.9138 125.952 55.1683 122.278 55.2044 121.166C55.3168 118.195 54.4595 117.101 55.3957 114.927C56.1564 113.162 57.4108 112.212 57.683 112.048C59.195 110.968 60.7633 110.879 61.3751 110.86C63.1425 110.776 64.5154 111.328 65.5681 111.781C67.8433 112.761 68.361 113.709 69.3761 113.502C69.9492 113.387 70.7464 112.844 71.4492 110.933Z" fill="url(#paint21_linear_221_2009)"/>
<path d="M44.4153 155.369C44.6708 156.365 45.1472 158.623 44.2877 161.273C42.6911 166.1 38.0273 167.674 37.6532 167.795C35.1319 168.601 31.5731 168.638 29.1637 166.755C27.3796 165.382 27.6006 164.028 24.9248 161.829C24.0038 161.069 22.9129 160.237 21.2971 159.783C18.8416 159.127 16.7284 159.827 15.8052 160.195L15.9777 156.243C17.8674 155.688 20.4801 155.324 22.6575 156.625C23.7729 157.306 23.9223 157.894 26.0298 160.292C28.5781 163.161 29.8377 164.629 31.4003 165.021C34.4769 165.823 37.4527 163.401 37.8806 163.062C40.6036 160.853 41.8 157.141 41.0974 153.819C40.6691 151.823 39.6132 150.442 38.9931 149.732L44.4153 155.369Z" fill="url(#paint22_linear_221_2009)"/>
<path d="M22.8919 101.69C25.2856 104.171 26.8827 106.912 26.2363 109.814C24.8021 116.041 21.0279 124.802 11.4229 128.313C11.0488 128.434 10.7233 128.535 10.3978 128.637C10.7552 127.059 10.9183 125.56 10.8916 124.219C14.9008 122.202 19.9153 117.478 22.5286 111.599C24.1325 108.062 23.9205 104.63 22.8919 101.69Z" fill="url(#paint23_linear_221_2009)"/>
<path d="M18.0401 94.7283C19.8435 96.1494 21.8245 98.6534 22.8917 101.69C20.1443 98.8153 16.3087 96.3175 13.7342 94.4435C8.94405 90.8903 5.62093 86.9224 7.70557 80.7749C9.82417 74.6421 19.0258 76.5529 19.0258 76.5529C19.0258 76.5529 12.5016 78.6137 12.0799 83.4243C11.6534 88.1523 14.5012 91.9154 18.0401 94.7283Z" fill="url(#paint24_linear_221_2009)"/>
<path d="M7.0375 128.96C2.74677 128.359 1.27935 123.822 1.93401 121.648C2.95544 118.062 5.82676 117.004 8.83855 118.705C10.0365 119.382 10.819 121.49 10.877 124.253C10.9036 125.593 10.7745 127.107 10.3832 128.67C9.55608 132.179 7.62613 136.098 4.0709 139.397L0.402983 135.482C0.402983 135.482 4.14991 133.513 6.08245 130.803C6.4816 130.25 6.79351 129.62 7.0375 128.96ZM7.72928 125.111C7.79514 123.65 7.60814 122.402 7.33753 121.722C6.89296 120.604 3.86132 119.137 3.57391 122.234C3.43021 123.782 4.59888 124.527 5.81196 124.889C6.46709 125.05 7.08356 125.115 7.72928 125.111Z" fill="url(#paint25_linear_221_2009)"/>
<path d="M4.49475 148.88L6.25739 151.331L3.80144 150.957L4.49475 148.88Z" fill="url(#paint26_linear_221_2009)"/>
<path d="M52.5845 172.013L50.6336 176.728L46.8308 177.425L48.9583 171.739L52.5845 172.013Z" fill="url(#paint27_linear_221_2009)"/>
<path d="M136.159 156.604L134.174 161.305L130.405 162.016L132.499 156.316L136.159 156.604Z" fill="url(#paint28_linear_221_2009)"/>
<path d="M54.4532 143.75L53.5723 147.477L49.2252 143.269L50.9451 140.024L54.4532 143.75Z" fill="url(#paint29_linear_221_2009)"/>
<path d="M46.1753 161.844L47.7441 164.09L44.6147 165.56L46.1753 161.844Z" fill="url(#paint30_linear_221_2009)"/>
<path d="M33.4086 93.5386L35.0114 95.7992L31.848 97.2546L33.4086 93.5386Z" fill="url(#paint31_linear_221_2009)"/>
<path d="M64.2919 132.126L65.8753 134.338L62.7459 135.808L64.2919 132.126Z" fill="url(#paint32_linear_221_2009)"/>
<path d="M35.4337 134.631L36.8938 140.493L33.7539 142.362L32.6904 137.354L35.4337 134.631Z" fill="url(#paint33_linear_221_2009)"/>
<path d="M42.3153 107.722L42.1386 111.31L39.2062 111.295L39.1979 107.949L42.3153 107.722Z" fill="url(#paint34_linear_221_2009)"/>
<path d="M82.6176 27.2529L82.407 30.8258L79.4939 30.8592L79.5003 27.4801L82.6176 27.2529Z" fill="url(#paint35_linear_221_2009)"/>
<path d="M44.9336 83.6072L43.2769 86.7987L40.6088 85.6091L41.9933 82.5821L44.9336 83.6072Z" fill="url(#paint36_linear_221_2009)"/>
<path d="M31.4634 152.164L29.278 155.087L26.3728 150.897L27.8263 147.336L31.4634 152.164Z" fill="url(#paint37_linear_221_2009)"/>
<path d="M25.2271 171.5L22.9638 177.128L19.3475 176.737L21.4342 172.081L25.2271 171.5Z" fill="url(#paint38_linear_221_2009)"/>
<path d="M20.7648 135.598L19.4723 138.785L17.3898 138.573L18.6134 135.919L20.7648 135.598Z" fill="url(#paint39_linear_221_2009)"/>
<path d="M27.2962 85.6719L26.0036 88.8592L23.9552 88.6611L25.1448 85.9931L27.2962 85.6719Z" fill="url(#paint40_linear_221_2009)"/>
<path d="M16.5677 152.35L13.142 156.47L12.0753 153.152L16.5677 152.35Z" fill="url(#paint41_linear_221_2009)"/>
<path d="M14.0117 166.507L13.7582 169.619L10.1121 169.578L10.5693 166.554L14.0117 166.507Z" fill="url(#paint42_linear_221_2009)"/>
<path d="M18.0304 133.535L13.3817 137.41L10.3658 135.346L14.4304 132.266L18.0304 133.535Z" fill="url(#paint43_linear_221_2009)"/>
<path d="M11.2921 107.402L9.66931 110.608L7.00127 109.418L8.36645 106.343L11.2921 107.402Z" fill="url(#paint44_linear_221_2009)"/>
<path d="M22.2939 42.6126L20.6565 45.8527L17.9885 44.6631L19.3537 41.5875L22.2939 42.6126Z" fill="url(#paint45_linear_221_2009)"/>
<path d="M0.247769 80.9842L-1.40894 84.1757L-4.07698 82.986L-2.67784 79.9251L0.247769 80.9842Z" fill="url(#paint46_linear_221_2009)"/>
<path d="M-0.664673 98.9902L1.31998 102.14L-1.57272 101.659L-0.664673 98.9902Z" fill="url(#paint47_linear_221_2009)"/>
<path d="M103.183 37.9238L105.216 41.0543L102.309 40.607L103.183 37.9238Z" fill="url(#paint48_linear_221_2009)"/>
<path d="M5.85677 147.494C9.52728 152.618 10.9545 157.903 9.02925 159.288L8.62593 159.477C8.04289 159.708 7.242 159.605 6.37843 159.273C6.26145 156.928 4.83581 153.415 2.37104 149.978C-0.0937298 146.541 -2.9681 144.055 -5.13671 143.201C-5.17378 142.259 -5.01703 141.521 -4.59855 141.017L-4.26784 140.717C-2.39123 139.351 2.18626 142.37 5.85677 147.494Z" fill="url(#paint49_linear_221_2009)"/>
<path d="M8.61118 159.51L6.21528 160.773L4.30054 161.76L2.22541 162.839C1.78866 162.731 1.36654 162.59 0.959042 162.414C0.401088 162.214 -0.127607 161.946 -0.675634 161.629C-1.68444 161.074 -2.63473 160.383 -3.59442 159.526C-4.11789 159.059 -4.62674 158.558 -5.08699 158.038C-5.5812 157.503 -6.02682 156.949 -6.44318 156.326C-6.92747 155.675 -7.34853 154.97 -7.71631 154.329C-8.23402 153.381 -8.66919 152.429 -8.98786 151.486C-9.65914 149.586 -9.94696 147.731 -9.79333 146.066L-7.78453 144.113L-5.71252 142.107L-4.56471 141.032C-4.98319 141.536 -5.13994 142.274 -5.10286 143.215C-4.98589 145.561 -3.56025 149.074 -1.09548 152.511C1.36929 155.948 4.24367 158.434 6.41227 159.288C7.22726 159.639 7.99419 159.728 8.61118 159.51Z" fill="url(#paint50_linear_221_2009)"/>
<path d="M6.36365 159.307C4.14646 158.473 1.32068 155.967 -1.14409 152.53C-3.60886 149.093 -5.04913 145.614 -5.15148 143.235C-2.94892 144.103 -0.108498 146.575 2.35627 150.012C4.82104 153.449 6.24668 156.962 6.36365 159.307Z" fill="#435965"/>
<path d="M2.21088 162.873L0.748057 163.652L0.944514 162.448C1.36664 162.59 1.78876 162.731 2.21088 162.873Z" fill="url(#paint51_linear_221_2009)"/>
<path d="M0.910553 162.434L0.714096 163.637L-1.20064 164.624L-0.724121 161.649C-0.176095 161.966 0.386556 162.248 0.910553 162.434Z" fill="url(#paint52_linear_221_2009)"/>
<path d="M-0.690119 161.663L-1.16664 164.639L-4.7046 166.496L-3.57495 159.575C-2.68317 160.402 -1.69893 161.108 -0.690119 161.663Z" fill="url(#paint53_linear_221_2009)"/>
<defs>
<linearGradient id="paint0_linear_221_2009" x1="102.475" y1="182.234" x2="102.066" y2="184.737" gradientUnits="userSpaceOnUse">
<stop offset="0.1377" stop-color="#DD5551"/>
<stop offset="1" stop-color="#F43749"/>
</linearGradient>
<linearGradient id="paint1_linear_221_2009" x1="32.2365" y1="181.872" x2="31.7909" y2="184.598" gradientUnits="userSpaceOnUse">
<stop offset="0.5738" stop-color="#A6CDA8"/>
<stop offset="0.8929" stop-color="#79B17F"/>
</linearGradient>
<linearGradient id="paint2_linear_221_2009" x1="66.807" y1="150.944" x2="65.1816" y2="160.887" gradientUnits="userSpaceOnUse">
<stop offset="0.4011" stop-color="#FEBF5C"/>
<stop offset="1" stop-color="#F0A624"/>
</linearGradient>
<linearGradient id="paint3_linear_221_2009" x1="66.5299" y1="152.637" x2="65.4579" y2="159.195" gradientUnits="userSpaceOnUse">
<stop offset="0.4894" stop-color="#FE8A5C"/>
<stop offset="0.6366" stop-color="#FD8456"/>
<stop offset="0.8376" stop-color="#FA7344"/>
<stop offset="1" stop-color="#F66031"/>
</linearGradient>
<linearGradient id="paint4_linear_221_2009" x1="66.2454" y1="154.378" x2="65.7426" y2="157.454" gradientUnits="userSpaceOnUse">
<stop offset="0.4011" stop-color="#FEBF5C"/>
<stop offset="1" stop-color="#F0A624"/>
</linearGradient>
<linearGradient id="paint5_linear_221_2009" x1="45.4426" y1="116.953" x2="43.8171" y2="126.897" gradientUnits="userSpaceOnUse">
<stop offset="0.4011" stop-color="#FEBF5C"/>
<stop offset="1" stop-color="#F0A624"/>
</linearGradient>
<linearGradient id="paint6_linear_221_2009" x1="45.166" y1="118.646" x2="44.0942" y2="125.203" gradientUnits="userSpaceOnUse">
<stop offset="0.4894" stop-color="#FE8A5C"/>
<stop offset="0.6366" stop-color="#FD8456"/>
<stop offset="0.8376" stop-color="#FA7344"/>
<stop offset="1" stop-color="#F66031"/>
</linearGradient>
<linearGradient id="paint7_linear_221_2009" x1="44.8811" y1="120.387" x2="44.3782" y2="123.463" gradientUnits="userSpaceOnUse">
<stop offset="0.4011" stop-color="#FEBF5C"/>
<stop offset="1" stop-color="#F0A624"/>
</linearGradient>
<linearGradient id="paint8_linear_221_2009" x1="7.38786" y1="174.923" x2="5.76243" y2="184.867" gradientUnits="userSpaceOnUse">
<stop offset="0.4011" stop-color="#FEBF5C"/>
<stop offset="1" stop-color="#F0A624"/>
</linearGradient>
<linearGradient id="paint9_linear_221_2009" x1="7.11142" y1="176.617" x2="6.03956" y2="183.174" gradientUnits="userSpaceOnUse">
<stop offset="0.4894" stop-color="#FE8A5C"/>
<stop offset="0.6366" stop-color="#FD8456"/>
<stop offset="0.8376" stop-color="#FA7344"/>
<stop offset="1" stop-color="#F66031"/>
</linearGradient>
<linearGradient id="paint10_linear_221_2009" x1="6.82679" y1="178.357" x2="6.32395" y2="181.434" gradientUnits="userSpaceOnUse">
<stop offset="0.4011" stop-color="#FEBF5C"/>
<stop offset="1" stop-color="#F0A624"/>
</linearGradient>
<linearGradient id="paint11_linear_221_2009" x1="71.3395" y1="191.455" x2="70.8677" y2="194.342" gradientUnits="userSpaceOnUse">
<stop offset="0.4011" stop-color="#FEBF5C"/>
<stop offset="1" stop-color="#F0A624"/>
</linearGradient>
<linearGradient id="paint12_linear_221_2009" x1="58.7914" y1="185.18" x2="58.0762" y2="189.555" gradientUnits="userSpaceOnUse">
<stop offset="0.1377" stop-color="#DD5551"/>
<stop offset="1" stop-color="#F43749"/>
</linearGradient>
<linearGradient id="paint13_linear_221_2009" x1="88.4909" y1="83.0142" x2="87.7757" y2="87.3893" gradientUnits="userSpaceOnUse">
<stop offset="0.1377" stop-color="#DD5551"/>
<stop offset="1" stop-color="#F43749"/>
</linearGradient>
<linearGradient id="paint14_linear_221_2009" x1="85.7799" y1="147.878" x2="85.1131" y2="151.957" gradientUnits="userSpaceOnUse">
<stop offset="0.5738" stop-color="#A6CDA8"/>
<stop offset="0.8929" stop-color="#79B17F"/>
</linearGradient>
<linearGradient id="paint15_linear_221_2009" x1="90.6506" y1="99.8205" x2="89.9838" y2="103.9" gradientUnits="userSpaceOnUse">
<stop offset="0.5738" stop-color="#A6CDA8"/>
<stop offset="0.8929" stop-color="#79B17F"/>
</linearGradient>
<linearGradient id="paint16_linear_221_2009" x1="71.3134" y1="175.076" x2="70.6882" y2="178.901" gradientUnits="userSpaceOnUse">
<stop offset="0.5738" stop-color="#A6CDA8"/>
<stop offset="0.8929" stop-color="#79B17F"/>
</linearGradient>
<linearGradient id="paint17_linear_221_2009" x1="76.857" y1="132.613" x2="76.3374" y2="135.791" gradientUnits="userSpaceOnUse">
<stop offset="0.4011" stop-color="#FEBF5C"/>
<stop offset="1" stop-color="#F0A624"/>
</linearGradient>
<linearGradient id="paint18_linear_221_2009" x1="51.9097" y1="98.4578" x2="51.2542" y2="102.468" gradientUnits="userSpaceOnUse">
<stop offset="0.4894" stop-color="#FE8A5C"/>
<stop offset="0.6366" stop-color="#FD8456"/>
<stop offset="0.8376" stop-color="#FA7344"/>
<stop offset="1" stop-color="#F66031"/>
</linearGradient>
<linearGradient id="paint19_linear_221_2009" x1="85.4381" y1="52.0024" x2="84.7826" y2="56.0126" gradientUnits="userSpaceOnUse">
<stop offset="0.4894" stop-color="#FE8A5C"/>
<stop offset="0.6366" stop-color="#FD8456"/>
<stop offset="0.8376" stop-color="#FA7344"/>
<stop offset="1" stop-color="#F66031"/>
</linearGradient>
<linearGradient id="paint20_linear_221_2009" x1="88.8401" y1="169.04" x2="88.1846" y2="173.05" gradientUnits="userSpaceOnUse">
<stop offset="0.1377" stop-color="#DD5551"/>
<stop offset="1" stop-color="#F43749"/>
</linearGradient>
<linearGradient id="paint21_linear_221_2009" x1="47.0769" y1="106.959" x2="39.2516" y2="154.83" gradientUnits="userSpaceOnUse">
<stop offset="0.1377" stop-color="#DD5551"/>
<stop offset="1" stop-color="#F43749"/>
</linearGradient>
<linearGradient id="paint22_linear_221_2009" x1="31.8428" y1="148.601" x2="28.7481" y2="167.533" gradientUnits="userSpaceOnUse">
<stop offset="0.4011" stop-color="#FEBF5C"/>
<stop offset="1" stop-color="#F0A624"/>
</linearGradient>
<linearGradient id="paint23_linear_221_2009" x1="21.1197" y1="101.396" x2="16.501" y2="129.651" gradientUnits="userSpaceOnUse">
<stop offset="0.5738" stop-color="#A6CDA8"/>
<stop offset="0.8929" stop-color="#79B17F"/>
</linearGradient>
<linearGradient id="paint24_linear_221_2009" x1="17.6567" y1="76.3298" x2="13.756" y2="100.192" gradientUnits="userSpaceOnUse">
<stop offset="0.5738" stop-color="#A6CDA8"/>
<stop offset="0.8929" stop-color="#79B17F"/>
</linearGradient>
<linearGradient id="paint25_linear_221_2009" x1="7.32825" y1="118.009" x2="3.84176" y2="139.338" gradientUnits="userSpaceOnUse">
<stop offset="0.5738" stop-color="#A6CDA8"/>
<stop offset="0.8929" stop-color="#79B17F"/>
</linearGradient>
<linearGradient id="paint26_linear_221_2009" x1="5.38668" y1="149.013" x2="5.03713" y2="151.152" gradientUnits="userSpaceOnUse">
<stop offset="0.4011" stop-color="#FEBF5C"/>
<stop offset="1" stop-color="#F0A624"/>
</linearGradient>
<linearGradient id="paint27_linear_221_2009" x1="50.2254" y1="171.63" x2="49.2162" y2="177.804" gradientUnits="userSpaceOnUse">
<stop offset="0.4894" stop-color="#FE8A5C"/>
<stop offset="0.6366" stop-color="#FD8456"/>
<stop offset="0.8376" stop-color="#FA7344"/>
<stop offset="1" stop-color="#F66031"/>
</linearGradient>
<linearGradient id="paint28_linear_221_2009" x1="133.786" y1="156.213" x2="132.777" y2="162.387" gradientUnits="userSpaceOnUse">
<stop offset="0.4894" stop-color="#FE8A5C"/>
<stop offset="0.6366" stop-color="#FD8456"/>
<stop offset="0.8376" stop-color="#FA7344"/>
<stop offset="1" stop-color="#F66031"/>
</linearGradient>
<linearGradient id="paint29_linear_221_2009" x1="52.365" y1="140.277" x2="51.2483" y2="147.108" gradientUnits="userSpaceOnUse">
<stop offset="0.4894" stop-color="#FE8A5C"/>
<stop offset="0.6366" stop-color="#FD8456"/>
<stop offset="0.8376" stop-color="#FA7344"/>
<stop offset="1" stop-color="#F66031"/>
</linearGradient>
<linearGradient id="paint30_linear_221_2009" x1="46.6629" y1="161.929" x2="46.0324" y2="165.786" gradientUnits="userSpaceOnUse">
<stop offset="0.4894" stop-color="#FE8A5C"/>
<stop offset="0.6366" stop-color="#FD8456"/>
<stop offset="0.8376" stop-color="#FA7344"/>
<stop offset="1" stop-color="#F66031"/>
</linearGradient>
<linearGradient id="paint31_linear_221_2009" x1="33.9035" y1="93.6238" x2="33.273" y2="97.4811" gradientUnits="userSpaceOnUse">
<stop offset="0.4894" stop-color="#FE8A5C"/>
<stop offset="0.6366" stop-color="#FD8456"/>
<stop offset="0.8376" stop-color="#FA7344"/>
<stop offset="1" stop-color="#F66031"/>
</linearGradient>
<linearGradient id="paint32_linear_221_2009" x1="64.7814" y1="132.193" x2="64.1509" y2="136.05" gradientUnits="userSpaceOnUse">
<stop offset="0.4894" stop-color="#FE8A5C"/>
<stop offset="0.6366" stop-color="#FD8456"/>
<stop offset="0.8376" stop-color="#FA7344"/>
<stop offset="1" stop-color="#F66031"/>
</linearGradient>
<linearGradient id="paint33_linear_221_2009" x1="35.51" y1="134.645" x2="34.2389" y2="142.421" gradientUnits="userSpaceOnUse">
<stop offset="0.4011" stop-color="#FEBF5C"/>
<stop offset="1" stop-color="#F0A624"/>
</linearGradient>
<linearGradient id="paint34_linear_221_2009" x1="41.0183" y1="107.493" x2="40.3627" y2="111.503" gradientUnits="userSpaceOnUse">
<stop offset="0.4011" stop-color="#FEBF5C"/>
<stop offset="1" stop-color="#F0A624"/>
</linearGradient>
<linearGradient id="paint35_linear_221_2009" x1="81.3033" y1="27.0305" x2="80.6477" y2="31.0411" gradientUnits="userSpaceOnUse">
<stop offset="0.4011" stop-color="#FEBF5C"/>
<stop offset="1" stop-color="#F0A624"/>
</linearGradient>
<linearGradient id="paint36_linear_221_2009" x1="43.0756" y1="82.7404" x2="42.4326" y2="86.6741" gradientUnits="userSpaceOnUse">
<stop offset="0.4011" stop-color="#FEBF5C"/>
<stop offset="1" stop-color="#F0A624"/>
</linearGradient>
<linearGradient id="paint37_linear_221_2009" x1="29.5634" y1="147.625" x2="28.3675" y2="154.941" gradientUnits="userSpaceOnUse">
<stop offset="0.5738" stop-color="#A6CDA8"/>
<stop offset="0.8929" stop-color="#79B17F"/>
</linearGradient>
<linearGradient id="paint38_linear_221_2009" x1="22.7759" y1="171.093" x2="21.7887" y2="177.133" gradientUnits="userSpaceOnUse">
<stop offset="0.4011" stop-color="#FEBF5C"/>
<stop offset="1" stop-color="#F0A624"/>
</linearGradient>
<linearGradient id="paint39_linear_221_2009" x1="19.358" y1="135.359" x2="18.7961" y2="138.796" gradientUnits="userSpaceOnUse">
<stop offset="0.5738" stop-color="#A6CDA8"/>
<stop offset="0.8929" stop-color="#79B17F"/>
</linearGradient>
<linearGradient id="paint40_linear_221_2009" x1="25.8998" y1="85.4435" x2="25.3379" y2="88.8808" gradientUnits="userSpaceOnUse">
<stop offset="0.5738" stop-color="#A6CDA8"/>
<stop offset="0.8929" stop-color="#79B17F"/>
</linearGradient>
<linearGradient id="paint41_linear_221_2009" x1="14.4439" y1="151.995" x2="13.7006" y2="156.542" gradientUnits="userSpaceOnUse">
<stop offset="0.4894" stop-color="#FE8A5C"/>
<stop offset="0.6366" stop-color="#FD8456"/>
<stop offset="0.8376" stop-color="#FA7344"/>
<stop offset="1" stop-color="#F66031"/>
</linearGradient>
<linearGradient id="paint42_linear_221_2009" x1="12.4702" y1="166.273" x2="11.882" y2="169.871" gradientUnits="userSpaceOnUse">
<stop offset="0.4894" stop-color="#FE8A5C"/>
<stop offset="0.6366" stop-color="#FD8456"/>
<stop offset="0.8376" stop-color="#FA7344"/>
<stop offset="1" stop-color="#F66031"/>
</linearGradient>
<linearGradient id="paint43_linear_221_2009" x1="14.5552" y1="132.285" x2="13.7082" y2="137.466" gradientUnits="userSpaceOnUse">
<stop offset="0.4011" stop-color="#FEBF5C"/>
<stop offset="1" stop-color="#F0A624"/>
</linearGradient>
<linearGradient id="paint44_linear_221_2009" x1="9.45094" y1="106.536" x2="8.80791" y2="110.47" gradientUnits="userSpaceOnUse">
<stop offset="0.4894" stop-color="#FE8A5C"/>
<stop offset="0.6366" stop-color="#FD8456"/>
<stop offset="0.8376" stop-color="#FA7344"/>
<stop offset="1" stop-color="#F66031"/>
</linearGradient>
<linearGradient id="paint45_linear_221_2009" x1="20.4537" y1="41.7652" x2="19.8107" y2="45.699" gradientUnits="userSpaceOnUse">
<stop offset="0.4894" stop-color="#FE8A5C"/>
<stop offset="0.6366" stop-color="#FD8456"/>
<stop offset="0.8376" stop-color="#FA7344"/>
<stop offset="1" stop-color="#F66031"/>
</linearGradient>
<linearGradient id="paint46_linear_221_2009" x1="-1.60315" y1="80.1" x2="-2.24679" y2="84.0375" gradientUnits="userSpaceOnUse">
<stop offset="0.5738" stop-color="#A6CDA8"/>
<stop offset="0.8929" stop-color="#79B17F"/>
</linearGradient>
<linearGradient id="paint47_linear_221_2009" x1="0.330609" y1="99.1587" x2="-0.115597" y2="101.888" gradientUnits="userSpaceOnUse">
<stop offset="0.5738" stop-color="#A6CDA8"/>
<stop offset="0.8929" stop-color="#79B17F"/>
</linearGradient>
<linearGradient id="paint48_linear_221_2009" x1="104.211" y1="38.1004" x2="103.765" y2="40.83" gradientUnits="userSpaceOnUse">
<stop offset="0.5738" stop-color="#A6CDA8"/>
<stop offset="0.8929" stop-color="#79B17F"/>
</linearGradient>
<linearGradient id="paint49_linear_221_2009" x1="3.7391" y1="141.5" x2="0.954119" y2="158.537" gradientUnits="userSpaceOnUse">
<stop offset="0.3185" stop-color="#CB9168"/>
<stop offset="1" stop-color="#BD7647"/>
</linearGradient>
<linearGradient id="paint50_linear_221_2009" x1="1.13547" y1="142.005" x2="-2.15596" y2="162.141" gradientUnits="userSpaceOnUse">
<stop offset="0.1377" stop-color="#DD5551"/>
<stop offset="1" stop-color="#F43749"/>
</linearGradient>
<linearGradient id="paint51_linear_221_2009" x1="1.5798" y1="162.541" x2="1.38474" y2="163.735" gradientUnits="userSpaceOnUse">
<stop offset="0.4894" stop-color="#FE8A5C"/>
<stop offset="0.6366" stop-color="#FD8456"/>
<stop offset="0.8376" stop-color="#FA7344"/>
<stop offset="1" stop-color="#F66031"/>
</linearGradient>
<linearGradient id="paint52_linear_221_2009" x1="0.148566" y1="161.809" x2="-0.33525" y2="164.769" gradientUnits="userSpaceOnUse">
<stop offset="0.4011" stop-color="#FEBF5C"/>
<stop offset="1" stop-color="#F0A624"/>
</linearGradient>
<linearGradient id="paint53_linear_221_2009" x1="-2.03208" y1="159.839" x2="-3.16242" y2="166.753" gradientUnits="userSpaceOnUse">
<stop offset="0.4894" stop-color="#FE8A5C"/>
<stop offset="0.6366" stop-color="#FD8456"/>
<stop offset="0.8376" stop-color="#FA7344"/>
<stop offset="1" stop-color="#F66031"/>
</linearGradient>
</defs>
</svg>
