<svg width="14" height="14" viewBox="0 0 14 14" fill="none" xmlns="http://www.w3.org/2000/svg">
<path d="M10.9969 0.553454C10.5776 0.412754 10.1366 0.350454 9.69489 0.350454C8.72189 0.343454 7.77759 0.665454 6.99989 1.25975C6.93689 1.21145 6.85989 1.16875 6.78989 1.12745C6.71989 1.08475 6.59389 0.980454 6.48889 0.924454L6.22289 0.805454C6.08289 0.728454 5.93659 0.672454 5.78189 0.622754C5.76789 0.609454 5.74689 0.594754 5.71889 0.581454H5.67759C5.26389 0.440754 4.83689 0.363754 4.39589 0.350454H4.31889C4.12289 0.350454 3.92759 0.363754 3.73089 0.392454H3.64689C3.43689 0.419754 3.22759 0.468754 3.02459 0.538754C0.41289 1.39345 -0.51811 4.22845 0.27289 6.70645C0.72089 7.97275 1.44259 9.12145 2.38059 10.0658C3.74489 11.3818 5.23659 12.5438 6.83889 13.5378L7.02089 13.6505L7.19589 13.5448C8.79259 12.5438 10.2759 11.3818 11.6276 10.0728C12.5719 9.12845 13.2929 7.97275 13.7339 6.70645C14.5116 4.22845 13.5806 1.39345 10.9969 0.553454Z" fill="#70B9BE"/>
</svg>
