<svg width="22" height="22" viewBox="0 0 22 22" fill="none" xmlns="http://www.w3.org/2000/svg">
<path d="M18.9314 3.57656C17.7352 3.57656 16.8511 3.99244 16.0709 4.90737L13.7825 7.569V0H8.2695V7.569L5.98109 4.90737C5.14894 3.99244 4.26478 3.57656 3.06856 3.57656C1.24823 3.57656 0 4.65784 0 5.98866C0 7.11153 0.676123 7.86011 2.08038 8.6087L10.974 13.1834L19.8676 8.6087C21.2719 7.86011 21.948 7.15312 21.948 5.98866C22 4.65784 20.7518 3.57656 18.9314 3.57656Z" fill="#0AAD0A"/>
<path d="M10.974 14.3062C16.279 14.3062 20.5957 17.4668 20.5957 21.9999H1.35224C1.35224 17.4668 5.72104 14.3062 10.974 14.3062Z" fill="#FF7009"/>
<path d="M18.9314 3.57656C17.7352 3.57656 16.8511 3.99244 16.0709 4.90737L13.7825 7.569V0H8.2695V7.569L5.98109 4.90737C5.14894 3.99244 4.26478 3.57656 3.06856 3.57656C1.24823 3.57656 0 4.65784 0 5.98866C0 7.11153 0.676123 7.86011 2.08038 8.6087L10.974 13.1834L19.8676 8.6087C21.2719 7.86011 21.948 7.15312 21.948 5.98866C22 4.65784 20.7518 3.57656 18.9314 3.57656Z" fill="#0AAD0A"/>
</svg>
