<svg width="158" height="218" viewBox="0 0 158 218" fill="none" xmlns="http://www.w3.org/2000/svg">
<g clip-path="url(#clip0_1140_4217)">
<path d="M8.9395 125.266C9.5608 125.262 10.1821 125.258 10.8222 125.254C12.9108 125.245 14.999 125.252 17.0876 125.26C18.5823 125.257 20.0769 125.252 21.5715 125.247C25.2136 125.238 28.8556 125.239 32.4978 125.246C35.4574 125.251 38.417 125.252 41.3767 125.249C41.7977 125.249 42.2187 125.249 42.6525 125.248C43.5078 125.247 44.363 125.247 45.2183 125.246C53.2405 125.239 61.2627 125.247 69.2849 125.26C76.1704 125.27 83.0558 125.268 89.9413 125.258C97.9346 125.245 105.928 125.24 113.921 125.247C114.773 125.248 115.625 125.249 116.477 125.249C116.897 125.25 117.316 125.25 117.748 125.25C120.704 125.253 123.661 125.249 126.618 125.243C130.596 125.236 134.574 125.241 138.552 125.255C140.015 125.258 141.478 125.257 142.94 125.252C144.932 125.246 146.923 125.254 148.915 125.266C149.498 125.26 150.081 125.255 150.682 125.25C154.566 125.295 154.566 125.295 156.512 126.651C159.094 130.716 156.548 139.999 155.588 144.459C152.804 156.1 147.274 166.977 139.514 176.056C139.255 176.361 138.996 176.667 138.729 176.981C134.824 181.54 130.603 185.44 125.852 189.124C125.378 189.495 124.904 189.866 124.416 190.249C117.358 195.486 109.137 198.707 100.904 201.597C100.904 203.49 101.23 204.208 102.055 205.867C103.254 208.5 103.826 210.573 103.874 213.477C103.169 215.222 103.169 215.222 102.092 216.447C99.999 217.216 97.8857 217.12 95.6771 217.127C95.276 217.129 94.8749 217.131 94.4616 217.133C93.1389 217.139 91.8162 217.14 90.4935 217.141C89.5718 217.143 88.6501 217.145 87.7284 217.147C85.7976 217.15 83.8668 217.151 81.936 217.151C79.4646 217.151 76.9934 217.159 74.5221 217.169C72.6188 217.176 70.7156 217.177 68.8123 217.177C67.9013 217.178 66.9902 217.18 66.0792 217.185C64.804 217.191 63.529 217.189 62.2538 217.185C61.529 217.186 60.8041 217.187 60.0572 217.188C58.1596 217.043 56.8586 216.706 55.1677 215.853C53.8486 214.294 53.984 213.349 54.0539 211.287C54.4261 208.833 55.3514 206.766 56.4508 204.556C57.0656 203.319 57.0656 203.319 56.9496 201.597C56.2452 201.359 55.5407 201.121 54.815 200.876C48.165 198.565 42.1448 195.796 36.1601 192.094C35.5736 191.734 34.9871 191.374 34.3828 191.003C31.7463 189.319 31.7463 189.319 30.8143 188.53C30.8143 188.138 30.8143 187.746 30.8143 187.342C30.4797 187.195 30.1451 187.048 29.8003 186.896C16.4264 179.606 7.44562 161.764 3.15916 147.767C1.76605 142.845 0.951014 137.79 0.521035 132.695C0.481124 132.262 0.441213 131.829 0.400092 131.383C0.300392 129.513 0.333163 128.242 1.34309 126.638C3.75746 124.975 6.07259 125.24 8.9395 125.266Z" fill="white"/>
<path d="M70.6129 0.825608C74.0494 5.00489 74.9955 9.89604 75.9588 15.0812C76.2199 14.6923 76.481 14.3033 76.75 13.9026C77.0769 13.5075 77.4039 13.1124 77.7407 12.7053C79.3371 12.5568 79.3371 12.5568 80.7107 12.7053C81.4736 14.2312 81.5005 15.5361 81.6388 17.2344C81.6885 17.8301 81.7383 18.4258 81.7896 19.0396C81.8256 19.4975 81.8616 19.9554 81.8986 20.4271C82.4622 20.3046 83.0257 20.1821 83.6063 20.0559C84.5252 19.9456 84.5252 19.9456 85.4625 19.8331C85.8546 20.2252 86.2466 20.6172 86.6505 21.0211C86.4777 23.6133 85.8136 25.4619 84.2746 27.5549C83.8825 27.5549 83.4905 27.5549 83.0866 27.5549C82.3701 28.9402 81.8003 30.2257 81.3046 31.7128C81.9662 32.3376 81.9662 32.3376 82.6411 32.975C86.3072 36.8078 87.8955 40.7718 89.0264 45.9685C88.7324 46.8505 88.7324 46.8505 88.4325 47.7504C87.2074 48.1588 87.2074 48.1588 86.0565 48.3444C87.8207 48.6384 87.8207 48.6384 89.6204 48.9384C90.9018 55.3111 90.9314 61.4729 90.8084 67.9459C87.6722 68.73 84.5359 69.514 81.3046 70.3219C84.4409 70.5179 87.5771 70.7139 90.8084 70.9158C91.018 84.6812 91.018 84.6812 90.2887 91.3341C90.2421 91.7781 90.1954 92.2221 90.1474 92.6795C89.7753 95.7083 89.7753 95.7083 88.4325 97.0512C88.6209 97.8455 88.8206 98.6371 89.0264 99.4271C88.8495 100.83 88.8495 100.83 88.4974 102.372C88.3696 102.935 88.2417 103.498 88.1099 104.078C87.9714 104.663 87.8328 105.247 87.69 105.85C87.4959 106.716 87.4959 106.716 87.2979 107.6C86.5637 110.771 85.8132 113.772 84.2746 116.653C82.3812 117.21 82.3812 117.21 80.7107 117.247C74.8472 108.597 68.831 93.3996 68.831 82.7955C69.223 82.5995 69.615 82.4035 70.0189 82.2015C69.4309 82.0055 68.8428 81.8095 68.237 81.6076C65.1582 65.8029 65.1582 65.8029 65.2671 60.2241C65.6889 60.1881 66.1108 60.1521 66.5455 60.1151C67.0914 60.0653 67.6374 60.0155 68.1999 59.9642C68.7443 59.916 69.2887 59.8678 69.8496 59.8181C71.1841 59.7724 71.1841 59.7724 71.8009 59.0361C69.6447 58.8401 67.4886 58.6441 65.2671 58.4422C64.6686 56.0483 64.5534 54.0357 64.5246 51.5742C64.5123 51.1749 64.5001 50.7756 64.4874 50.3642C64.4641 47.4273 64.4641 47.4273 65.5733 45.9893C65.8643 45.7864 66.1552 45.5835 66.455 45.3745C66.063 45.1785 65.671 44.9825 65.2671 44.7805C65.5476 40.4317 66.2117 35.52 69.4249 32.3068C68.9173 31.9623 68.4096 31.6177 67.8866 31.2627C67.2234 30.7946 66.5606 30.3258 65.8982 29.8566C65.3957 29.519 65.3957 29.519 64.883 29.1745C63.08 27.8789 62.3537 27.1735 61.7751 24.998C61.7513 24.4697 61.7276 23.9414 61.7031 23.397C62.2912 23.005 62.8792 22.613 63.4851 22.2091C63.1635 21.7565 63.1635 21.7565 62.8354 21.2949C61.1264 18.7599 60.0628 17.06 60.5152 13.8933C60.7112 13.5012 60.9072 13.1092 61.1092 12.7053C62.4813 12.9013 63.8534 13.0973 65.2671 13.2993C65.1744 12.9325 65.0818 12.5658 64.9863 12.1879C64.2008 8.77027 63.5587 5.42842 64.6731 2.01358C66.5965 0.196988 68.1869 -0.326732 70.6129 0.825608Z" fill="white"/>
<path d="M130.005 58.4424C131.847 58.5342 132.7 58.7468 133.982 60.0967C138.549 67.3704 139.852 74.4532 138.641 82.9303C136.38 92.7994 131.367 102.439 123.472 108.931C120.516 110.785 117.659 111.989 114.153 111.938C113.308 111.926 112.463 111.914 111.592 111.901C111.396 114.253 111.2 116.605 110.998 119.029C109.932 118.943 108.866 118.857 107.768 118.769C106.869 118.697 106.869 118.697 105.951 118.623C104.464 118.435 104.464 118.435 103.87 117.841C104.058 115.169 104.436 113 105.466 110.527C105.724 109.805 105.981 109.082 106.246 108.337C105.854 107.749 105.462 107.161 105.058 106.555C104.078 101.589 105.943 97.5785 108.622 93.4875C110.298 91.3173 112.118 89.2756 113.942 87.2298C121.054 79.2333 124.829 70.9512 128.286 60.9042C128.817 59.6304 128.817 59.6304 130.005 58.4424Z" fill="white"/>
<path d="M40.9018 90.5231C44.6524 93.0128 46.5435 96.1397 47.4426 100.56C47.9142 105.07 47.0081 108.935 44.7325 112.849C41.0001 116.39 36.7648 118.632 31.5697 118.545C27.2102 118.014 22.8998 115.862 20.1193 112.44C17.4182 107.952 17.032 103.101 18.0032 98.0105C19.0018 94.7837 20.9526 92.4167 23.6832 90.4627C29.648 87.4891 35.0288 87.2693 40.9018 90.5231ZM31.405 92.8387C29.2608 93.2282 29.2608 93.2282 27.2471 94.0266C27.6391 94.4187 28.0312 94.8107 28.4351 95.2146C28.5093 96.7738 28.5093 96.7738 28.4351 98.1845C30.8881 97.8475 30.8881 97.8475 33.187 96.9966C32.9113 96.4637 32.9113 96.4637 32.6301 95.92C31.999 94.6206 31.999 94.6206 31.405 92.8387Z" fill="white"/>
<path d="M36.7558 53.6904C41.8287 53.7844 46.0018 56.069 49.7863 59.3704C50.3927 60.0871 50.3927 60.0871 51.0114 60.8182C51.4157 61.247 51.82 61.6758 52.2365 62.1176C55.0871 66.2556 55.9754 69.996 55.986 74.9625C55.987 75.3957 55.9879 75.8289 55.9889 76.2752C55.9388 78.6943 55.6446 80.6186 54.5753 82.7957C48.9709 81.9229 43.6264 80.3505 40.0041 75.6841C36.3108 70.4067 34.3822 65.0351 35.185 58.5073C35.9464 54.4998 35.9464 54.4998 36.7558 53.6904Z" fill="white"/>
</g>
<defs>
<clipPath id="clip0_1140_4217">
<rect width="158" height="217.398" fill="white"/>
</clipPath>
</defs>
</svg>
