<svg width="582" height="187" viewBox="0 0 582 187" fill="none" xmlns="http://www.w3.org/2000/svg">
<g clip-path="url(#clip0_1_19)">
<mask id="mask0_1_19" style="mask-type:luminance" maskUnits="userSpaceOnUse" x="0" y="0" width="85" height="154">
<path d="M85 0H0V153.575H85V0Z" fill="white"/>
</mask>
<g mask="url(#mask0_1_19)">
<path d="M4.80922 88.4907C5.14346 88.4878 5.47771 88.485 5.82207 88.4822C6.94568 88.4758 8.06908 88.4808 9.19269 88.4864C9.9968 88.4843 10.8009 88.4808 11.6049 88.4772C13.5643 88.4709 15.5236 88.4716 17.483 88.4765C19.0752 88.4801 20.6674 88.4808 22.2596 88.4786C22.4861 88.4786 22.7126 88.4786 22.946 88.4779C23.4061 88.4772 23.8662 88.4772 24.3263 88.4765C28.642 88.4716 32.9578 88.4772 37.2735 88.4864C40.9777 88.4935 44.6819 88.4921 48.3861 88.485C52.6863 88.4758 56.9866 88.4723 61.2866 88.4772C61.745 88.4779 62.2033 88.4786 62.6617 88.4786C62.8876 88.4794 63.113 88.4794 63.3454 88.4794C64.9357 88.4815 66.5265 88.4786 68.1173 88.4744C70.2573 88.4695 72.3974 88.473 74.5375 88.4829C75.3245 88.485 76.1116 88.4843 76.8981 88.4808C77.9697 88.4765 79.0408 88.4822 80.1125 88.4907C80.4261 88.4864 80.7398 88.4829 81.0631 88.4794C83.1526 88.5111 83.1526 88.5111 84.1995 89.4691C85.5885 92.3407 84.2189 98.8984 83.7024 102.049C82.2047 110.272 79.2297 117.956 75.055 124.37C74.9157 124.585 74.7763 124.801 74.6327 125.023C72.5319 128.244 70.2611 130.999 67.7052 133.601C67.4502 133.863 67.1952 134.126 66.9327 134.396C63.1356 138.096 58.7129 140.371 54.2838 142.413C54.2838 143.75 54.4592 144.257 54.903 145.429C55.548 147.289 55.8558 148.753 55.8816 150.805C55.5023 152.038 55.5023 152.038 54.9229 152.903C53.7969 153.446 52.66 153.378 51.4719 153.383C51.2561 153.385 51.0403 153.386 50.8179 153.388C50.1064 153.392 49.3948 153.392 48.6832 153.393C48.1874 153.395 47.6915 153.396 47.1957 153.397C46.1569 153.4 45.1182 153.4 44.0795 153.4C42.7499 153.4 41.4205 153.406 40.091 153.413C39.0671 153.418 38.0432 153.419 37.0193 153.419C36.5292 153.419 36.039 153.421 35.5489 153.424C34.8629 153.428 34.177 153.427 33.491 153.424C33.101 153.425 32.7111 153.426 32.3092 153.426C31.2884 153.324 30.5885 153.086 29.6788 152.483C28.9692 151.382 29.042 150.714 29.0796 149.258C29.2799 147.524 29.7776 146.064 30.3691 144.503C30.6998 143.629 30.6998 143.629 30.6374 142.413C30.2585 142.244 29.8795 142.076 29.4891 141.903C25.9115 140.271 22.6728 138.315 19.4532 135.699C19.1377 135.445 18.8222 135.191 18.4971 134.929C17.0787 133.739 17.0787 133.739 16.5773 133.182C16.5773 132.905 16.5773 132.628 16.5773 132.343C16.3973 132.239 16.2173 132.135 16.0318 132.027C8.83698 126.878 4.00555 114.274 1.69954 104.386C0.950087 100.909 0.511618 97.3379 0.280301 93.7387C0.258829 93.4328 0.237358 93.1269 0.215236 92.8118C0.1616 91.4908 0.17923 90.593 0.722545 89.4599C2.02142 88.2851 3.2669 88.4723 4.80922 88.4907Z" fill="white"/>
<path d="M37.988 0.583221C39.8367 3.53556 40.3457 6.99077 40.8639 10.6537C41.0044 10.379 41.1448 10.1042 41.2896 9.8211C41.4654 9.54199 41.6413 9.26288 41.8225 8.9753C42.6814 8.87039 42.6814 8.87039 43.4203 8.9753C43.8307 10.0532 43.8452 10.975 43.9196 12.1748C43.9463 12.5956 43.9731 13.0164 44.0007 13.45C44.0201 13.7735 44.0395 14.0969 44.0594 14.4301C44.3626 14.3436 44.6657 14.2571 44.9781 14.1679C45.4724 14.09 45.4724 14.09 45.9767 14.0105C46.1876 14.2875 46.3985 14.5644 46.6158 14.8498C46.5228 16.6809 46.1655 17.9868 45.3376 19.4654C45.1267 19.4654 44.9158 19.4654 44.6985 19.4654C44.313 20.444 44.0065 21.3521 43.7398 22.4026C44.0957 22.844 44.0957 22.844 44.4588 23.2943C46.4311 26.0018 47.2856 28.8021 47.8939 32.4732C47.7358 33.0962 47.7358 33.0962 47.5744 33.7319C46.9154 34.0204 46.9154 34.0204 46.2962 34.1515C47.2453 34.3592 47.2453 34.3592 48.2135 34.5712C48.9029 39.073 48.9188 43.4258 48.8526 47.9985C47.1654 48.5524 45.4782 49.1062 43.7398 49.6769C45.4271 49.8154 47.1143 49.9539 48.8526 50.0965C48.9654 59.8207 48.9654 59.8207 48.573 64.5204C48.548 64.8341 48.5228 65.1477 48.497 65.4708C48.2968 67.6104 48.2968 67.6104 47.5744 68.5591C47.6758 69.1202 47.7832 69.6794 47.8939 70.2375C47.7988 71.2285 47.7988 71.2285 47.6094 72.3178C47.5406 72.7155 47.4718 73.1133 47.4009 73.523C47.3264 73.9362 47.2518 74.3488 47.175 74.7748C47.0706 75.3865 47.0706 75.3865 46.9641 76.011C46.5691 78.2511 46.1653 80.371 45.3376 82.4062C44.319 82.7997 44.319 82.7997 43.4203 82.8259C40.2659 76.7153 37.0293 65.9795 37.0293 58.4886C37.2402 58.3501 37.4511 58.2116 37.6684 58.0689C37.3521 57.9305 37.0357 57.792 36.7098 57.6494C35.0535 46.4846 35.0535 46.4846 35.112 42.5436C35.339 42.5182 35.5659 42.4928 35.7998 42.4666C36.0935 42.4314 36.3872 42.3963 36.6898 42.36C36.9827 42.326 37.2756 42.2919 37.5773 42.2568C38.2952 42.2245 38.2952 42.2245 38.6271 41.7044C37.4671 41.5659 36.3072 41.4275 35.112 41.2849C34.7901 39.5937 34.7281 38.172 34.7126 36.4331C34.706 36.1511 34.6994 35.869 34.6926 35.5784C34.6801 33.5037 34.6801 33.5037 35.2768 32.4878C35.4333 32.3445 35.5898 32.2012 35.7511 32.0535C35.5402 31.9151 35.3293 31.7766 35.112 31.6339C35.263 28.5618 35.6202 25.0921 37.3488 22.8222C37.0758 22.5789 36.8026 22.3354 36.5213 22.0847C36.1645 21.754 35.8079 21.4228 35.4516 21.0914C35.1812 20.8529 35.1812 20.8529 34.9054 20.6095C33.9354 19.6943 33.5447 19.196 33.2334 17.6591C33.2206 17.2859 33.2079 16.9127 33.1947 16.5281C33.5111 16.2512 33.8274 15.9743 34.1534 15.689C33.9804 15.3693 33.9804 15.3693 33.8039 15.0432C32.8845 13.2524 32.3123 12.0516 32.5556 9.81453C32.6611 9.53754 32.7665 9.26062 32.8752 8.9753C33.6134 9.11376 34.3515 9.25221 35.112 9.39491C35.0622 9.1358 35.0124 8.87675 34.961 8.60979C34.5384 6.19551 34.193 3.83475 34.7925 1.42243C35.8272 0.13915 36.6828 -0.230817 37.988 0.583221Z" fill="white"/>
<path d="M69.9394 41.285C70.9303 41.3498 71.3892 41.5 72.0789 42.4536C74.5358 47.5919 75.2368 52.5954 74.5853 58.5838C73.369 65.5555 70.6721 72.3652 66.4248 76.9512C64.8345 78.261 63.2976 79.1115 61.4114 79.0755C60.9568 79.067 60.5022 79.0585 60.0337 79.0493C59.9282 80.7108 59.8228 82.3723 59.7141 84.0847C59.1406 84.0239 58.5671 83.9632 57.9764 83.901C57.4928 83.8502 57.4928 83.8502 56.9989 83.7979C56.199 83.6651 56.199 83.6651 55.8794 83.2455C55.9806 81.3579 56.1839 79.8257 56.738 78.0787C56.8768 77.5687 57.0151 77.0579 57.1577 76.5316C56.9468 76.1163 56.7359 75.7009 56.5185 75.2728C55.9913 71.7647 56.9946 68.9316 58.4359 66.0416C59.3375 64.5085 60.3166 63.0662 61.2979 61.621C65.124 55.9721 67.1548 50.1215 69.0146 43.0241C69.3003 42.1242 69.3003 42.1242 69.9394 41.285Z" fill="white"/>
<path d="M22.0041 63.9475C24.0219 65.7063 25.0392 67.9152 25.5229 71.0378C25.7766 74.2238 25.2892 76.9541 24.065 79.719C22.057 82.2205 19.7785 83.8043 16.9837 83.7428C14.6384 83.3677 12.3195 81.8475 10.8237 79.4301C9.37055 76.2597 9.16278 72.8328 9.68526 69.2368C10.2225 66.9573 11.272 65.2852 12.741 63.9048C15.9499 61.8042 18.8446 61.649 22.0041 63.9475ZM16.8951 65.5833C15.7416 65.8584 15.7416 65.8585 14.6582 66.4225C14.8691 66.6994 15.0801 66.9764 15.2974 67.2617C15.3373 68.3631 15.3373 68.3631 15.2974 69.3597C16.617 69.1216 16.617 69.1216 17.8538 68.5205C17.7054 68.1441 17.7054 68.1441 17.5542 67.76C17.2147 66.8421 17.2147 66.8421 16.8951 65.5833Z" fill="white"/>
<path d="M19.7737 37.9281C22.5028 37.9945 24.7478 39.6084 26.7838 41.9405C27.11 42.4468 27.11 42.4468 27.4428 42.9633C27.6603 43.2662 27.8778 43.5691 28.1019 43.8812C29.6355 46.8044 30.1133 49.4467 30.119 52.9552C30.1196 53.2612 30.1201 53.5672 30.1206 53.8825C30.0937 55.5914 29.9354 56.9507 29.3601 58.4887C26.3451 57.8721 23.4699 56.7614 21.5212 53.4649C19.5343 49.7368 18.4967 45.9422 18.9286 41.3308C19.3382 38.4998 19.3382 38.4998 19.7737 37.9281Z" fill="white"/>
</g>
</g>
<path d="M109.384 154V103H115.81L116.32 111.67C118.02 108.406 120.366 105.992 123.358 104.428C126.35 102.796 129.512 101.98 132.844 101.98C136.516 101.98 139.916 102.864 143.044 104.632C146.172 106.332 148.484 108.984 149.98 112.588C151 110.208 152.462 108.236 154.366 106.672C156.338 105.108 158.514 103.952 160.894 103.204C163.274 102.388 165.586 101.98 167.83 101.98C171.094 101.98 174.154 102.66 177.01 104.02C179.866 105.38 182.178 107.488 183.946 110.344C185.782 113.2 186.7 116.838 186.7 121.258V154H179.356V121.972C179.356 117.212 178.166 113.778 175.786 111.67C173.406 109.494 170.482 108.406 167.014 108.406C164.294 108.406 161.778 109.086 159.466 110.446C157.154 111.806 155.284 113.778 153.856 116.362C152.428 118.946 151.714 122.04 151.714 125.644V154H144.37V121.972C144.37 117.212 143.18 113.778 140.8 111.67C138.42 109.494 135.496 108.406 132.028 108.406C129.716 108.406 127.37 109.052 124.99 110.344C122.61 111.568 120.638 113.506 119.074 116.158C117.51 118.81 116.728 122.21 116.728 126.358V154H109.384ZM225.105 155.02C220.481 155.02 216.367 153.966 212.763 151.858C209.227 149.75 206.439 146.724 204.399 142.78C202.359 138.768 201.339 134.008 201.339 128.5C201.339 122.992 202.325 118.266 204.297 114.322C206.337 110.31 209.091 107.25 212.559 105.142C216.095 103.034 220.107 101.98 224.595 101.98C229.151 101.98 233.027 103 236.223 105.04C239.419 107.08 241.867 109.868 243.567 113.404C245.267 116.94 246.117 120.952 246.117 125.44C246.117 126.528 246.083 127.48 246.015 128.296C245.947 129.112 245.879 129.826 245.811 130.438H206.133V123.91H242.547L238.773 124.726C238.773 121.258 238.161 118.334 236.937 115.954C235.781 113.506 234.115 111.636 231.939 110.344C229.831 109.052 227.349 108.406 224.493 108.406C221.229 108.406 218.373 109.222 215.925 110.854C213.545 112.486 211.709 114.798 210.417 117.79C209.125 120.782 208.479 124.352 208.479 128.5C208.479 132.648 209.159 136.218 210.519 139.21C211.879 142.202 213.783 144.514 216.231 146.146C218.747 147.778 221.671 148.594 225.003 148.594C228.539 148.594 231.463 147.846 233.775 146.35C236.155 144.786 238.025 142.746 239.385 140.23L245.199 143.596C243.975 145.908 242.377 147.948 240.405 149.716C238.501 151.416 236.257 152.742 233.673 153.694C231.089 154.578 228.233 155.02 225.105 155.02ZM290.152 120.85C290.152 116.974 289.132 113.948 287.092 111.772C285.052 109.528 282.162 108.406 278.422 108.406C275.022 108.406 272.132 109.222 269.752 110.854C267.372 112.418 265.604 114.934 264.448 118.402L258.43 114.73C259.79 110.854 262.204 107.76 265.672 105.448C269.208 103.136 273.526 101.98 278.626 101.98C282.23 101.98 285.426 102.626 288.214 103.918C291.07 105.142 293.314 107.046 294.946 109.63C296.646 112.214 297.496 115.478 297.496 119.422V144.31C297.496 147.098 298.788 148.492 301.372 148.492C301.916 148.492 302.528 148.458 303.208 148.39C303.888 148.254 304.466 148.084 304.942 147.88L304.534 153.694C303.99 153.966 303.276 154.204 302.392 154.408C301.576 154.612 300.624 154.714 299.536 154.714C297.768 154.714 296.136 154.374 294.64 153.694C293.212 152.946 292.056 151.824 291.172 150.328C290.356 148.764 289.948 146.826 289.948 144.514V143.086L291.784 143.29C291.036 145.942 289.71 148.152 287.806 149.92C285.97 151.62 283.828 152.912 281.38 153.796C279 154.612 276.586 155.02 274.138 155.02C269.718 155.02 265.944 153.898 262.816 151.654C259.688 149.342 258.124 145.908 258.124 141.352C258.124 137.68 259.28 134.62 261.592 132.172C263.972 129.656 267.44 127.922 271.996 126.97L291.478 122.89V129.01L275.464 132.478C272.132 133.158 269.65 134.144 268.018 135.436C266.386 136.728 265.57 138.564 265.57 140.944C265.57 143.256 266.386 145.126 268.018 146.554C269.718 147.914 272.132 148.594 275.26 148.594C277.096 148.594 278.898 148.356 280.666 147.88C282.434 147.336 284.032 146.52 285.46 145.432C286.888 144.344 288.01 142.984 288.826 141.352C289.71 139.652 290.152 137.646 290.152 135.334V120.85ZM321.814 79.54V141.25C321.814 143.698 322.188 145.534 322.936 146.758C323.684 147.982 325.112 148.594 327.22 148.594C328.376 148.594 329.328 148.492 330.076 148.288C330.824 148.084 331.81 147.71 333.034 147.166L332.014 153.592C331.13 154.068 330.042 154.408 328.75 154.612C327.526 154.884 326.336 155.02 325.18 155.02C321.1 155.02 318.278 153.762 316.714 151.246C315.218 148.73 314.47 145.5 314.47 141.556V79.54H321.814ZM351.88 88.618V140.026C351.88 142.746 352.56 144.786 353.92 146.146C355.28 147.506 357.082 148.186 359.326 148.186C361.23 148.186 362.828 147.846 364.12 147.166C365.48 146.486 366.704 145.568 367.792 144.412L370.24 150.532C368.744 151.96 367.01 153.082 365.038 153.898C363.066 154.646 360.822 155.02 358.306 155.02C354.498 155.02 351.234 153.966 348.514 151.858C345.862 149.75 344.536 146.248 344.536 141.352V90.658L351.88 88.618ZM369.424 103V109.324H334.948V103H369.424ZM420.694 103L397.744 162.772C396.656 165.628 395.432 168.042 394.072 170.014C392.78 171.986 391.182 173.448 389.278 174.4C387.442 175.42 385.164 175.93 382.444 175.93C380.336 175.93 378.364 175.59 376.528 174.91C374.692 174.298 373.094 173.448 371.734 172.36L373.876 166.036C375.1 167.26 376.426 168.144 377.854 168.688C379.35 169.232 380.778 169.504 382.138 169.504C383.974 169.504 385.64 168.926 387.136 167.77C388.632 166.614 390.026 164.336 391.318 160.936L393.97 153.898L388.972 141.658L373.57 103H381.832L394.684 137.68L397.438 146.146L400.804 136.762L412.84 103H420.694ZM431.521 154V103H437.947L438.457 111.67C440.157 108.406 442.503 105.992 445.495 104.428C448.487 102.796 451.649 101.98 454.981 101.98C458.653 101.98 462.053 102.864 465.181 104.632C468.309 106.332 470.621 108.984 472.117 112.588C473.137 110.208 474.599 108.236 476.503 106.672C478.475 105.108 480.651 103.952 483.031 103.204C485.411 102.388 487.723 101.98 489.967 101.98C493.231 101.98 496.291 102.66 499.147 104.02C502.003 105.38 504.315 107.488 506.083 110.344C507.919 113.2 508.837 116.838 508.837 121.258V154H501.493V121.972C501.493 117.212 500.303 113.778 497.923 111.67C495.543 109.494 492.619 108.406 489.151 108.406C486.431 108.406 483.915 109.086 481.603 110.446C479.291 111.806 477.421 113.778 475.993 116.362C474.565 118.946 473.851 122.04 473.851 125.644V154H466.507V121.972C466.507 117.212 465.317 113.778 462.937 111.67C460.557 109.494 457.633 108.406 454.165 108.406C451.853 108.406 449.507 109.052 447.127 110.344C444.747 111.568 442.775 113.506 441.211 116.158C439.647 118.81 438.865 122.21 438.865 126.358V154H431.521ZM547.242 155.02C542.618 155.02 538.504 153.966 534.9 151.858C531.364 149.75 528.576 146.724 526.536 142.78C524.496 138.768 523.476 134.008 523.476 128.5C523.476 122.992 524.462 118.266 526.434 114.322C528.474 110.31 531.228 107.25 534.696 105.142C538.232 103.034 542.244 101.98 546.732 101.98C551.288 101.98 555.164 103 558.36 105.04C561.556 107.08 564.004 109.868 565.704 113.404C567.404 116.94 568.254 120.952 568.254 125.44C568.254 126.528 568.22 127.48 568.152 128.296C568.084 129.112 568.016 129.826 567.948 130.438H528.27V123.91H564.684L560.91 124.726C560.91 121.258 560.298 118.334 559.074 115.954C557.918 113.506 556.252 111.636 554.076 110.344C551.968 109.052 549.486 108.406 546.63 108.406C543.366 108.406 540.51 109.222 538.062 110.854C535.682 112.486 533.846 114.798 532.554 117.79C531.262 120.782 530.616 124.352 530.616 128.5C530.616 132.648 531.296 136.218 532.656 139.21C534.016 142.202 535.92 144.514 538.368 146.146C540.884 147.778 543.808 148.594 547.14 148.594C550.676 148.594 553.6 147.846 555.912 146.35C558.292 144.786 560.162 142.746 561.522 140.23L567.336 143.596C566.112 145.908 564.514 147.948 562.542 149.716C560.638 151.416 558.394 152.742 555.81 153.694C553.226 154.578 550.37 155.02 547.242 155.02Z" fill="white"/>
<defs>
<clipPath id="clip0_1_19">
<rect width="85" height="154" fill="white"/>
</clipPath>
</defs>
</svg>
