<svg width="254" height="237" viewBox="0 0 254 237" fill="none" xmlns="http://www.w3.org/2000/svg">
<mask id="mask0_603_27290" style="mask-type:luminance" maskUnits="userSpaceOnUse" x="55" y="0" width="143" height="237">
<path d="M55.8832 0H197.944V237H55.8832V0Z" fill="white"/>
</mask>
<g mask="url(#mask0_603_27290)">
<path d="M61.1949 237.175C60.3841 237.178 59.6288 236.978 58.9228 236.574C58.2199 236.17 57.665 235.618 57.258 234.915C56.8511 234.212 56.6476 233.457 56.6445 232.646C56.6445 231.835 56.848 231.077 57.2519 230.374L188.689 2.76461C188.837 2.50564 189.01 2.26518 189.207 2.04012C189.402 1.81507 189.62 1.6116 189.855 1.4297C190.092 1.24781 190.345 1.09058 190.613 0.958016C190.878 0.82545 191.159 0.72063 191.446 0.643557C191.735 0.563401 192.028 0.517157 192.324 0.495577C192.623 0.477079 192.919 0.486329 193.215 0.523323C193.511 0.560319 193.801 0.628142 194.084 0.723713C194.368 0.819283 194.636 0.942601 194.895 1.09058C195.154 1.23856 195.398 1.41121 195.623 1.60851C195.848 1.80582 196.051 2.02163 196.233 2.25593C196.415 2.49331 196.572 2.74611 196.705 3.01433C196.838 3.27946 196.942 3.55692 197.019 3.84672C197.1 4.13343 197.149 4.42631 197.167 4.72535C197.189 5.0244 197.18 5.32036 197.14 5.61632C197.103 5.91228 197.035 6.20207 196.939 6.4857C196.844 6.76933 196.723 7.03755 196.576 7.29651L65.138 234.909C64.9407 235.254 64.6971 235.569 64.4166 235.849C64.133 236.133 63.8185 236.373 63.4732 236.571C63.1248 236.771 62.7611 236.919 62.3726 237.024C61.9872 237.126 61.5957 237.175 61.1949 237.175Z" fill="#EE8427"/>
</g>
<path d="M149.576 200.418C149.576 201.161 149.539 201.901 149.465 202.638C149.394 203.378 149.283 204.112 149.139 204.839C148.994 205.567 148.815 206.285 148.599 206.997C148.383 207.706 148.133 208.403 147.85 209.091C147.566 209.775 147.249 210.447 146.9 211.101C146.549 211.754 146.17 212.393 145.757 213.009C145.343 213.626 144.903 214.221 144.431 214.794C143.959 215.368 143.463 215.916 142.939 216.444C142.412 216.968 141.863 217.464 141.289 217.936C140.716 218.407 140.121 218.848 139.504 219.261C138.888 219.671 138.25 220.054 137.596 220.405C136.942 220.753 136.27 221.071 135.586 221.355C134.902 221.638 134.202 221.888 133.493 222.104C132.781 222.32 132.062 222.498 131.335 222.643C130.607 222.788 129.873 222.899 129.133 222.97C128.397 223.044 127.657 223.081 126.914 223.081C126.171 223.081 125.431 223.044 124.694 222.97C123.954 222.899 123.22 222.788 122.493 222.643C121.765 222.498 121.047 222.32 120.335 222.104C119.626 221.888 118.926 221.638 118.241 221.355C117.557 221.071 116.885 220.753 116.231 220.405C115.578 220.054 114.94 219.671 114.323 219.261C113.706 218.848 113.111 218.407 112.538 217.936C111.965 217.464 111.416 216.968 110.889 216.444C110.365 215.916 109.868 215.368 109.397 214.794C108.925 214.221 108.484 213.626 108.071 213.009C107.658 212.393 107.279 211.754 106.927 211.101C106.579 210.447 106.261 209.775 105.978 209.091C105.694 208.403 105.444 207.706 105.228 206.997C105.013 206.285 104.834 205.567 104.689 204.839C104.544 204.112 104.433 203.378 104.362 202.638C104.288 201.901 104.251 201.161 104.251 200.418C104.251 199.675 104.288 198.936 104.362 198.196C104.433 197.459 104.544 196.725 104.689 195.998C104.834 195.27 105.013 194.552 105.228 193.839C105.444 193.13 105.694 192.431 105.978 191.746C106.261 191.062 106.579 190.39 106.927 189.736C107.279 189.083 107.658 188.444 108.071 187.828C108.484 187.211 108.925 186.616 109.397 186.043C109.868 185.469 110.365 184.921 110.889 184.393C111.416 183.869 111.965 183.373 112.538 182.901C113.111 182.43 113.706 181.989 114.323 181.576C114.94 181.162 115.578 180.783 116.231 180.432C116.885 180.083 117.557 179.766 118.241 179.482C118.926 179.199 119.626 178.949 120.335 178.733C121.047 178.517 121.765 178.339 122.493 178.194C123.22 178.049 123.954 177.938 124.694 177.867C125.431 177.793 126.171 177.756 126.914 177.756C127.657 177.756 128.397 177.793 129.133 177.867C129.873 177.938 130.607 178.049 131.335 178.194C132.062 178.339 132.781 178.517 133.493 178.733C134.202 178.949 134.902 179.199 135.586 179.482C136.27 179.766 136.942 180.083 137.596 180.432C138.25 180.783 138.888 181.162 139.504 181.576C140.121 181.989 140.716 182.43 141.289 182.901C141.863 183.373 142.412 183.869 142.939 184.393C143.463 184.921 143.959 185.469 144.431 186.043C144.903 186.616 145.343 187.211 145.757 187.828C146.17 188.444 146.549 189.083 146.9 189.736C147.249 190.39 147.566 191.062 147.85 191.746C148.133 192.431 148.383 193.13 148.599 193.839C148.815 194.552 148.994 195.27 149.139 195.998C149.283 196.725 149.394 197.459 149.465 198.196C149.539 198.936 149.576 199.675 149.576 200.418Z" fill="#EE8427"/>
<path d="M149.576 52.6217L168.746 19.4001C154.987 16.1876 141.043 14.5876 126.914 14.5938C121.411 14.5999 115.917 14.8466 110.436 15.3398C104.954 15.8331 99.5036 16.5668 94.0869 17.5441C88.6702 18.5214 83.3059 19.7361 77.9971 21.1881C72.6913 22.6433 67.4565 24.3297 62.2957 26.2472C57.138 28.1648 52.0758 30.3105 47.1061 32.6782C42.1365 35.0459 37.2839 37.6294 32.5455 40.4287C27.807 43.228 23.2011 46.2338 18.7278 49.4432C14.2576 52.6525 9.93529 56.053 5.76717 59.6446C4.89162 60.4122 4.10239 61.26 3.40257 62.188C2.70274 63.116 2.10465 64.1087 1.6083 65.1599C1.11195 66.2143 0.729668 67.3057 0.461453 68.4402C0.193239 69.5716 0.0421758 70.7185 0.0113462 71.8838C-0.0318144 73.0831 0.0483415 74.2731 0.248732 75.4569C0.452205 76.6408 0.769747 77.7907 1.20752 78.9098C1.64222 80.0289 2.18789 81.0925 2.84147 82.0975C3.49505 83.1057 4.2442 84.0367 5.08584 84.8907L6.2666 86.0221C7.0435 86.8083 7.89131 87.5112 8.80694 88.1339C9.72257 88.7567 10.6906 89.2838 11.708 89.7185C12.7253 90.1532 13.7735 90.4893 14.8556 90.7205C15.9377 90.9517 17.0322 91.0781 18.139 91.0997C20.2446 91.0843 22.2855 90.7082 24.2555 89.9682C26.2286 89.2283 28.0105 88.1709 29.6074 86.7928C33.6769 83.2906 37.9221 80.0196 42.3461 76.9768C46.7701 73.9339 51.3452 71.1377 56.0713 68.5943C60.7974 66.0478 65.6499 63.7634 70.6227 61.7441C75.5985 59.7217 80.6669 57.9767 85.8308 56.5062C90.9947 55.0356 96.2233 53.8487 101.514 52.9423C106.807 52.039 112.131 51.4255 117.492 51.0987C122.851 50.7719 128.212 50.7349 133.576 50.9877C138.937 51.2436 144.271 51.7862 149.576 52.6217Z" fill="#EE8427"/>
<path d="M247.29 58.9668C242.243 54.6723 236.98 50.6583 231.502 46.9249C226.024 43.1945 220.363 39.7632 214.521 36.6371C208.676 33.508 202.683 30.7025 196.542 28.2146C190.397 25.7267 184.139 23.5748 177.767 21.7559L158.958 54.3424C164.883 55.6465 170.71 57.3051 176.435 59.3182C182.16 61.3314 187.74 63.6837 193.178 66.3781C198.616 69.0695 203.873 72.0816 208.944 75.4142C214.016 78.7468 218.865 82.3724 223.496 86.2939C223.921 86.6669 224.365 87.0153 224.827 87.342C225.287 87.6719 225.762 87.974 226.252 88.2546C226.742 88.5382 227.244 88.7941 227.762 89.0253C228.277 89.2565 228.801 89.4631 229.338 89.645C229.874 89.8269 230.417 89.981 230.966 90.1074C231.517 90.2338 232.072 90.3356 232.633 90.4096C233.195 90.4836 233.756 90.5267 234.32 90.5452C234.887 90.5637 235.451 90.5545 236.015 90.5205C236.58 90.4836 237.138 90.4188 237.696 90.3263C238.254 90.2369 238.805 90.1167 239.351 89.9718C239.9 89.8269 240.436 89.6542 240.967 89.4569C241.494 89.2596 242.015 89.0346 242.52 88.7879C243.029 88.5382 243.522 88.2669 244.003 87.9679C244.484 87.6719 244.95 87.3513 245.4 87.0091C245.85 86.6669 246.282 86.3062 246.695 85.9208C247.111 85.5354 247.505 85.1316 247.879 84.7092L248.921 83.4853C249.682 82.619 250.351 81.6849 250.928 80.686C251.504 79.6871 251.979 78.6389 252.346 77.5476C252.716 76.4562 252.975 75.3371 253.123 74.1934C253.271 73.0496 253.308 71.8997 253.227 70.7497C253.147 69.6214 252.956 68.5084 252.654 67.4171C252.355 66.3257 251.948 65.2745 251.439 64.2633C250.931 63.2521 250.326 62.2994 249.627 61.4085C248.93 60.5175 248.15 59.7036 247.29 58.9668Z" fill="#EE8427"/>
<path d="M67.5399 126.09C71.1901 123.148 75.0345 120.494 79.0793 118.126C83.1241 115.759 87.323 113.705 91.673 111.964C96.0261 110.225 100.481 108.819 105.044 107.743C109.606 106.67 114.222 105.943 118.892 105.557L139.65 69.6628C135.435 69.2559 131.446 68.9846 126.914 68.9846C123.239 68.9784 119.57 69.1295 115.908 69.4347C112.245 69.7399 108.604 70.1992 104.982 70.8158C101.356 71.4293 97.768 72.197 94.2103 73.1157C90.6526 74.0344 87.138 75.1042 83.6728 76.3219C80.2045 77.5397 76.7948 78.8992 73.4437 80.4068C70.0895 81.9144 66.8092 83.5606 63.5968 85.3456C60.3844 87.1307 57.2552 89.0482 54.2031 91.0984C51.1541 93.1485 48.1976 95.3251 45.3335 97.628C44.8557 98.0011 44.3963 98.3988 43.9616 98.8211C43.5239 99.2435 43.1108 99.6874 42.7223 100.153C42.3308 100.615 41.967 101.102 41.6279 101.605C41.2888 102.108 40.9774 102.629 40.6937 103.165C40.4101 103.701 40.1542 104.25 39.9292 104.814C39.701 105.379 39.5068 105.952 39.3403 106.535C39.1739 107.12 39.0382 107.709 38.9365 108.307C38.8317 108.905 38.7577 109.51 38.7176 110.114C38.6775 110.718 38.6683 111.325 38.6929 111.933C38.7145 112.54 38.77 113.141 38.8563 113.742C38.9457 114.344 39.0629 114.939 39.2109 115.528C39.3619 116.116 39.5407 116.696 39.7504 117.263C39.96 117.834 40.2005 118.392 40.4687 118.934C40.7369 119.48 41.036 120.007 41.3597 120.522C41.6834 121.034 42.0348 121.53 42.4109 122.005C42.7871 122.483 43.1878 122.936 43.6102 123.37L44.6985 124.505C45.4291 125.251 46.2245 125.926 47.0785 126.53C47.9325 127.135 48.8358 127.656 49.7853 128.094C50.7348 128.534 51.7183 128.883 52.7326 129.145C53.7469 129.404 54.7735 129.57 55.8186 129.641C56.8637 129.715 57.9057 129.694 58.9447 129.576C59.9836 129.456 61.0041 129.247 62.006 128.944C63.008 128.639 63.9729 128.248 64.904 127.77C65.835 127.289 66.7136 126.731 67.5399 126.09Z" fill="#EE8427"/>
<path d="M208.722 97.628C204.456 94.1936 199.992 91.0429 195.33 88.1758C190.666 85.3087 185.838 82.7467 180.85 80.4931C175.862 78.2364 170.75 76.3065 165.518 74.6972C160.284 73.091 154.969 71.8208 149.577 70.8867L129.497 105.243C134.64 105.369 139.736 105.915 144.789 106.877C149.842 107.842 154.784 109.211 159.611 110.983C164.439 112.756 169.091 114.908 173.568 117.442C178.044 119.979 182.283 122.862 186.285 126.09C187.78 127.28 189.43 128.189 191.233 128.818C193.037 129.447 194.892 129.761 196.801 129.761C197.948 129.758 199.079 129.647 200.204 129.422C201.327 129.197 202.418 128.864 203.475 128.426C204.533 127.986 205.538 127.449 206.487 126.811C207.44 126.173 208.319 125.451 209.129 124.641L210.218 123.506C210.649 123.075 211.059 122.624 211.445 122.15C211.83 121.675 212.188 121.182 212.521 120.67C212.857 120.158 213.159 119.631 213.436 119.085C213.714 118.543 213.963 117.985 214.179 117.414C214.398 116.844 214.586 116.261 214.743 115.672C214.901 115.08 215.024 114.485 215.12 113.881C215.212 113.277 215.274 112.67 215.301 112.059C215.332 111.449 215.329 110.841 215.295 110.231C215.258 109.621 215.19 109.013 215.092 108.412C214.993 107.808 214.861 107.213 214.7 106.624C214.537 106.035 214.343 105.456 214.121 104.888C213.896 104.321 213.643 103.766 213.359 103.224C213.079 102.681 212.767 102.157 212.431 101.648C212.092 101.139 211.728 100.649 211.337 100.178C210.948 99.709 210.535 99.2589 210.097 98.8335C209.66 98.408 209.2 98.0041 208.722 97.628Z" fill="#EE8427"/>
<path d="M168.385 135.47C165.302 133.503 162.099 131.764 158.77 130.256C155.44 128.746 152.024 127.479 148.513 126.455C145.004 125.429 141.444 124.661 137.824 124.143C134.205 123.625 130.57 123.369 126.914 123.369C124.201 123.385 121.497 123.536 118.8 123.822L93.1497 168.284C94.019 168.429 94.8946 168.503 95.7763 168.509C97.4843 168.503 99.1552 168.263 100.795 167.794C102.435 167.326 103.98 166.641 105.432 165.747C107.041 164.767 108.712 163.903 110.442 163.151C112.171 162.402 113.944 161.773 115.76 161.264C117.576 160.756 119.416 160.374 121.284 160.118C123.153 159.862 125.027 159.732 126.914 159.732C128.801 159.732 130.675 159.862 132.543 160.118C134.412 160.374 136.252 160.756 138.068 161.264C139.884 161.773 141.656 162.402 143.386 163.151C145.115 163.903 146.786 164.767 148.396 165.747C149.228 166.28 150.097 166.74 151.007 167.128C151.916 167.517 152.851 167.825 153.812 168.053C154.771 168.284 155.745 168.432 156.732 168.497C157.718 168.562 158.702 168.546 159.685 168.445C160.669 168.346 161.637 168.164 162.586 167.902C163.539 167.637 164.464 167.298 165.358 166.878C166.252 166.459 167.106 165.969 167.92 165.405C168.731 164.844 169.489 164.215 170.198 163.524L171.33 162.436C172.245 161.517 173.047 160.509 173.737 159.412C174.428 158.314 174.989 157.152 175.418 155.931C175.849 154.707 176.142 153.452 176.293 152.164C176.444 150.875 176.45 149.586 176.315 148.298C176.17 147 175.883 145.736 175.458 144.506C175.032 143.273 174.477 142.101 173.79 140.991C173.105 139.884 172.307 138.864 171.394 137.933C170.482 136.999 169.477 136.179 168.385 135.47Z" fill="#EE8427"/>
<path d="M83.6295 163.525C84.0087 163.895 84.4157 164.228 84.8534 164.524L107.109 126C99.4172 128.053 92.2124 131.21 85.4885 135.471C84.9428 135.819 84.4157 136.198 83.9101 136.605C83.4045 137.012 82.9235 137.447 82.4673 137.906C82.011 138.369 81.5794 138.853 81.1786 139.361C80.7747 139.87 80.4017 140.4 80.0595 140.949C79.7173 141.501 79.4059 142.068 79.1254 142.654C78.8448 143.24 78.5982 143.841 78.3855 144.451C78.1727 145.065 77.997 145.688 77.8521 146.323C77.7103 146.955 77.6024 147.593 77.5315 148.237C77.4606 148.881 77.4236 149.529 77.4236 150.179C77.4267 150.827 77.4637 151.474 77.5346 152.119C77.6086 152.763 77.7195 153.401 77.8614 154.036C78.0063 154.668 78.1882 155.291 78.4009 155.901C78.6136 156.515 78.8633 157.113 79.1439 157.699C79.4244 158.284 79.7389 158.852 80.0841 159.4C80.4264 159.949 80.8025 160.479 81.2063 160.988C81.6102 161.494 82.0387 161.978 82.4981 162.437L83.6295 163.525Z" fill="#EE8427"/>
</svg>
