<svg width="254" height="237" viewBox="0 0 254 237" fill="none" xmlns="http://www.w3.org/2000/svg">
<mask id="mask0_284_8637" style="mask-type:luminance" maskUnits="userSpaceOnUse" x="55" y="0" width="143" height="237">
<path d="M55.8832 0H197.944V237H55.8832V0Z" fill="white"/>
</mask>
<g mask="url(#mask0_284_8637)">
<path d="M61.1949 237.176C60.3841 237.179 59.6288 236.979 58.9228 236.575C58.2199 236.171 57.665 235.619 57.258 234.916C56.8511 234.213 56.6476 233.458 56.6445 232.647C56.6445 231.836 56.848 231.078 57.2519 230.375L188.689 2.76559C188.837 2.50662 189.01 2.26615 189.207 2.0411C189.402 1.81605 189.62 1.61257 189.855 1.43068C190.092 1.24879 190.345 1.09156 190.613 0.958992C190.878 0.826426 191.159 0.721607 191.446 0.644534C191.735 0.564378 192.028 0.518134 192.324 0.496553C192.623 0.478056 192.919 0.487305 193.215 0.524299C193.511 0.561295 193.801 0.629119 194.084 0.72469C194.368 0.82026 194.636 0.943578 194.895 1.09156C195.154 1.23954 195.398 1.41218 195.623 1.60949C195.848 1.8068 196.051 2.0226 196.233 2.2569C196.415 2.49429 196.572 2.74709 196.705 3.0153C196.838 3.28044 196.942 3.5579 197.019 3.84769C197.1 4.13441 197.149 4.42728 197.167 4.72633C197.189 5.02537 197.18 5.32133 197.14 5.61729C197.103 5.91326 197.035 6.20305 196.939 6.48668C196.844 6.77031 196.723 7.03852 196.576 7.29749L65.138 234.91C64.9407 235.255 64.6971 235.57 64.4166 235.85C64.133 236.134 63.8185 236.374 63.4732 236.572C63.1248 236.772 62.7611 236.92 62.3726 237.025C61.9872 237.127 61.5957 237.176 61.1949 237.176Z" fill="#E6EBF2"/>
</g>
<path d="M149.576 200.418C149.576 201.161 149.539 201.901 149.465 202.638C149.394 203.378 149.283 204.112 149.139 204.839C148.994 205.567 148.815 206.285 148.599 206.997C148.383 207.706 148.134 208.403 147.85 209.091C147.566 209.775 147.249 210.447 146.9 211.101C146.549 211.754 146.17 212.393 145.757 213.009C145.343 213.626 144.903 214.221 144.431 214.794C143.959 215.368 143.463 215.916 142.939 216.444C142.412 216.968 141.863 217.464 141.289 217.936C140.716 218.407 140.121 218.848 139.504 219.261C138.888 219.671 138.25 220.054 137.596 220.405C136.943 220.753 136.27 221.071 135.586 221.355C134.902 221.638 134.202 221.888 133.493 222.104C132.781 222.32 132.062 222.498 131.335 222.643C130.607 222.788 129.873 222.899 129.133 222.97C128.397 223.044 127.657 223.081 126.914 223.081C126.171 223.081 125.431 223.044 124.694 222.97C123.954 222.899 123.22 222.788 122.493 222.643C121.765 222.498 121.047 222.32 120.335 222.104C119.626 221.888 118.926 221.638 118.241 221.355C117.557 221.071 116.885 220.753 116.231 220.405C115.578 220.054 114.94 219.671 114.323 219.261C113.706 218.848 113.111 218.407 112.538 217.936C111.965 217.464 111.416 216.968 110.889 216.444C110.365 215.916 109.868 215.368 109.397 214.794C108.925 214.221 108.484 213.626 108.071 213.009C107.658 212.393 107.279 211.754 106.927 211.101C106.579 210.447 106.261 209.775 105.978 209.091C105.694 208.403 105.444 207.706 105.228 206.997C105.013 206.285 104.834 205.567 104.689 204.839C104.544 204.112 104.433 203.378 104.362 202.638C104.288 201.901 104.251 201.161 104.251 200.418C104.251 199.675 104.288 198.936 104.362 198.196C104.433 197.459 104.544 196.725 104.689 195.998C104.834 195.27 105.013 194.552 105.228 193.839C105.444 193.13 105.694 192.431 105.978 191.746C106.261 191.062 106.579 190.39 106.927 189.736C107.279 189.083 107.658 188.444 108.071 187.828C108.484 187.211 108.925 186.616 109.397 186.043C109.868 185.469 110.365 184.921 110.889 184.393C111.416 183.869 111.965 183.373 112.538 182.901C113.111 182.43 113.706 181.989 114.323 181.576C114.94 181.162 115.578 180.783 116.231 180.432C116.885 180.083 117.557 179.766 118.241 179.482C118.926 179.199 119.626 178.949 120.335 178.733C121.047 178.517 121.765 178.339 122.493 178.194C123.22 178.049 123.954 177.938 124.694 177.867C125.431 177.793 126.171 177.756 126.914 177.756C127.657 177.756 128.397 177.793 129.133 177.867C129.873 177.938 130.607 178.049 131.335 178.194C132.062 178.339 132.781 178.517 133.493 178.733C134.202 178.949 134.902 179.199 135.586 179.482C136.27 179.766 136.943 180.083 137.596 180.432C138.25 180.783 138.888 181.162 139.504 181.576C140.121 181.989 140.716 182.43 141.289 182.901C141.863 183.373 142.412 183.869 142.939 184.393C143.463 184.921 143.959 185.469 144.431 186.043C144.903 186.616 145.343 187.211 145.757 187.828C146.17 188.444 146.549 189.083 146.9 189.736C147.249 190.39 147.566 191.062 147.85 191.746C148.134 192.431 148.383 193.13 148.599 193.839C148.815 194.552 148.994 195.27 149.139 195.998C149.283 196.725 149.394 197.459 149.465 198.196C149.539 198.936 149.576 199.675 149.576 200.418Z" fill="#E6EBF2"/>
<path d="M149.577 52.6226L168.746 19.401C154.987 16.1886 141.043 14.5886 126.914 14.5947C121.411 14.6009 115.917 14.8475 110.436 15.3408C104.954 15.8341 99.5036 16.5678 94.0869 17.5451C88.6702 18.5224 83.3059 19.7371 77.9971 21.1891C72.6914 22.6443 67.4566 24.3306 62.2958 26.2482C57.138 28.1658 52.0759 30.3115 47.1062 32.6792C42.1365 35.0469 37.284 37.6304 32.5455 40.4297C27.8071 43.229 23.2012 46.2348 18.7279 49.4441C14.2576 52.6535 9.93535 56.0539 5.76723 59.6456C4.89168 60.4132 4.10245 61.261 3.40263 62.189C2.7028 63.1169 2.10471 64.1096 1.60836 65.1609C1.11201 66.2153 0.729729 67.3066 0.461515 68.4411C0.1933 69.5726 0.0422369 70.7194 0.0114072 71.8848C-0.0317534 73.084 0.0484025 74.274 0.248793 75.4579C0.452266 76.6417 0.769808 77.7917 1.20758 78.9108C1.64228 80.0299 2.18795 81.0935 2.84153 82.0985C3.49511 83.1066 4.24427 84.0377 5.0859 84.8916L6.26667 86.0231C7.04356 86.8092 7.89137 87.5121 8.807 88.1349C9.72263 88.7576 10.6907 89.2848 11.708 89.7195C12.7254 90.1542 13.7736 90.4902 14.8557 90.7215C15.9378 90.9527 17.0322 91.0791 18.139 91.1007C20.2447 91.0852 22.2856 90.7091 24.2555 89.9692C26.2286 89.2293 28.0105 88.1719 29.6075 86.7938C33.677 83.2916 37.9222 80.0206 42.3462 76.9778C46.7702 73.9349 51.3452 71.1387 56.0713 68.5953C60.7975 66.0488 65.65 63.7643 70.6228 61.745C75.5986 59.7226 80.6669 57.9777 85.8308 56.5071C90.9947 55.0366 96.2234 53.8497 101.514 52.9433C106.807 52.04 112.131 51.4265 117.493 51.0997C122.851 50.7729 128.212 50.7359 133.576 50.9887C138.937 51.2446 144.271 51.7872 149.577 52.6226Z" fill="#E6EBF2"/>
<path d="M247.29 58.9668C242.243 54.6723 236.98 50.6583 231.502 46.9249C226.024 43.1945 220.363 39.7632 214.521 36.6371C208.676 33.508 202.683 30.7025 196.542 28.2146C190.397 25.7267 184.139 23.5748 177.767 21.7559L158.958 54.3424C164.883 55.6465 170.71 57.3051 176.435 59.3182C182.16 61.3314 187.74 63.6837 193.178 66.3781C198.616 69.0695 203.873 72.0816 208.944 75.4142C214.016 78.7468 218.865 82.3724 223.496 86.2939C223.921 86.6669 224.365 87.0153 224.827 87.342C225.287 87.6719 225.762 87.974 226.252 88.2546C226.742 88.5382 227.244 88.7941 227.762 89.0253C228.277 89.2565 228.801 89.4631 229.338 89.645C229.874 89.8269 230.417 89.981 230.966 90.1074C231.517 90.2338 232.072 90.3356 232.633 90.4096C233.195 90.4836 233.756 90.5267 234.32 90.5452C234.887 90.5637 235.451 90.5545 236.015 90.5205C236.58 90.4836 237.138 90.4188 237.696 90.3263C238.254 90.2369 238.805 90.1167 239.351 89.9718C239.9 89.8269 240.436 89.6542 240.967 89.4569C241.494 89.2596 242.015 89.0346 242.52 88.7879C243.029 88.5382 243.522 88.2669 244.003 87.9679C244.484 87.6719 244.95 87.3513 245.4 87.0091C245.85 86.6669 246.282 86.3062 246.695 85.9208C247.111 85.5354 247.505 85.1316 247.879 84.7092L248.921 83.4853C249.682 82.619 250.351 81.6849 250.928 80.686C251.504 79.6871 251.979 78.6389 252.346 77.5476C252.716 76.4562 252.975 75.3371 253.123 74.1934C253.271 73.0496 253.308 71.8997 253.227 70.7497C253.147 69.6214 252.956 68.5084 252.654 67.4171C252.355 66.3257 251.948 65.2745 251.439 64.2633C250.931 63.2521 250.326 62.2994 249.627 61.4085C248.93 60.5175 248.15 59.7036 247.29 58.9668Z" fill="#E6EBF2"/>
<path d="M67.5399 126.089C71.1901 123.148 75.0345 120.493 79.0793 118.125C83.1241 115.758 87.323 113.705 91.673 111.963C96.0261 110.224 100.481 108.818 105.044 107.742C109.606 106.669 114.222 105.942 118.892 105.556L139.65 69.6618C135.435 69.2549 131.446 68.9836 126.914 68.9836C123.239 68.9774 119.57 69.1285 115.908 69.4337C112.245 69.7389 108.604 70.1983 104.982 70.8148C101.356 71.4283 97.768 72.196 94.2103 73.1147C90.6526 74.0334 87.138 75.1032 83.6728 76.3209C80.2045 77.5387 76.7948 78.8983 73.4437 80.4058C70.0895 81.9134 66.8092 83.5597 63.5968 85.3447C60.3844 87.1297 57.2552 89.0473 54.2031 91.0974C51.1541 93.1476 48.1976 95.3241 45.3335 97.6271C44.8557 98.0001 44.3963 98.3978 43.9616 98.8201C43.5239 99.2425 43.1108 99.6864 42.7223 100.152C42.3308 100.614 41.967 101.102 41.6279 101.604C41.2888 102.107 40.9774 102.628 40.6937 103.164C40.4101 103.7 40.1542 104.249 39.9292 104.813C39.701 105.378 39.5068 105.951 39.3403 106.534C39.1739 107.119 39.0382 107.708 38.9365 108.306C38.8317 108.904 38.7577 109.509 38.7176 110.113C38.6775 110.717 38.6683 111.324 38.6929 111.932C38.7145 112.539 38.77 113.14 38.8563 113.742C38.9457 114.343 39.0629 114.938 39.2109 115.527C39.3619 116.115 39.5407 116.695 39.7504 117.262C39.96 117.833 40.2005 118.391 40.4687 118.933C40.7369 119.479 41.036 120.006 41.3597 120.521C41.6834 121.033 42.0348 121.529 42.4109 122.004C42.7871 122.482 43.1878 122.935 43.6102 123.369L44.6985 124.504C45.4291 125.25 46.2245 125.925 47.0785 126.529C47.9325 127.134 48.8358 127.655 49.7853 128.093C50.7348 128.533 51.7183 128.882 52.7326 129.144C53.7469 129.403 54.7735 129.569 55.8186 129.64C56.8637 129.714 57.9057 129.693 58.9447 129.575C59.9836 129.455 61.0041 129.246 62.006 128.943C63.008 128.638 63.9729 128.247 64.904 127.769C65.835 127.288 66.7136 126.73 67.5399 126.089Z" fill="#E6EBF2"/>
<path d="M208.722 97.6271C204.456 94.1927 199.992 91.0419 195.33 88.1748C190.666 85.3077 185.838 82.7458 180.85 80.4921C175.862 78.2354 170.75 76.3055 165.518 74.6962C160.284 73.09 154.969 71.8199 149.577 70.8857L129.497 105.242C134.64 105.368 139.736 105.914 144.789 106.876C149.842 107.841 154.784 109.21 159.611 110.982C164.439 112.755 169.091 114.907 173.568 117.441C178.044 119.978 182.283 122.861 186.285 126.089C187.78 127.279 189.43 128.188 191.233 128.817C193.037 129.446 194.892 129.76 196.801 129.76C197.948 129.757 199.079 129.646 200.204 129.421C201.327 129.196 202.418 128.863 203.475 128.425C204.533 127.985 205.538 127.448 206.487 126.81C207.44 126.172 208.319 125.45 209.129 124.64L210.218 123.505C210.649 123.074 211.059 122.623 211.445 122.149C211.83 121.674 212.188 121.181 212.521 120.669C212.857 120.157 213.159 119.63 213.436 119.084C213.714 118.542 213.963 117.984 214.179 117.413C214.398 116.843 214.586 116.26 214.743 115.671C214.901 115.08 215.024 114.484 215.12 113.88C215.212 113.276 215.274 112.669 215.301 112.058C215.332 111.448 215.329 110.84 215.295 110.23C215.258 109.62 215.19 109.012 215.092 108.411C214.993 107.807 214.861 107.212 214.7 106.623C214.537 106.034 214.343 105.455 214.121 104.887C213.896 104.32 213.643 103.765 213.359 103.223C213.079 102.68 212.767 102.156 212.431 101.647C212.092 101.139 211.728 100.648 211.337 100.177C210.948 99.708 210.535 99.2579 210.097 98.8325C209.66 98.407 209.2 98.0032 208.722 97.6271Z" fill="#E6EBF2"/>
<path d="M168.385 135.47C165.303 133.503 162.099 131.764 158.77 130.256C155.44 128.746 152.024 127.479 148.513 126.455C145.005 125.429 141.444 124.661 137.824 124.143C134.205 123.625 130.57 123.369 126.914 123.369C124.201 123.385 121.497 123.536 118.8 123.822L93.1497 168.284C94.0191 168.429 94.8947 168.503 95.7764 168.509C97.4843 168.503 99.1553 168.263 100.795 167.794C102.435 167.326 103.98 166.641 105.432 165.747C107.041 164.767 108.712 163.903 110.442 163.151C112.171 162.402 113.944 161.773 115.76 161.264C117.576 160.756 119.416 160.374 121.285 160.118C123.153 159.862 125.027 159.732 126.914 159.732C128.801 159.732 130.675 159.862 132.543 160.118C134.412 160.374 136.252 160.756 138.068 161.264C139.884 161.773 141.656 162.402 143.386 163.151C145.116 163.903 146.786 164.767 148.396 165.747C149.228 166.28 150.098 166.74 151.007 167.128C151.916 167.517 152.851 167.825 153.812 168.053C154.771 168.284 155.745 168.432 156.732 168.497C157.719 168.562 158.702 168.546 159.685 168.445C160.669 168.346 161.637 168.164 162.586 167.902C163.539 167.637 164.464 167.298 165.358 166.878C166.252 166.459 167.106 165.969 167.92 165.405C168.731 164.844 169.489 164.215 170.198 163.524L171.33 162.436C172.245 161.517 173.047 160.509 173.737 159.412C174.428 158.314 174.989 157.152 175.418 155.931C175.849 154.707 176.142 153.452 176.293 152.164C176.444 150.875 176.45 149.586 176.315 148.298C176.17 147 175.883 145.736 175.458 144.506C175.032 143.273 174.477 142.101 173.79 140.991C173.105 139.884 172.307 138.864 171.394 137.933C170.482 136.999 169.477 136.179 168.385 135.47Z" fill="#E6EBF2"/>
<path d="M83.6295 163.524C84.0087 163.894 84.4157 164.227 84.8534 164.523L107.109 125.999C99.4172 128.052 92.2124 131.209 85.4885 135.47C84.9428 135.818 84.4157 136.197 83.9101 136.604C83.4045 137.011 82.9235 137.446 82.4673 137.905C82.011 138.368 81.5794 138.852 81.1786 139.36C80.7747 139.869 80.4017 140.399 80.0595 140.948C79.7173 141.5 79.4059 142.067 79.1254 142.653C78.8448 143.239 78.5982 143.84 78.3855 144.45C78.1727 145.064 77.997 145.687 77.8521 146.322C77.7103 146.954 77.6024 147.592 77.5315 148.236C77.4606 148.881 77.4236 149.528 77.4236 150.178C77.4267 150.826 77.4637 151.473 77.5346 152.118C77.6086 152.762 77.7195 153.4 77.8614 154.035C78.0063 154.667 78.1882 155.29 78.4009 155.9C78.6136 156.514 78.8633 157.112 79.1439 157.698C79.4244 158.283 79.7389 158.851 80.0841 159.399C80.4264 159.948 80.8025 160.478 81.2063 160.987C81.6102 161.493 82.0387 161.977 82.4981 162.436L83.6295 163.524Z" fill="#E6EBF2"/>
</svg>
