<svg width="311" height="306" viewBox="0 0 311 306" fill="none" xmlns="http://www.w3.org/2000/svg">
<mask id="mask0_239_11689" style="mask-type:luminance" maskUnits="userSpaceOnUse" x="136" y="45" width="148" height="261">
<path d="M136.297 45.835H283.448V305.337H136.297V45.835Z" fill="white"/>
</mask>
<g mask="url(#mask0_239_11689)">
<path d="M262.659 305.13H145.832C140.861 305.13 136.83 301.041 136.83 295.994L148.223 55.6791C148.223 50.6362 152.25 46.5474 157.22 46.5474H274.052C279.022 46.5474 283.049 50.6362 283.049 55.6791L271.661 295.994C271.661 301.041 267.629 305.13 262.659 305.13Z" fill="#00D4FF"/>
</g>
<path d="M257.847 304.555H141.02C136.046 304.555 132.018 300.485 132.018 295.465L143.407 56.2C143.407 51.18 147.438 47.1104 152.408 47.1104H269.24C274.206 47.1104 278.237 51.18 278.237 56.2L266.849 295.465C266.849 300.485 262.817 304.555 257.847 304.555Z" fill="#1D232B"/>
<mask id="mask1_239_11689" style="mask-type:luminance" maskUnits="userSpaceOnUse" x="131" y="45" width="149" height="261">
<path d="M131.393 45.835H279.525V305.337H131.393V45.835Z" fill="white"/>
</mask>
<g mask="url(#mask1_239_11689)">
<path d="M152.408 47.4902C147.652 47.4902 143.786 51.3989 143.786 56.2004L132.393 295.485C132.397 300.271 136.263 304.176 141.015 304.176H257.843C262.598 304.176 266.469 300.271 266.469 295.466L277.857 56.1851C277.857 51.3989 273.987 47.4902 269.235 47.4902H152.408ZM257.843 304.935H141.015C135.846 304.935 131.638 300.685 131.638 295.466L143.027 56.1851C143.027 50.9812 147.235 46.7314 152.408 46.7314H269.235C274.409 46.7314 278.616 50.9812 278.616 56.2004L267.224 295.485C267.224 300.685 263.016 304.935 257.843 304.935Z" fill="#00D4FF"/>
</g>
<path d="M186.064 46.6016L188.885 50.7977C190.594 53.3421 193.464 54.8749 196.534 54.8749H224.983C227.987 54.8749 230.8 53.4111 232.528 50.9509L235.578 46.6016H186.064Z" fill="#00D4FF"/>
<path d="M175.722 85.6228H159.95C158.413 85.6228 157.171 84.3774 157.171 82.8446C157.171 81.3079 158.413 80.0625 159.95 80.0625H175.722C177.255 80.0625 178.504 81.3079 178.504 82.8446C178.504 84.3774 177.255 85.6228 175.722 85.6228Z" fill="#1D232B"/>
<path d="M159.95 80.4462C158.624 80.4462 157.547 81.5192 157.547 82.8451C157.547 84.1672 158.624 85.244 159.95 85.244H175.722C177.044 85.244 178.121 84.1672 178.121 82.8451C178.121 81.5192 177.044 80.4462 175.722 80.4462H159.95ZM175.722 86.0027H159.95C158.206 86.0027 156.792 84.5849 156.792 82.8451C156.792 81.1015 158.206 79.6875 159.95 79.6875H175.722C177.462 79.6875 178.88 81.1015 178.88 82.8451C178.88 84.5849 177.462 86.0027 175.722 86.0027Z" fill="#00D4FF"/>
<path d="M259.126 101.427H159.29C157.757 101.427 156.512 100.181 156.512 98.6445C156.512 97.1117 157.757 95.8701 159.29 95.8701H259.126C260.659 95.8701 261.901 97.1117 261.901 98.6445C261.901 100.181 260.659 101.427 259.126 101.427Z" fill="#1D232B"/>
<path d="M159.29 96.246C157.968 96.246 156.891 97.3229 156.891 98.6487C156.891 99.9708 157.968 101.048 159.29 101.048H259.126C260.444 101.048 261.521 99.9708 261.521 98.6487C261.521 97.3229 260.444 96.246 259.126 96.246H159.29ZM259.126 101.806H159.29C157.546 101.806 156.132 100.388 156.132 98.6487C156.132 96.9052 157.546 95.4873 159.29 95.4873H259.126C260.866 95.4873 262.284 96.9052 262.284 98.6487C262.284 100.388 260.866 101.806 259.126 101.806Z" fill="#00D4FF"/>
<path d="M253.938 236.257H154.105C152.573 236.257 151.327 235.012 151.327 233.475C151.327 231.942 152.573 230.697 154.105 230.697H253.938C255.474 230.697 256.716 231.942 256.716 233.475C256.716 235.012 255.474 236.257 253.938 236.257Z" fill="#1D232B"/>
<path d="M154.105 231.076C152.783 231.076 151.703 232.153 151.703 233.475C151.703 234.801 152.783 235.878 154.105 235.878H253.938C255.264 235.878 256.34 234.801 256.34 233.475C256.34 232.153 255.264 231.076 253.938 231.076H154.105ZM253.938 236.633H154.105C152.366 236.633 150.948 235.219 150.948 233.475C150.948 231.735 152.366 230.317 154.105 230.317H253.938C255.678 230.317 257.095 231.735 257.095 233.475C257.095 235.219 255.678 236.633 253.938 236.633Z" fill="#00D4FF"/>
<path d="M252.621 251.566H152.788C151.256 251.566 150.01 250.321 150.01 248.788C150.01 247.251 151.256 246.006 152.788 246.006H252.621C254.158 246.006 255.399 247.251 255.399 248.788C255.399 250.321 254.158 251.566 252.621 251.566Z" fill="#1D232B"/>
<path d="M152.787 246.389C151.461 246.389 150.388 247.462 150.388 248.788C150.388 250.11 151.461 251.187 152.787 251.187H252.619C253.941 251.187 255.018 250.11 255.018 248.788C255.018 247.462 253.941 246.389 252.619 246.389H152.787ZM252.619 251.946H152.787C151.043 251.946 149.625 250.528 149.625 248.788C149.625 247.044 151.043 245.626 152.787 245.626H252.619C254.359 245.626 255.777 247.044 255.777 248.788C255.777 250.528 254.359 251.946 252.619 251.946Z" fill="#00D4FF"/>
<path d="M206.632 268.231H152.416C150.883 268.231 149.642 266.99 149.642 265.453C149.642 263.92 150.883 262.675 152.416 262.675H206.632C208.165 262.675 209.41 263.92 209.41 265.453C209.41 266.99 208.165 268.231 206.632 268.231Z" fill="#1D232B"/>
<path d="M152.416 263.054C151.094 263.054 150.017 264.131 150.017 265.453C150.017 266.779 151.094 267.856 152.416 267.856H206.632C207.958 267.856 209.034 266.779 209.034 265.453C209.034 264.131 207.958 263.054 206.632 263.054H152.416ZM206.632 268.611H152.416C150.676 268.611 149.262 267.197 149.262 265.453C149.262 263.713 150.676 262.295 152.416 262.295H206.632C208.375 262.295 209.789 263.713 209.789 265.453C209.789 267.197 208.375 268.611 206.632 268.611Z" fill="#00D4FF"/>
<path d="M203.872 85.6228H188.1C186.563 85.6228 185.321 84.3774 185.321 82.8446C185.321 81.3079 186.563 80.0625 188.1 80.0625H203.872C205.409 80.0625 206.654 81.3079 206.654 82.8446C206.654 84.3774 205.409 85.6228 203.872 85.6228Z" fill="#1D232B"/>
<path d="M188.099 80.4462C186.774 80.4462 185.701 81.5192 185.701 82.8451C185.701 84.1672 186.774 85.244 188.099 85.244H203.872C205.198 85.244 206.271 84.1672 206.271 82.8451C206.271 81.5192 205.198 80.4462 203.872 80.4462H188.099ZM203.872 86.0027H188.099C186.36 86.0027 184.942 84.5849 184.942 82.8451C184.942 81.1015 186.36 79.6875 188.099 79.6875H203.872C205.612 79.6875 207.03 81.1015 207.03 82.8451C207.03 84.5849 205.612 86.0027 203.872 86.0027Z" fill="#00D4FF"/>
<path d="M232.026 85.6228H216.249C214.717 85.6228 213.471 84.3774 213.471 82.8407C213.471 81.3079 214.717 80.0625 216.249 80.0625H232.026C233.559 80.0625 234.804 81.3079 234.804 82.8407C234.804 84.3774 233.559 85.6228 232.026 85.6228Z" fill="#1D232B"/>
<path d="M216.249 80.4424C214.927 80.4424 213.851 81.5192 213.851 82.8413C213.851 84.1672 214.927 85.244 216.249 85.244H232.022C233.348 85.244 234.425 84.1672 234.425 82.8413C234.425 81.5192 233.348 80.4424 232.022 80.4424H216.249ZM232.022 86.0027H216.249C214.51 86.0027 213.096 84.5849 213.096 82.8413C213.096 81.1015 214.51 79.6875 216.249 79.6875H232.022C233.766 79.6875 235.184 81.1015 235.184 82.8413C235.184 84.5849 233.766 86.0027 232.022 86.0027Z" fill="#00D4FF"/>
<path d="M260.176 85.6228H244.403C242.867 85.6228 241.625 84.3774 241.625 82.8446C241.625 81.3079 242.867 80.0625 244.403 80.0625H260.176C261.709 80.0625 262.954 81.3079 262.954 82.8446C262.954 84.3774 261.709 85.6228 260.176 85.6228Z" fill="#1D232B"/>
<path d="M244.405 80.4424C243.079 80.4424 242.002 81.5192 242.002 82.8451C242.002 84.1672 243.079 85.244 244.405 85.244H260.173C261.499 85.244 262.576 84.1672 262.576 82.8451C262.576 81.5192 261.499 80.4424 260.173 80.4424H244.405ZM260.173 86.0027H244.405C242.661 86.0027 241.243 84.5849 241.243 82.8451C241.243 81.1015 242.661 79.6875 244.405 79.6875H260.173C261.917 79.6875 263.335 81.1015 263.335 82.8451C263.335 84.5849 261.917 86.0027 260.173 86.0027Z" fill="#00D4FF"/>
<path d="M70.6658 33.5994C79.9048 51.9051 72.555 74.2344 54.2493 83.4697C35.9436 92.7087 13.6181 85.3589 4.37907 67.0532C-4.85999 48.7513 2.48987 26.422 20.7955 17.1868C39.1012 7.94773 61.4267 15.2976 70.6658 33.5994Z" fill="#1D232B"/>
<path d="M37.4887 13.5618C31.8135 13.5618 26.1804 14.8915 20.9688 17.5203C12.2049 21.9463 5.69041 29.5146 2.62094 38.838C-0.448524 48.1613 0.294892 58.1208 4.7209 66.8847C9.13925 75.6447 16.7114 82.163 26.0347 85.2325C35.3581 88.302 45.3176 87.5547 54.0815 83.1326C62.8415 78.7104 69.3598 71.1383 72.4293 61.8187C75.4949 52.4915 74.7515 42.532 70.3293 33.772C65.9072 25.0081 58.335 18.4898 49.0155 15.4242C45.2371 14.1788 41.3514 13.5618 37.4887 13.5618ZM37.5615 87.8498C33.6145 87.8498 29.6522 87.2213 25.7971 85.9491C16.2822 82.8183 8.55678 76.1697 4.04263 67.2257C-0.471517 58.2817 -1.23409 48.1153 1.90052 38.6004C5.0313 29.0854 11.6837 21.36 20.6277 16.8459C29.5717 12.3317 39.7343 11.5691 49.2493 14.7037C58.7681 17.8384 66.4935 24.4869 71.0038 33.4271C75.5179 42.3711 76.2805 52.5375 73.1459 62.0525C70.0151 71.5674 63.3665 79.2967 54.4225 83.807C49.1036 86.4933 43.3517 87.8498 37.5615 87.8498Z" fill="#00D4FF"/>
<path d="M64.8535 36.5348C72.4716 51.6292 66.4093 70.0422 51.3149 77.6603C36.2243 85.2784 17.8113 79.2161 10.1932 64.1217C2.57511 49.0273 8.6374 30.6143 23.7318 22.9962C38.8262 15.3819 57.2354 21.4404 64.8535 36.5348Z" fill="#1D232B"/>
<path d="M37.4929 20.0759C32.8254 20.0759 28.1887 21.1719 23.9006 23.337C16.6925 26.9736 11.3315 33.2007 8.80617 40.8724C6.28086 48.5442 6.89398 56.7409 10.5306 63.949C14.171 71.1571 20.3981 76.522 28.0699 79.0434C35.7416 81.5726 43.9384 80.9595 51.1464 77.319C58.3545 73.6824 63.7155 67.4515 66.2409 59.7798C68.7662 52.108 68.153 43.9151 64.5164 36.707C60.876 29.4951 54.6489 24.1341 46.9772 21.6088C43.8694 20.5856 40.6735 20.0759 37.4929 20.0759ZM37.5542 81.335C34.2931 81.335 31.0205 80.8138 27.8323 79.7639C19.9689 77.1772 13.5847 71.6821 9.85615 64.2901C6.12374 56.9019 5.49529 48.502 8.08575 40.6349C10.6724 32.7715 16.1714 26.3873 23.5595 22.6587C30.9516 18.9302 39.3514 18.2979 47.2148 20.8883C55.0781 23.475 61.4623 28.974 65.1947 36.3621C68.9233 43.7541 69.5517 52.154 66.9613 60.0173C64.3746 67.8807 58.8795 74.2649 51.4875 77.9973C47.0921 80.2122 42.3404 81.335 37.5542 81.335Z" fill="#00D4FF"/>
<path d="M43.3328 66.8387L41.5087 63.2328C38.9068 64.4015 36.0941 64.9649 34.2279 64.8537L33.1281 59.8376C35.1629 59.9066 37.807 59.5732 40.2748 58.3278C42.4399 57.2356 43.4976 55.653 42.7312 54.1317C42.0031 52.6908 40.3285 52.3919 37.0367 52.8594C32.285 53.5454 28.5526 53.0434 26.6941 49.3608C25.008 46.0192 26.0388 42.2102 29.7022 39.363L27.882 35.7532L31.6029 33.8755L33.289 37.217C35.891 36.0483 37.8683 35.7149 39.4279 35.6919L40.4933 40.5394C39.2938 40.6199 37.1057 40.6275 34.3735 42.0071C31.9056 43.2525 31.6412 44.7202 32.1815 45.7816C32.8138 47.0347 34.5421 47.1612 38.3856 46.7473C43.7083 46.0652 46.5862 47.2302 48.3106 50.6483C50.0159 54.0282 49.0809 58.1247 45.0994 61.0868L47.0537 64.961L43.3328 66.8387Z" fill="#00D4FF"/>
<mask id="mask2_239_11689" style="mask-type:luminance" maskUnits="userSpaceOnUse" x="72" y="290" width="38" height="16">
<path d="M72.5327 290.104H109.811V305.337H72.5327V290.104Z" fill="white"/>
</mask>
<g mask="url(#mask2_239_11689)">
<path d="M74.989 305.142C73.9007 305.142 73.0001 304.303 72.9235 303.214C72.7549 300.754 72.8277 296.386 74.8855 292.776C75.4603 291.772 76.5678 291.262 77.6561 291.458L86.5579 293.079C87.4776 293.228 88.4049 292.876 89.0334 292.148L89.8573 291.052C90.4398 290.278 91.4821 290.009 92.3634 290.408C96.092 292.102 105.603 296.807 108.573 302.05C109.355 303.433 108.355 305.142 106.768 305.142H74.989Z" fill="#1D232B"/>
</g>
<mask id="mask3_239_11689" style="mask-type:luminance" maskUnits="userSpaceOnUse" x="71" y="289" width="39" height="17">
<path d="M71.5518 289.125H109.811V305.338H71.5518V289.125Z" fill="white"/>
</mask>
<g mask="url(#mask3_239_11689)">
<path d="M77.197 291.795C76.3961 291.795 75.6336 292.236 75.2159 292.964C73.181 296.532 73.1427 300.9 73.3037 303.192C73.365 304.073 74.1046 304.763 74.9898 304.763H106.769C107.378 304.763 107.926 304.449 108.233 303.924C108.539 303.395 108.543 302.766 108.244 302.237C105.347 297.122 96.0622 292.504 92.2071 290.753C91.4829 290.427 90.6437 290.642 90.1608 291.278L89.3369 292.374C88.605 293.228 87.5512 293.623 86.4974 293.451L77.5879 291.83C77.4576 291.807 77.3273 291.795 77.197 291.795ZM106.769 305.522H74.9898C73.7099 305.522 72.6369 304.521 72.5449 303.241C72.384 300.869 72.4261 296.328 74.5568 292.588C75.2005 291.462 76.4728 290.86 77.7259 291.086L86.6277 292.707C87.4094 292.834 88.2027 292.531 88.7468 291.899L89.5554 290.822C90.2528 289.902 91.4714 289.588 92.5214 290.063C96.4454 291.841 105.895 296.555 108.903 301.866C109.336 302.632 109.333 303.54 108.888 304.303C108.444 305.066 107.65 305.522 106.769 305.522Z" fill="#00D4FF"/>
</g>
<path d="M104.005 302.923H75.039C74.8321 302.923 74.6597 302.754 74.6597 302.543C74.6597 302.333 74.8321 302.164 75.039 302.164H104.005C104.216 302.164 104.385 302.333 104.385 302.543C104.385 302.754 104.216 302.923 104.005 302.923Z" fill="#00D4FF"/>
<path d="M91.3096 298.754C91.2292 298.754 91.1487 298.731 91.0835 298.681C90.9149 298.555 90.8804 298.317 91.0069 298.149L93.9307 294.232C94.0572 294.064 94.2948 294.029 94.4634 294.156C94.6282 294.282 94.6665 294.52 94.54 294.685L91.6124 298.605C91.5395 298.704 91.4246 298.754 91.3096 298.754Z" fill="#00D4FF"/>
<path d="M97.3307 299.827C97.2694 299.827 97.2081 299.811 97.1506 299.781C96.9667 299.681 96.8977 299.451 96.9973 299.267L98.35 296.757C98.4497 296.573 98.6796 296.501 98.8635 296.604C99.0475 296.7 99.1164 296.93 99.0168 297.114L97.6641 299.627C97.5989 299.754 97.4686 299.827 97.3307 299.827Z" fill="#00D4FF"/>
<path d="M4.57903 272.171C4.84727 276.972 5.92407 290.277 9.85192 298.93C10.672 300.739 13.0938 301.068 14.4006 299.574C15.1555 298.712 16.0598 297.512 17.1175 295.849C20.6659 290.258 22.6471 273.524 23.0112 270.182C23.0533 269.814 22.9154 269.45 22.6433 269.201L20.8154 267.515C20.0183 266.783 18.7691 266.898 18.1215 267.764L17.8072 268.182C17.5543 268.515 17.037 268.458 16.8684 268.078L15.3509 264.641C14.9179 263.668 13.7568 263.246 12.8064 263.729C11.1318 264.58 8.48388 266.204 5.76313 268.983C4.93541 269.83 4.51005 270.991 4.57903 272.171Z" fill="#1D232B"/>
<path d="M4.95464 272.148C5.24587 277.321 6.33801 290.274 10.1969 298.773C10.5303 299.505 11.1779 299.995 11.9788 300.114C12.7835 300.229 13.5806 299.934 14.1171 299.325C14.9486 298.375 15.8491 297.137 16.7957 295.642C20.302 290.124 22.2755 273.432 22.6357 270.14C22.6625 269.895 22.5705 269.65 22.3866 269.477L20.5549 267.795C20.2522 267.515 19.8575 267.381 19.4474 267.419C19.0336 267.458 18.6734 267.661 18.4243 267.99L18.11 268.412C17.9108 268.676 17.5966 268.814 17.2632 268.776C16.9336 268.737 16.6577 268.534 16.5236 268.232L15.0023 264.794C14.8336 264.419 14.5271 264.131 14.14 263.993C13.753 263.855 13.3392 263.882 12.9751 264.07C11.2775 264.928 8.69471 266.53 6.03528 269.251C5.28803 270.014 4.89716 271.071 4.95464 272.148ZM12.3313 300.896C12.178 300.896 12.0248 300.884 11.8676 300.862C10.8253 300.708 9.94013 300.045 9.50711 299.087C5.59459 290.469 4.49096 277.406 4.19973 272.19C4.12692 270.899 4.59826 269.634 5.49113 268.722C8.2272 265.925 10.8828 264.281 12.6341 263.392C13.1859 263.112 13.8105 263.074 14.393 263.281C14.9831 263.488 15.4429 263.917 15.6959 264.488L17.2172 267.921C17.2478 268.002 17.313 268.017 17.3513 268.021C17.3858 268.029 17.4548 268.025 17.5046 267.956L17.8188 267.534C18.1905 267.04 18.7577 266.722 19.3785 266.664C19.9954 266.607 20.6124 266.818 21.0722 267.235L22.9001 268.921C23.2603 269.255 23.4404 269.741 23.3906 270.224C23.0266 273.543 21.0339 290.389 17.4356 296.048C16.4699 297.574 15.5426 298.846 14.688 299.823C14.0864 300.513 13.228 300.896 12.3313 300.896Z" fill="#00D4FF"/>
<path d="M12.9059 298.604C12.7527 298.604 12.607 298.509 12.5496 298.355C8.13504 286.296 7.21918 270.186 7.21152 270.025C7.20002 269.814 7.36097 269.638 7.5679 269.626C7.771 269.611 7.95493 269.776 7.96643 269.983C7.97409 270.144 8.88612 286.143 13.2623 298.095C13.3351 298.29 13.2317 298.509 13.0362 298.581C12.9941 298.597 12.9481 298.604 12.9059 298.604Z" fill="#00D4FF"/>
<path d="M19.5895 286.212C19.5742 286.212 19.5627 286.212 19.5474 286.208L14.5926 285.641C14.3856 285.618 14.2362 285.426 14.2592 285.219C14.2822 285.012 14.4738 284.863 14.6807 284.886L19.6317 285.457C19.8425 285.48 19.9919 285.667 19.9651 285.874C19.9459 286.07 19.7811 286.212 19.5895 286.212Z" fill="#00D4FF"/>
<path d="M20.1528 280.46C20.1413 280.46 20.126 280.46 20.1106 280.456L13.8836 279.74C13.6766 279.717 13.5272 279.529 13.5502 279.322C13.577 279.111 13.7648 278.966 13.9717 278.989L20.1988 279.705C20.4057 279.728 20.5552 279.916 20.5322 280.123C20.5092 280.318 20.3444 280.46 20.1528 280.46Z" fill="#00D4FF"/>
<path d="M100.549 175.362C100.549 175.362 102.17 187.575 98.4718 222.166C97.8012 228.405 96.4791 234.421 94.6474 240.12C92.2869 247.466 90.4667 260.245 90.3402 287.388C90.3249 290.641 88.8764 293.435 86.6691 294.504C83.3735 296.106 77.9052 296.52 77.7979 289.074C77.6255 277.049 73.5635 249.819 74.4219 238.671C75.2803 227.528 69.8886 182.47 78.936 177.719C87.9873 172.971 100.549 175.362 100.549 175.362Z" fill="#00D4FF"/>
<path d="M61.3165 172.909C61.3165 172.909 49.487 209.298 46.7317 225.788C46.7317 225.788 46.9387 230.283 40.9415 234.636C34.9444 238.985 32.0627 232.701 14.9449 261.671C14.9449 261.671 11.772 269.994 17.4626 272.776C18.5432 273.301 19.8231 272.956 20.7083 271.902C24.824 266.994 33.8599 257.264 44.8081 251.639C57.9098 244.906 59.2357 241.261 66.3633 227.286C73.4909 213.307 88.3094 191.993 89.0413 186.164C89.7771 180.34 61.3165 172.909 61.3165 172.909Z" fill="#00D4FF"/>
<path d="M73.5756 216.296L72.9165 215.924C77.2927 208.13 79.5306 204.677 84.1099 201.876L84.5046 202.524C80.0786 205.229 77.8828 208.624 73.5756 216.296Z" fill="#1D232B"/>
<path d="M58.9331 189.775L58.8564 189.02C67.5437 188.15 69.5708 183.153 69.59 183.099L70.2989 183.371C70.2146 183.593 68.1185 188.855 58.9331 189.775Z" fill="#1D232B"/>
<path d="M98.5485 196.251C94.5287 193.572 94.6436 187.897 94.6475 187.655L95.4062 187.678C95.4062 187.732 95.2989 193.177 98.9662 195.622L98.5485 196.251Z" fill="#1D232B"/>
<path d="M41.6814 89.8921L43.6549 85.6577C44.314 84.236 44.3983 82.6151 43.881 81.1321L42.1681 76.2117C42.1681 76.2117 40.7617 75.6216 40.2214 78.4918C39.6772 81.3658 40.7464 84.1249 38.6081 85.788C36.466 87.4549 31.6836 87.3362 31.6836 87.3362L33.0861 89.21C33.8832 90.2753 34.2281 92.9118 34.2281 92.9118L34.4772 97.9126C34.4772 97.9126 38.6771 96.7515 41.1564 95.8663L41.0989 93.82C41.0989 93.82 41.1258 91.0801 41.6814 89.8921Z" fill="#1D232B"/>
<path d="M32.4382 87.7082L33.3886 88.9843C34.2355 90.1148 34.588 92.7474 34.6033 92.8623L34.8333 97.4186C35.9369 97.1082 38.8071 96.2844 40.7691 95.6022L40.7193 93.8318C40.7193 93.7016 40.7576 90.9808 41.3362 89.7316L43.3097 85.4971C43.9344 84.1598 44.011 82.6538 43.5243 81.2589L41.8804 76.5417C41.7961 76.5378 41.6696 76.557 41.5355 76.6336C41.1178 76.8674 40.7844 77.5533 40.5928 78.565C40.4166 79.4885 40.4166 80.412 40.4127 81.3011C40.4127 83.1366 40.4089 84.8687 38.8378 86.0911C37.1248 87.4247 33.9059 87.6699 32.4382 87.7082ZM34.1205 98.4035L33.8484 92.9313C33.7603 92.253 33.3848 90.245 32.7831 89.4403L30.9131 86.938L31.691 86.9572C31.737 86.961 36.3661 87.053 38.3741 85.4895C39.6501 84.497 39.654 83.0868 39.654 81.2972C39.6578 80.3737 39.6578 79.4195 39.8494 78.4232C40.0908 77.1318 40.543 76.3041 41.1906 75.9554C41.7654 75.6488 42.2598 75.8404 42.3172 75.8634L42.4705 75.9285L44.2409 81.0098C44.7889 82.5925 44.7046 84.2977 43.9957 85.819L42.026 90.0534C41.5125 91.1532 41.4742 93.7974 41.4742 93.8242L41.5432 96.1311L41.2826 96.223C38.8186 97.1044 34.6187 98.2655 34.5765 98.277L34.1205 98.4035Z" fill="#00D4FF"/>
<path d="M85.1553 104.549L84.0287 108.849L79.1351 107.626C78.7251 107.523 78.3189 107.397 77.9127 107.274C72.475 105.626 67.5317 107.481 63.0942 110.5L45.9803 123.801L43.8535 99.399L43.3592 95.9425C43.1752 93.6893 38.5691 94.678 36.1894 95.4482C34.6604 95.9425 32.2616 97.1266 32.001 98.7093L31.8017 102.365C31.8017 102.365 30.7211 136.202 35.2506 139.98C40.4506 144.311 51.5751 140.651 56.8135 138.551C58.5954 137.834 60.6034 138.835 61.113 140.682C62.301 144.954 63.2092 153.941 59.3388 171.2C59.3388 171.2 58.1815 173.346 60.3275 176.316C60.3275 176.316 76.1768 183.911 88.3933 184.9C100.61 185.892 102.756 181.271 102.756 179.784C102.756 178.297 101.135 163.222 102.288 156.784C102.928 153.216 104.273 150.473 105.346 148.733C106.143 147.438 112.014 158.834 120.659 165.502C135.34 176.829 146.502 176.53 149.342 176.22C149.771 176.174 150.147 175.902 150.331 175.511L154.201 167.311C154.546 166.582 154.124 165.724 153.331 165.552C149.081 164.643 137.087 161.049 128.806 148.465C122.633 139.08 118.77 129.971 114.486 123.648C112.524 120.755 108.462 117.712 106.166 116.122C105.224 115.471 104.929 114.214 105.492 113.214L105.933 112.428C106.412 111.577 106.278 110.52 105.607 109.815C103.373 107.458 97.8777 102.442 90.501 101.093C88.1673 100.667 85.7569 102.254 85.1553 104.549Z" fill="#1D232B"/>
<path d="M60.5813 176.017C61.8651 176.618 76.8828 183.589 88.4249 184.524C96.066 185.141 99.534 183.554 101.098 182.114C102.04 181.24 102.377 180.313 102.377 179.784C102.377 179.485 102.305 178.569 102.205 177.297C101.814 172.284 100.994 161.857 101.918 156.719C102.573 153.055 103.972 150.242 105.025 148.533C105.133 148.361 105.297 148.261 105.493 148.254C106.129 148.223 106.888 149.212 108.995 152.063C111.708 155.734 115.809 161.283 120.89 165.203C135.356 176.362 146.293 176.17 149.301 175.844C149.6 175.814 149.86 175.626 149.991 175.35L153.861 167.149C153.976 166.908 153.972 166.628 153.853 166.387C153.734 166.149 153.516 165.981 153.255 165.923C148.561 164.919 136.751 161.229 128.493 148.671C125.209 143.682 122.545 138.708 120.193 134.32C118.127 130.458 116.177 126.813 114.172 123.859C112.241 121.008 108.191 117.984 105.949 116.432C104.841 115.666 104.5 114.202 105.159 113.03L105.604 112.24C106.003 111.535 105.891 110.665 105.332 110.075C103.305 107.933 97.7866 102.809 90.4329 101.468C88.3253 101.081 86.0759 102.537 85.5241 104.645L84.2978 109.309L79.0441 107.994C78.6686 107.898 78.293 107.783 77.9328 107.676L77.8025 107.638C73.1657 106.231 68.5596 107.239 63.3059 110.815L45.6632 124.526L43.4751 99.4334L42.9846 95.9961C42.9577 95.6665 42.8313 95.4443 42.5784 95.2756C41.5361 94.582 38.6774 95.0419 36.3092 95.8083C34.5081 96.3869 32.5997 97.5212 32.3775 98.7513L32.182 102.384C31.8103 114.018 32.0249 136.796 35.4929 139.689C40.6164 143.958 52.0129 140.068 56.6726 138.198C57.6191 137.819 58.6883 137.861 59.6041 138.313C60.5238 138.766 61.2059 139.593 61.4818 140.582C62.7694 145.23 63.509 154.327 59.7076 171.28L59.6731 171.38C59.631 171.457 58.6883 173.334 60.5813 176.017ZM91.6132 185.417C90.6207 185.417 89.5401 185.375 88.3636 185.279C76.2161 184.294 60.3246 176.733 60.1636 176.657L60.0793 176.615L60.0218 176.538C57.9219 173.629 58.8032 171.441 58.9795 171.07C62.7349 154.301 62.0145 145.345 60.7499 140.785C60.5353 140.003 59.995 139.352 59.2669 138.992C58.5465 138.635 57.7035 138.601 56.9562 138.9C51.0089 141.287 40.2485 144.636 35.0101 140.272C30.3886 136.42 31.3811 103.741 31.4233 102.35L31.6264 98.6478C31.9828 96.5096 35.3933 95.3063 36.0754 95.0879C37.2748 94.7008 41.3176 93.5244 42.9999 94.6472C43.4406 94.9423 43.6935 95.3791 43.7395 95.9118L44.23 99.3453L46.2993 123.073L62.8614 110.201C68.2646 106.527 73.2156 105.454 78.021 106.91L78.1512 106.952C78.5038 107.059 78.8717 107.17 79.228 107.258L83.7575 108.393L84.7922 104.453C85.4513 101.936 88.0417 100.261 90.5709 100.721C98.143 102.104 103.803 107.358 105.884 109.554C106.673 110.385 106.826 111.615 106.263 112.612L105.822 113.397C105.355 114.229 105.596 115.264 106.382 115.812C108.666 117.39 112.797 120.483 114.801 123.434C116.824 126.422 118.786 130.082 120.863 133.964C123.205 138.336 125.86 143.295 129.125 148.257C137.23 160.578 148.81 164.199 153.413 165.184C153.903 165.287 154.313 165.605 154.532 166.053C154.754 166.502 154.758 167.019 154.547 167.471L150.677 175.672C150.431 176.193 149.948 176.538 149.381 176.599C146.304 176.933 135.118 177.136 120.426 165.804C115.261 161.819 111.122 156.22 108.386 152.515C107.244 150.971 106.064 149.376 105.593 149.058C104.581 150.725 103.286 153.396 102.665 156.853C101.757 161.892 102.569 172.258 102.96 177.235C103.067 178.573 103.136 179.458 103.136 179.784C103.136 180.496 102.734 181.635 101.611 182.669C100.185 183.984 97.3191 185.417 91.6132 185.417Z" fill="#00D4FF"/>
<path d="M92.027 120.349C91.9273 120.349 91.8239 120.307 91.7472 120.226C85.2826 113.168 86.6391 105.871 86.7004 105.565C86.7387 105.358 86.9418 105.228 87.1449 105.266C87.348 105.304 87.4822 105.507 87.4438 105.71C87.4285 105.783 86.1103 112.949 92.3067 119.713C92.4485 119.866 92.437 120.107 92.2837 120.249C92.2109 120.318 92.1189 120.349 92.027 120.349Z" fill="#00D4FF"/>
<path d="M89.6163 129.822C89.4669 129.822 89.3251 129.73 89.2638 129.581C89.1871 129.389 89.2791 129.167 89.4745 129.09C89.4937 129.082 91.2066 128.385 93.7549 126.622C98.4798 123.656 102.741 117.713 102.783 117.651C102.906 117.479 103.14 117.441 103.312 117.563C103.481 117.682 103.523 117.92 103.4 118.092C103.224 118.337 99.0087 124.22 94.1726 127.255C91.563 129.063 89.8309 129.765 89.7543 129.791C89.7121 129.811 89.6623 129.822 89.6163 129.822Z" fill="#00D4FF"/>
<path d="M83.4967 168.1C83.4085 168.1 83.3204 168.07 83.2514 168.008C83.0905 167.874 83.0752 167.633 83.2093 167.476C87.9648 161.931 89.5666 160.065 91.9655 154.121C92.0421 153.926 92.2644 153.834 92.456 153.91C92.6514 153.991 92.7472 154.209 92.6668 154.405C90.2219 160.463 88.601 162.356 83.7841 167.97C83.7113 168.054 83.604 168.1 83.4967 168.1Z" fill="#00D4FF"/>
<path d="M72.5554 171.073C72.4481 171.073 72.337 171.027 72.2642 170.939C72.1301 170.775 72.153 170.537 72.314 170.403C83.6607 161.033 94.0264 138.969 94.1298 138.746C94.218 138.559 94.444 138.474 94.6318 138.562C94.8234 138.654 94.9039 138.877 94.8158 139.068C94.7123 139.29 84.2738 161.509 72.7968 170.989C72.7279 171.047 72.6397 171.073 72.5554 171.073Z" fill="#00D4FF"/>
<path d="M153.81 168.28C153.81 168.28 159.528 167.088 161.486 166.107C163.448 165.13 164.111 166.134 164.203 166.697C164.283 167.184 162.356 168.847 160.409 169.468C160.233 169.525 160.256 169.782 160.44 169.809C162.237 170.05 164.444 170.989 167.977 169.801C170.399 168.985 172.595 170.932 172.338 172.844C172.024 175.227 164.823 182.677 150.99 174.48L153.81 168.28Z" fill="#1D232B"/>
<path d="M151.477 174.323C159.977 179.259 165.526 177.929 168.093 176.684C170.538 175.492 171.848 173.66 171.963 172.794C172.063 172.047 171.703 171.235 171.025 170.671C170.216 170.008 169.124 169.817 168.101 170.162C165.192 171.139 163.161 170.725 161.529 170.392C161.126 170.307 160.747 170.231 160.391 170.185C160.13 170.15 159.935 169.943 159.912 169.683C159.889 169.422 160.046 169.185 160.295 169.108C162.05 168.548 163.682 167.142 163.824 166.724C163.797 166.617 163.709 166.334 163.406 166.18C163.016 165.977 162.41 166.073 161.655 166.449C159.854 167.349 155.099 168.391 154.075 168.61L151.477 174.323ZM162.717 178.592C159.662 178.592 155.681 177.699 150.795 174.806L150.504 174.634L153.543 167.947L153.73 167.905C153.788 167.893 159.425 166.717 161.318 165.77C162.307 165.272 163.127 165.184 163.751 165.502C164.399 165.832 164.548 166.452 164.579 166.636C164.705 167.399 162.889 168.828 161.23 169.56C161.375 169.587 161.525 169.618 161.678 169.648C163.222 169.962 165.146 170.353 167.859 169.441C169.131 169.016 170.496 169.254 171.507 170.089C172.4 170.825 172.852 171.875 172.714 172.898C172.55 174.132 170.99 176.117 168.423 177.362C167.177 177.968 165.273 178.592 162.717 178.592Z" fill="#00D4FF"/>
<path d="M101.001 103.92C103.944 104.499 106.799 102.587 107.381 99.6436L108.976 91.5695C109.523 88.7913 107.73 86.0859 104.956 85.5072L103.971 85.3003C102.331 84.9592 100.629 85.4306 99.3954 86.5572L97.0885 88.6687C96.7475 88.9829 96.234 89.0365 95.8393 88.7913C95.3066 88.4579 94.5249 88.113 93.8619 88.3889C92.7315 88.8564 91.0799 93.041 94.9157 94.5508L91.0645 104.537C91.0645 104.537 88.1024 110.178 94.3371 112.086C100.576 113.995 101.001 103.92 101.001 103.92Z" fill="#1D232B"/>
<path d="M94.3831 88.6699C94.2528 88.6699 94.1264 88.6891 94.0038 88.7389C93.6091 88.9037 92.8848 90.015 92.9001 91.337C92.9078 92.2606 93.2872 93.5021 95.0537 94.1996L95.4063 94.3375L91.4018 104.715C91.3903 104.738 90.1985 107.06 91.0454 109.087C91.5551 110.302 92.7009 111.191 94.4483 111.724C95.7243 112.114 96.8241 111.992 97.7285 111.352C100.353 109.497 100.618 103.96 100.622 103.906L100.641 103.462L101.074 103.55C103.806 104.086 106.469 102.304 107.01 99.5721L108.604 91.498C109.11 88.9343 107.439 86.4129 104.879 85.8802L103.894 85.6733C102.377 85.359 100.794 85.7921 99.6522 86.8382L97.3453 88.9497C96.874 89.3827 96.1727 89.4478 95.6362 89.1145C95.345 88.9305 94.8468 88.6699 94.3831 88.6699ZM95.8316 112.708C95.322 112.708 94.7855 112.624 94.226 112.452C92.2487 111.846 90.9458 110.811 90.3442 109.378C89.3976 107.102 90.5817 104.653 90.7197 104.381L94.4291 94.7552C92.4671 93.8317 92.1491 92.2414 92.1414 91.3447C92.1261 89.7889 92.9576 88.3557 93.7164 88.0415C94.3563 87.7732 95.161 87.9227 96.0386 88.4707C96.2877 88.624 96.6134 88.5933 96.8318 88.3902L99.1387 86.2787C100.461 85.0716 102.296 84.5696 104.048 84.9337L105.032 85.1368C107.998 85.7576 109.934 88.6738 109.347 91.6474L107.753 99.7177C107.159 102.718 104.343 104.726 101.35 104.358C101.231 105.761 100.668 110.198 98.1654 111.973C97.4718 112.459 96.69 112.708 95.8316 112.708Z" fill="#00D4FF"/>
<path d="M100.989 104.297C100.962 104.297 100.935 104.297 100.908 104.289C100.54 104.209 97.2831 103.442 96.6738 100.783C96.6278 100.58 96.7581 100.377 96.9612 100.331C97.1643 100.285 97.3674 100.411 97.4134 100.614C97.9269 102.852 100.939 103.519 101.065 103.546C101.272 103.592 101.403 103.791 101.357 103.998C101.322 104.174 101.165 104.297 100.989 104.297Z" fill="#00D4FF"/>
<path d="M93.0611 88.4318L92.6128 81.9096C92.8389 79.0739 94.9887 76.7709 97.8014 76.3493L105.948 75.1384C106.772 75.012 107.489 75.7094 107.389 76.5371C107.293 77.3687 108.01 78.0623 108.838 77.9396L112.547 77.3802C113.643 77.2154 114.409 78.434 113.785 79.346L113.563 79.6717C113.095 80.3538 113.398 81.2927 114.172 81.5763L116.939 82.6339C117.881 82.975 118.065 84.2319 117.264 84.8335L109.324 90.3171C109.324 90.3171 108.658 84.8565 103.293 85.1439C100.58 85.2933 98.4911 87.1595 97.5408 88.5582C97.1729 89.0986 96.464 90.0527 95.5711 89.0641C95.5711 89.0641 96.4218 86.9373 93.0611 88.4318Z" fill="#00D4FF"/>
<path d="M288.993 212.483H181.504C178.052 212.483 175.293 209.605 175.438 206.152L178.071 144.031C178.209 140.781 180.883 138.214 184.137 138.214H291.626C295.078 138.214 297.837 141.092 297.696 144.544L295.059 206.67C294.921 209.919 292.246 212.483 288.993 212.483Z" fill="#00D4FF"/>
<path d="M205.229 173.844H189.314C187.988 173.844 186.916 172.772 186.916 171.442V161.08C186.916 159.75 187.988 158.677 189.314 158.677H205.229C206.555 158.677 207.632 159.75 207.632 161.08V171.442C207.632 172.772 206.555 173.844 205.229 173.844Z" fill="#1D232B"/>
<path d="M205.278 188.843H187.356C186.413 188.843 185.65 188.077 185.65 187.138V184.988C185.65 184.049 186.413 183.283 187.356 183.283H205.278C206.217 183.283 206.983 184.049 206.983 184.988V187.138C206.983 188.077 206.217 188.843 205.278 188.843Z" fill="#1D232B"/>
<path d="M219.537 205.351H184.593C183.688 205.351 182.953 204.615 182.953 203.711C182.953 202.803 183.688 202.067 184.593 202.067H219.537C220.445 202.067 221.181 202.803 221.181 203.711C221.181 204.615 220.445 205.351 219.537 205.351Z" fill="#1D232B"/>
<path d="M285.495 205.352H275.359C274.455 205.352 273.719 204.616 273.719 203.712C273.719 202.804 274.455 202.072 275.359 202.072H285.495C286.399 202.072 287.135 202.804 287.135 203.712C287.135 204.616 286.399 205.352 285.495 205.352Z" fill="#1D232B"/>
<path d="M232.371 188.844H214.449C213.506 188.844 212.744 188.081 212.744 187.138V184.989C212.744 184.05 213.506 183.287 214.449 183.287H232.371C233.31 183.287 234.073 184.05 234.073 184.989V187.138C234.073 188.081 233.31 188.844 232.371 188.844Z" fill="#1D232B"/>
<path d="M259.464 188.844H241.541C240.599 188.844 239.836 188.081 239.836 187.138V184.989C239.836 184.05 240.599 183.287 241.541 183.287H259.464C260.403 183.287 261.169 184.05 261.169 184.989V187.138C261.169 188.081 260.403 188.844 259.464 188.844Z" fill="#1D232B"/>
<path d="M286.56 188.843H268.637C267.695 188.843 266.932 188.077 266.932 187.138V184.988C266.932 184.045 267.695 183.283 268.637 183.283H286.56C287.503 183.283 288.265 184.045 288.265 184.988V187.138C288.265 188.077 287.503 188.843 286.56 188.843Z" fill="#1D232B"/>
<path d="M284.912 152.312H265.882C264.031 152.312 262.529 150.81 262.529 148.959C262.529 147.104 264.031 145.606 265.882 145.606H284.912C286.763 145.606 288.265 147.104 288.265 148.959C288.265 150.81 286.763 152.312 284.912 152.312Z" fill="#1D232B"/>
<path d="M249.141 110.704C255.832 124.53 250.045 141.161 236.219 147.852C222.393 154.543 205.762 148.756 199.071 134.93C192.381 121.104 198.167 104.473 211.993 97.7785C225.819 91.0916 242.454 96.8741 249.141 110.704Z" fill="#1D232B"/>
<path d="M224.082 95.368C220.001 95.368 215.939 96.2915 212.157 98.1232C198.542 104.71 192.821 121.15 199.408 134.765C205.999 148.38 222.438 154.102 236.054 147.511C249.673 140.923 255.386 124.484 248.799 110.865C245.607 104.274 240.039 99.3111 233.118 96.9046C230.168 95.8776 227.117 95.368 224.082 95.368ZM224.147 151.005C213.671 151.009 203.589 145.142 198.73 135.095C191.958 121.104 197.833 104.208 211.827 97.4373C218.606 94.1609 226.251 93.7163 233.367 96.188C240.48 98.6635 246.201 103.76 249.481 110.539C256.252 124.53 250.378 141.421 236.383 148.193C232.44 150.101 228.263 151.005 224.147 151.005Z" fill="#00D4FF"/>
<path d="M244.117 113.133C249.467 124.185 244.841 137.478 233.79 142.828C222.734 148.177 209.441 143.552 204.095 132.501C198.746 121.445 203.371 108.152 214.423 102.802C225.474 97.4566 238.768 102.082 244.117 113.133Z" fill="#1D232B"/>
<path d="M224.139 146.131C215.471 146.131 207.14 141.283 203.117 132.972C200.404 127.365 200.036 121.042 202.082 115.156C204.128 109.278 208.344 104.542 213.95 101.832C220.932 98.4525 229.109 98.7628 235.827 102.664C236.011 102.767 236.068 103.001 235.965 103.181C235.862 103.365 235.628 103.423 235.448 103.319C228.949 99.5446 221.035 99.2457 214.279 102.514C208.857 105.139 204.78 109.719 202.799 115.409C200.821 121.096 201.174 127.22 203.799 132.642C209.217 143.835 222.729 148.537 233.926 143.123C239.349 140.498 243.43 135.918 245.407 130.228C247.384 124.537 247.032 118.417 244.407 112.995C244.315 112.803 244.392 112.581 244.583 112.485C244.771 112.397 244.997 112.474 245.089 112.666C247.802 118.268 248.17 124.595 246.124 130.477C244.077 136.359 239.866 141.092 234.256 143.805C230.995 145.383 227.542 146.131 224.139 146.131Z" fill="#00D4FF"/>
<path d="M228.324 135.49L226.983 132.712C224.982 133.574 222.829 133.969 221.407 133.861L220.629 130.018C222.181 130.094 224.201 129.876 226.101 128.956C227.768 128.148 228.596 126.956 228.029 125.787C227.492 124.676 226.22 124.427 223.703 124.741C220.066 125.205 217.226 124.776 215.855 121.94C214.609 119.369 215.448 116.475 218.276 114.349L216.931 111.57L219.798 110.187L221.039 112.758C223.043 111.9 224.557 111.67 225.745 111.67L226.496 115.383C225.58 115.429 223.91 115.41 221.806 116.426C219.909 117.345 219.69 118.464 220.085 119.28C220.553 120.242 221.871 120.361 224.81 120.097C228.88 119.641 231.06 120.568 232.336 123.201C233.593 125.799 232.827 128.91 229.75 131.125L231.19 134.103L228.324 135.49Z" fill="#00D4FF"/>
<path d="M304.283 112.026C296.048 119.97 282.931 119.733 274.987 111.498C267.047 103.263 267.285 90.1455 275.52 82.2016C283.755 74.2578 296.872 74.4954 304.816 82.7343C312.756 90.9693 312.518 104.086 304.283 112.026Z" fill="#1D232B"/>
<path d="M289.898 76.7862C284.812 76.7862 279.723 78.6754 275.78 82.4768C267.71 90.2597 267.476 103.158 275.263 111.232C279.03 115.145 284.103 117.352 289.533 117.452C294.971 117.544 300.11 115.528 304.019 111.754C307.931 107.983 310.138 102.913 310.238 97.4831C310.334 92.0531 308.314 86.9067 304.544 82.9941C300.558 78.8632 295.232 76.7862 289.898 76.7862ZM289.913 118.214C289.783 118.214 289.652 118.211 289.518 118.211C283.885 118.107 278.627 115.819 274.715 111.757C266.641 103.384 266.882 90.0029 275.255 81.9288C283.632 73.8547 297.014 74.0961 305.088 82.4691C309 86.5234 311.096 91.8653 310.997 97.4984C310.893 103.132 308.606 108.389 304.547 112.302C300.585 116.122 295.4 118.214 289.913 118.214Z" fill="#00D4FF"/>
<path d="M301.398 109.033C294.815 115.383 284.33 115.195 277.984 108.611C271.634 102.028 271.822 91.5434 278.41 85.1937C284.993 78.844 295.474 79.0356 301.823 85.6191C308.173 92.2025 307.981 102.683 301.398 109.033Z" fill="#1D232B"/>
<path d="M289.914 114.578C289.803 114.578 289.695 114.578 289.584 114.574C284.921 114.49 280.571 112.593 277.329 109.236C270.646 102.304 270.849 91.2254 277.778 84.5423C281.138 81.308 285.561 79.5721 290.22 79.6526C294.884 79.7369 299.233 81.6337 302.471 84.9906C306.507 89.1752 308.193 95.0689 306.982 100.759C306.94 100.963 306.74 101.097 306.533 101.051C306.33 101.009 306.196 100.805 306.242 100.602C307.399 95.157 305.786 89.5163 301.927 85.5156C298.827 82.3082 294.665 80.4918 290.205 80.4113C285.741 80.327 281.518 81.9901 278.306 85.0903C271.677 91.4859 271.485 102.082 277.877 108.711C280.977 111.922 285.135 113.735 289.6 113.819C294.064 113.896 298.287 112.236 301.498 109.14C301.651 108.995 301.889 108.998 302.035 109.148C302.18 109.301 302.176 109.539 302.027 109.684C298.747 112.846 294.455 114.578 289.914 114.578Z" fill="#00D4FF"/>
<path d="M281.912 103.04L283.563 101.446C282.494 100.231 281.712 98.7937 281.459 97.7629L284 96.3221C284.303 97.4372 284.927 98.8206 286.02 99.951C286.978 100.944 288.016 101.254 288.71 100.579C289.373 99.9434 289.254 98.9853 288.445 97.2762C287.277 94.8084 286.92 92.7008 288.61 91.0683C290.143 89.593 292.385 89.5125 294.546 91.0262L296.198 89.4282L297.841 91.1335L296.312 92.6127C297.385 93.8274 297.899 94.8467 298.175 95.6898L295.719 97.0846C295.473 96.4447 295.102 95.2568 293.891 94.0037C292.802 92.8732 291.963 92.9767 291.473 93.448C290.902 93.9999 291.124 94.9655 291.99 96.9812C293.258 99.7594 293.109 101.518 291.538 103.028C289.99 104.523 287.61 104.699 285.33 103.036L283.556 104.745L281.912 103.04Z" fill="#00D4FF"/>
<path d="M163.03 14.7077C162.85 14.7077 162.693 14.5774 162.662 14.3935C162.624 14.1865 162.758 13.9911 162.965 13.9528C167.15 13.194 171.464 12.5618 175.799 12.0751C176.005 12.0521 176.197 12.2015 176.22 12.4123C176.243 12.6192 176.094 12.807 175.883 12.83C171.568 13.3128 167.268 13.9451 163.099 14.7C163.076 14.7039 163.053 14.7077 163.03 14.7077Z" fill="#00D4FF"/>
<path d="M110.401 34.7381C110.286 34.7381 110.175 34.6883 110.102 34.5925C109.972 34.4277 110.003 34.1901 110.168 34.0598C110.317 33.9449 125.212 22.5714 154.029 15.8116C154.232 15.7618 154.435 15.8883 154.485 16.0914C154.531 16.2983 154.405 16.5014 154.202 16.5474C125.561 23.2688 110.777 34.5465 110.631 34.6615C110.562 34.7113 110.482 34.7381 110.401 34.7381Z" fill="#00D4FF"/>
<path d="M87.2948 34.0403C87.176 34.0403 87.0572 33.9828 86.9844 33.8755C86.8656 33.7069 86.9077 33.4693 87.0802 33.3505C87.1683 33.2892 96.2081 27.0315 111.226 20.4212C125.086 14.3206 147.025 6.65266 172.841 4.77496C173.052 4.75963 173.232 4.91674 173.248 5.12751C173.263 5.33444 173.106 5.51838 172.899 5.52987C147.197 7.39991 125.355 15.0333 111.552 21.1071C96.5951 27.6867 87.6013 33.91 87.5132 33.9713C87.4481 34.0173 87.3714 34.0403 87.2948 34.0403Z" fill="#00D4FF"/>
<path d="M278.701 28.5833C278.593 28.5833 278.49 28.5449 278.417 28.4606C268.603 17.5546 254.655 13.4237 254.517 13.3815C254.317 13.3241 254.199 13.1133 254.26 12.914C254.317 12.7109 254.524 12.596 254.727 12.6535C254.869 12.6956 269.025 16.8879 278.98 27.951C279.118 28.1081 279.107 28.3457 278.95 28.4875C278.881 28.5526 278.789 28.5833 278.701 28.5833Z" fill="#00D4FF"/>
<path d="M21.6355 197.737C21.4937 197.737 21.3558 197.657 21.2906 197.515C9.26567 171.162 8.69086 146.572 10.331 130.584C12.1052 113.256 16.7956 102.005 16.8416 101.894C16.9221 101.698 17.1443 101.61 17.336 101.691C17.5314 101.771 17.6195 101.994 17.539 102.185C17.4931 102.3 12.8448 113.471 11.0821 130.692C9.45727 146.576 10.0321 171.012 21.9804 197.201C22.0685 197.392 21.9842 197.615 21.7926 197.703C21.7428 197.726 21.6892 197.737 21.6355 197.737Z" fill="#00D4FF"/>
<path d="M43.3674 203.171C43.2448 203.171 43.1222 203.11 43.0493 202.998C41.7273 200.99 40.4436 198.94 39.2326 196.894C39.1253 196.718 39.1866 196.484 39.3667 196.377C39.5469 196.269 39.7806 196.331 39.8879 196.511C41.0873 198.542 42.3672 200.584 43.6816 202.581C43.7966 202.757 43.7506 202.991 43.5743 203.106C43.5092 203.148 43.4364 203.171 43.3674 203.171Z" fill="#00D4FF"/>
<path d="M33.4884 185.655C33.3466 185.655 33.2087 185.575 33.1435 185.437C27.5756 173.645 23.9236 161.482 22.2874 149.285C22.2605 149.078 22.4062 148.887 22.6131 148.86C22.82 148.833 23.0116 148.975 23.0384 149.182C24.6632 161.302 28.296 173.392 33.8295 185.111C33.9214 185.302 33.8371 185.529 33.6494 185.617C33.5957 185.643 33.5421 185.655 33.4884 185.655Z" fill="#00D4FF"/>
<path d="M21.8389 140.671C21.6358 140.671 21.4711 140.514 21.4596 140.315C20.8234 127.715 22.728 119.806 22.751 119.729C22.8008 119.526 23.0039 119.403 23.207 119.453C23.4101 119.503 23.5365 119.71 23.4867 119.909C23.4675 119.989 21.586 127.799 22.2145 140.276C22.226 140.483 22.065 140.663 21.8543 140.671C21.8504 140.671 21.8428 140.671 21.8389 140.671Z" fill="#00D4FF"/>
<path d="M122.878 43.6469C121.728 43.6469 120.79 44.5858 120.79 45.7392C120.79 46.8888 121.728 47.8277 122.878 47.8277C124.031 47.8277 124.97 46.8888 124.97 45.7392C124.97 44.5858 124.031 43.6469 122.878 43.6469ZM122.878 48.5864C121.307 48.5864 120.031 47.3065 120.031 45.7392C120.031 44.1681 121.307 42.8882 122.878 42.8882C124.449 42.8882 125.729 44.1681 125.729 45.7392C125.729 47.3065 124.449 48.5864 122.878 48.5864Z" fill="#00D4FF"/>
<path d="M232.134 21.2065C231.299 21.2065 230.621 21.8886 230.621 22.724C230.621 23.5594 231.299 24.2376 232.134 24.2376C232.97 24.2376 233.648 23.5594 233.648 22.724C233.648 21.8886 232.97 21.2065 232.134 21.2065ZM232.134 24.9964C230.881 24.9964 229.862 23.9771 229.862 22.724C229.862 21.4671 230.881 20.4478 232.134 20.4478C233.387 20.4478 234.407 21.4671 234.407 22.724C234.407 23.9771 233.387 24.9964 232.134 24.9964Z" fill="#00D4FF"/>
<path d="M227.581 278.98C226.723 278.98 226.022 279.681 226.022 280.54C226.022 281.402 226.723 282.099 227.581 282.099C228.443 282.099 229.145 281.402 229.145 280.54C229.145 279.681 228.443 278.98 227.581 278.98ZM227.581 282.858C226.305 282.858 225.267 281.819 225.267 280.54C225.267 279.264 226.305 278.221 227.581 278.221C228.861 278.221 229.9 279.264 229.9 280.54C229.9 281.819 228.861 282.858 227.581 282.858Z" fill="#00D4FF"/>
<path d="M216.223 16.271C214.606 16.271 213.288 17.5892 213.288 19.2101C213.288 20.8273 214.606 22.1455 216.223 22.1455C217.844 22.1455 219.163 20.8273 219.163 19.2101C219.163 17.5892 217.844 16.271 216.223 16.271ZM216.223 22.9042C214.189 22.9042 212.529 21.2449 212.529 19.2101C212.529 17.1715 214.189 15.5122 216.223 15.5122C218.262 15.5122 219.921 17.1715 219.921 19.2101C219.921 21.2449 218.262 22.9042 216.223 22.9042Z" fill="#00D4FF"/>
<mask id="mask4_239_11689" style="mask-type:luminance" maskUnits="userSpaceOnUse" x="64" y="0" width="4" height="3">
<path d="M64.6851 0H67.6281V2.67093H64.6851V0Z" fill="white"/>
</mask>
<g mask="url(#mask4_239_11689)">
<path d="M66.9233 2.38272C66.8275 2.38272 66.7278 2.3444 66.655 2.27159L65.0647 0.677456C64.9153 0.531838 64.9153 0.29042 65.0647 0.144802C65.2103 -0.0046474 65.4518 -0.0046474 65.6012 0.144802L67.1915 1.7351C67.341 1.88072 67.341 2.12214 67.1915 2.27159C67.1187 2.3444 67.0191 2.38272 66.9233 2.38272Z" fill="#00D4FF"/>
</g>
<path d="M72.4906 7.95156C72.3948 7.95156 72.2952 7.91324 72.2224 7.84043L70.6321 6.25014C70.4827 6.10069 70.4827 5.8631 70.6321 5.71365C70.7777 5.5642 71.0191 5.5642 71.1686 5.71365L72.7589 7.30395C72.9045 7.4534 72.9045 7.69098 72.7589 7.84043C72.6861 7.91324 72.5865 7.95156 72.4906 7.95156Z" fill="#00D4FF"/>
<path d="M65.333 7.95156C65.2333 7.95156 65.1375 7.91324 65.0647 7.84043C64.9153 7.69098 64.9153 7.4534 65.0647 7.30395L66.655 5.71365C66.8006 5.5642 67.0421 5.5642 67.1915 5.71365C67.3371 5.8631 67.3371 6.10069 67.1915 6.25014L65.6012 7.84043C65.5246 7.91324 65.4288 7.95156 65.333 7.95156Z" fill="#00D4FF"/>
<mask id="mask5_239_11689" style="mask-type:luminance" maskUnits="userSpaceOnUse" x="69" y="0" width="5" height="3">
<path d="M69.5894 0H73.5134V2.67093H69.5894V0Z" fill="white"/>
</mask>
<g mask="url(#mask5_239_11689)">
<path d="M70.9004 2.38272C70.8045 2.38272 70.7049 2.3444 70.6321 2.27159C70.4827 2.12214 70.4827 1.88072 70.6321 1.7351L72.2224 0.144802C72.3719 -0.0046474 72.6094 -0.0046474 72.7589 0.144802C72.9083 0.29042 72.9083 0.531838 72.7589 0.677456L71.1686 2.27159C71.0958 2.3444 70.9962 2.38272 70.9004 2.38272Z" fill="#00D4FF"/>
</g>
<path d="M256.474 62.0292C256.379 62.0292 256.283 61.9908 256.206 61.9219L255.064 60.7761C254.919 60.6305 254.919 60.3891 255.064 60.2434C255.214 60.094 255.451 60.094 255.601 60.2434L256.743 61.3816C256.888 61.531 256.888 61.7724 256.743 61.9219C256.666 61.9908 256.57 62.0292 256.474 62.0292Z" fill="#00D4FF"/>
<path d="M260.472 66.0262C260.376 66.0262 260.28 65.9878 260.203 65.915L259.061 64.7731C258.916 64.6236 258.916 64.386 259.061 64.2366C259.211 64.0871 259.448 64.0871 259.598 64.2366L260.74 65.3785C260.885 65.528 260.885 65.7656 260.74 65.915C260.667 65.9878 260.567 66.0262 260.472 66.0262Z" fill="#00D4FF"/>
<path d="M255.333 66.0262C255.237 66.0262 255.137 65.9879 255.064 65.9151C254.919 65.7695 254.919 65.5281 255.064 65.3786L256.206 64.2367C256.352 64.091 256.593 64.091 256.743 64.2367C256.888 64.3861 256.888 64.6237 256.743 64.7731L255.601 65.9151C255.528 65.9879 255.428 66.0262 255.333 66.0262Z" fill="#00D4FF"/>
<path d="M259.33 62.0292C259.234 62.0292 259.134 61.9908 259.061 61.918C258.916 61.7724 258.916 61.531 259.061 61.3816L260.203 60.2434C260.353 60.094 260.594 60.094 260.74 60.2434C260.885 60.3891 260.885 60.6305 260.74 60.7761L259.598 61.918C259.521 61.9908 259.425 62.0292 259.33 62.0292Z" fill="#00D4FF"/>
<path d="M197.538 19.4397C197.439 19.4397 197.343 19.4052 197.27 19.3286L195.921 17.9835C195.772 17.8341 195.772 17.5927 195.921 17.447C196.067 17.2976 196.308 17.2976 196.458 17.447L197.803 18.7921C197.952 18.9415 197.952 19.183 197.803 19.3286C197.73 19.4052 197.634 19.4397 197.538 19.4397Z" fill="#00D4FF"/>
<path d="M202.256 24.157C202.156 24.157 202.06 24.1187 201.987 24.0458L200.638 22.697C200.489 22.5475 200.489 22.3099 200.638 22.1605C200.784 22.0149 201.029 22.0149 201.175 22.1605L202.524 23.5094C202.669 23.6588 202.669 23.8964 202.524 24.0458C202.447 24.1187 202.351 24.157 202.256 24.157Z" fill="#00D4FF"/>
<path d="M196.189 24.157C196.093 24.157 195.997 24.1187 195.921 24.0458C195.775 23.8964 195.775 23.6588 195.921 23.5094L197.27 22.1605C197.419 22.0149 197.657 22.0149 197.802 22.1605C197.952 22.3099 197.952 22.5475 197.802 22.697L196.457 24.0458C196.381 24.1187 196.285 24.157 196.189 24.157Z" fill="#00D4FF"/>
<path d="M200.906 19.4397C200.81 19.4397 200.711 19.4052 200.634 19.3286C200.488 19.183 200.488 18.9415 200.634 18.7921L201.983 17.447C202.132 17.2976 202.374 17.2976 202.519 17.447C202.669 17.5927 202.669 17.8341 202.519 17.9835L201.171 19.3286C201.098 19.4052 201.002 19.4397 200.906 19.4397Z" fill="#00D4FF"/>
<path d="M244.549 266.105C244.454 266.105 244.354 266.067 244.281 265.994L242.702 264.411C242.553 264.266 242.553 264.024 242.702 263.875C242.848 263.729 243.089 263.729 243.235 263.875L244.818 265.457C244.967 265.607 244.967 265.845 244.818 265.994C244.745 266.067 244.649 266.105 244.549 266.105Z" fill="#00D4FF"/>
<path d="M250.087 271.638C249.987 271.638 249.892 271.6 249.819 271.527L248.236 269.945C248.087 269.799 248.087 269.558 248.236 269.412C248.386 269.262 248.623 269.262 248.773 269.412L250.351 270.991C250.501 271.14 250.501 271.378 250.351 271.527C250.279 271.6 250.183 271.638 250.087 271.638Z" fill="#00D4FF"/>
<path d="M242.971 271.638C242.871 271.638 242.775 271.6 242.702 271.527C242.553 271.378 242.553 271.14 242.702 270.991L244.281 269.412C244.431 269.262 244.672 269.262 244.818 269.412C244.967 269.558 244.967 269.799 244.818 269.945L243.235 271.527C243.162 271.6 243.066 271.638 242.971 271.638Z" fill="#00D4FF"/>
<path d="M248.504 266.105C248.405 266.105 248.309 266.067 248.236 265.99C248.087 265.845 248.087 265.607 248.236 265.457L249.819 263.875C249.964 263.729 250.206 263.729 250.351 263.875C250.501 264.024 250.501 264.266 250.351 264.411L248.773 265.99C248.7 266.067 248.6 266.105 248.504 266.105Z" fill="#00D4FF"/>
<path d="M116.46 249.953C114.283 249.953 112.513 248.183 112.513 246.006C112.513 245.795 112.685 245.627 112.892 245.627C113.103 245.627 113.271 245.795 113.271 246.006C113.271 247.765 114.701 249.194 116.46 249.194C118.219 249.194 119.648 247.765 119.648 246.006C119.648 244.247 118.219 242.818 116.46 242.818C116.253 242.818 116.08 242.649 116.08 242.438C116.08 242.228 116.253 242.059 116.46 242.059C118.636 242.059 120.407 243.829 120.407 246.006C120.407 248.183 118.636 249.953 116.46 249.953Z" fill="#00D4FF"/>
<path d="M95.717 56.1932C95.717 57.9636 94.28 59.4044 92.5058 59.4044C90.7354 59.4044 89.2983 57.9636 89.2983 56.1932C89.2983 54.4189 90.7354 52.9819 92.5058 52.9819C94.28 52.9819 95.717 54.4189 95.717 56.1932Z" fill="#00D4FF"/>
<path d="M298.205 273.416C298.205 275.191 296.768 276.628 294.998 276.628C293.22 276.628 291.787 275.191 291.787 273.416C291.787 271.642 293.22 270.205 294.998 270.205C296.768 270.205 298.205 271.642 298.205 273.416Z" fill="#00D4FF"/>
<path d="M180.416 134.11C180.278 134.11 180.14 134.029 180.075 133.891L173.902 120.889C173.81 120.698 173.89 120.472 174.082 120.383C174.27 120.295 174.496 120.376 174.584 120.563L180.757 133.569C180.849 133.757 180.769 133.983 180.581 134.071C180.527 134.098 180.47 134.11 180.416 134.11Z" fill="#00D4FF"/>
<path d="M176.55 136.332C176.481 136.332 176.416 136.313 176.355 136.279L149.519 120.142C149.343 120.039 149.281 119.801 149.389 119.625C149.496 119.445 149.73 119.387 149.91 119.494L176.745 135.627C176.922 135.738 176.983 135.968 176.872 136.148C176.803 136.267 176.677 136.332 176.55 136.332Z" fill="#00D4FF"/>
<path d="M174.903 140.943C174.888 140.943 174.872 140.939 174.853 140.939L166.128 139.786C165.921 139.759 165.775 139.567 165.802 139.36C165.829 139.153 166.02 139.008 166.227 139.034L174.953 140.188C175.16 140.215 175.305 140.406 175.279 140.613C175.256 140.805 175.091 140.943 174.903 140.943Z" fill="#00D4FF"/>
</svg>
