<svg width="27" height="32" viewBox="0 0 27 32" fill="none" xmlns="http://www.w3.org/2000/svg">
<g clip-path="url(#clip0_239_12573)">
<path d="M22.9047 2.49077C21.4351 0.807909 18.7785 0.0864258 15.38 0.0864258H5.51655C5.18028 0.0863737 4.85503 0.206872 4.5993 0.426246C4.34358 0.64562 4.17415 0.94947 4.12152 1.28314L0.0145639 27.4518C-0.067069 27.9679 0.330654 28.4351 0.851248 28.4351H6.94059L8.46989 18.6899L8.42243 18.995C8.53138 18.3062 9.11778 17.7981 9.81219 17.7981H12.7058C18.3904 17.7981 22.8415 15.4784 24.1417 8.76807C24.1803 8.5696 24.2137 8.37644 24.2426 8.18772C24.0785 8.10041 24.0785 8.10041 24.2426 8.18772C24.6298 5.70751 24.24 4.01925 22.9047 2.49077Z" fill="#27346A"/>
<path d="M10.7999 7.29427C10.9663 7.2145 11.1484 7.17323 11.3328 7.17347H19.0656C19.9813 7.17347 20.8354 7.23334 21.6158 7.35954C21.8342 7.39455 22.0515 7.43632 22.2673 7.48478C22.5732 7.55261 22.8756 7.63561 23.1733 7.73347C23.557 7.86221 23.9143 8.01215 24.2427 8.18772C24.6298 5.70656 24.24 4.01925 22.9047 2.49077C21.4342 0.807909 18.7785 0.0864258 15.38 0.0864258H5.51571C4.8212 0.0864258 4.23036 0.594399 4.12152 1.28314L0.0145644 27.4509C-0.0670684 27.9678 0.330654 28.4344 0.850404 28.4344H6.94059L10.1134 8.22036C10.1446 8.02168 10.2234 7.8336 10.343 7.67228C10.4626 7.51096 10.6194 7.38124 10.7999 7.29427Z" fill="#27346A"/>
<path d="M24.1417 8.76833C22.8415 15.4777 18.3905 17.7984 12.7058 17.7984H9.81136C9.11695 17.7984 8.53044 18.3065 8.42254 18.9953L6.51999 31.1124C6.44891 31.564 6.79653 31.9732 7.25131 31.9732H12.3845C12.6785 31.9731 12.9629 31.8677 13.1864 31.6757C13.41 31.4838 13.5581 31.2181 13.604 30.9263L13.654 30.6635L14.6215 24.5034L14.6838 24.163C14.7298 23.8712 14.8778 23.6055 15.1013 23.4136C15.3249 23.2217 15.6092 23.1162 15.9032 23.1161H16.6715C21.644 23.1161 25.5376 21.0865 26.6754 15.2168C27.1503 12.7638 26.9046 10.7158 25.6482 9.27726C25.2672 8.84155 24.7939 8.48171 24.2426 8.18799C24.2128 8.37766 24.1804 8.56987 24.1417 8.76833Z" fill="#2790C3"/>
<path d="M22.8815 7.64264C22.6787 7.58317 22.4741 7.53051 22.2678 7.48476C22.0519 7.43707 21.8347 7.39558 21.6164 7.36036C20.835 7.23332 19.9816 7.17334 19.0651 7.17334H11.3333C11.1488 7.17303 10.9666 7.21465 10.8003 7.29509C10.6196 7.38175 10.4626 7.51138 10.3429 7.67275C10.2233 7.83413 10.1446 8.02237 10.1137 8.22118L8.47031 18.6898L8.42285 18.995C8.53096 18.3062 9.11736 17.7981 9.81187 17.7981H12.7064C18.3909 17.7981 22.8419 15.4784 24.1421 8.76804C24.1808 8.56958 24.2133 8.37726 24.2432 8.1877C23.914 8.01322 23.5575 7.86208 23.1737 7.7343C23.0769 7.70204 22.9795 7.67148 22.8816 7.64264" fill="#1F264F"/>
</g>
<defs>
<clipPath id="clip0_239_12573">
<rect width="27" height="32" fill="white"/>
</clipPath>
</defs>
</svg>
