<svg width="225" height="169" viewBox="0 0 225 169" fill="none" xmlns="http://www.w3.org/2000/svg">
<g opacity="0.5">
<path d="M31.9596 110.794C49.6104 110.794 63.9192 96.485 63.9192 78.834C63.9192 61.1831 49.6104 46.8741 31.9596 46.8741C14.3088 46.8741 0 61.1831 0 78.834C0 96.485 14.3088 110.794 31.9596 110.794Z" fill="#3DA0A7"/>
<path d="M63.6059 74.3903C63.5184 75.4978 63.3839 76.6044 63.1709 77.7021C62.0832 83.2867 59.3843 88.6096 56.2829 93.3503C53.5695 97.4989 50.1621 101.664 45.0378 102.65C43.4763 102.951 42.144 102.579 41.1547 101.826C38.7717 102.488 36.3743 102.822 33.7811 102.778C27.1061 102.665 20.0475 101.99 14.0206 98.8781C8.04153 95.7901 4.21436 91.2498 1.94604 84.9792C1.24379 83.0385 0.551465 81.0066 0.00537109 78.9351C0.0586266 96.5412 14.3446 110.798 31.9623 110.798C49.6133 110.798 63.9219 96.4888 63.9219 78.8376C63.92 77.3266 63.8081 75.8435 63.6059 74.3903Z" fill="#2B8C93"/>
<path d="M31.9607 109.8C49.0622 109.8 62.9256 95.9364 62.9256 78.8348C62.9256 61.7332 49.0622 47.8696 31.9607 47.8696C14.8593 47.8696 0.99585 61.7332 0.99585 78.8348C0.99585 95.9364 14.8593 109.8 31.9607 109.8Z" fill="white"/>
<path d="M31.9601 109.228C48.7465 109.228 62.3545 95.6202 62.3545 78.8337C62.3545 62.0471 48.7465 48.439 31.9601 48.439C15.1737 48.439 1.56567 62.0471 1.56567 78.8337C1.56567 95.6202 15.1737 109.228 31.9601 109.228Z" fill="#BCE5E8"/>
<path d="M19.2905 106.461C23.1484 108.234 27.4377 109.229 31.9617 109.229C48.748 109.229 62.3562 95.6211 62.3562 78.8347C62.3562 69.1258 57.7988 60.4875 50.7122 54.9227C51.409 58.5252 51.6536 62.2414 51.8829 65.9142C52.1329 69.9265 52.3802 73.9866 51.6455 77.9383C50.7383 82.8189 48.3707 87.3132 45.6231 91.4482C42.6246 95.9614 39.0637 100.215 34.5126 103.156C30.0373 106.048 24.496 107.561 19.2905 106.461Z" fill="#8FD2D7"/>
<path d="M31.9572 103.229C45.4295 103.229 56.3509 92.3075 56.3509 78.8351C56.3509 65.3627 45.4295 54.4412 31.9572 54.4412C18.4849 54.4412 7.56348 65.3627 7.56348 78.8351C7.56348 92.3075 18.4849 103.229 31.9572 103.229Z" fill="#FFF6FA"/>
<path d="M31.9574 102.184C44.8519 102.184 55.305 91.7304 55.305 78.8358C55.305 65.9412 44.8519 55.488 31.9574 55.488C19.0629 55.488 8.60986 65.9412 8.60986 78.8358C8.60986 91.7304 19.0629 102.184 31.9574 102.184Z" fill="#ADDFE2"/>
<path d="M46.8931 93.7699C55.1412 85.5218 55.1412 72.1489 46.8931 63.9007C38.645 55.6525 25.2722 55.6525 17.0241 63.9007C8.776 72.1489 8.776 85.5218 17.0241 93.7699C25.2722 102.018 38.645 102.018 46.8931 93.7699Z" fill="#FFF6FA"/>
<path d="M51.8213 80.2107C52.2491 68.8993 43.7062 59.3934 32.7402 58.9785C21.7741 58.5637 12.5375 67.3971 12.1097 78.7085C11.6818 90.0199 20.2247 99.5258 31.1907 99.9407C42.1568 100.355 51.3934 91.5221 51.8213 80.2107Z" fill="#F8D581"/>
<path d="M45.4515 72.0209C46.8383 72.0209 47.9626 71.2296 47.9626 70.2535C47.9626 69.2775 46.8383 68.4862 45.4515 68.4862C44.0647 68.4862 42.9404 69.2775 42.9404 70.2535C42.9404 71.2296 44.0647 72.0209 45.4515 72.0209Z" fill="#FFA25F"/>
<path d="M17.4228 85.0123C17.2793 86.0449 17.9129 87.1344 18.8805 87.5216C18.5276 88.4134 18.3913 89.3891 18.4852 90.3432C19.3779 90.614 20.3455 90.6302 21.2463 90.391C21.2327 91.2449 21.5423 92.0988 22.0992 92.746C23.4802 92.3479 24.7141 91.4092 25.3911 90.141C26.0689 88.8737 26.1565 87.2878 25.549 85.9854C25.4028 85.6731 25.2114 85.3689 24.9262 85.1757C24.5589 84.9275 24.0904 84.895 23.6472 84.8896C22.7988 84.8797 21.9494 84.941 21.1109 85.0719L17.4228 85.0123Z" fill="#7AAE56"/>
<path d="M24.7432 84.7031C22.4163 83.6985 19.6326 83.8221 17.4041 85.028C18.0729 86.0363 18.9719 86.891 20.0144 87.5066C19.3645 88.2829 18.9349 89.2415 18.7878 90.2434C19.8555 90.4158 20.9721 90.2713 21.9613 89.8327C21.8214 90.6992 22.0426 91.618 22.5607 92.3257C23.874 91.7543 24.93 90.6179 25.4021 89.2658C25.8751 87.9137 25.7568 86.3666 25.0853 85.102L24.7432 84.7031Z" fill="#85BB61"/>
<path d="M24.3224 82.6173C26.3064 82.6173 27.9148 81.5011 27.9148 80.1243C27.9148 78.7474 26.3064 77.6312 24.3224 77.6312C22.3383 77.6312 20.73 78.7474 20.73 80.1243C20.73 81.5011 22.3383 82.6173 24.3224 82.6173Z" fill="#FFA25F"/>
<path d="M36.0827 75.0872C37.316 75.0872 38.3157 74.5401 38.3157 73.8651C38.3157 73.1901 37.316 72.6429 36.0827 72.6429C34.8494 72.6429 33.8496 73.1901 33.8496 73.8651C33.8496 74.5401 34.8494 75.0872 36.0827 75.0872Z" fill="#FFA25F"/>
<path d="M28.7464 97.7053C31.5654 97.7053 33.8506 96.8029 33.8506 95.6898C33.8506 94.5766 31.5654 93.6742 28.7464 93.6742C25.9273 93.6742 23.6421 94.5766 23.6421 95.6898C23.6421 96.8029 25.9273 97.7053 28.7464 97.7053Z" fill="#FFA25F"/>
<path d="M15.2579 78.3372C16.4423 78.3372 17.4025 77.6098 17.4025 76.7125C17.4025 75.8152 16.4423 75.0878 15.2579 75.0878C14.0735 75.0878 13.1133 75.8152 13.1133 76.7125C13.1133 77.6098 14.0735 78.3372 15.2579 78.3372Z" fill="#FFA25F"/>
<path d="M46.7023 87.7848C48.1246 87.7848 49.2775 86.9438 49.2775 85.9064C49.2775 84.869 48.1246 84.0281 46.7023 84.0281C45.2801 84.0281 44.1272 84.869 44.1272 85.9064C44.1272 86.9438 45.2801 87.7848 46.7023 87.7848Z" fill="#FFA25F"/>
<path d="M24.8395 84.7518C22.7725 84.6732 20.7001 84.7698 18.6494 85.0397C19.7687 85.7907 21.1505 86.1418 22.4927 86.0145C21.6145 87.3116 20.6631 88.559 19.645 89.7487C20.7994 89.3253 21.7309 88.4669 22.6308 87.6293C22.6471 88.8686 22.6642 90.1088 22.6805 91.3481C22.8384 91.3797 22.9485 91.2001 23.0081 91.0512C23.6968 89.3145 24.3864 87.5725 24.8675 85.7672L24.8395 84.7518Z" fill="#98C779"/>
<path d="M30.7358 87.5442C31.7566 87.3321 32.5699 86.3699 32.6096 85.3283C33.5682 85.3608 34.5331 85.1622 35.4005 84.7533C35.3554 83.8218 35.0467 82.9047 34.5177 82.1366C35.3265 81.8622 36.0269 81.2836 36.4493 80.5417C35.6108 79.3746 34.3119 78.5279 32.8903 78.3158C31.4687 78.1037 29.9451 78.5532 28.9234 79.5633C28.6778 79.8052 28.4558 80.0886 28.3701 80.4216C28.259 80.8513 28.3863 81.3026 28.5307 81.7223C28.8069 82.5247 29.149 83.3037 29.5543 84.0502L30.7358 87.5442Z" fill="#7AAE56"/>
<path d="M27.9887 80.7536C27.8244 83.2828 28.8751 85.8634 30.7597 87.5576C31.4854 86.5891 31.9873 85.4545 32.2174 84.2666C33.167 84.6186 34.214 84.7008 35.2069 84.5031C35.011 83.4398 34.4992 82.4361 33.7537 81.6526C34.6166 81.4929 35.4072 80.9766 35.9001 80.2509C34.9207 79.2056 33.4955 78.5928 32.064 78.6018C30.6315 78.6108 29.2144 79.2408 28.2487 80.2987L27.9887 80.7536Z" fill="#85BB61"/>
<path d="M28.0024 80.6511C28.6225 82.6243 29.4105 84.5441 30.3528 86.3855C30.685 85.0794 30.5505 83.6595 29.981 82.4374C31.4973 82.8291 32.9921 83.3057 34.4543 83.8654C33.6681 82.9203 32.5471 82.3309 31.4558 81.765C32.6175 81.3335 33.7801 80.9012 34.9417 80.4697C34.9191 80.3109 34.7124 80.2666 34.5518 80.2612C32.6843 80.1962 30.8123 80.1312 28.9502 80.2847L28.0024 80.6511Z" fill="#98C779"/>
<path d="M27.7878 56.1832C28.4693 56.1832 29.0217 55.7932 29.0217 55.3122C29.0217 54.8311 28.4693 54.4412 27.7878 54.4412C27.1064 54.4412 26.554 54.8311 26.554 55.3122C26.554 55.7932 27.1064 56.1832 27.7878 56.1832Z" fill="white"/>
<path d="M35.8967 55.168C35.8967 55.5281 35.4382 55.8206 34.8732 55.8206C34.3081 55.8206 33.8496 55.5281 33.8496 55.168C33.8496 54.8078 34.3081 54.5154 34.8732 54.5154C35.4382 54.5154 35.8967 54.8069 35.8967 55.168Z" fill="white"/>
<path d="M21.6528 100.323C21.5129 100.715 20.9406 100.869 20.3747 100.666C19.8088 100.462 19.464 99.9814 19.6039 99.5896C19.7438 99.1979 20.316 99.0445 20.882 99.2475C21.4479 99.4497 21.7927 99.9317 21.6528 100.323Z" fill="white"/>
<path d="M24.2528 70.4864C24.5908 70.4864 24.8648 70.0386 24.8648 69.4863C24.8648 68.934 24.5908 68.4862 24.2528 68.4862C23.9149 68.4862 23.6409 68.934 23.6409 69.4863C23.6409 70.0386 23.9149 70.4864 24.2528 70.4864Z" fill="#C1554D"/>
<path d="M18.6433 73.7509C18.6433 74.1029 18.3653 74.3881 18.0232 74.3881C17.6811 74.3881 17.4031 74.1029 17.4031 73.7509C17.4031 73.3989 17.6811 73.1136 18.0232 73.1136C18.3662 73.1136 18.6433 73.3989 18.6433 73.7509Z" fill="#C1554D"/>
<path d="M19.5737 80.5321C19.5737 80.8877 19.367 81.1765 19.1116 81.1765C18.8561 81.1765 18.6494 80.8886 18.6494 80.5321C18.6494 80.1755 18.8561 79.8876 19.1116 79.8876C19.367 79.8885 19.5737 80.1764 19.5737 80.5321Z" fill="#C1554D"/>
<path d="M43.5325 78.3382C43.8596 78.3382 44.1247 77.9745 44.1247 77.5259C44.1247 77.0772 43.8596 76.7135 43.5325 76.7135C43.2055 76.7135 42.9404 77.0772 42.9404 77.5259C42.9404 77.9745 43.2055 78.3382 43.5325 78.3382Z" fill="#C1554D"/>
<path d="M43.5321 89.4265C43.5321 89.7623 43.3633 90.0348 43.1557 90.0348C42.9481 90.0348 42.7793 89.7623 42.7793 89.4265C42.7793 89.0907 42.9481 88.8181 43.1557 88.8181C43.3633 88.8172 43.5321 89.0898 43.5321 89.4265Z" fill="#C1554D"/>
<path d="M34.8732 89.4265C34.8732 89.7623 34.6439 90.0348 34.3614 90.0348C34.0789 90.0348 33.8496 89.7623 33.8496 89.4265C33.8496 89.0907 34.0789 88.8181 34.3614 88.8181C34.6439 88.8172 34.8732 89.0898 34.8732 89.4265Z" fill="#C1554D"/>
<path d="M27.8393 89.4285C28.3398 89.4285 28.7455 89.1485 28.7455 88.803C28.7455 88.4575 28.3398 88.1775 27.8393 88.1775C27.3388 88.1775 26.9331 88.4575 26.9331 88.803C26.9331 89.1485 27.3388 89.4285 27.8393 89.4285Z" fill="#C1554D"/>
<path d="M28.2387 64.0176C28.2387 64.3507 28.0257 64.6206 27.763 64.6206C27.5004 64.6206 27.2874 64.3507 27.2874 64.0176C27.2874 63.6846 27.5004 63.4147 27.763 63.4147C28.0257 63.4156 28.2387 63.6846 28.2387 64.0176Z" fill="#C1554D"/>
<path d="M42.7819 71.6162C42.7819 71.84 42.5319 72.0205 42.2241 72.0205C41.9163 72.0205 41.6663 71.8391 41.6663 71.6162C41.6663 71.3932 41.9163 71.2118 42.2241 71.2118C42.5319 71.2118 42.7819 71.3923 42.7819 71.6162Z" fill="#C1554D"/>
<path d="M38.9965 81.4014C38.399 81.8094 37.4296 81.9204 37.3537 82.6705C37.2942 83.2581 37.8917 83.658 38.4125 83.8701C38.9324 84.0822 39.5525 84.3674 39.6283 84.9532C39.7014 85.5228 39.1924 86.0129 39.1788 86.5878C39.1626 87.2558 39.8052 87.7252 40.41 87.9111C41.8912 88.3651 43.4752 87.9102 44.9266 87.3569C46.3907 86.7982 47.8475 86.1194 49.0046 85.0173C49.4171 84.6247 49.8052 84.1409 49.8666 83.556C49.9118 83.1245 49.77 82.6894 49.5462 82.3257C48.6959 80.9447 46.8835 80.6594 45.3473 80.9032C43.8101 81.1469 42.3145 81.7796 40.7611 81.7164L38.9965 81.4014Z" fill="#EFA285"/>
<path d="M26.6127 94.9603C26.3347 94.6905 25.8355 95.0497 25.8464 95.4442C25.8572 95.8386 26.1749 96.1482 26.4999 96.3558C26.8248 96.5634 27.1922 96.7295 27.4205 97.0454C27.5667 97.2476 27.6444 97.4958 27.7897 97.6989C28.1444 98.1953 28.8087 98.3136 29.4054 98.3298C30.9994 98.3732 32.569 97.9724 34.1161 97.5743C35.3148 97.2656 36.5721 96.9245 37.4612 96.0381C37.7437 95.7565 37.9901 95.3142 37.7906 94.9649C37.4837 94.4287 36.4936 94.7221 36.2354 94.1588C36.1632 94.0018 36.1731 93.8095 36.0775 93.666C35.9475 93.4719 35.6848 93.4458 35.4565 93.4412C32.9165 93.3925 30.3702 93.7418 27.9314 94.4738L26.6127 94.9603Z" fill="#EFA285"/>
<path d="M38.9965 81.3678C38.399 81.7523 37.4296 81.857 37.3537 82.5638C37.2942 83.118 37.8917 83.4944 38.4125 83.6938C38.9324 83.8933 39.5525 84.1623 39.6283 84.7147C39.7014 85.2517 39.1924 85.7139 39.1788 86.2545C39.1626 86.8837 39.8052 87.3269 40.41 87.5011C41.8912 87.9289 43.4752 87.5002 44.9266 86.9794C46.3907 86.4531 47.8475 85.8132 49.0046 84.7743C49.4171 84.4042 49.8052 83.9484 49.8666 83.3978C49.9118 82.9916 49.77 82.5809 49.5462 82.2388C48.6959 80.9381 46.8835 80.6692 45.3473 80.8984C43.8101 81.1277 42.3145 81.7243 40.7611 81.6647L38.9965 81.3678Z" fill="#E28D6D"/>
<path d="M41.0193 78.4977L45.3789 84.2808L42.1286 86.1591L38.502 82.3284L41.0193 78.4977Z" fill="#C1554D"/>
<path d="M41.0183 78.4981L45.3779 76.7136L47.8105 82.4028L45.3779 84.2812L41.0183 78.4981Z" fill="#E28D6D"/>
<path d="M47.8115 82.4042L46.3204 84.2825L42.1287 86.1609L45.379 84.2825L47.8115 82.4042Z" fill="#943402"/>
<path d="M41.0183 78.4977L45.5982 83.5605L47.8105 82.4024L45.3779 84.2808L42.1276 86.1591L44.6486 84.2808L41.0183 78.4977Z" fill="#EE9C7D"/>
<path d="M45.3776 83.6416C45.3776 83.9945 45.1618 84.2807 44.8956 84.2807C44.6293 84.2807 44.4136 83.9945 44.4136 83.6416C44.4136 83.2887 44.6293 83.0026 44.8956 83.0026C45.1618 83.0026 45.3776 83.2887 45.3776 83.6416Z" fill="#FFB78F"/>
<path d="M19.4872 74.2492C18.5611 74.5958 17.6341 74.9433 16.7081 75.2899C16.1782 75.4885 15.5663 75.7854 15.4932 76.3478C15.4182 76.9281 15.9959 77.393 16.5591 77.5473C17.0511 77.6818 17.7343 77.8642 17.6838 78.3732C17.6666 78.5502 17.5484 78.7045 17.5276 78.8814C17.4771 79.3291 18.0232 79.58 18.4645 79.6676C21.408 80.2489 24.5292 79.8923 27.2668 78.6612C27.5493 78.5339 27.8499 78.375 27.9681 78.088C28.1793 77.5744 27.6793 77.0509 27.1928 76.7846C26.7063 76.5184 26.1169 76.2584 25.9833 75.7195C25.9111 75.4262 25.9968 75.1076 25.9021 74.8205C25.6854 74.1616 24.7756 74.1364 24.0914 74.2402C22.9018 74.4198 21.7121 74.6003 20.5225 74.7799L19.4872 74.2492Z" fill="#EFA285"/>
<path d="M28.5673 64.7C28.116 65.0836 27.4896 65.1034 26.9192 65.2163C26.3487 65.3291 25.7151 65.654 25.6221 66.2552C25.5165 66.934 26.1565 67.4701 26.7477 67.7644C27.3389 68.0595 28.0348 68.361 28.2307 69.0172C28.4112 69.6246 28.0799 70.3404 28.3733 70.8973C28.5773 71.2864 29.0177 71.457 29.4275 71.5689C32.1769 72.3235 35.0797 71.8487 37.8841 71.3703C38.3246 71.2954 38.7993 71.2015 39.1008 70.8558C39.5963 70.289 39.3418 69.3196 38.7939 68.8096C38.246 68.2987 37.5032 68.1055 36.8127 67.8474C35.5472 67.3735 34.3856 66.6361 33.1445 66.0936C31.9034 65.5511 30.517 65.2054 29.2172 65.5647L28.5673 64.7Z" fill="#EFA285"/>
<path d="M19.4872 73.7911C18.5611 74.1368 17.6341 74.4834 16.7081 74.8291C16.1782 75.0268 15.5663 75.3237 15.4932 75.8843C15.4182 76.4628 15.9959 76.9277 16.5591 77.0811C17.0511 77.2156 17.7343 77.397 17.6838 77.9043C17.6666 78.0812 17.5484 78.2347 17.5276 78.4116C17.4771 78.8584 18.0232 79.1093 18.4645 79.196C21.408 79.7754 24.5292 79.4198 27.2668 78.1923C27.5493 78.0659 27.8499 77.907 27.9681 77.6209C28.1793 77.1082 27.6793 76.5865 27.1928 76.3202C26.7063 76.0539 26.1169 75.7949 25.9833 75.2569C25.9111 74.9645 25.9968 74.6468 25.9021 74.3606C25.6854 73.7035 24.7756 73.6782 24.0914 73.7811C22.9018 73.9608 21.7121 74.1404 20.5225 74.3191L19.4872 73.7911Z" fill="#E28D6D"/>
<path d="M17.3618 73.0867L24.4608 74.5209L23.2748 78.0826L18.0198 77.6232L17.3618 73.0867Z" fill="#C1554D"/>
<path d="M17.3616 73.0855L19.4403 68.8577L25.0347 71.5005L24.4606 74.5198L17.3616 73.0855Z" fill="#E28D6D"/>
<path d="M25.0318 71.5018L25.1618 73.8965L23.2717 78.0828L24.4578 74.5211L25.0318 71.5018Z" fill="#943402"/>
<path d="M17.3618 73.0868L24.1476 73.8369L25.0349 71.5018L24.4608 74.5211L23.2748 78.0828L23.9148 75.0058L17.3618 73.0868Z" fill="#EE9C7D"/>
<path d="M24.0348 74.0432C24.2685 74.3077 24.2974 74.6642 24.0979 74.8411C23.8985 75.018 23.5473 74.9467 23.3136 74.6822C23.0798 74.4178 23.0509 74.0613 23.2504 73.8843C23.4499 73.7074 23.801 73.7796 24.0348 74.0432Z" fill="#FFB78F"/>
<path d="M26.6127 94.4911C26.3347 94.2302 25.8355 94.5768 25.8464 94.9586C25.8572 95.3404 26.1749 95.6392 26.4999 95.8405C26.8248 96.0408 27.1922 96.2015 27.4205 96.5075C27.5667 96.7025 27.6444 96.9426 27.7897 97.1393C28.1444 97.6195 28.8087 97.7342 29.4054 97.7495C30.9994 97.791 32.569 97.4038 34.1161 97.0193C35.3148 96.7214 36.5721 96.3911 37.4612 95.5336C37.7437 95.261 37.9901 94.8331 37.7906 94.4956C37.4837 93.9775 36.4936 94.2609 36.2354 93.7166C36.1632 93.565 36.1731 93.3781 36.0775 93.24C35.9475 93.0523 35.6848 93.027 35.4565 93.0225C32.9165 92.9756 30.3702 93.3131 27.9314 94.0208L26.6127 94.4911Z" fill="#E28D6D"/>
<path d="M30.6548 97.0134C31.2848 97.1461 31.8219 97.1551 32.3003 97.0793L33.0702 96.4303L27.7637 91.5029L26.519 94.4066C27.4767 95.7335 29.0707 96.6813 30.6548 97.0134Z" fill="#C1554D"/>
<path d="M27.7681 91.5019L31.7468 88.9791L35.1397 94.1538L33.0745 96.4293L27.7681 91.5019Z" fill="#E28D6D"/>
<path d="M33.2054 96.8062L33.9997 96.2655L35.1388 94.1543L33.0736 96.4307L32.3037 97.0797C32.6287 97.0282 32.9283 96.9362 33.2054 96.8062Z" fill="#943402"/>
<path d="M31.8253 97.1244C31.9923 97.1199 32.1511 97.1046 32.3046 97.0802L33.0745 96.4312L35.1397 94.1548L33.1648 95.6838L27.7681 91.5029L32.356 96.5585L31.8253 97.1244Z" fill="#EE9C7D"/>
<path d="M32.9597 95.8006C33.022 96.1481 32.8596 96.4676 32.5978 96.5145C32.336 96.5615 32.0734 96.3178 32.0111 95.9703C31.9488 95.6228 32.1113 95.3032 32.373 95.2563C32.6348 95.2093 32.8975 95.453 32.9597 95.8006Z" fill="#FFB78F"/>
<path d="M28.5673 64.7C28.116 65.0646 27.4896 65.0836 26.9192 65.1919C26.3487 65.2993 25.7151 65.608 25.6221 66.1812C25.5165 66.8274 26.1565 67.3374 26.7477 67.6181C27.3389 67.8988 28.0348 68.1859 28.2307 68.8105C28.4112 69.3891 28.0799 70.0696 28.3733 70.6004C28.5773 70.9705 29.0177 71.1329 29.4275 71.2403C32.1769 71.9588 35.0797 71.5066 37.8841 71.0517C38.3246 70.9804 38.7993 70.891 39.1008 70.5625C39.5963 70.0227 39.3418 69.1002 38.7939 68.6146C38.246 68.129 37.5032 67.9449 36.8127 67.6985C35.5472 67.2472 34.3856 66.5458 33.1445 66.0295C31.9034 65.5132 30.517 65.1838 29.2172 65.5259L28.5673 64.7Z" fill="#E28D6D"/>
<path d="M41.4752 63.5917C41.005 63.6774 40.5536 63.8706 40.1682 64.1522C40.0455 64.2416 39.9245 64.3427 39.7774 64.3833C39.642 64.4203 39.4985 64.4022 39.3586 64.3842C38.8766 64.321 38.3946 64.2569 37.9117 64.1937C37.8043 64.1793 37.6915 64.1666 37.5922 64.2072C37.4848 64.2515 37.4108 64.3508 37.3458 64.4474C36.9288 65.0702 36.6408 65.7796 36.5063 66.5171C36.454 66.8032 36.4251 67.0983 36.4802 67.3845C36.5235 67.6101 36.6183 67.8213 36.7148 68.0298C37.0966 68.8512 37.5272 69.6636 38.1437 70.327C38.7611 70.9895 39.5879 71.495 40.4905 71.5663C40.7576 71.5871 41.0519 71.56 41.2469 71.3759C41.3958 71.235 41.4581 71.0265 41.5086 70.828C41.8236 69.5869 41.9058 68.2862 41.7505 67.0153C41.6557 66.2445 41.4752 65.4655 41.6052 64.7001L41.4752 63.5917Z" fill="#7AAE56"/>
<path d="M41.2683 71.6897C43.6413 70.8006 45.5621 68.7805 46.332 66.366C45.1514 66.1025 43.9103 66.1106 42.7324 66.3895C42.6629 65.3795 42.3082 64.3902 41.7188 63.567C40.8297 64.1826 40.1247 65.0617 39.7168 66.0637C39.2167 65.3425 38.4206 64.8334 37.5559 64.6826C37.0053 66.005 37.0333 67.5557 37.6299 68.8582C38.2266 70.1597 39.3837 71.1932 40.7448 71.6391L41.2683 71.6897Z" fill="#85BB61"/>
<path d="M41.179 71.5161C40.2945 70.8012 39.4009 70.0782 38.7005 69.1819C38 68.2856 37.4982 67.1881 37.5208 66.0508C37.7112 66.8586 38.3818 67.4498 39.0164 67.9851C39.455 68.3542 39.8928 68.7234 40.3315 69.0935C40.1428 68.7803 40.2575 68.3795 40.3775 68.0338C40.6654 67.2007 40.9543 66.3667 41.2422 65.5336C41.3948 66.7286 41.4588 67.9354 41.4336 69.1404C42.1611 68.4608 42.9888 67.8885 43.8823 67.4471C43.6043 68.477 42.9256 69.3453 42.264 70.1829C41.9815 70.5404 41.698 70.8978 41.4155 71.2562L41.179 71.5161Z" fill="#98C779"/>
<path d="M31.3067 69.227C31.9367 69.3588 32.4737 69.3688 32.9521 69.2929L33.722 68.644L28.4156 63.7166L27.1709 66.6203C28.1286 67.9471 29.7217 68.8949 31.3067 69.227Z" fill="#C1554D"/>
<path d="M28.4194 63.7168L32.3981 61.194L35.7911 66.3678L33.7259 68.6442L28.4194 63.7168Z" fill="#E28D6D"/>
<path d="M33.8551 69.0207L34.6494 68.48L35.7885 66.3688L33.7233 68.6452L32.9534 69.2942C33.2792 69.2427 33.578 69.1497 33.8551 69.0207Z" fill="#943402"/>
<path d="M32.4767 69.3366C32.6437 69.3321 32.8025 69.3167 32.956 69.2924L33.7259 68.6434L35.7911 66.367L33.8161 67.896L28.4194 63.7151L33.0074 68.7707L32.4767 69.3366Z" fill="#EE9C7D"/>
<path d="M33.614 68.0163C33.6763 68.3638 33.5139 68.6833 33.2521 68.7302C32.9903 68.7772 32.7277 68.5334 32.6654 68.1859C32.6031 67.8384 32.7656 67.5189 33.0273 67.472C33.2891 67.425 33.5527 67.6687 33.614 68.0163Z" fill="#FFB78F"/>
<path d="M29.6636 74.5484C29.6636 74.8472 29.4614 75.09 29.2123 75.09C28.9632 75.09 28.761 74.8481 28.761 74.5484C28.761 74.2496 28.9632 74.0068 29.2123 74.0068C29.4614 74.0068 29.6636 74.2496 29.6636 74.5484Z" fill="#C1554D"/>
<path d="M39.0218 76.025C39.0218 76.2922 38.7655 76.5079 38.4486 76.5079C38.1318 76.5079 37.8755 76.2913 37.8755 76.025C37.8755 75.7588 38.1318 75.5421 38.4486 75.5421C38.7655 75.5421 39.0218 75.7578 39.0218 76.025Z" fill="#C1554D"/>
<path d="M16.8918 72.8964C15.6552 74.2981 15.0748 76.1972 15.0342 78.0657C14.9936 79.9341 15.4575 81.7827 16.1056 83.5364C15.2662 80.1634 15.6001 76.5104 17.038 73.3459L16.8918 72.8964Z" fill="#FFE199"/>
<path d="M37.7112 95.6423C38.6625 95.4979 39.5336 95.0376 40.3829 94.5844C41.466 94.0059 42.5555 93.4246 43.5276 92.6745C44.4997 91.9244 45.359 90.9911 45.8527 89.8665C44.6116 91.2881 42.9779 92.2999 41.3713 93.2901C40.5273 93.81 39.6825 94.3299 38.8385 94.8507C38.473 95.0764 38.0767 95.4176 37.7112 95.6423Z" fill="#FFE199"/>
<path d="M47.4219 76.9658C47.3091 74.4303 46.5744 71.9247 45.3008 69.7295C45.6736 69.6636 45.9452 70.0617 46.1104 70.402C46.3641 70.9219 46.6168 71.4427 46.8704 71.9626C47.0582 72.3471 47.2459 72.7334 47.3903 73.136C47.8082 74.3022 47.8434 75.6019 47.4905 76.7898L47.4219 76.9658Z" fill="#FFE199"/>
</g>
<path d="M175.139 146.16C205.261 116.038 205.261 67.2011 175.139 37.0795C145.018 6.95788 96.1811 6.95788 66.0595 37.0795C35.9379 67.2011 35.9379 116.038 66.0595 146.16C96.1811 176.281 145.018 176.281 175.139 146.16Z" fill="#3DA0A7"/>
<path d="M120.601 166.35C161.874 166.35 195.332 132.892 195.332 91.6194C195.332 50.347 161.874 16.889 120.601 16.889C79.329 16.889 45.8711 50.347 45.8711 91.6194C45.8711 132.892 79.329 166.35 120.601 166.35Z" fill="#FFF6FA"/>
<path d="M172.466 143.488C201.112 114.842 201.112 68.3969 172.466 39.7505C143.82 11.1042 97.3748 11.1042 68.7284 39.7505C40.0821 68.3969 40.0821 114.842 68.7284 143.488C97.3748 172.135 143.82 172.135 172.466 143.488Z" fill="#BCE5E8"/>
<path d="M90.019 158.292C99.3292 162.569 109.68 164.973 120.6 164.973C161.112 164.973 193.954 132.131 193.954 91.6191C193.954 68.1889 182.954 47.34 165.853 33.9103C167.534 42.606 168.125 51.5721 168.676 60.4366C169.28 70.1189 169.875 79.9181 168.103 89.4554C165.913 101.234 160.199 112.081 153.57 122.059C146.332 132.951 137.738 143.216 126.756 150.315C115.957 157.297 102.583 160.949 90.019 158.292Z" fill="#8FD2D7"/>
<path d="M162.225 133.249C185.216 110.258 185.216 72.9822 162.225 49.9911C139.234 27 101.958 27 78.9667 49.9911C55.9756 72.9822 55.9756 110.258 78.9667 133.249C101.958 156.24 139.234 156.24 162.225 133.249Z" fill="#FFF6FA"/>
<path d="M120.599 147.966C151.718 147.966 176.945 122.74 176.945 91.6207C176.945 60.5018 151.718 35.2749 120.599 35.2749C89.4803 35.2749 64.2534 60.5018 64.2534 91.6207C64.2534 122.74 89.4803 147.966 120.599 147.966Z" fill="#ADDFE2"/>
<path d="M156.062 127.082C175.648 107.496 175.648 75.7407 156.062 56.1547C136.476 36.5688 104.721 36.5688 85.1353 56.1547C65.5494 75.7406 65.5494 107.496 85.1353 127.082C104.721 146.668 136.476 146.668 156.062 127.082Z" fill="#FFF6FA"/>
<path d="M120.603 139.671C147.519 139.671 169.339 118.158 169.339 91.6206C169.339 65.0831 147.519 43.5702 120.603 43.5702C93.6869 43.5702 71.8669 65.0831 71.8669 91.6206C71.8669 118.158 93.6869 139.671 120.603 139.671Z" fill="#BCE5E8"/>
<path d="M170.907 75.0683L127.026 38.6291C122.9 35.2031 116.796 35.682 113.466 39.6923L104.818 50.1052C102.021 53.4745 102.041 58.2998 104.56 61.7923L68.1738 105.607C65.895 108.353 66.3386 112.516 69.1626 114.861L105.856 145.332C108.68 147.677 112.854 147.349 115.133 144.603L151.393 100.94C155.426 103.36 160.693 102.631 163.705 99.0054L172.353 88.5925C175.683 84.5822 175.035 78.4963 170.907 75.0683Z" fill="#AF4040"/>
<path d="M168.049 75.3878L127.234 41.4932C123.396 38.3056 117.648 38.8392 114.46 42.6776L106.188 52.6409C103.51 55.8637 103.467 60.4291 105.791 63.6988L70.9796 105.616C68.7986 108.243 69.164 112.175 71.7888 114.356L105.92 142.698C108.546 144.879 112.479 144.514 114.66 141.889L149.348 100.116C153.112 102.352 158.078 101.594 160.959 98.125L169.232 88.1616C172.421 84.3232 171.887 78.5754 168.049 75.3878Z" fill="#F4C960"/>
<path d="M165.448 76.345L126.769 44.225C123.132 41.2055 117.685 41.7098 114.664 45.3468L106.823 54.7884C104.286 57.843 104.245 62.1681 106.448 65.2657L73.4637 104.988C71.398 107.476 71.7419 111.203 74.2318 113.271L106.575 140.13C109.063 142.195 112.79 141.851 114.857 139.362L147.73 99.7779C151.296 101.896 156.003 101.177 158.733 97.8919L166.574 88.4504C169.591 84.8133 169.085 79.3645 165.448 76.345Z" fill="#F8D581"/>
<path d="M117.266 39.826C116.718 40.4846 115.905 40.7094 115.448 40.3302C114.991 39.9511 115.063 39.1107 115.61 38.4521C116.157 37.7935 116.97 37.5687 117.428 37.9478C117.883 38.327 117.811 39.1693 117.266 39.826Z" fill="#451B06"/>
<path d="M101.274 70.4895C99.6952 73.1514 96.6269 74.5722 93.9944 76.2979C91.3618 78.0217 88.8231 80.7285 89.3332 83.7421C89.554 85.0496 90.3299 86.1987 90.7599 87.4534C91.6432 90.0293 90.9319 93.0625 88.9814 95.0403C87.1228 96.9243 84.4297 97.7588 82.0845 99.0409C79.7392 100.323 77.4956 102.545 77.7927 105.117C78.0995 107.779 80.9529 109.51 81.7659 112.067C82.8955 115.616 79.8057 119.22 79.8956 122.939C79.9523 125.267 81.375 127.512 83.4955 128.616C85.616 129.721 88.3521 129.642 90.4198 128.419C91.8993 127.543 93.1364 126.103 94.8562 125.909C97.4946 125.614 99.3493 128.435 99.7363 130.963C100.123 133.492 99.7891 136.244 101.13 138.443C102.33 140.411 104.792 141.533 107.163 141.367C109.536 141.199 111.748 139.828 113.067 137.913C113.986 136.58 114.492 135.025 115.356 133.659C116.217 132.292 117.615 131.057 119.27 131.048C120.109 131.044 120.908 131.354 121.727 131.52C125.505 132.289 129.658 129.38 130.08 125.673C130.525 121.76 127.438 117.617 129.333 114.121C130.619 111.752 133.613 110.892 136.23 110.007C138.847 109.121 141.747 107.523 142.007 104.865C142.126 103.647 141.638 102.42 141.849 101.212C142.199 99.2207 144.321 97.9601 146.36 97.493C148.398 97.024 150.56 97.067 152.52 96.3478C155.752 95.1595 157.971 91.7765 157.689 88.4638C157.324 84.1447 153.259 80.0991 154.867 76.038C155.328 74.8732 156.221 73.9038 156.712 72.7488C157.804 70.1827 156.72 67.2414 155.182 64.9176C154.265 63.532 152.924 62.1209 151.214 62.1757C150.573 62.1952 149.932 62.4278 149.305 62.3066C147.564 61.9705 147.55 59.6467 147.171 57.9757C146.665 55.7419 144.714 53.9361 142.426 53.3302C140.137 52.7263 137.596 53.2579 135.622 54.5458C132.976 56.2735 130.547 59.4591 127.475 58.6715C126.63 58.4545 125.909 57.9464 125.159 57.5145C121.821 55.5914 116.812 55.4976 114.607 58.6148C113.616 60.0141 113.388 61.7633 112.913 63.3913C112.438 65.0193 111.525 66.7332 109.87 67.2961C108.396 67.7984 106.801 67.2453 105.253 67.0792C103.706 66.913 101.751 67.4524 101.462 68.9299L101.274 70.4895Z" fill="#7AAE56"/>
<path d="M94.7746 125.704C92.9941 124.906 91.1219 126.374 89.3512 127.195C87.5806 128.016 85.3389 128.676 83.8087 127.469C81.9364 125.989 82.6399 123.083 83.1461 120.753C83.8145 117.679 83.8106 114.462 83.1324 111.392C82.4836 108.453 81.2875 105.152 82.9487 102.638C83.9611 101.104 85.7787 100.348 87.2777 99.2808C90.43 97.0333 92.275 93.0777 91.9642 89.2276C91.8157 87.3866 91.2137 85.5495 91.5264 83.73C92.0268 80.816 94.6827 78.8089 97.2469 77.3255C99.811 75.8422 102.653 74.4213 104.064 71.822C104.767 70.5263 105.166 68.8963 106.471 68.2104C108.18 67.3133 110.363 68.6091 112.17 67.9309C115.278 66.7641 114.162 61.5929 116.714 59.4744C118.544 57.9578 121.299 58.7454 123.445 59.7656C125.591 60.7857 128.024 61.9935 130.227 61.0945C132.439 60.1916 133.352 57.5708 135.144 55.9917C136.68 54.6393 138.914 54.1214 140.89 54.6627C142.866 55.2041 144.521 56.7871 145.144 58.7317C145.731 60.5551 145.615 62.8769 147.218 63.9303C148.75 64.9388 150.9 64.0691 152.587 64.7902C154.693 65.6892 155.069 68.5836 154.42 70.7764C153.769 72.9692 152.428 74.9744 152.227 77.2532C151.967 80.1984 153.642 82.9189 154.531 85.7391C155.419 88.5592 155.084 92.3644 152.35 93.5077C151.01 94.0686 149.487 93.7989 148.035 93.8419C144.92 93.9357 141.761 95.7962 140.737 98.7317C140.159 100.389 140.268 102.25 139.514 103.835C137.382 108.31 130.188 107.798 127.373 111.881C124.841 115.559 127.262 120.476 127.391 124.934C127.448 126.892 126.652 129.259 124.721 129.62C122.896 129.962 121.303 128.291 119.462 128.041C116.634 127.658 114.57 130.562 113.278 133.101C111.987 135.64 110.116 138.605 107.265 138.468C105.025 138.36 103.386 136.265 102.637 134.158C101.888 132.052 101.691 129.747 100.667 127.76C99.6429 125.772 97.3348 124.131 95.23 124.905L94.7746 125.704Z" fill="#85BB61"/>
<path d="M95.6781 125.311C93.9544 124.539 91.9863 125.451 90.2723 126.247C88.5564 127.04 86.3851 127.683 84.9037 126.511C83.09 125.076 83.7701 122.262 84.2607 120.007C84.9076 117.03 84.9037 113.913 84.247 110.938C83.6197 108.091 82.4607 104.895 84.0691 102.46C85.0502 100.975 86.8111 100.242 88.2613 99.2081C91.3159 97.031 93.1023 93.2004 92.8013 89.4695C92.6567 87.6872 92.0742 85.9067 92.3772 84.1439C92.8619 81.3218 95.4338 79.3772 97.9198 77.9407C100.404 76.5043 103.156 75.1284 104.524 72.6092C105.206 71.3545 105.591 69.7754 106.857 69.1109C108.51 68.2412 110.627 69.4959 112.376 68.8392C115.386 67.7096 114.305 62.6986 116.777 60.6485C118.55 59.1788 121.218 59.9429 123.297 60.9299C125.377 61.9168 127.734 63.0875 129.866 62.2178C132.01 61.3423 132.893 58.8035 134.629 57.2752C136.116 55.9638 138.281 55.4635 140.195 55.9892C142.108 56.513 143.711 58.0472 144.316 59.9312C144.883 61.698 144.774 63.9455 146.326 64.9676C147.809 65.9428 149.89 65.1025 151.524 65.8002C153.565 66.6718 153.93 69.4744 153.299 71.5988C152.669 73.7232 151.37 75.6658 151.176 77.8723C150.924 80.7257 152.548 83.3602 153.408 86.0924C154.268 88.8246 153.944 92.5086 151.295 93.6187C149.998 94.162 148.522 93.9001 147.115 93.9431C144.098 94.0349 141.039 95.8369 140.046 98.6785C139.485 100.283 139.591 102.087 138.86 103.621C136.796 107.956 129.827 107.459 127.1 111.415C124.648 114.978 126.993 119.741 127.116 124.06C127.171 125.958 126.401 128.25 124.53 128.6C122.762 128.932 121.22 127.312 119.435 127.072C116.695 126.7 114.698 129.515 113.445 131.973C112.193 134.432 110.381 137.303 107.619 137.172C105.45 137.068 103.861 135.038 103.136 132.997C102.411 130.957 102.219 128.725 101.227 126.8C100.234 124.875 97.9979 123.284 95.9615 124.034L95.6781 125.311Z" fill="#98C779"/>
<path d="M119.331 58.2929C120.367 59.6922 120.857 61.4081 121.311 63.0889C122.755 68.438 124.002 73.8379 125.053 79.2769C125.663 78.2079 125.626 76.9043 125.569 75.677C125.423 72.421 125.276 69.165 125.127 65.909C125.004 63.1886 124.828 60.3059 123.269 58.074L119.331 58.2929Z" fill="#435E18"/>
<path d="M80.6816 104.793C83.1344 104.326 85.6516 103.857 88.1141 104.273C89.4001 104.49 90.6626 104.948 91.9642 104.893C93.4515 104.832 95.0658 104.135 96.3361 104.905C92.361 103.368 88.3838 101.832 84.4086 100.296C83.9161 100.107 83.4061 99.9131 82.8784 99.9307C82.3507 99.9502 81.7937 100.238 81.6276 100.738L80.6816 104.793Z" fill="#435E18"/>
<path d="M112.936 134.099C111.334 128.418 109.999 122.66 108.934 116.854C110.575 120.819 112.225 124.798 114.39 128.506C114.701 129.037 115.021 129.563 115.307 130.11C115.485 130.448 115.651 130.814 115.633 131.195C115.616 131.576 115.356 131.975 114.975 132.018L112.936 134.099Z" fill="#435E18"/>
<path d="M91.8459 126.672C93.4388 122.165 95.2153 117.721 97.1716 113.359C96.9723 116.394 97.066 119.448 97.4491 122.464C97.6035 123.682 97.8009 124.954 97.3866 126.111C95.6628 125.7 93.769 126.068 92.3248 127.092L91.8459 126.672Z" fill="#435E18"/>
<path d="M146.517 60.8701C144.184 64.9215 141.27 68.6036 138.365 72.27C137.726 73.0771 137.087 73.8823 136.45 74.6895C139.73 72.5787 142.806 70.1514 145.622 67.4544C146.359 66.7469 147.096 66.0003 147.514 65.0701C147.932 64.1398 147.979 62.9789 147.379 62.1541L146.517 60.8701Z" fill="#435E18"/>
<path d="M154.563 80.5937C153.359 80.4276 152.135 80.4979 150.922 80.5702C146.829 80.8106 142.737 81.049 138.644 81.2894C139.518 80.4178 140.818 80.1754 142.025 79.9214C145.401 79.2119 148.688 78.0901 151.793 76.5892C151.995 76.4915 152.227 76.3918 152.432 76.4797C152.583 76.5442 152.675 76.6947 152.755 76.8393C153.447 78.0882 153.926 79.4562 154.162 80.8634L154.563 80.5937Z" fill="#435E18"/>
<path d="M107.611 130.928C121.024 130.928 131.896 120.055 131.896 106.643C131.896 93.231 121.024 82.3583 107.611 82.3583C94.1992 82.3583 83.3264 93.231 83.3264 106.643C83.3264 120.055 94.1992 130.928 107.611 130.928Z" fill="#D34040"/>
<path d="M107.615 129.961C120.493 129.961 130.932 119.522 130.932 106.644C130.932 93.7658 120.493 83.3262 107.615 83.3262C94.7367 83.3262 84.2971 93.7658 84.2971 106.644C84.2971 119.522 94.7367 129.961 107.615 129.961Z" fill="#F35C53"/>
<path d="M123.632 122.671C132.482 113.822 132.482 99.4737 123.632 90.6242C114.783 81.7746 100.435 81.7747 91.585 90.6242C82.7355 99.4737 82.7355 113.822 91.585 122.671C100.435 131.521 114.783 131.521 123.632 122.671Z" fill="#F35C53"/>
<path d="M107.612 129.001C119.96 129.001 129.97 118.991 129.97 106.643C129.97 94.2953 119.96 84.2853 107.612 84.2853C95.2641 84.2853 85.2542 94.2953 85.2542 106.643C85.2542 118.991 95.2641 129.001 107.612 129.001Z" fill="#C02E24"/>
<path d="M123.016 122.059C131.528 113.548 131.528 99.7478 123.016 91.2364C114.505 82.725 100.705 82.725 92.1935 91.2364C83.6821 99.7478 83.6821 113.548 92.1935 122.059C100.705 130.57 114.505 130.57 123.016 122.059Z" fill="#FF9D97"/>
<path d="M123.619 120.489C130.953 111.657 129.652 98.4814 120.714 91.0596C111.776 83.6378 98.5854 84.7808 91.2519 93.6125C83.9184 102.444 85.219 115.62 94.157 123.042C103.095 130.464 116.286 129.321 123.619 120.489Z" fill="#DF6565"/>
<path d="M107.615 125.234C117.882 125.234 126.205 116.911 126.205 106.644C126.205 96.3772 117.882 88.0542 107.615 88.0542C97.3484 88.0542 89.0254 96.3772 89.0254 106.644C89.0254 116.911 97.3484 125.234 107.615 125.234Z" fill="#F26C6C"/>
<path d="M113.577 123.459C122.862 120.152 127.708 109.944 124.401 100.659C121.094 91.374 110.886 86.5278 101.601 89.8348C92.3163 93.1417 87.4701 103.35 90.7771 112.635C94.084 121.92 104.292 126.766 113.577 123.459Z" fill="#FF8585"/>
<path d="M107.613 122.997C116.644 122.997 123.965 115.676 123.965 106.645C123.965 97.6142 116.644 90.2931 107.613 90.2931C98.5821 90.2931 91.261 97.6142 91.261 106.645C91.261 115.676 98.5821 122.997 107.613 122.997Z" fill="#F26C6C"/>
<path d="M107.614 122.43C116.332 122.43 123.399 115.363 123.399 106.645C123.399 97.9268 116.332 90.8594 107.614 90.8594C98.896 90.8594 91.8286 97.9268 91.8286 106.645C91.8286 115.363 98.896 122.43 107.614 122.43Z" fill="#FF8585"/>
<path d="M114.693 108.376C115.644 104.455 113.236 100.506 109.315 99.5551C105.394 98.6041 101.445 101.012 100.494 104.933C99.5429 108.853 101.95 112.803 105.871 113.754C109.792 114.705 113.742 112.297 114.693 108.376Z" fill="#DF6565"/>
<path d="M108.214 113.257C111.887 112.916 114.589 109.662 114.248 105.989C113.908 102.316 110.654 99.6138 106.98 99.9544C103.307 100.295 100.605 103.549 100.946 107.222C101.286 110.896 104.54 113.597 108.214 113.257Z" fill="#FF928A"/>
<path d="M108.171 112.837C111.612 112.518 114.143 109.47 113.824 106.029C113.505 102.588 110.457 100.056 107.016 100.375C103.575 100.694 101.044 103.743 101.363 107.184C101.682 110.625 104.73 113.156 108.171 112.837Z" fill="#FF685F"/>
<path d="M115.617 90.5188C113.731 93.7181 111.843 96.9193 109.957 100.119C110.033 100.402 110.416 100.502 110.686 100.384C110.955 100.267 111.131 100.009 111.294 99.7629C112.398 98.0939 113.502 96.4249 114.51 94.6972C115.157 93.5891 115.781 92.4126 115.865 91.1325C115.879 90.9136 115.834 90.6341 115.621 90.5813L115.617 90.5188Z" fill="#DF6565"/>
<path d="M108.419 104.001C109.967 101.218 111.514 98.4333 113.06 95.6503C114.194 93.6099 115.341 91.5402 115.941 89.3005C118.241 89.7383 120.387 90.8328 122.07 92.4256C117.458 96.4437 113.125 100.796 109.124 105.434L108.419 104.001Z" fill="#FF685F"/>
<path d="M124.046 114.264C123.448 114.272 122.909 113.934 122.395 113.631C119.729 112.054 116.713 111.07 113.629 110.773C113.538 110.766 113.43 110.744 113.395 110.66C113.369 110.599 113.397 110.531 113.422 110.47C113.6 110.052 113.776 109.634 113.954 109.216C114.005 109.095 114.063 108.966 114.181 108.903C114.396 108.788 114.644 108.968 114.829 109.128C115.959 110.103 117.364 110.685 118.701 111.35C120.37 112.179 121.965 113.158 123.462 114.272L124.046 114.264Z" fill="#DF6565"/>
<path d="M110.826 106.665C113.836 107.13 116.845 107.596 119.855 108.061C122.062 108.403 124.297 108.745 126.517 108.518C126.836 110.812 126.51 113.193 125.587 115.319C120.502 112.433 115.204 109.923 109.747 107.822L110.826 106.665Z" fill="#DF6565"/>
<path d="M94.0388 119.523C96.5619 116.531 99.7573 114.195 102.921 111.889C102.726 111.561 102.466 111.27 102.161 111.037C100.498 112.323 98.9169 113.713 97.4277 115.196C96.1085 116.509 94.846 117.924 94.0427 119.603L94.0388 119.523Z" fill="#DF6565"/>
<path d="M105.261 108.845C102.996 110.881 100.731 112.915 98.468 114.952C96.8068 116.445 95.128 117.958 93.8968 119.82C91.9189 118.614 90.2812 116.855 89.22 114.796C94.6727 112.685 99.969 110.17 105.048 107.273L105.261 108.845Z" fill="#DF6565"/>
<path d="M108.095 125.429C107.388 121.438 107.067 117.377 107.139 113.324C107.493 113.216 107.863 113.167 108.232 113.179C109.008 117.18 109.047 121.323 108.347 125.339L108.095 125.429Z" fill="#DF6565"/>
<path d="M108.617 109.886C109.661 112.747 110.703 115.608 111.746 118.47C112.51 120.567 113.288 122.691 114.557 124.528C112.7 125.914 110.456 126.776 108.15 126.991C108.228 121.145 107.871 115.292 107.081 109.499L108.617 109.886Z" fill="#DF6565"/>
<path d="M92.4506 95.5364C93.5665 95.7709 94.3053 96.7892 95.0909 97.6159C97.0394 99.6718 99.8048 100.884 101.501 103.153C101.671 102.945 101.841 102.738 102.011 102.531C102.064 102.467 102.119 102.398 102.125 102.316C102.133 102.213 102.062 102.121 101.996 102.041C99.7481 99.3513 97.3052 96.6602 94.0961 95.2511C93.5079 94.9931 92.773 94.7977 92.2629 95.1866C92.259 95.2648 92.2532 95.3449 92.2473 95.423L92.4506 95.5364Z" fill="#F35C53"/>
<path d="M104.586 104.556C102.192 102.674 99.7998 100.79 97.4057 98.9083C95.6506 97.5285 93.8721 96.1331 91.8259 95.2399C92.6761 93.0843 94.1282 91.1709 95.9751 89.7716C98.9887 94.7826 102.374 99.5688 106.097 104.078L104.586 104.556Z" fill="#DF6565"/>
<path d="M106.576 98.9874C105.412 98.0434 104.814 96.4487 105.072 94.9712C105.193 94.2754 105.545 93.5562 106.195 93.2767C107.034 92.9171 108.058 93.478 108.445 94.3047C108.83 95.1314 108.703 96.1145 108.384 96.9685C108.066 97.8265 107.565 98.6161 106.924 99.2708C106.842 99.2278 106.647 99.0441 106.576 98.9874Z" fill="#DF6565"/>
<path d="M106.792 98.2184C105.835 97.4425 105.344 96.1311 105.555 94.9174C105.655 94.3448 105.944 93.7526 106.478 93.524C107.165 93.2269 108.01 93.6901 108.326 94.3702C108.643 95.0503 108.537 95.8575 108.278 96.5611C108.016 97.2666 107.603 97.9154 107.078 98.4548C107.011 98.4158 106.851 98.2653 106.792 98.2184Z" fill="#ED6339"/>
<path d="M107.793 95.3008C107.554 95.5881 107.128 95.6272 106.839 95.3888C106.55 95.1503 106.513 94.7243 106.751 94.435C106.99 94.1477 107.416 94.1087 107.705 94.3471C107.992 94.5855 108.031 95.0135 107.793 95.3008Z" fill="#FFE199"/>
<path d="M107.466 97.0995C107.302 97.2969 107.013 97.3301 106.821 97.1698C106.629 97.0115 106.608 96.7203 106.772 96.5229C106.936 96.3255 107.226 96.2923 107.417 96.4526C107.609 96.6109 107.63 96.9021 107.466 97.0995Z" fill="#FFE199"/>
<path d="M107.701 94.7845C107.582 94.9291 107.347 94.9291 107.175 94.7884C107.005 94.6457 106.962 94.4151 107.081 94.2705C107.2 94.1258 107.437 94.1258 107.607 94.2665C107.779 94.4092 107.82 94.6418 107.701 94.7845Z" fill="#FFEAB8"/>
<path d="M114.789 104.451C115.143 102.995 116.329 101.772 117.774 101.371C118.456 101.182 119.255 101.193 119.787 101.66C120.471 102.262 120.402 103.431 119.82 104.133C119.238 104.834 118.295 105.139 117.387 105.219C116.474 105.299 115.546 105.184 114.68 104.887C114.688 104.795 114.768 104.539 114.789 104.451Z" fill="#DF6565"/>
<path d="M115.573 104.319C115.864 103.121 116.84 102.116 118.026 101.786C118.587 101.631 119.244 101.639 119.681 102.022C120.244 102.519 120.188 103.478 119.709 104.055C119.23 104.633 118.456 104.884 117.709 104.948C116.959 105.014 116.197 104.919 115.485 104.674C115.489 104.602 115.556 104.391 115.573 104.319Z" fill="#ED6339"/>
<path d="M118.642 103.972C118.281 103.88 118.062 103.51 118.154 103.149C118.246 102.787 118.615 102.568 118.977 102.66C119.338 102.752 119.557 103.121 119.465 103.483C119.373 103.845 119.004 104.063 118.642 103.972Z" fill="#FFE199"/>
<path d="M116.874 104.449C116.623 104.384 116.471 104.138 116.534 103.896C116.596 103.653 116.848 103.511 117.098 103.575C117.349 103.64 117.501 103.886 117.438 104.128C117.376 104.369 117.124 104.513 116.874 104.449Z" fill="#FFE199"/>
<path d="M119.066 103.667C118.884 103.62 118.783 103.409 118.837 103.194C118.892 102.979 119.084 102.843 119.265 102.888C119.447 102.934 119.549 103.146 119.494 103.361C119.437 103.577 119.248 103.714 119.066 103.667Z" fill="#FFEAB8"/>
<path d="M99.8929 106.43C98.8786 107.534 97.2487 108.03 95.7907 107.68C95.1028 107.516 94.407 107.12 94.1686 106.453C93.8618 105.595 94.4872 104.606 95.3354 104.272C96.1836 103.938 97.1568 104.127 97.9894 104.499C98.8259 104.87 99.5842 105.419 100.196 106.099C100.149 106.178 99.9535 106.361 99.8929 106.43Z" fill="#DF6565"/>
<path d="M99.1409 106.165C98.3063 107.072 96.9676 107.48 95.7676 107.195C95.2028 107.06 94.6302 106.733 94.4347 106.186C94.1826 105.481 94.6966 104.668 95.3943 104.394C96.092 104.121 96.8914 104.275 97.5774 104.58C98.2653 104.885 98.8868 105.336 99.391 105.895C99.3519 105.958 99.1917 106.11 99.1409 106.165Z" fill="#ED6339"/>
<path d="M96.2889 104.985C96.5605 105.241 96.5742 105.669 96.3182 105.94C96.0622 106.212 95.6342 106.226 95.3625 105.97C95.0909 105.714 95.0772 105.286 95.3332 105.014C95.5892 104.742 96.0172 104.729 96.2889 104.985Z" fill="#FFE199"/>
<path d="M98.0677 105.421C98.2553 105.597 98.269 105.888 98.0989 106.07C97.9289 106.251 97.6377 106.255 97.4501 106.077C97.2625 105.901 97.2488 105.61 97.4188 105.428C97.5889 105.247 97.8801 105.243 98.0677 105.421Z" fill="#FFE199"/>
<path d="M95.7703 105.043C95.9071 105.172 95.8934 105.407 95.741 105.569C95.5885 105.731 95.354 105.758 95.2192 105.629C95.0824 105.5 95.096 105.266 95.2485 105.104C95.399 104.941 95.6335 104.914 95.7703 105.043Z" fill="#FFEAB8"/>
<path d="M104.805 113.87C105.301 115.285 104.973 116.956 103.98 118.079C103.511 118.609 102.835 119.037 102.135 118.933C101.232 118.801 100.656 117.784 100.76 116.877C100.865 115.971 101.489 115.203 102.208 114.642C102.929 114.079 103.769 113.668 104.659 113.448C104.703 113.526 104.776 113.784 104.805 113.87Z" fill="#DF6565"/>
<path d="M104.222 114.408C104.631 115.571 104.361 116.945 103.544 117.87C103.159 118.305 102.602 118.657 102.027 118.571C101.285 118.462 100.81 117.627 100.898 116.881C100.986 116.134 101.498 115.503 102.088 115.042C102.68 114.578 103.372 114.242 104.103 114.059C104.14 114.125 104.197 114.338 104.222 114.408Z" fill="#FFE199"/>
<path d="M101.839 116.37C102.193 116.251 102.578 116.441 102.697 116.794C102.816 117.148 102.627 117.533 102.273 117.652C101.919 117.772 101.534 117.582 101.415 117.228C101.294 116.875 101.485 116.49 101.839 116.37Z" fill="#F4D885"/>
<path d="M103.057 115.008C103.301 114.926 103.563 115.051 103.643 115.286C103.723 115.522 103.59 115.78 103.346 115.862C103.102 115.944 102.84 115.819 102.76 115.585C102.68 115.348 102.812 115.09 103.057 115.008Z" fill="#F4D885"/>
<path d="M101.645 116.856C101.823 116.795 102.024 116.918 102.094 117.129C102.165 117.34 102.079 117.559 101.903 117.618C101.725 117.679 101.524 117.555 101.453 117.344C101.383 117.135 101.469 116.916 101.645 116.856Z" fill="#FFEAB8"/>
<path d="M113.03 112.025C114.529 112.039 115.991 112.915 116.711 114.23C117.049 114.849 117.223 115.633 116.888 116.255C116.456 117.058 115.305 117.257 114.488 116.851C113.672 116.444 113.159 115.596 112.876 114.73C112.591 113.861 112.491 112.93 112.583 112.02C112.671 112.002 112.939 112.023 113.03 112.025Z" fill="#DF6565"/>
<path d="M113.341 112.757C114.574 112.769 115.774 113.488 116.366 114.569C116.646 115.079 116.787 115.722 116.513 116.234C116.159 116.895 115.211 117.059 114.539 116.725C113.869 116.39 113.447 115.693 113.214 114.981C112.98 114.266 112.897 113.502 112.974 112.753C113.046 112.74 113.265 112.757 113.341 112.757Z" fill="#ED6339"/>
<path d="M114.38 115.666C114.387 115.293 114.696 114.996 115.069 115.003C115.443 115.011 115.74 115.32 115.732 115.693C115.724 116.067 115.415 116.364 115.042 116.356C114.669 116.348 114.372 116.039 114.38 115.666Z" fill="#FFE199"/>
<path d="M113.51 114.055C113.516 113.797 113.721 113.591 113.971 113.597C114.22 113.603 114.419 113.816 114.413 114.074C114.407 114.332 114.202 114.537 113.952 114.531C113.702 114.526 113.504 114.313 113.51 114.055Z" fill="#FFE199"/>
<path d="M114.771 116.011C114.774 115.823 114.958 115.676 115.179 115.68C115.402 115.684 115.578 115.841 115.574 116.026C115.57 116.214 115.386 116.36 115.165 116.357C114.943 116.353 114.767 116.198 114.771 116.011Z" fill="#FFEAB8"/>
<path d="M113.733 87.1208C114.082 86.7006 113.956 86.0207 113.452 85.6021C112.948 85.1835 112.256 85.1848 111.907 85.6049C111.559 86.0251 111.684 86.7051 112.188 87.1237C112.692 87.5422 113.384 87.541 113.733 87.1208Z" fill="#FFEAB8"/>
<path d="M108.808 86.1827C108.562 86.4779 108.163 86.5502 107.915 86.3449C107.667 86.1397 107.665 85.7332 107.911 85.4381C108.158 85.143 108.556 85.0707 108.804 85.2759C109.053 85.4811 109.055 85.8876 108.808 86.1827Z" fill="#FFEAB8"/>
<path d="M147.695 96.1344C157.179 86.6506 157.179 71.2744 147.695 61.7906C138.212 52.3069 122.835 52.3069 113.352 61.7906C103.868 71.2744 103.868 86.6506 113.352 96.1344C122.835 105.618 138.212 105.618 147.695 96.1344Z" fill="#D34040"/>
<path d="M147.011 95.4504C156.117 86.3444 156.117 71.5807 147.011 62.4747C137.905 53.3687 123.141 53.3687 114.035 62.4747C104.929 71.5807 104.929 86.3444 114.035 95.4504C123.141 104.556 137.905 104.556 147.011 95.4504Z" fill="#F35C53"/>
<path d="M146.546 94.986C155.395 86.1365 155.395 71.7886 146.546 62.939C137.696 54.0895 123.348 54.0895 114.499 62.939C105.649 71.7886 105.649 86.1365 114.499 94.986C123.348 103.836 137.696 103.836 146.546 94.986Z" fill="#F35C53"/>
<path d="M130.531 101.316C142.879 101.316 152.889 91.3062 152.889 78.9583C152.889 66.6103 142.879 56.6003 130.531 56.6003C118.183 56.6003 108.173 66.6103 108.173 78.9583C108.173 91.3062 118.183 101.316 130.531 101.316Z" fill="#C02E24"/>
<path d="M145.936 94.3738C154.447 85.8624 154.447 72.0626 145.936 63.5512C137.424 55.0398 123.624 55.0398 115.113 63.5512C106.602 72.0626 106.602 85.8624 115.113 94.3738C123.624 102.885 137.424 102.885 145.936 94.3738Z" fill="#FF9D97"/>
<path d="M146.595 92.8094C153.93 83.9777 152.63 70.8007 143.692 63.3778C134.754 55.9548 121.563 57.0968 114.228 65.9285C106.893 74.7602 108.193 87.9372 117.131 95.3601C126.069 102.783 139.26 101.641 146.595 92.8094Z" fill="#DF6565"/>
<path d="M143.672 92.1076C150.931 84.8479 150.931 73.0775 143.672 65.8177C136.412 58.558 124.641 58.558 117.382 65.8177C110.122 73.0775 110.122 84.8478 117.382 92.1076C124.642 99.3673 136.412 99.3673 143.672 92.1076Z" fill="#FF928A"/>
<path d="M130.532 96.8066C140.389 96.8066 148.379 88.8161 148.379 78.9593C148.379 69.1026 140.389 61.1121 130.532 61.1121C120.675 61.1121 112.685 69.1026 112.685 78.9593C112.685 88.8161 120.675 96.8066 130.532 96.8066Z" fill="#FF8585"/>
<path d="M130.533 95.312C139.564 95.312 146.885 87.9909 146.885 78.9599C146.885 69.9288 139.564 62.6077 130.533 62.6077C121.502 62.6077 114.18 69.9288 114.18 78.9599C114.18 87.9909 121.502 95.312 130.533 95.312Z" fill="#FF291C"/>
<path d="M141.684 90.1243C147.849 83.9597 147.849 73.9651 141.684 67.8005C135.52 61.636 125.525 61.636 119.36 67.8005C113.196 73.9651 113.196 83.9597 119.36 90.1243C125.525 96.2888 135.52 96.2888 141.684 90.1243Z" fill="#D11C11"/>
<path d="M137.806 79.8993C138.339 75.8997 135.528 72.2257 131.529 71.6931C127.529 71.1605 123.855 73.9711 123.323 77.9707C122.79 81.9703 125.601 85.6443 129.6 86.1768C133.6 86.7094 137.274 83.8989 137.806 79.8993Z" fill="#DF6565"/>
<path d="M131.416 85.5667C135.071 85.0631 137.625 81.6922 137.121 78.0376C136.618 74.383 133.247 71.8286 129.592 72.3322C125.938 72.8358 123.383 76.2067 123.887 79.8613C124.391 83.5158 127.761 86.0702 131.416 85.5667Z" fill="#FF928A"/>
<path d="M131.553 85.1242C134.961 84.5504 137.259 81.3225 136.685 77.9144C136.112 74.5063 132.884 72.2086 129.476 72.7824C126.067 73.3561 123.77 76.584 124.343 79.9921C124.917 83.4002 128.145 85.6979 131.553 85.1242Z" fill="#FF685F"/>
<path d="M138.53 62.8306C136.644 66.0299 134.756 69.2311 132.87 72.4304C132.946 72.7138 133.329 72.8135 133.599 72.6962C133.869 72.5789 134.044 72.321 134.207 72.0747C135.311 70.4057 136.415 68.7367 137.424 67.009C138.07 65.9009 138.694 64.7243 138.778 63.4442C138.792 63.2254 138.747 62.9459 138.534 62.8931L138.53 62.8306Z" fill="#DF6565"/>
<path d="M131.336 76.3154C132.884 73.5324 134.432 70.7474 135.978 67.9644C137.111 65.924 138.258 63.8543 138.858 61.6146C141.159 62.0524 143.304 63.1468 144.987 64.7397C140.375 68.7578 136.042 73.1102 132.041 77.7479L131.336 76.3154Z" fill="#FF685F"/>
<path d="M146.967 86.5786C146.369 86.5864 145.83 86.2483 145.316 85.9454C142.65 84.3682 139.634 83.3852 136.55 83.0881C136.458 83.0803 136.351 83.0588 136.316 82.9747C136.29 82.9141 136.318 82.8457 136.343 82.7852C136.521 82.3669 136.697 81.9487 136.875 81.5305C136.926 81.4093 136.984 81.2803 137.101 81.2178C137.316 81.1024 137.565 81.2823 137.75 81.4425C138.88 82.4177 140.285 83.0001 141.622 83.6646C143.291 84.4933 144.886 85.4724 146.383 86.5864L146.967 86.5786Z" fill="#DF6565"/>
<path d="M133.745 78.9792C136.755 79.4444 139.765 79.9095 142.774 80.3747C144.981 80.7167 147.216 81.0587 149.437 80.832C149.755 83.1264 149.429 85.5068 148.506 87.6332C143.421 84.7466 138.123 82.2372 132.666 80.1362L133.745 78.9792Z" fill="#FF685F"/>
<path d="M116.958 91.8373C119.481 88.8452 122.676 86.5097 125.841 84.2035C125.645 83.8752 125.385 83.584 125.08 83.3514C123.417 84.6374 121.836 86.027 120.347 87.5103C119.028 88.8237 117.765 90.2386 116.962 91.9174L116.958 91.8373Z" fill="#DF6565"/>
<path d="M128.18 81.1588C125.915 83.1953 123.65 85.2298 121.387 87.2662C119.726 88.7594 118.047 90.272 116.816 92.1346C114.838 90.9287 113.2 89.1698 112.139 87.1099C117.592 84.9992 122.888 82.4839 127.967 79.5875L128.18 81.1588Z" fill="#FF685F"/>
<path d="M131.015 97.7418C130.307 93.751 129.987 89.6898 130.059 85.6364C130.413 85.5289 130.782 85.4801 131.152 85.4918C131.928 89.4924 131.967 93.6357 131.267 97.6519L131.015 97.7418Z" fill="#DF6565"/>
<path d="M131.538 82.2015C132.582 85.0627 133.623 87.9239 134.667 90.7851C135.431 92.8822 136.209 95.0066 137.477 96.8437C135.621 98.2293 133.377 99.0912 131.071 99.3062C131.149 93.4607 130.792 87.6073 130.002 81.8146L131.538 82.2015Z" fill="#FF685F"/>
<path d="M115.371 67.8521C116.487 68.0866 117.226 69.1048 118.011 69.9315C119.96 71.9875 122.725 73.1992 124.422 75.4682C124.592 75.2611 124.762 75.0539 124.932 74.8467C124.984 74.7822 125.039 74.7138 125.045 74.6318C125.053 74.5282 124.983 74.4363 124.916 74.3562C122.669 71.667 120.226 68.9758 117.017 67.5667C116.428 67.3088 115.693 67.1114 115.183 67.5022C115.177 67.5804 115.174 67.6605 115.168 67.7387L115.371 67.8521Z" fill="#DF6565"/>
<path d="M127.499 76.8685C125.105 74.9865 122.713 73.1025 120.318 71.2204C118.563 69.8406 116.785 68.4452 114.739 67.5521C115.589 65.3964 117.041 63.4831 118.888 62.0837C121.902 67.0947 125.286 71.881 129.01 76.3897L127.499 76.8685Z" fill="#FF685F"/>
<path d="M129.493 71.3001C128.328 70.3562 127.73 68.7614 127.988 67.2839C128.109 66.5881 128.461 65.8689 129.112 65.5895C129.95 65.2299 130.974 65.7908 131.361 66.6175C131.746 67.4442 131.619 68.4272 131.301 69.2813C130.982 70.1392 130.482 70.9288 129.841 71.5835C129.759 71.5405 129.563 71.3588 129.493 71.3001Z" fill="#DF6565"/>
<path d="M129.708 70.5332C128.75 69.7573 128.259 68.4459 128.471 67.2323C128.57 66.6596 128.86 66.0675 129.393 65.8388C130.081 65.5417 130.925 66.0049 131.242 66.685C131.559 67.3652 131.453 68.1723 131.193 68.8759C130.931 69.5814 130.519 70.2303 129.993 70.7697C129.927 70.7306 129.766 70.5801 129.708 70.5332Z" fill="#ED6339"/>
<path d="M130.71 67.6155C130.471 67.9028 130.045 67.9419 129.756 67.7035C129.469 67.4651 129.43 67.039 129.668 66.7498C129.906 66.4605 130.332 66.4234 130.622 66.6618C130.909 66.9002 130.948 67.3263 130.71 67.6155Z" fill="#FFE199"/>
<path d="M130.384 69.414C130.22 69.6114 129.931 69.6447 129.739 69.4844C129.548 69.3261 129.526 69.0349 129.69 68.8375C129.855 68.6401 130.144 68.6069 130.335 68.7671C130.527 68.9255 130.548 69.2167 130.384 69.414Z" fill="#FFE199"/>
<path d="M130.619 67.099C130.5 67.2437 130.264 67.2437 130.094 67.1029C129.924 66.9603 129.881 66.7297 130 66.585C130.119 66.4404 130.354 66.4404 130.526 66.5811C130.698 66.7238 130.739 66.9564 130.619 67.099Z" fill="#FFEAB8"/>
<path d="M137.701 76.7652C138.055 75.3092 139.241 74.0858 140.685 73.6852C141.367 73.4956 142.167 73.5073 142.698 73.9744C143.382 74.5763 143.314 75.7451 142.732 76.4467C142.149 77.1483 141.207 77.4532 140.298 77.5333C139.386 77.6134 138.457 77.4981 137.592 77.2011C137.599 77.1092 137.679 76.8532 137.701 76.7652Z" fill="#DF6565"/>
<path d="M138.492 76.633C138.783 75.435 139.758 74.4304 140.945 74.1002C141.506 73.9458 142.162 73.9536 142.6 74.3366C143.163 74.833 143.106 75.7926 142.627 76.3692C142.149 76.9477 141.375 77.1978 140.628 77.2623C139.878 77.3288 139.115 77.233 138.404 76.9887C138.408 76.9144 138.474 76.7053 138.492 76.633Z" fill="#ED6339"/>
<path d="M141.557 76.2839C141.196 76.192 140.977 75.8226 141.069 75.4611C141.16 75.0995 141.53 74.8806 141.891 74.9725C142.253 75.0643 142.472 75.4337 142.38 75.7953C142.286 76.1588 141.919 76.3777 141.557 76.2839Z" fill="#FFE199"/>
<path d="M139.792 76.7631C139.542 76.6986 139.39 76.4524 139.452 76.21C139.515 75.9677 139.767 75.825 140.017 75.8895C140.267 75.954 140.42 76.2003 140.357 76.4426C140.295 76.683 140.042 76.8276 139.792 76.7631Z" fill="#FFE199"/>
<path d="M141.984 75.9818C141.803 75.9349 141.701 75.7238 141.756 75.5089C141.81 75.2939 142.002 75.1571 142.184 75.202C142.366 75.2489 142.467 75.46 142.412 75.675C142.358 75.89 142.164 76.0287 141.984 75.9818Z" fill="#FFEAB8"/>
<path d="M122.812 78.7427C121.798 79.8469 120.168 80.3434 118.71 79.9935C118.022 79.8294 117.326 79.4326 117.088 78.7662C116.781 77.9082 117.406 76.9193 118.255 76.5851C119.103 76.2529 120.076 76.4405 120.909 76.8118C121.745 77.1831 122.503 77.7323 123.115 78.4124C123.068 78.4926 122.873 78.6763 122.812 78.7427Z" fill="#DF6565"/>
<path d="M122.061 78.4779C121.226 79.3847 119.888 79.7932 118.688 79.5078C118.123 79.373 117.55 79.0466 117.355 78.4994C117.103 77.7939 117.617 76.9808 118.314 76.7072C119.012 76.4336 119.811 76.59 120.497 76.8929C121.185 77.1978 121.807 77.6492 122.311 78.2082C122.272 78.2727 122.112 78.4232 122.061 78.4779Z" fill="#ED6339"/>
<path d="M119.208 77.299C119.48 77.555 119.494 77.9831 119.238 78.2547C118.982 78.5264 118.554 78.54 118.282 78.284C118.01 78.028 117.997 77.6 118.253 77.3283C118.509 77.0567 118.937 77.043 119.208 77.299Z" fill="#FFE199"/>
<path d="M120.988 77.7336C121.176 77.9095 121.19 78.2007 121.02 78.3825C120.85 78.5642 120.558 78.5682 120.371 78.3903C120.183 78.2144 120.169 77.9232 120.339 77.7415C120.51 77.5617 120.801 77.5577 120.988 77.7336Z" fill="#FFE199"/>
<path d="M118.685 77.3571C118.822 77.4861 118.808 77.7207 118.656 77.8829C118.503 78.0451 118.269 78.0724 118.134 77.9435C117.997 77.8145 118.011 77.5799 118.163 77.4177C118.315 77.2555 118.55 77.2282 118.685 77.3571Z" fill="#FFEAB8"/>
<path d="M127.725 86.1836C128.222 87.5986 127.894 89.2696 126.901 90.3933C126.432 90.923 125.755 91.351 125.056 91.2474C124.153 91.1145 123.576 90.0982 123.68 89.1914C123.785 88.2846 124.409 87.5165 125.128 86.9556C125.849 86.3927 126.69 85.9823 127.579 85.7615C127.624 85.8396 127.694 86.0996 127.725 86.1836Z" fill="#DF6565"/>
<path d="M127.135 86.7223C127.544 87.8851 127.274 89.259 126.457 90.1835C126.072 90.6193 125.515 90.9711 124.94 90.8851C124.198 90.7756 123.723 89.9411 123.811 89.1945C123.899 88.448 124.411 87.8167 125.001 87.3555C125.593 86.8923 126.285 86.5561 127.016 86.3724C127.051 86.4389 127.11 86.65 127.135 86.7223Z" fill="#ED6339"/>
<path d="M124.754 88.6848C125.107 88.5656 125.492 88.7552 125.612 89.1089C125.731 89.4626 125.541 89.8477 125.188 89.9669C124.834 90.0861 124.449 89.8965 124.33 89.5428C124.208 89.1871 124.4 88.804 124.754 88.6848Z" fill="#FFE199"/>
<path d="M125.978 87.3237C126.222 87.2416 126.484 87.3667 126.564 87.6012C126.644 87.8377 126.511 88.0956 126.267 88.1777C126.023 88.2598 125.761 88.1347 125.681 87.9002C125.601 87.6637 125.734 87.4058 125.978 87.3237Z" fill="#FFE199"/>
<path d="M124.566 89.1713C124.743 89.1107 124.945 89.2339 125.015 89.4449C125.085 89.656 124.999 89.8749 124.824 89.9335C124.646 89.9941 124.444 89.871 124.374 89.6599C124.302 89.4508 124.388 89.2319 124.566 89.1713Z" fill="#FFEAB8"/>
<path d="M135.948 84.3385C137.447 84.3522 138.909 85.2277 139.628 86.543C139.966 87.1625 140.14 87.9462 139.806 88.5677C139.374 89.371 138.223 89.5703 137.406 89.1638C136.589 88.7573 136.077 87.9091 135.793 87.0433C135.508 86.1736 135.408 85.2433 135.5 84.3326C135.59 84.317 135.858 84.3385 135.948 84.3385Z" fill="#DF6565"/>
<path d="M136.258 85.0725C137.491 85.0842 138.691 85.8034 139.284 86.8842C139.563 87.3943 139.704 88.0372 139.43 88.5493C139.076 89.2099 138.129 89.374 137.456 89.0398C136.786 88.7056 136.364 88.0079 136.131 87.2965C135.897 86.5812 135.815 85.8171 135.891 85.0686C135.965 85.0549 136.184 85.0725 136.258 85.0725Z" fill="#ED6339"/>
<path d="M137.299 87.9817C137.307 87.6084 137.616 87.3113 137.989 87.3191C138.363 87.3269 138.66 87.6357 138.652 88.009C138.644 88.3823 138.335 88.6794 137.962 88.6715C137.587 88.6637 137.292 88.3549 137.299 87.9817Z" fill="#FFE199"/>
<path d="M136.431 86.3708C136.437 86.1128 136.642 85.9076 136.892 85.9135C137.141 85.9193 137.34 86.1323 137.334 86.3903C137.328 86.6483 137.123 86.8535 136.873 86.8476C136.623 86.8418 136.425 86.6287 136.431 86.3708Z" fill="#FFE199"/>
<path d="M137.691 88.3261C137.695 88.1385 137.879 87.9919 138.1 87.9958C138.322 87.9997 138.498 88.1561 138.494 88.3417C138.491 88.5294 138.307 88.6759 138.086 88.672C137.863 88.6681 137.687 88.5118 137.691 88.3261Z" fill="#FFEAB8"/>
<path d="M129.245 100.848C129.058 101.073 128.635 101.031 128.301 100.756C127.967 100.478 127.85 100.072 128.037 99.8452C128.225 99.6204 128.647 99.6615 128.981 99.937C129.316 100.215 129.433 100.623 129.245 100.848Z" fill="#FFEAB8"/>
<path d="M124.33 96.4207C124.236 96.534 124.06 96.5418 123.937 96.4402C123.814 96.3386 123.791 96.1646 123.884 96.0513C123.978 95.9379 124.154 95.9301 124.277 96.0317C124.4 96.1334 124.424 96.3073 124.33 96.4207Z" fill="#FFEAB8"/>
<path d="M132.155 59.5904C130.307 59.1721 129.165 61.404 127.643 62.4731C124.68 64.5525 120.005 62.0939 117.033 64.1577C115.815 65.004 115.147 66.5616 115.367 68.0469C115.559 69.3485 116.362 70.5153 116.554 71.8169C116.99 74.7895 114.148 77.1757 111.316 78.1158C108.748 78.9698 105.983 79.1653 103.403 79.9861C100.823 80.807 98.2882 82.4779 97.5553 85.0753C96.7677 87.8661 98.255 90.8797 97.9442 93.7742C97.8328 94.8061 97.4947 95.793 97.1586 96.7702C95.5345 101.498 93.9085 106.227 92.2844 110.955C92.0381 111.674 91.8212 112.561 92.343 113.136C92.7769 113.613 93.5059 113.625 94.143 113.599C95.9449 113.527 97.7468 113.455 99.5487 113.384C100.964 113.328 102.574 113.347 103.561 114.383C105.343 116.253 103.514 119.496 104.732 121.765C105.465 123.129 107.188 123.762 108.709 123.568C110.229 123.375 111.566 122.505 112.704 121.505C114.853 119.615 116.477 117.215 118.344 115.047C120.21 112.88 122.452 110.865 125.245 110.138C126.441 109.827 127.715 109.759 128.843 109.266C131.094 108.281 132.279 105.854 133.107 103.544C133.934 101.236 134.661 98.7402 136.5 97.1239C138.876 95.0347 142.39 95.0074 145.547 94.4973C146.176 94.3956 146.872 94.2237 147.194 93.6804C147.364 93.395 147.399 93.0491 147.413 92.7149C147.478 91.2159 147.186 89.6935 146.567 88.3098C145.578 86.0955 143.723 83.8128 144.542 81.575C144.921 80.5412 145.818 79.7868 146.297 78.7979C147.288 76.7497 146.266 74.2442 144.888 72.37C143.51 70.4957 141.736 68.8247 140.962 66.6437C140.745 66.03 140.612 65.387 140.321 64.8027C139.947 64.0483 139.336 63.4366 138.691 62.8893C136.889 61.361 134.747 60.2353 132.476 59.6256L132.155 59.5904Z" fill="#FF7169"/>
<path d="M132.375 59.7714C130.559 59.3805 129.406 61.6026 127.893 62.6795C124.95 64.7746 120.375 62.3981 117.42 64.4795C116.21 65.3316 115.532 66.8833 115.731 68.3491C115.905 69.6351 116.681 70.7803 116.853 72.0663C117.246 75.0018 114.416 77.3998 111.615 78.3653C109.075 79.2428 106.348 79.4695 103.798 80.3138C101.247 81.158 98.7283 82.8427 97.9739 85.4225C97.1628 88.1957 98.5914 91.1585 98.2494 94.0275C98.1263 95.0497 97.7824 96.0327 97.4384 97.0041C95.7791 101.704 94.1198 106.405 92.4606 111.105C92.2085 111.818 91.9857 112.7 92.4919 113.262C92.9121 113.73 93.6313 113.731 94.2586 113.698C96.0352 113.604 97.8097 113.511 99.5862 113.417C100.98 113.343 102.567 113.343 103.526 114.355C105.26 116.184 103.417 119.415 104.587 121.645C105.291 122.985 106.984 123.591 108.483 123.38C109.983 123.169 111.308 122.292 112.444 121.287C114.586 119.389 116.214 116.995 118.08 114.826C119.947 112.657 122.179 110.636 124.938 109.881C126.121 109.559 127.375 109.477 128.493 108.975C130.723 107.972 131.921 105.554 132.766 103.258C133.61 100.964 134.356 98.4835 136.188 96.8633C138.554 94.7663 142.015 94.694 145.131 94.1526C145.752 94.0451 146.44 93.8653 146.763 93.324C146.933 93.0406 146.972 92.6966 146.991 92.3663C147.073 90.883 146.806 89.3801 146.213 88.0159C145.268 85.8368 143.468 83.601 144.302 81.375C144.687 80.347 145.582 79.5887 146.067 78.6037C147.068 76.5653 146.092 74.0969 144.757 72.2598C143.423 70.4208 141.697 68.7908 140.962 66.641C140.755 66.0371 140.632 65.4019 140.354 64.8254C139.997 64.0847 139.401 63.4847 138.773 62.9531C137.018 61.4619 134.921 60.3753 132.693 59.7988L132.375 59.7714Z" fill="#C1554D"/>
<path d="M138.705 65.8886C138.15 64.3447 137.298 62.9082 136.209 61.6809C135.574 60.9636 134.826 60.2991 133.911 60.0158C132.996 59.7324 131.884 59.9141 131.28 60.6588C130.581 61.5245 130.761 62.7949 130.354 63.8287C129.58 65.7987 126.952 66.3206 124.894 65.8202C122.836 65.3219 120.981 64.1277 118.896 63.7623C118.114 63.6255 117.258 63.6216 116.582 64.0398C115.026 65.0033 115.407 67.4169 116.414 68.9453C117.42 70.4736 118.898 71.8514 119.05 73.6748C119.185 75.293 118.169 76.8428 116.818 77.7458C115.468 78.6487 113.832 79.0083 112.225 79.2389C108.242 79.8115 104.062 79.7275 100.403 81.4024C99.2797 81.9164 98.152 82.6845 97.7768 83.8629C97.1006 85.9873 99.1057 87.8928 100.327 89.7573C101.523 91.5827 102.006 94.0725 100.874 95.939C100.411 96.7012 99.7096 97.3187 99.3833 98.1493C99.1077 98.8529 99.1331 99.6308 99.0549 100.381C98.621 104.524 95.1403 107.556 92.5801 110.843C92.2478 111.269 91.9117 111.781 92.0309 112.307C92.1697 112.92 92.8595 113.231 93.483 113.331C96.7448 113.853 99.8992 111.113 103.147 111.713C104.971 112.051 106.503 113.472 107.167 115.201C107.832 116.933 107.68 118.918 106.951 120.623C106.661 121.299 106.276 121.983 106.337 122.716C106.415 123.65 107.25 124.4 108.168 124.596C109.087 124.791 110.046 124.516 110.873 124.072C114.741 121.993 115.667 116.962 118.09 113.302C120.238 110.057 124.004 107.741 127.886 107.997C129.09 108.078 130.366 108.38 131.456 107.863C132.981 107.139 133.411 105.166 133.333 103.481C133.254 101.796 132.867 100.039 133.479 98.4679C133.819 97.5924 134.443 96.8614 135.054 96.15C136.411 94.569 137.974 92.8765 140.046 92.6634C141.388 92.5266 142.698 93.0485 144.009 93.367C145.321 93.6856 146.849 93.754 147.873 92.8726C149.18 91.7468 148.999 89.601 148.109 88.1235C147.22 86.646 145.803 85.5671 144.725 84.2225C143.646 82.8779 142.907 80.9881 143.667 79.4422C144.111 78.5432 144.981 77.9275 145.522 77.0832C146.607 75.3947 146.149 73.069 144.965 71.4468C143.781 69.8267 142.012 68.7518 140.29 67.7218L138.705 65.8886Z" fill="#F4D885"/>
<g opacity="0.3">
<path d="M216.887 47.2853C227.704 36.4681 227.704 18.93 216.887 8.11287C206.07 -2.70429 188.532 -2.70429 177.715 8.11287C166.898 18.93 166.898 36.4681 177.715 47.2853C188.532 58.1024 206.07 58.1024 216.887 47.2853Z" fill="#3DA0A7"/>
<path d="M197.308 54.5377C212.13 54.5377 224.145 42.5224 224.145 27.7009C224.145 12.8793 212.13 0.864014 197.308 0.864014C182.487 0.864014 170.471 12.8793 170.471 27.7009C170.471 42.5224 182.487 54.5377 197.308 54.5377Z" fill="#FFF6FA"/>
<path d="M215.933 46.3274C226.221 36.04 226.221 19.3609 215.933 9.07355C205.646 -1.21381 188.967 -1.21381 178.679 9.07355C168.392 19.3609 168.392 36.04 178.679 46.3274C188.967 56.6147 205.646 56.6147 215.933 46.3274Z" fill="#BCE5E8"/>
<path d="M186.321 51.6422C189.665 53.1783 193.382 54.0416 197.303 54.0416C211.852 54.0416 223.646 42.2475 223.646 27.6989C223.646 19.2848 219.696 11.7976 213.554 6.97473C214.158 10.0975 214.37 13.3174 214.568 16.5008C214.785 19.9778 214.999 23.4969 214.362 26.9219C213.576 31.1519 211.524 35.047 209.143 38.6305C206.544 42.5419 203.458 46.228 199.514 48.7774C195.636 51.2848 190.833 52.5963 186.321 51.6422Z" fill="#8FD2D7"/>
<path d="M219.006 43.7335C219.006 44.1313 218.711 44.4537 218.346 44.4537C217.982 44.4537 217.687 44.1313 217.687 43.7335C217.687 43.3356 217.982 43.0132 218.346 43.0132C218.711 43.0132 219.006 43.3356 219.006 43.7335Z" fill="white"/>
<path d="M216.305 46.9426C216.305 47.2238 216.056 47.4523 215.75 47.4523C215.444 47.4523 215.195 47.2238 215.195 46.9426C215.195 46.6613 215.444 46.4329 215.75 46.4329C216.056 46.4329 216.305 46.6613 216.305 46.9426Z" fill="white"/>
<path d="M212.252 42.6471C220.508 34.3906 220.508 21.0042 212.252 12.7478C203.995 4.4913 190.609 4.4913 182.353 12.7478C174.096 21.0042 174.096 34.3906 182.353 42.6471C190.609 50.9036 203.995 50.9036 212.252 42.6471Z" fill="#FFF6FA"/>
<path d="M197.308 47.9326C208.483 47.9326 217.542 38.8732 217.542 27.6979C217.542 16.5226 208.483 7.46326 197.308 7.46326C186.132 7.46326 177.073 16.5226 177.073 27.6979C177.073 38.8732 186.132 47.9326 197.308 47.9326Z" fill="#ADDFE2"/>
<path d="M210.04 40.4351C217.074 33.4015 217.074 21.9977 210.04 14.9641C203.007 7.93046 191.603 7.93045 184.569 14.9641C177.536 21.9977 177.536 33.4015 184.569 40.4351C191.603 47.4687 203.007 47.4687 210.04 40.4351Z" fill="#FFF6FA"/>
<path d="M197.308 44.9554C206.974 44.9554 214.81 37.2298 214.81 27.6998C214.81 18.1697 206.974 10.4441 197.308 10.4441C187.642 10.4441 179.806 18.1697 179.806 27.6998C179.806 37.2298 187.642 44.9554 197.308 44.9554Z" fill="#BCE5E8"/>
<path d="M177.488 10.4439C177.852 10.4439 178.148 10.1061 178.148 9.6894C178.148 9.27272 177.852 8.93494 177.488 8.93494C177.124 8.93494 176.828 9.27272 176.828 9.6894C176.828 10.1061 177.124 10.4439 177.488 10.4439Z" fill="white"/>
<path d="M180.427 7.75309C180.827 7.75309 181.151 7.43096 181.151 7.03359C181.151 6.63622 180.827 6.31409 180.427 6.31409C180.027 6.31409 179.703 6.63622 179.703 7.03359C179.703 7.43096 180.027 7.75309 180.427 7.75309Z" fill="white"/>
<path d="M201.247 29.1602C201.052 30.3784 200.466 31.1581 199.588 31.6454C198.71 32.2789 197.588 32.2789 196.368 32.3277C195.197 32.0353 194.172 31.4018 193.44 30.817C192.757 29.9399 192.367 29.1114 192.513 27.9419C192.562 27.6495 193.44 28.4779 194.806 28.2343C196.124 28.3805 197.734 28.7216 199.051 28.819C200.271 29.0627 201.247 29.1114 201.247 29.1602Z" fill="#98C779"/>
<path d="M199.534 31.6936C198.949 32.0834 198.266 32.2296 197.534 32.3271C197.68 32.2784 197.875 32.1809 198.022 32.0834C198.949 31.5474 199.632 30.7677 199.973 29.4033C199.973 29.3545 198.997 29.2083 197.729 28.9647C196.802 28.8185 195.679 28.5748 194.655 28.3312C194.655 28.3312 194.655 28.3312 194.704 28.3312C196.021 28.4774 197.631 28.8185 198.949 28.9159C200.266 29.1109 201.242 29.1596 201.242 29.2083C201.047 30.3779 200.413 31.1576 199.534 31.6936Z" fill="#7AAE56"/>
<path d="M192.46 27.9891C192.509 27.8919 192.655 27.9891 192.948 28.0863C192.753 28.0377 192.606 28.0377 192.46 27.9891Z" fill="#8D9A24"/>
<path d="M196.512 32.8222C195.877 33.8943 194.999 34.3329 193.974 34.4791C192.901 34.674 191.876 34.2841 190.754 33.8456C189.778 33.1146 189.095 32.0913 188.656 31.3116C188.363 30.2395 188.314 29.3136 188.9 28.2902C189.046 28.0466 189.534 29.1674 190.852 29.4598C191.974 30.142 193.34 31.0192 194.511 31.6527C195.633 32.3349 196.512 32.7735 196.512 32.8222Z" fill="#98C779"/>
<path d="M193.977 34.4735C193.294 34.6197 192.611 34.4735 191.928 34.2786C192.123 34.2786 192.269 34.2786 192.465 34.2299C193.538 34.0837 194.465 33.6451 195.295 32.5243C195.344 32.4755 194.465 31.9882 193.392 31.2085C192.562 30.7212 191.684 30.039 190.806 29.4542C190.806 29.4542 190.806 29.4542 190.854 29.4542C191.977 30.1365 193.343 31.0136 194.514 31.6471C195.636 32.3293 196.515 32.7679 196.466 32.8167C195.831 33.84 195.002 34.3273 193.977 34.4735Z" fill="#7AAE56"/>
<path d="M188.898 28.2338C188.947 28.1363 189.093 28.2825 189.289 28.5262C189.142 28.4287 189.045 28.3312 188.898 28.2338Z" fill="#8D9A24"/>
<path d="M192.025 31.0669C191.634 32.2364 190.903 32.8699 189.927 33.2597C188.951 33.6983 187.828 33.5521 186.609 33.4059C185.486 32.9186 184.608 32.0902 183.974 31.408C183.437 30.4334 183.193 29.5562 183.535 28.4354C183.632 28.1917 184.364 29.1176 185.73 29.1176C186.999 29.5075 188.512 30.0922 189.78 30.3846C191.098 30.7745 192.025 31.0181 192.025 31.0669Z" fill="#98C779"/>
<path d="M189.973 33.2533C189.338 33.5457 188.655 33.5944 187.923 33.5457C188.118 33.497 188.265 33.4483 188.46 33.3508C189.485 32.9609 190.265 32.3274 190.851 31.0604C190.851 31.0117 189.924 30.7193 188.704 30.232C187.777 29.9396 186.752 29.5011 185.776 29.1112C185.776 29.1112 185.776 29.1112 185.825 29.1112C187.094 29.5011 188.606 30.0858 189.875 30.3782C191.144 30.7681 192.071 31.0117 192.071 31.0604C191.632 32.23 190.9 32.8635 189.973 33.2533Z" fill="#7AAE56"/>
<path d="M183.581 28.3802C183.63 28.2827 183.776 28.3802 184.02 28.5751C183.874 28.5263 183.727 28.4289 183.581 28.3802Z" fill="#8D9A24"/>
<path d="M207.005 14.15C207.835 13.7601 210.665 14.0038 210.909 14.15C211.202 14.5398 211.153 14.8809 211.104 14.9297C211.055 15.0271 207.688 14.7347 207.005 14.15Z" fill="#F05942"/>
<path d="M206.566 13.9078C207.591 13.5667 211.25 14.054 211.592 14.2002C211.982 14.6388 211.982 14.9312 211.934 15.0287C211.885 15.1748 207.493 14.5901 206.566 13.9078Z" fill="#EF6837"/>
<path d="M206.366 13.9567C207.147 14.6877 210.66 15.8085 211.05 15.8085C211.587 15.5648 211.734 15.2724 211.734 15.175C211.734 15.0775 207.488 13.713 206.366 13.9567Z" fill="#FF975C"/>
<path d="M206.566 13.8117C207.493 13.3244 210.762 13.2757 211.104 13.3732C211.494 13.8117 211.494 14.1528 211.446 14.2503C211.397 14.3965 207.396 14.3965 206.566 13.8117Z" fill="#FE804E"/>
<path d="M206.415 14.1522C207.342 14.1522 210.026 15.6629 210.27 15.8578C210.465 16.3938 210.318 16.6862 210.27 16.7837C210.172 16.8812 206.903 15.0294 206.415 14.1522Z" fill="#FE804E"/>
<path d="M206.415 14.2024C206.805 15.0308 209.147 17.1262 209.391 17.2724C209.879 17.3212 210.026 17.1262 210.074 17.0775C210.123 17.0288 207.293 14.4948 206.415 14.2024Z" fill="#EA6F5E"/>
<path d="M206.662 13.4216C206.564 13.0318 206.125 12.6419 205.54 12.3983C205.442 12.3495 205.393 12.3495 205.296 12.3008C205.247 12.2521 205.198 12.2521 205.198 12.2033C205.003 11.911 204.661 11.6673 204.222 11.4724H204.173C204.125 11.4237 204.027 11.3749 203.978 11.3262C203.832 10.9851 203.441 10.6927 202.953 10.449C202.905 10.449 202.905 10.449 202.856 10.4003C202.661 10.1079 202.319 9.81553 201.88 9.66934C201.538 9.52314 201.246 9.47441 200.953 9.47441C200.807 9.32822 200.563 9.23076 200.367 9.1333C200.075 9.03583 199.831 8.9871 199.587 8.93837C199.587 8.93837 199.587 8.93837 199.538 8.93837C199.343 8.69472 199.05 8.49979 198.708 8.3536C198.269 8.15868 197.879 8.15868 197.537 8.20741C197.342 8.01248 197.049 7.81756 196.757 7.67137C196.61 7.62264 196.415 7.57391 196.269 7.52518C196.074 7.23279 195.732 6.98914 195.293 6.84294C194.658 6.59929 194.024 6.59929 193.683 6.84294C193.536 6.74548 193.439 6.69675 193.243 6.64802C192.853 6.55056 192.414 6.59929 192.17 6.74548C192.121 6.74548 192.072 6.74548 191.975 6.69675C191.877 6.59929 191.731 6.55056 191.633 6.50183C191.292 6.40436 190.95 6.50183 190.706 6.74548C190.609 6.79421 190.462 6.84294 190.365 6.89167C189.779 6.74548 189.194 7.03787 189.047 7.52518C188.998 7.67137 188.998 7.81756 189.047 7.96375L188.998 8.01249C188.706 8.10995 188.413 8.3536 188.364 8.64599C188.315 8.79218 188.315 8.93837 188.364 9.08457C188.169 9.18203 187.925 9.47441 187.827 9.81553C187.73 10.1566 187.73 10.4978 187.876 10.6927C187.876 11.18 188.462 11.716 189.242 11.9597C189.486 12.0084 189.681 12.0572 189.925 12.0572C190.218 12.3495 190.609 12.5932 191.145 12.7394C191.438 12.8368 191.731 12.8368 191.975 12.8368C192.219 13.0318 192.56 13.178 192.902 13.2754C193.292 13.3729 193.634 13.4216 193.975 13.3729C193.975 13.3729 193.975 13.3729 194.024 13.3729C194.317 13.6165 194.658 13.8115 195.146 13.9577C195.781 14.1526 196.366 14.1039 196.757 13.9577C197.196 14.1039 197.635 14.1038 197.976 14.0064C198.22 14.1038 198.513 14.2013 198.855 14.2013C199.196 14.2013 199.538 14.1526 199.782 14.0551C199.831 14.0551 199.831 14.0551 199.879 14.0551C200.075 14.2013 200.367 14.3475 200.709 14.3475C200.953 14.3475 201.197 14.2988 201.392 14.2013C201.685 14.3962 202.075 14.5424 202.563 14.5912C203.051 14.5912 203.49 14.4937 203.783 14.2988C203.881 14.2988 203.929 14.2988 204.027 14.2988C204.076 14.2988 204.076 14.3475 204.125 14.3475C204.564 14.5424 205.003 14.5912 205.344 14.4937C206.32 14.7374 207.882 14.6399 206.662 13.4216Z" fill="#F8D581"/>
<path d="M207.05 14.3942C206.757 14.6866 205.928 14.6866 205.245 14.5891C204.903 14.6866 204.464 14.6379 204.025 14.443C203.976 14.443 203.976 14.443 203.927 14.3942C203.879 14.3942 203.781 14.3942 203.683 14.3942C203.391 14.5891 202.952 14.6866 202.464 14.6866C201.976 14.6866 201.537 14.5404 201.293 14.2968C201.097 14.3942 200.853 14.443 200.609 14.443C200.268 14.443 199.975 14.2968 199.78 14.1506C199.78 14.1506 199.731 14.1506 199.682 14.1506C199.438 14.248 199.097 14.2968 198.755 14.2968C198.414 14.2968 198.121 14.1993 197.877 14.1018C197.584 14.1993 197.145 14.1993 196.657 14.0531C196.267 14.248 195.681 14.248 195.047 14.0531C194.608 13.9069 194.217 13.712 193.925 13.4683H193.876C193.534 13.5171 193.193 13.4683 192.802 13.3709C192.461 13.2734 192.119 13.1272 191.875 12.9323C191.631 12.9323 191.339 12.8836 191.046 12.7861C190.558 12.6399 190.119 12.3963 189.826 12.1039C189.631 12.1039 189.387 12.0551 189.143 12.0064C188.362 11.7628 187.777 11.2267 187.777 10.7394C187.679 10.5445 187.63 10.2034 187.728 9.86226C187.777 9.71606 187.825 9.56987 187.923 9.47241C187.923 9.52114 187.972 9.56987 187.972 9.6186C187.972 10.1546 188.557 10.7881 189.387 11.0805C189.631 11.178 189.875 11.2267 190.119 11.2267C190.411 11.5678 190.851 11.8115 191.387 12.0064C191.68 12.1039 192.022 12.1526 192.314 12.1526C192.558 12.3475 192.9 12.5425 193.29 12.6399C193.681 12.7861 194.12 12.8348 194.461 12.7861C194.461 12.7861 194.461 12.7861 194.51 12.7861C194.803 13.0785 195.193 13.3221 195.681 13.4683C196.364 13.6633 196.999 13.6633 197.438 13.5171C197.926 13.6633 198.414 13.712 198.755 13.5658C198.999 13.712 199.341 13.8095 199.731 13.8095C200.121 13.8582 200.463 13.7607 200.756 13.6633C200.805 13.6633 200.805 13.6633 200.853 13.6633C201.049 13.8582 201.39 14.0044 201.732 14.0044C202.024 14.0044 202.268 13.9556 202.464 13.8582C202.756 14.1018 203.196 14.2968 203.732 14.2968C204.269 14.3455 204.757 14.1993 205.05 14.0044C205.147 14.0044 205.196 14.0044 205.294 14.0531C205.342 14.0531 205.342 14.1018 205.391 14.1018C205.879 14.3455 206.367 14.3942 206.757 14.2968C206.855 14.3455 206.953 14.3455 207.05 14.3942Z" fill="#F4C960"/>
<path d="M192.318 7.81631C192.269 7.86504 192.22 7.86504 192.172 7.91377C192.22 7.91377 192.22 7.91377 192.269 7.86504C192.611 7.76758 192.952 7.76758 193.245 7.91377C193.343 7.9625 193.44 8.05997 193.538 8.1087C193.977 7.91377 194.904 8.15743 195.246 8.64474C195.587 8.596 195.978 8.64474 196.27 8.83966C196.466 8.93712 196.612 9.08331 196.709 9.18077C196.856 8.88839 196.612 8.64474 196.27 8.40108C195.978 8.25489 195.636 8.20616 195.343 8.25489C195.05 7.86504 194.221 7.62139 193.831 7.81631C193.733 7.71885 193.684 7.67012 193.587 7.62139C193.343 7.47519 193.001 7.52393 192.708 7.57266C192.66 7.57266 192.562 7.62139 192.513 7.62139C192.416 7.71885 192.367 7.76758 192.318 7.81631Z" fill="#F4C960"/>
<path d="M204.659 17.8551C205.391 17.3191 208.221 17.0267 208.465 17.0754C208.806 17.4166 208.855 17.709 208.806 17.8064C208.806 17.9526 205.391 18.2937 204.659 17.8551Z" fill="#F05942"/>
<path d="M204.171 17.707C205.098 17.2197 208.758 16.9761 209.148 17.0248C209.636 17.3659 209.685 17.707 209.636 17.8045C209.636 17.902 205.196 18.1943 204.171 17.707Z" fill="#EF6837"/>
<path d="M203.979 17.7571C204.906 18.3419 208.566 18.7318 208.907 18.683C209.395 18.3419 209.493 18.0495 209.444 17.9521C209.444 17.8546 205.004 17.3673 203.979 17.7571Z" fill="#FF975C"/>
<path d="M204.123 17.6105C204.903 16.9282 208.124 16.2947 208.465 16.3435C208.904 16.6846 209.002 17.0257 208.953 17.1232C209.002 17.2206 205.098 18.049 204.123 17.6105Z" fill="#FE804E"/>
<path d="M204.075 18.0022C204.953 17.8073 207.93 18.7819 208.174 18.9768C208.467 19.4641 208.418 19.7565 208.369 19.854C208.32 19.9027 204.71 18.7819 204.075 18.0022Z" fill="#FE804E"/>
<path d="M204.075 18.0493C204.612 18.7803 207.296 20.4371 207.588 20.4859C208.076 20.4371 208.174 20.2422 208.174 20.1447C208.223 20.096 205.002 18.1468 204.075 18.0493Z" fill="#EA6F5E"/>
<path d="M204.174 17.1713C204.028 16.8302 203.54 16.4891 202.906 16.3916C202.808 16.3916 202.711 16.3429 202.662 16.3429C202.613 16.3429 202.564 16.2941 202.515 16.2941C202.272 16.0505 201.881 15.8556 201.442 15.7581H201.393C201.296 15.7094 201.247 15.7094 201.149 15.6606C200.954 15.3683 200.515 15.1246 199.978 15.0271C199.929 15.0271 199.929 15.0271 199.881 15.0271C199.637 14.7835 199.246 14.5886 198.758 14.4911C198.417 14.4424 198.075 14.4424 197.831 14.4911C197.636 14.3936 197.441 14.2962 197.197 14.2474C196.904 14.1987 196.611 14.1987 196.416 14.1987C196.416 14.1987 196.416 14.1987 196.367 14.1987C196.123 14.0038 195.782 13.8576 195.44 13.8089C195.001 13.7114 194.562 13.7601 194.269 13.8576C194.025 13.7114 193.733 13.5652 193.391 13.5165C193.196 13.4678 193.049 13.4678 192.854 13.4678C192.61 13.2241 192.22 13.0779 191.781 12.9804C191.098 12.8343 190.512 12.9804 190.219 13.2728C190.073 13.2241 189.927 13.1754 189.78 13.1754C189.341 13.1266 188.951 13.2728 188.756 13.4678C188.707 13.4678 188.658 13.4678 188.56 13.4678C188.463 13.419 188.316 13.3703 188.17 13.3216C187.828 13.2728 187.487 13.4678 187.34 13.7114C187.243 13.7601 187.145 13.8089 187.048 13.9063C186.413 13.9063 185.925 14.2962 185.877 14.7835C185.877 14.9297 185.877 15.0759 185.974 15.2221L185.925 15.2708C185.633 15.417 185.438 15.7094 185.389 16.0018C185.389 16.148 185.389 16.2941 185.486 16.4403C185.291 16.5865 185.145 16.8789 185.096 17.2688C185.047 17.6099 185.145 17.951 185.291 18.1459C185.389 18.6332 186.023 19.0231 186.853 19.1205C187.097 19.1205 187.34 19.1205 187.536 19.0718C187.877 19.2667 188.316 19.4617 188.853 19.5104C189.146 19.5591 189.439 19.5104 189.683 19.4617C189.975 19.6078 190.317 19.6566 190.658 19.7053C191.049 19.754 191.439 19.7053 191.732 19.6078C191.732 19.6078 191.732 19.6078 191.781 19.6078C192.074 19.8028 192.513 19.949 193.001 19.949C193.635 19.9977 194.22 19.8515 194.562 19.6078C195.05 19.6566 195.489 19.5591 195.782 19.4129C196.026 19.4617 196.367 19.5104 196.709 19.4617C197.051 19.4129 197.343 19.3155 197.587 19.1693C197.636 19.1693 197.636 19.1693 197.685 19.1693C197.929 19.2667 198.222 19.3155 198.563 19.2667C198.807 19.218 199.051 19.1205 199.197 19.0231C199.49 19.1693 199.929 19.2667 200.417 19.1693C200.905 19.1205 201.296 18.9256 201.54 18.682C201.637 18.682 201.686 18.682 201.784 18.6332C201.832 18.6332 201.832 18.6332 201.881 18.6332C202.369 18.7307 202.808 18.682 203.101 18.5358C204.077 18.5845 205.638 18.1459 204.174 17.1713Z" fill="#F8D581"/>
<path d="M204.705 18.0972C204.51 18.4383 203.681 18.5845 202.997 18.6332C202.705 18.7794 202.217 18.8282 201.729 18.7307C201.68 18.7307 201.68 18.7307 201.631 18.7307C201.582 18.7307 201.485 18.7307 201.387 18.7307C201.143 18.9744 200.753 19.1693 200.265 19.218C199.777 19.3155 199.338 19.218 199.045 19.0718C198.85 19.218 198.655 19.2667 198.411 19.3155C198.069 19.3642 197.776 19.3155 197.533 19.218H197.484C197.24 19.3642 196.947 19.4617 196.605 19.5104C196.264 19.5591 195.971 19.5591 195.678 19.4617C195.386 19.6079 194.946 19.7053 194.458 19.6566C194.117 19.9002 193.531 20.0464 192.897 19.9977C192.409 19.949 192.019 19.8028 191.677 19.6566H191.628C191.336 19.7541 190.945 19.8028 190.555 19.7541C190.213 19.7053 189.872 19.6566 189.579 19.5104C189.335 19.5591 189.042 19.5591 188.75 19.5591C188.213 19.5104 187.774 19.3642 187.432 19.1206C187.237 19.1693 186.993 19.1693 186.749 19.1206C185.919 19.0718 185.236 18.6332 185.139 18.1459C184.992 17.951 184.895 17.6586 184.944 17.2688C184.944 17.1226 184.992 16.9764 185.041 16.8302C185.041 16.8789 185.09 16.9277 185.09 16.9277C185.188 17.4637 185.871 17.951 186.798 18.0972C187.042 18.1459 187.286 18.1459 187.53 18.0972C187.871 18.3409 188.359 18.5358 188.945 18.6332C189.286 18.682 189.579 18.682 189.872 18.6332C190.165 18.7794 190.506 18.8769 190.945 18.9256C191.384 18.9744 191.775 18.9256 192.116 18.8769C192.116 18.8769 192.116 18.8769 192.165 18.8769C192.507 19.1206 192.946 19.2667 193.483 19.3155C194.166 19.4129 194.8 19.2667 195.19 19.0231C195.727 19.0718 196.166 19.0231 196.508 18.8282C196.801 18.9256 197.142 18.9256 197.484 18.8769C197.874 18.8282 198.216 18.7307 198.46 18.5358C198.508 18.5358 198.508 18.5358 198.557 18.5358C198.801 18.682 199.143 18.7307 199.484 18.682C199.777 18.6332 200.021 18.5358 200.216 18.4383C200.558 18.6332 201.046 18.7307 201.534 18.6332C202.07 18.5845 202.51 18.3409 202.802 18.0972C202.9 18.0972 202.949 18.0972 203.046 18.0972C203.095 18.0972 203.095 18.0972 203.144 18.1459C203.681 18.2921 204.169 18.2434 204.51 18.0972C204.559 18.0972 204.608 18.0972 204.705 18.0972Z" fill="#F4C960"/>
<path d="M202.805 22.9228C203.489 23.6051 206.123 24.1411 206.416 24.0924C206.758 23.7025 206.807 23.3614 206.758 23.2152C206.758 23.1178 203.537 22.4843 202.805 22.9228Z" fill="#F05942"/>
<path d="M202.319 23.0698C203.197 23.752 206.661 24.2393 207.003 24.1906C207.491 23.8008 207.54 23.4596 207.54 23.3134C207.54 23.216 203.343 22.5825 202.319 23.0698Z" fill="#EF6837"/>
<path d="M202.175 22.973C203.054 22.3882 206.567 22.0958 206.908 22.1933C207.347 22.6319 207.396 23.0217 207.396 23.1192C207.347 23.2654 203.151 23.5577 202.175 22.973Z" fill="#FF975C"/>
<path d="M202.319 23.1655C203.051 23.9939 206.076 25.0172 206.417 24.9685C206.856 24.5787 206.954 24.1888 206.954 24.0426C206.905 23.9452 203.197 22.7756 202.319 23.1655Z" fill="#FE804E"/>
<path d="M202.222 22.7283C203.051 23.0207 205.93 22.0461 206.174 21.8512C206.467 21.2664 206.418 20.9253 206.369 20.8278C206.369 20.7304 202.905 21.8512 202.222 22.7283Z" fill="#FE804E"/>
<path d="M202.269 22.68C202.854 21.8515 205.489 20.0972 205.782 19.9998C206.221 20.0972 206.319 20.3409 206.319 20.4383C206.319 20.5358 203.147 22.6312 202.269 22.68Z" fill="#EA6F5E"/>
<path d="M202.222 23.7525C202.076 23.85 201.929 23.9475 201.685 24.0937C200.124 24.6784 198.709 25.9454 196.952 26.2378C196.806 26.2866 196.611 26.3353 196.464 26.3353C195.635 26.5302 194.854 26.6277 194.025 26.7739C193.83 26.7739 193.634 26.8226 193.439 26.8226C191.878 26.8226 190.072 27.3586 188.413 27.2612C188.267 27.2612 188.121 27.2612 187.974 27.2124C187.828 27.2124 187.681 27.1637 187.535 27.115C187.34 27.0662 187.145 27.0175 186.95 26.9201C185.388 26.0916 184.12 24.6297 184.266 22.7292C184.266 22.583 184.266 22.4368 184.266 22.3393C184.266 22.047 184.266 21.8033 184.266 21.5597C184.315 21.316 184.412 21.1211 184.51 21.0236C184.607 20.9262 184.803 20.8774 185.095 20.78C185.242 20.7312 185.437 20.7312 185.583 20.6825C187.34 20.3414 189.145 20.1952 190.902 19.9515C191.097 19.9515 191.243 20.0003 191.439 20.0003C191.585 20.0003 191.78 20.049 191.927 20.0977C192.073 20.1465 192.268 20.1465 192.415 20.1952C192.902 20.3414 193.39 20.4388 193.878 20.5363C194.025 20.585 194.22 20.585 194.366 20.6338C196.123 20.5363 197.587 21.4135 199.392 21.6571C199.538 21.6571 199.685 21.7058 199.831 21.7058C200.563 21.8033 201.344 21.9008 202.076 22.0957C202.271 22.1444 202.417 22.2419 202.564 22.3393C203.052 22.7292 203.052 23.1678 202.222 23.7525Z" fill="#F8D581"/>
<path d="M186.854 25.2635C187 24.3376 186.122 23.9478 185.39 24.1427C185.195 24.3376 185.048 24.4838 184.853 24.6788C184.512 25.2148 184.512 25.7508 184.853 26.0919C185.39 26.628 186.463 26.2869 186.756 25.7021C186.854 25.5559 186.854 25.4097 186.854 25.2635Z" fill="#F8D581"/>
<path d="M186.461 23.7996C186.265 23.0687 185.534 22.3377 184.85 22.7276C184.119 23.2636 184.119 24.5306 185.046 25.0666C185.582 25.2616 186.119 24.7255 186.412 24.2869C186.461 24.092 186.461 23.9458 186.461 23.7996Z" fill="#F8D581"/>
<path d="M185.142 22.2894C185.142 22.1432 185.142 21.997 185.093 21.8508C184.996 21.4122 184.801 21.1686 184.557 21.1686C184.41 21.1686 184.264 21.3148 184.166 21.5097C184.069 21.8508 184.02 22.1432 184.02 22.4356C184.02 22.5818 184.02 22.728 184.069 22.8742C183.971 23.4102 184.313 23.4102 184.703 23.4102C184.898 23.2153 185.045 23.0691 185.142 22.728C185.142 22.6305 185.142 22.4356 185.142 22.2894Z" fill="#F8D581"/>
<path d="M189.44 21.071C189.147 19.6578 187.39 19.5116 186.463 20.1938C185.731 20.7299 186.122 21.9969 187 22.1918C187.732 22.3867 188.415 21.9969 189.196 21.607C189.342 21.4121 189.44 21.2659 189.44 21.071Z" fill="#F8D581"/>
<path d="M187.586 21.3631C187 20.5834 186.268 20.0473 185.487 20.2423C185.341 20.291 185.195 20.3884 185.048 20.4859C184.951 20.5346 184.804 20.5834 184.707 20.6808C184.56 20.7783 184.463 20.9245 184.365 21.0707C184.268 21.2169 184.268 21.3631 184.268 21.5093C184.268 21.8504 184.414 22.0453 184.609 22.1915C184.756 22.3377 184.951 22.4351 185.097 22.4839C185.341 22.4839 185.585 22.5326 185.829 22.5326C185.975 22.5326 186.073 22.5326 186.219 22.4839C186.61 22.2889 187 22.094 187.342 21.8504C187.537 21.7042 187.586 21.558 187.586 21.3631Z" fill="#F8D581"/>
<path d="M191.291 20.9244C191.193 20.7782 191.095 20.632 190.998 20.5346C190.9 20.4371 190.803 20.3396 190.705 20.2422C189.534 19.3163 187.338 19.9985 188.07 21.6554C188.412 22.3863 189.339 22.3863 190.217 22.0452C190.412 22.0452 190.559 21.9965 190.705 21.899C190.851 21.8016 190.949 21.7041 191.047 21.5579C191.242 21.3143 191.291 21.1193 191.291 20.9244Z" fill="#F8D581"/>
<path d="M193.533 20.7786C193.338 20.3401 193.142 20.1939 192.898 20.0477C192.801 19.9502 192.654 19.9015 192.557 19.8528C192.411 19.804 192.264 19.7553 192.118 19.7553C191.971 19.7066 191.874 19.7066 191.727 19.6578C191.581 19.6578 191.483 19.6578 191.337 19.6578C191.191 19.6578 191.044 19.7066 190.898 19.7553C190.215 19.804 189.532 21.4122 190.605 21.6558C190.752 21.7533 190.898 21.8507 191.044 21.8995C191.191 21.9482 191.337 21.9969 191.532 21.9969C191.679 21.9969 191.825 21.9969 192.02 21.9482C192.411 21.7533 192.947 21.5583 193.289 21.3147C193.435 21.2172 193.533 21.0223 193.533 20.7786Z" fill="#F8D581"/>
<path d="M189.389 26.53C188.999 26.0914 188.803 25.5554 187.974 25.799C187.925 25.8965 187.827 25.9452 187.73 25.9939C187.437 26.1889 187.047 26.4325 187.193 26.9686C187.242 27.1148 187.34 27.2122 187.437 27.3097C187.681 27.5046 188.023 27.5046 188.364 27.3584C188.462 27.3097 188.608 27.261 188.706 27.2122C188.999 27.1148 189.194 26.9198 189.34 26.8711C189.389 26.8224 189.389 26.6762 189.389 26.53Z" fill="#F8D581"/>
<path d="M191.633 26.4813C191.145 25.2143 189.73 25.4092 188.803 26.0915C188.266 26.6275 188.608 27.3585 189.145 27.6996C190.023 28.2356 190.95 27.6996 191.438 27.0661C191.584 26.8712 191.633 26.6762 191.633 26.4813Z" fill="#F8D581"/>
<path d="M193.483 26.1895C193.142 25.6047 192.605 25.0687 191.873 25.2149C190.995 25.4098 189.873 26.287 190.605 27.2129C191.483 28.09 192.605 27.4078 193.337 26.7743C193.435 26.5794 193.483 26.3844 193.483 26.1895Z" fill="#F8D581"/>
<path d="M195.045 25.8969C194.899 25.2147 194.167 25.2146 193.63 25.1172C193.484 25.1172 193.337 25.1172 193.24 25.1659C192.557 25.0197 192.41 25.5558 192.215 25.9456C191.874 26.6766 192.557 27.0177 193.191 27.1152C193.337 27.1152 193.484 27.1639 193.581 27.1152C193.728 27.1152 193.825 27.0664 193.972 27.0664C194.118 27.0177 194.216 26.969 194.313 26.9202C194.704 26.8228 194.85 26.6766 194.948 26.2867C195.045 26.1405 195.094 25.9943 195.045 25.8969Z" fill="#F8D581"/>
<path d="M196.755 25.4569C196.364 24.4823 195.437 24.6772 194.705 24.8722C194.169 25.0671 193.437 25.4082 193.827 26.1392C194.364 27.2112 195.974 26.8701 196.706 25.8955C196.755 25.7006 196.755 25.6031 196.755 25.4569Z" fill="#F8D581"/>
<path d="M198.271 25.2618C197.93 24.8232 197.393 24.4821 196.807 24.4333C196.661 24.4333 196.515 24.4821 196.417 24.5308C196.027 24.677 195.685 24.9694 195.441 25.408C195.246 26.1389 196.173 26.8212 196.856 26.675C197.003 26.6262 197.149 26.5775 197.247 26.5288C197.588 26.3339 197.93 26.3339 198.174 25.7004C198.271 25.5542 198.32 25.408 198.271 25.2618Z" fill="#F8D581"/>
<path d="M199.439 24.6783C198.854 23.7524 197.585 23.5574 196.805 24.4346C196.707 24.5808 196.658 24.6783 196.658 24.8244C196.658 24.9706 196.658 25.1168 196.756 25.263C196.805 25.4092 196.902 25.5554 197.049 25.7016C197.927 26.2376 198.659 25.5067 199.391 25.0681C199.439 24.9706 199.488 24.8244 199.439 24.6783Z" fill="#F8D581"/>
<path d="M200.854 23.9462C200.318 22.8742 198.854 23.0691 198.122 23.6051C197.585 24.3361 198.659 25.2133 199.391 25.2133C199.732 25.0183 200.269 24.8721 200.659 24.531C200.806 24.3361 200.903 24.1412 200.854 23.9462Z" fill="#F8D581"/>
<path d="M202.366 23.2638C202.366 23.1176 202.318 23.0202 202.22 22.874C201.976 22.6303 201.683 22.4841 201.39 22.4841C201.244 22.4841 201.098 22.4841 200.951 22.4841C200.171 22.8252 199.244 23.2151 199.585 24.0922C200.122 24.9694 201.195 24.4334 202.025 24.0435C202.122 23.9461 202.22 23.7999 202.318 23.6537C202.366 23.5562 202.366 23.41 202.366 23.2638Z" fill="#F8D581"/>
<path d="M201.637 22.4843C201.295 21.7046 200.563 21.5097 199.929 21.6559C199.783 21.7046 199.587 21.7534 199.441 21.8508C199.295 21.8996 199.197 21.997 199.099 22.0945C198.514 22.8255 198.856 23.8975 199.783 23.7513C200.515 23.7513 201.198 23.5564 201.588 22.8742C201.637 22.7767 201.637 22.6305 201.637 22.4843Z" fill="#F8D581"/>
<path d="M199.973 22.4363C199.924 22.2414 199.924 22.0952 199.876 21.9977C199.827 21.8515 199.778 21.754 199.68 21.6566C199.632 21.5591 199.534 21.4617 199.436 21.4129C198.705 21.1205 197.436 20.7307 197.29 21.6566C197.192 21.9977 197.241 22.2901 197.387 22.485C197.485 22.5825 197.582 22.6799 197.729 22.7287C198.363 23.216 199.095 23.0698 199.827 22.7774C199.876 22.6799 199.924 22.5825 199.973 22.4363Z" fill="#F8D581"/>
<path d="M196.462 21.8027C196.169 20.9255 195.096 19.9996 194.12 20.4869C193.973 20.5844 193.876 20.6818 193.778 20.828C193.681 20.9742 193.632 21.1204 193.632 21.3153C193.681 21.5103 193.729 21.7052 193.827 21.8514C193.925 21.9976 194.071 22.1438 194.217 22.2412C194.9 22.9235 195.632 22.3874 196.267 22.1438C196.364 22.0463 196.413 21.9488 196.462 21.8027Z" fill="#F8D581"/>
<path d="M194.656 21.0713C194.705 20.7302 194.559 20.3891 194.168 20.3403C194.022 20.2916 193.876 20.2429 193.729 20.1941C193.29 20.0967 192.753 20.1941 192.412 20.3403C192.265 20.3891 192.119 20.4865 191.973 20.584C191.631 20.9251 191.631 21.3149 191.777 21.6561C191.875 21.851 192.021 21.9484 192.168 22.0459C192.509 22.1921 192.949 22.1921 193.388 22.0459C193.534 21.9972 193.68 21.9484 193.827 21.8997C193.973 21.8023 194.168 21.6073 194.51 21.4124C194.656 21.3149 194.705 21.1688 194.656 21.0713Z" fill="#F8D581"/>
<path d="M197.881 22.0939C197.979 21.4604 197.442 21.0706 196.905 20.7295C196.369 20.5345 195.1 21.2655 195.49 21.9965C195.539 22.0939 195.637 22.2401 195.734 22.3376C195.832 22.435 195.978 22.5325 196.076 22.63C196.564 22.5325 196.905 23.0685 197.345 22.7762C197.491 22.7274 197.589 22.63 197.686 22.4838C197.784 22.3376 197.832 22.2401 197.881 22.0939Z" fill="#F8D581"/>
<path d="M187.582 26.1893C187.387 25.5558 186.997 25.2147 186.46 25.4096C186.118 25.6045 185.728 25.7507 185.728 26.2867C185.923 27.1639 187.338 27.5537 187.485 26.5791C187.582 26.4329 187.582 26.3355 187.582 26.1893Z" fill="#F8D581"/>
<path d="M184.508 23.1674C184.411 23.3623 184.313 23.5085 184.313 23.7034C184.313 23.6059 184.264 23.4598 184.264 23.3623C184.069 23.3136 183.972 23.1674 184.02 22.8263C184.02 22.6801 183.972 22.5339 183.972 22.3877C183.972 22.144 184.02 21.9491 184.069 21.7054C184.069 21.8029 184.069 21.9004 184.118 21.9978C184.069 22.3389 184.167 22.6801 184.411 22.9724C184.46 23.0699 184.508 23.1186 184.508 23.1674Z" fill="#F8D581"/>
<path d="M202.269 23.7039C202.22 23.8501 202.123 23.9475 202.025 24.045C201.586 24.2887 201.049 24.5323 200.561 24.581C200.317 24.776 200.025 24.9222 199.732 25.0196C199.293 25.2633 198.854 25.5069 198.414 25.7019C198.317 25.7506 198.219 25.7993 198.122 25.848C197.878 26.2866 197.585 26.2866 197.292 26.4815C197.146 26.5303 197.048 26.579 196.902 26.6277C196.609 26.7252 196.267 26.6277 196.023 26.4328C195.633 26.6765 195.145 26.7739 194.755 26.7252C194.657 26.8227 194.56 26.8714 194.364 26.8714C194.267 26.9201 194.12 26.9689 194.023 27.0176C193.877 27.0663 193.779 27.0663 193.633 27.0663C193.486 27.0663 193.34 27.0663 193.242 27.0663C193.145 27.0663 193.096 27.0176 192.998 27.0176C192.413 27.4074 191.73 27.7485 191.095 27.4562C190.559 27.8947 189.875 28.0897 189.192 27.6998C188.997 27.6024 188.851 27.4074 188.753 27.2612C188.753 27.2612 188.753 27.2612 188.704 27.2612C188.607 27.31 188.46 27.3587 188.363 27.4074C188.021 27.5049 187.68 27.5049 187.436 27.3587C187.338 27.31 187.289 27.2125 187.241 27.0663C186.801 27.3587 185.972 27.0176 185.825 26.3841C185.484 26.4328 185.142 26.3841 184.898 26.1404C184.606 25.848 184.41 25.4095 184.654 24.9709C184.606 24.9222 184.459 24.776 184.459 24.7272C184.313 24.5323 183.922 23.8988 184.362 23.4115C184.41 23.5577 184.508 24.3374 184.654 24.4349C184.801 24.581 184.947 24.6298 185.094 24.6785C185.289 24.7272 185.435 24.7272 185.63 24.7272C185.679 24.8734 185.777 25.0196 185.874 25.1658C185.972 25.2633 186.118 25.4095 186.265 25.4582C186.411 25.5069 186.557 25.5557 186.753 25.6044C186.85 25.6044 187.24 25.4095 187.436 25.848C187.582 25.9455 187.728 25.9942 187.875 25.9942C188.021 25.9942 188.216 25.9942 188.412 25.9455C189.583 26.4815 190.656 26.4815 191.925 26.2866C192.12 26.2866 192.266 26.2866 192.461 26.2379C192.559 26.1892 192.705 26.1892 192.803 26.1404C193.291 25.7993 193.633 25.9455 194.218 25.8968C194.364 25.8968 194.511 25.8968 194.657 25.848C194.804 25.7993 194.95 25.7506 195.048 25.7019C195.828 25.5557 195.975 25.5557 196.609 25.7506C196.755 25.7993 197.682 25.6044 197.829 25.6044C197.975 25.5557 198.122 25.5069 198.268 25.5069C198.414 25.4095 198.61 25.3607 198.756 25.312C198.902 25.2145 199.097 25.1171 199.195 24.9222C199.341 24.7272 199.732 24.7272 199.927 24.6785C200.073 24.6298 200.171 24.581 200.317 24.5323C200.561 24.4348 200.805 24.3374 201.049 24.1912C201.342 24.0937 201.684 23.9475 201.976 23.8013C202.074 23.7526 202.172 23.7039 202.269 23.7039Z" fill="#F4C960"/>
<path d="M191.437 24.7739C191.485 24.7252 191.534 24.6277 191.583 24.579C191.534 24.579 191.534 24.6277 191.485 24.6277C191.144 24.8714 190.802 24.9689 190.51 24.8227C190.412 24.7739 190.314 24.6765 190.217 24.579C189.826 25.0176 188.851 24.8714 188.46 24.2379C188.119 24.3841 187.728 24.4328 187.387 24.2379C187.192 24.1404 187.045 23.9942 186.899 23.7993C186.801 24.2866 187.094 24.6277 187.484 24.8714C187.777 25.0176 188.119 25.0176 188.411 24.8714C188.753 25.4562 189.631 25.5536 189.973 25.1638C190.07 25.2612 190.168 25.3587 190.266 25.4074C190.558 25.5049 190.851 25.4074 191.144 25.2125C191.193 25.1638 191.29 25.1151 191.339 25.0663C191.339 24.9689 191.388 24.8714 191.437 24.7739Z" fill="#F4C960"/>
<path d="M198.904 23.8501C198.709 24.0938 198.465 24.1912 198.221 24.1425C198.172 24.2399 198.123 24.2887 198.026 24.2887C197.977 24.3374 197.879 24.4349 197.83 24.4349C197.782 24.4836 197.684 24.4836 197.635 24.5323C197.586 24.5323 197.489 24.5323 197.391 24.5323C197.342 24.5323 197.294 24.5323 197.245 24.4836C197.147 24.6298 197.001 24.776 196.903 24.9222C196.952 24.9222 197.05 24.9222 197.098 24.9222C197.147 24.9222 197.245 24.8734 197.294 24.8734C197.342 24.8247 197.391 24.776 197.44 24.7273C197.538 24.6785 197.586 24.6298 197.635 24.5811C197.83 24.6298 198.074 24.5323 198.221 24.2887C198.367 24.4349 198.514 24.4836 198.66 24.3861C198.709 24.3374 198.806 24.2887 198.855 24.2399C198.953 24.0938 199.05 24.045 199.148 23.8988C199.099 23.9963 199.001 23.9476 198.904 23.8501Z" fill="#F4C960"/>
<path d="M173.243 29.8902C173.145 29.8415 173.096 29.8902 173.048 29.9877L172.999 30.1339C172.95 30.2313 172.999 30.2801 173.096 30.3288L211.205 46.7511C211.302 46.7998 211.351 46.7511 211.4 46.6536L211.839 45.679C211.888 45.5815 211.839 45.4841 211.741 45.4841L173.243 29.8902Z" fill="#DBAC7A"/>
<path d="M211.397 46.5578L211.348 46.6553C211.299 46.7527 211.201 46.7527 211.153 46.7527L173.044 30.3304C172.947 30.2817 172.947 30.233 172.947 30.1355L211.397 46.5578Z" fill="#A1764F"/>
<path d="M172.655 31.014C172.557 30.9653 172.508 31.014 172.459 31.1115L172.411 31.2576C172.362 31.3551 172.411 31.4038 172.459 31.4526L210.177 48.752C210.275 48.8008 210.324 48.752 210.373 48.6546L210.812 47.6799C210.86 47.5825 210.812 47.485 210.714 47.485L172.655 31.014Z" fill="#DBAC7A"/>
<path d="M210.416 48.6035L210.367 48.701C210.319 48.7984 210.221 48.7984 210.172 48.7984L172.454 31.499C172.357 31.4503 172.357 31.3528 172.406 31.3041L210.416 48.6035Z" fill="#A1764F"/>
<path d="M218.078 25.3584C218.078 28.9645 215.15 31.8884 211.539 31.8884C207.929 31.8884 205.001 28.9645 205.001 25.3584C205.001 21.7523 207.929 18.8285 211.539 18.8285C215.199 18.8772 218.078 21.7523 218.078 25.3584Z" fill="#E1FDFF"/>
<path d="M216.959 25.361C216.959 28.3336 214.568 30.7702 211.543 30.7702C208.567 30.7702 206.127 28.3823 206.127 25.361C206.127 22.3884 208.567 19.9519 211.543 19.9519C214.568 20.0006 216.959 22.3884 216.959 25.361Z" fill="#C1554D"/>
<path opacity="0.4" d="M207.687 26.7742C207.687 23.8016 210.127 21.3651 213.104 21.3651C214.177 21.3651 215.153 21.6575 215.982 22.1935C215.007 20.8291 213.396 19.9519 211.591 19.9519C208.615 19.9519 206.175 22.3397 206.175 25.361C206.175 27.2615 207.151 28.9671 208.663 29.893C208.029 29.0158 207.687 27.9438 207.687 26.7742Z" fill="#B24D45"/>
<path d="M209.982 28.966C210.519 29.3559 211.202 29.5995 211.934 29.5995C213.934 29.697 215.593 28.1863 215.691 26.2371C215.74 25.4087 215.447 24.629 214.959 23.9955C214.666 23.6056 214.081 23.8005 214.081 24.2879V24.3366C214.081 26.2371 212.373 27.8452 210.421 27.7965H210.372C209.738 27.7477 209.445 28.5762 209.982 28.966Z" fill="#C7635A"/>
<path d="M209.181 36.2273C209.637 33.411 207.721 30.7586 204.901 30.303C202.081 29.8474 199.425 31.7611 198.969 34.5774C198.513 37.3937 200.429 40.0461 203.249 40.5017C206.069 40.9573 208.725 39.0435 209.181 36.2273Z" fill="#E1FDFF"/>
<path d="M204.073 39.9783C206.606 39.9783 208.66 37.9274 208.66 35.3976C208.66 32.8677 206.606 30.8169 204.073 30.8169C201.54 30.8169 199.487 32.8677 199.487 35.3976C199.487 37.9274 201.54 39.9783 204.073 39.9783Z" fill="#F8D581"/>
<path d="M200.755 36.6154C200.755 34.0814 202.805 32.0347 205.342 32.0347C206.269 32.0347 207.098 32.2783 207.782 32.7656C206.952 31.5961 205.586 30.8651 204.073 30.8651C201.536 30.8651 199.487 32.9118 199.487 35.4458C199.487 37.0539 200.316 38.4671 201.585 39.2956C201.097 38.5159 200.755 37.59 200.755 36.6154Z" fill="#F8D581"/>
<path d="M202.709 38.4185C203.197 38.7596 203.733 38.9545 204.368 38.9545C206.075 39.0032 207.49 37.7362 207.539 36.1281C207.588 35.4459 207.344 34.7636 206.954 34.2276C206.71 33.9352 206.222 34.0814 206.222 34.4713C206.222 34.4713 206.222 34.4713 206.222 34.52C206.222 36.1281 204.807 37.4926 203.148 37.4438H203.099C202.513 37.4438 202.269 38.1261 202.709 38.4185Z" fill="#FFE29C"/>
</g>
</svg>
