<svg width="86" height="119" viewBox="0 0 86 119" fill="none" xmlns="http://www.w3.org/2000/svg">
<path d="M0.487536 73.7932C0.313465 72.8665 0.151897 72.0472 0.0241272 71.2226C-0.163777 70.01 0.756633 68.4071 2.40939 68.4314C6.39866 68.4901 10.3894 68.451 14.3795 68.451C37.2617 68.4511 60.1439 68.459 83.0261 68.4297C84.295 68.4281 85.3245 68.5777 85.766 69.9278C85.8858 70.294 86.0314 70.6953 85.994 71.0631C85.1611 79.2579 82.7204 86.9145 77.8673 93.6259C75.189 97.3299 71.9469 100.572 68.2088 103.259C64.212 106.131 59.8577 108.285 55.1194 109.647C54.822 109.733 54.5406 109.874 54.4264 109.92C55.1112 111.76 55.8125 113.533 56.4284 115.336C56.866 116.616 56.206 117.764 54.9291 118.063C54.4993 118.164 54.0428 118.183 53.5985 118.184C46.5547 118.191 39.5109 118.192 32.4671 118.187C29.8229 118.186 29.0611 117.164 29.7975 114.58C30.0279 113.771 30.2968 112.965 30.6401 112.2C30.9802 111.441 31.4363 110.734 31.872 109.95C27.4487 108.775 23.3629 106.922 19.5868 104.45C14.5706 101.165 10.4066 96.9975 7.09675 91.9766C3.58204 86.6451 1.49175 80.7897 0.517965 74.5084C0.487156 74.3096 0.514774 74.1018 0.487536 73.7932Z" fill="#0088B0"/>
<path d="M39.4706 44.0158C38.8283 44.0554 38.1859 44.095 37.2802 44.1509C36.703 40.4162 36.1256 36.68 35.5352 32.8603C37.9944 32.549 40.2384 32.2649 42.4823 31.9809C42.4779 31.9138 42.4734 31.8467 42.4689 31.7795C40.2364 31.6174 38.004 31.4552 35.4586 31.2703C35.4586 29.4199 35.4212 27.5355 35.5012 25.6562C35.5124 25.3909 36.0606 25.041 36.4232 24.9225C37.0228 24.7265 37.6735 24.687 38.2976 24.4396C37.4475 24.2893 36.5973 24.1389 35.6769 23.9762C35.848 21.4118 36.5125 19.0367 38.2274 17.0742C36.9576 16.1194 35.6736 15.2356 34.4988 14.2248C34.1036 13.8849 33.8029 13.2167 33.818 12.7092C33.8257 12.4497 34.6262 12.2137 35.0953 11.952C34.2278 10.3729 32.1301 9.0323 33.5421 6.49876C34.4383 6.80634 35.3047 7.10366 36.1149 7.38172C35.8187 6.13842 35.4847 4.83443 35.2071 3.51856C35.1087 3.05199 35.1026 2.55363 35.1329 2.07476C35.1965 1.07133 35.5441 0.241129 36.6774 0.0420784C37.8237 -0.159242 38.6158 0.376503 39.1386 1.33518C40.4573 3.75318 40.8496 6.40985 41.118 9.24694C41.3744 8.62803 41.4841 8.02536 41.8284 7.62375C42.2001 7.19007 42.7912 6.94436 43.2866 6.61666C43.608 7.10952 44.1639 7.58473 44.2025 8.09885C44.2858 9.20488 44.1027 10.3309 44.0222 11.5467C44.5832 11.1928 45.0544 10.8072 45.5922 10.5771C46.4045 10.2295 47.1341 10.5835 46.9044 11.4428C46.5978 12.5894 45.9855 13.6814 45.3555 14.7051C44.9227 15.4082 44.2366 15.9555 43.6286 16.6102C46.6363 18.6984 47.5221 21.8649 48.4063 25.194C47.4608 25.5388 46.5393 25.8749 45.2755 26.3359C46.5517 26.3359 47.4832 26.3359 48.5846 26.3359C48.8307 27.8804 49.1278 29.3445 49.2823 30.8235C49.4489 32.4181 49.4477 34.0297 49.5885 35.6278C49.6557 36.3907 49.3986 36.6751 48.6529 36.8196C46.2259 37.2899 43.8142 37.8387 41.416 38.4523C44.0848 38.4523 46.7536 38.4523 49.3632 38.4523C49.3632 40.1244 49.4498 41.7609 49.3433 43.3846C49.1747 45.9555 48.8461 48.5155 48.6505 51.085C48.5832 51.9704 48.3935 52.5446 47.3534 52.5368C46.9047 52.5334 46.4544 52.7451 46.0049 52.8591C46.0195 52.9612 46.0341 53.0633 46.0488 53.1655C46.7656 53.0941 47.4825 53.0227 48.4305 52.9284C48.1382 54.5533 47.9647 56.0547 47.5833 57.5014C47.1136 59.2831 46.5748 61.0623 45.8696 62.7612C45.311 64.107 44.275 64.1315 43.5758 62.8201C42.6183 61.0241 41.6556 59.1895 41.0392 57.2614C39.7907 53.3561 38.7728 49.377 37.6649 45.4269C37.6337 45.3156 37.661 45.1879 37.661 44.9659C38.277 44.7817 38.9104 44.5923 39.7043 44.3391C40.0078 44.2032 40.1508 44.1311 40.2938 44.059C40.2796 44.0084 40.2653 43.9578 40.2511 43.9072C39.9909 43.9434 39.7308 43.9796 39.4706 44.0158Z" fill="#0088B0"/>
<path d="M66.0983 59.6959C64.3636 60.696 62.564 60.6886 60.6017 60.5215C60.6017 61.8718 60.6017 63.2175 60.6017 64.7199C59.2961 64.4999 58.0315 64.2869 56.5039 64.0296C57.1337 62.4093 57.6893 61.0069 58.2177 59.5943C58.3054 59.3597 58.3975 58.9757 58.28 58.8382C56.829 57.1409 57.24 55.2581 58.0668 53.604C58.9558 51.8254 60.1264 50.1262 61.4502 48.6378C65.1559 44.4715 68.5912 40.1925 69.7608 34.5405C69.8962 33.8862 70.2296 33.2612 70.5382 32.6568C71.1293 31.4994 71.6833 31.3922 72.554 32.3067C74.8525 34.7207 75.7319 37.6873 75.7422 40.9425C75.7595 46.4331 73.7506 51.2476 70.4858 55.5254C69.2946 57.0861 67.6259 58.2825 66.0983 59.6959Z" fill="#0088B0"/>
<path d="M25.2136 52.6918C26.461 56.5108 24.7112 60.443 21.57 62.1565C18.2688 63.9572 14.6866 63.6295 11.8724 60.9124C9.49191 58.614 8.70629 55.3494 10.1506 51.9164C11.4777 48.762 14.7027 46.8652 18.2278 47.1019C21.3699 47.3128 24.2735 49.6068 25.2136 52.6918ZM15.2085 52.7175C15.3812 52.6493 15.6218 52.6312 15.7155 52.5046C16.2665 51.759 16.8972 51.6548 17.6719 52.1475C17.8229 52.2435 18.0476 52.2236 18.2383 52.2572C17.2738 51.3045 16.9294 50.2785 17.4852 48.9622C17.0314 49.3472 16.5777 49.7322 16.1011 50.1366C15.5975 49.9546 15.054 49.7582 14.5105 49.5617C15.2178 50.4883 15.8097 51.3651 15.2085 52.7175Z" fill="#0088B0"/>
<path d="M25.7055 30.9228C27.9364 32.576 29.3268 34.716 29.9866 37.29C30.5922 39.6526 30.389 42.0113 29.5791 44.4182C27.4823 44.1841 25.6133 43.4372 23.9137 42.2562C20.7606 40.0654 19.3924 36.8838 19.1735 33.1936C19.0994 31.9431 19.477 30.653 19.756 29.4051C19.812 29.1551 20.4434 28.7801 20.6637 28.8608C22.3408 29.4751 23.9816 30.1882 25.7055 30.9228Z" fill="#0088B0"/>
</svg>
