<svg width="98" height="15" viewBox="0 0 98 15" fill="none" xmlns="http://www.w3.org/2000/svg">
<path d="M8.70712 1.06343L10.0137 3.67655C10.1918 4.04031 10.667 4.38922 11.0678 4.45603L13.436 4.84948C14.9504 5.10188 15.3067 6.20058 14.2154 7.28443L12.3744 9.12549C12.0626 9.43728 11.8918 10.0386 11.9884 10.4692L12.5154 12.7482C12.9312 14.5522 11.9735 15.25 10.3774 14.3072L8.15777 12.9932C7.75689 12.7556 7.09619 12.7556 6.68789 12.9932L4.46823 14.3072C2.87957 15.25 1.9145 14.5447 2.33022 12.7482L2.8573 10.4692C2.95381 10.0386 2.78307 9.43728 2.47127 9.12549L0.630215 7.28443C-0.453633 6.20058 -0.104723 5.10188 1.4097 4.84948L3.77783 4.45603C4.17128 4.38922 4.64639 4.04031 4.82456 3.67655L6.13112 1.06343C6.84379 -0.354478 8.00187 -0.354478 8.70712 1.06343Z" fill="#F49342"/>
<path d="M29.4948 1.06343L30.8013 3.67655C30.9795 4.04031 31.4546 4.38922 31.8555 4.45603L34.2236 4.84948C35.738 5.10188 36.0944 6.20058 35.0031 7.28443L33.162 9.12549C32.8503 9.43728 32.6795 10.0386 32.776 10.4692L33.3031 12.7482C33.7188 14.5522 32.7612 15.25 31.1651 14.3072L28.9454 12.9932C28.5446 12.7556 27.8838 12.7556 27.4755 12.9932L25.2559 14.3072C23.6672 15.25 22.7022 14.5447 23.1179 12.7482L23.645 10.4692C23.7415 10.0386 23.5707 9.43728 23.2589 9.12549L21.4179 7.28443C20.334 6.20058 20.6829 5.10188 22.1974 4.84948L24.5655 4.45603C24.9589 4.38922 25.4341 4.04031 25.6122 3.67655L26.9188 1.06343C27.6314 -0.354478 28.7895 -0.354478 29.4948 1.06343Z" fill="#F49342"/>
<path d="M50.2827 1.06343L51.5892 3.67655C51.7674 4.04031 52.2425 4.38922 52.6434 4.45603L55.0115 4.84948C56.5259 5.10188 56.8823 6.20058 55.791 7.28443L53.9499 9.12549C53.6382 9.43728 53.4674 10.0386 53.5639 10.4692L54.091 12.7482C54.5067 14.5522 53.5491 15.25 51.953 14.3072L49.7333 12.9932C49.3325 12.7556 48.6718 12.7556 48.2635 12.9932L46.0438 14.3072C44.4551 15.25 43.4901 14.5447 43.9058 12.7482L44.4329 10.4692C44.5294 10.0386 44.3586 9.43728 44.0468 9.12549L42.2058 7.28443C41.1219 6.20058 41.4708 5.10188 42.9853 4.84948L45.3534 4.45603C45.7468 4.38922 46.222 4.04031 46.4001 3.67655L47.7067 1.06343C48.4193 -0.354478 49.5774 -0.354478 50.2827 1.06343Z" fill="#F49342"/>
<path d="M71.0703 1.06343L72.3769 3.67655C72.5551 4.04031 73.0302 4.38922 73.431 4.45603L75.7992 4.84948C77.3136 5.10188 77.6699 6.20058 76.5787 7.28443L74.7376 9.12549C74.4258 9.43728 74.2551 10.0386 74.3516 10.4692L74.8787 12.7482C75.2944 14.5522 74.3367 15.25 72.7407 14.3072L70.521 12.9932C70.1201 12.7556 69.4594 12.7556 69.0511 12.9932L66.8314 14.3072C65.2428 15.25 64.2777 14.5447 64.6934 12.7482L65.2205 10.4692C65.317 10.0386 65.1463 9.43728 64.8345 9.12549L62.9934 7.28443C61.9096 6.20058 62.2585 5.10188 63.7729 4.84948L66.1411 4.45603C66.5345 4.38922 67.0096 4.04031 67.1878 3.67655L68.4943 1.06343C69.207 -0.354478 70.3651 -0.354478 71.0703 1.06343Z" fill="#F49342"/>
<path d="M91.8582 1.06343L93.1648 3.67655C93.343 4.04031 93.8181 4.38922 94.219 4.45603L96.5871 4.84948C98.1015 5.10188 98.4578 6.20058 97.3666 7.28443L95.5255 9.12549C95.2137 9.43728 95.043 10.0386 95.1395 10.4692L95.6666 12.7482C96.0823 14.5522 95.1246 15.25 93.5286 14.3072L91.3089 12.9932C90.908 12.7556 90.2473 12.7556 89.839 12.9932L87.6194 14.3072C86.0307 15.25 85.0656 14.5447 85.4813 12.7482L86.0084 10.4692C86.1049 10.0386 85.9342 9.43728 85.6224 9.12549L83.7813 7.28443C82.6975 6.20058 83.0464 5.10188 84.5608 4.84948L86.929 4.45603C87.3224 4.38922 87.7975 4.04031 87.9757 3.67655L89.2822 1.06343C89.9949 -0.354478 91.153 -0.354478 91.8582 1.06343Z" fill="#F49342"/>
</svg>
