<svg width="38" height="30" viewBox="0 0 38 30" fill="none" xmlns="http://www.w3.org/2000/svg">
<path d="M31.0135 13.2591C31.0135 13.2591 31.5149 15.7133 31.6271 16.2279H29.4236C29.6413 15.6407 30.4792 13.3581 30.4792 13.3581C30.466 13.3779 30.6969 12.7577 30.8288 12.3751L31.0135 13.2591ZM38 3.27751V26.4997C38 28.248 36.5816 29.6664 34.8333 29.6664H3.16667C1.4184 29.6664 0 28.248 0 26.4997V3.27751C0 1.52924 1.4184 0.11084 3.16667 0.11084H34.8333C36.5816 0.11084 38 1.52924 38 3.27751ZM10.0608 19.8497L14.2302 9.61084H11.4264L8.83368 16.6039L8.55 15.1855L7.62639 10.4751C7.47465 9.82195 7.00625 9.63723 6.42569 9.61084H2.15729L2.11111 9.81535C3.15347 10.0792 4.08368 10.4619 4.89514 10.9435L7.25694 19.8497H10.0608ZM16.2885 19.8629L17.951 9.61084H15.299L13.6431 19.8629H16.2885ZM25.5181 16.5115C25.5312 15.3438 24.8188 14.4532 23.2948 13.7209C22.3646 13.2525 21.7972 12.9358 21.7972 12.4542C21.8104 12.0188 22.2788 11.5702 23.3212 11.5702C24.1854 11.5504 24.8188 11.7549 25.2938 11.9595L25.5312 12.0716L25.8941 9.85494C25.3729 9.65042 24.5417 9.41952 23.5191 9.41952C20.9 9.41952 19.0594 10.8181 19.0462 12.8105C19.0264 14.2817 20.3656 15.0997 21.3684 15.5945C22.391 16.0959 22.7406 16.4258 22.7406 16.8678C22.7274 17.5539 21.9094 17.8706 21.1507 17.8706C20.0951 17.8706 19.5278 17.7056 18.6635 17.323L18.3139 17.1581L17.9444 19.4605C18.5646 19.7442 19.7125 19.9949 20.9 20.0081C23.684 20.0147 25.4983 18.6358 25.5181 16.5115ZM34.8333 19.8629L32.6958 9.61084H30.6441C30.0108 9.61084 29.5292 9.79556 29.2587 10.4619L25.3201 19.8629H28.1042C28.1042 19.8629 28.5594 18.5963 28.6583 18.3258H32.0625C32.1417 18.6886 32.3792 19.8629 32.3792 19.8629H34.8333Z" fill="white"/>
</svg>
